<?xml version="1.0" encoding="UTF-8" standalone="no"?>
<svg
   xmlns:dc="http://purl.org/dc/elements/1.1/"
   xmlns:cc="http://creativecommons.org/ns#"
   xmlns:rdf="http://www.w3.org/1999/02/22-rdf-syntax-ns#"
   xmlns:svg="http://www.w3.org/2000/svg"
   xmlns="http://www.w3.org/2000/svg"
   id="svg1286"
   version="1.1"
   viewBox="0 0 79.375 25.301825"
   height="25.301825mm"
   width="79.375mm">
  <defs
     id="defs1280">
    <clipPath
       clipPathUnits="userSpaceOnUse"
       id="clipPath1043">
      <path
         d="m 268.769,13.514 h 65.462 v 20.867 h -65.462 z"
         id="path1041" />
    </clipPath>
  </defs>
  <metadata
     id="metadata1283">
    <rdf:RDF>
      <cc:Work
         rdf:about="">
        <dc:format>image/svg+xml</dc:format>
        <dc:type
           rdf:resource="http://purl.org/dc/dcmitype/StillImage" />
        <dc:title></dc:title>
      </cc:Work>
    </rdf:RDF>
  </metadata>
  <g
     transform="translate(117.5506,40.62115)"
     id="layer1">
    <g
       id="g1250"
       transform="matrix(1.2125281,0,0,-1.2125281,-443.44032,1.0667786)">
      <g
         transform="translate(329.7312,29.88)"
         id="g1019">
        <path
           id="path1021"
           style="fill:#4ab8a6;fill-opacity:1;fill-rule:nonzero;stroke:none"
           d="m 0,0 v -4.501 l 4.5,-4.5 V 0 Z" />
      </g>
      <g
         transform="translate(320.7303,34.3809)"
         id="g1023">
        <path
           id="path1025"
           style="fill:#9dce00;fill-opacity:1;fill-rule:nonzero;stroke:none"
           d="M 0,0 4.5,-4.502 H 9.001 V 0 Z" />
      </g>
      <path
         id="path1027"
         style="fill:#006055;fill-opacity:1;fill-rule:nonzero;stroke:none"
         d="m 329.731,29.88 h 4.5 v 4.501 h -4.5 z" />
      <g
         transform="translate(273.6468,26.7417)"
         id="g1029">
        <path
           id="path1031"
           style="fill:#006055;fill-opacity:1;fill-rule:nonzero;stroke:none"
           d="m 0,0 -4.878,-12.972 h 2.795 l 0.785,2.229 h 5.335 l 0.786,-2.229 H 7.691 L 2.813,0 Z M 1.352,-3.289 H 1.388 L 3.179,-8.35 h -3.617 z" />
      </g>
      <g
         style="fill:#006055;fill-opacity:1"
         transform="translate(285.6483,26.7417)"
         id="g1033">
        <path
           id="path1035"
           style="fill:#006055;fill-opacity:1;fill-rule:nonzero;stroke:none"
           d="m 0,0 -4.878,-12.972 h 2.795 l 0.786,2.229 h 5.335 l 0.785,-2.229 H 7.691 L 2.813,0 Z M 1.352,-3.289 H 1.388 L 3.179,-8.35 h -3.617 z" />
      </g>
      <g
         style="fill:#006055;fill-opacity:1"
         id="g1037">
        <g
           style="fill:#006055;fill-opacity:1"
           clip-path="url(#clipPath1043)"
           id="g1039">
          <g
             style="fill:#006055;fill-opacity:1"
             transform="translate(312.7856,17.3875)"
             id="g1045">
            <path
               id="path1047"
               style="fill:#006055;fill-opacity:1;fill-rule:nonzero;stroke:none"
               d="m 0,0 c 0,2.558 -6.943,0.548 -6.943,5.627 0,2.193 1.736,4.002 4.732,4.002 3.033,0 4.75,-1.992 4.824,-4.331 L 0,5.298 c -0.055,1.133 -0.859,1.955 -2.247,1.955 -1.261,0 -2.065,-0.621 -2.065,-1.461 0,-2.595 7.016,-0.549 7.016,-5.701 0,-2.32 -2.046,-3.965 -5.134,-3.965 -3.599,0 -4.933,2.229 -5.006,4.367 h 2.631 c 0.073,-1.059 0.84,-1.992 2.521,-1.992 C -0.859,-1.499 0,-0.95 0,0" />
          </g>
          <g
             style="fill:#006055;fill-opacity:1"
             transform="translate(316.4827,13.7698)"
             id="g1049">
            <path
               id="path1051"
               style="fill:#006055;fill-opacity:1;fill-rule:nonzero;stroke:none"
               d="m 0,0 v 12.972 h 5.481 c 2.978,0 4.312,-1.589 4.312,-3.563 C 9.793,8.057 9.099,7.034 7.984,6.541 9.172,6.084 9.975,5.061 9.975,3.672 9.975,1.443 8.532,0 5.718,0 Z M 2.595,10.55 V 7.736 h 2.868 c 1.023,0 1.644,0.475 1.644,1.407 0,0.767 -0.475,1.407 -1.644,1.407 z m 0,-5.197 v -2.96 h 3.05 c 1.133,0 1.644,0.567 1.644,1.481 0,0.877 -0.511,1.479 -1.644,1.479 z" />
          </g>
          <g
             style="fill:#006055;fill-opacity:1"
             transform="translate(302.0471,17.8805)"
             id="g1053">
            <path
               id="path1055"
               style="fill:#006055;fill-opacity:1;fill-rule:nonzero;stroke:none"
               d="m 0,0 c -0.563,-1.165 -1.72,-1.809 -3.175,-1.809 -2.375,0 -3.709,1.645 -3.709,4.202 0,2.558 1.334,4.203 3.709,4.203 1.736,0 3.051,-0.914 3.434,-2.54 H 3.11 c -0.493,3.161 -3.051,5.08 -6.285,5.08 -3.727,0 -6.522,-2.687 -6.522,-6.743 0,-4.056 2.795,-6.741 6.522,-6.741 2.977,0 5.378,1.625 6.127,4.348 z" />
          </g>
        </g>
      </g>
    </g>
  </g>
</svg>
