<svg width="229" height="118" viewBox="0 0 229 118" fill="none" xmlns="http://www.w3.org/2000/svg">
<rect width="229" height="118" fill="white"/>
<g clip-path="url(#clip0_21_1212)">
<path fill-rule="evenodd" clip-rule="evenodd" d="M134.844 75.8836C125.023 83.1325 110.789 87 98.5329 87C81.3482 87 65.8775 80.6351 54.1734 70.0491C53.2538 69.2167 54.0777 68.0822 55.1812 68.7305C67.8123 76.0899 83.43 80.5173 99.5628 80.5173C110.443 80.5173 122.412 78.263 133.417 73.5852C135.08 72.878 136.47 74.6754 134.844 75.8836" fill="#FF9900"/>
<path fill-rule="evenodd" clip-rule="evenodd" d="M138.927 71.2057C137.676 69.5997 130.629 70.4469 127.466 70.8226C126.502 70.9405 126.355 70.1007 127.223 69.4966C132.836 65.5407 142.046 66.6825 143.12 68.0085C144.194 69.3419 142.841 78.5872 137.566 82.9998C136.757 83.6776 135.984 83.3166 136.345 82.4179C137.529 79.4564 140.185 72.819 138.927 71.2057" fill="#FF9900"/>
<path fill-rule="evenodd" clip-rule="evenodd" d="M127.686 41.5693V37.7238C127.686 37.1419 128.128 36.7514 128.657 36.7514H145.85C146.401 36.7514 146.843 37.1492 146.843 37.7238V41.0168C146.835 41.5693 146.372 42.2912 145.548 43.4331L136.639 56.1702C139.95 56.0891 143.444 56.5827 146.445 58.2771C147.122 58.6601 147.306 59.22 147.358 59.7725V63.8758C147.358 64.4357 146.74 65.0913 146.092 64.7524C140.803 61.9752 133.778 61.6731 127.929 64.7819C127.333 65.106 126.708 64.4578 126.708 63.8979V60.0009C126.708 59.3747 126.715 58.3065 127.341 57.3562L137.662 42.5343H128.68C128.128 42.5343 127.686 42.1439 127.686 41.5693" fill="black"/>
<path fill-rule="evenodd" clip-rule="evenodd" d="M64.9726 65.5628H59.7421C59.2419 65.5259 58.8446 65.1502 58.8079 64.6714V37.7902C58.8079 37.2524 59.2566 36.8251 59.8157 36.8251H64.693C65.2006 36.8472 65.6052 37.2377 65.642 37.7239V41.2378H65.7377C67.0103 37.8417 69.4012 36.2579 72.6233 36.2579C75.8969 36.2579 77.942 37.8417 79.4133 41.2378C80.6786 37.8417 83.555 36.2579 86.6374 36.2579C88.8296 36.2579 91.2278 37.164 92.6917 39.1972C94.3469 41.4588 94.0085 44.7444 94.0085 47.6248L94.0012 64.5904C94.0012 65.1281 93.5524 65.5628 92.9934 65.5628H87.7703C87.248 65.5259 86.8286 65.106 86.8286 64.5904V50.3431C86.8286 49.2086 86.9316 46.3798 86.6815 45.3042C86.2916 43.4994 85.1219 42.9911 83.6065 42.9911C82.3412 42.9911 81.017 43.8383 80.48 45.1937C79.943 46.5492 79.9945 48.8182 79.9945 50.3431V64.5904C79.9945 65.1281 79.5457 65.5628 78.9866 65.5628H73.7636C73.2339 65.5259 72.8219 65.106 72.8219 64.5904L72.8146 50.3431C72.8146 47.3448 73.3075 42.9321 69.5924 42.9321C65.8333 42.9321 65.9804 47.2343 65.9804 50.3431V64.5904C65.9804 65.1281 65.5317 65.5628 64.9726 65.5628" fill="black"/>
<path fill-rule="evenodd" clip-rule="evenodd" d="M161.644 36.2579C169.405 36.2579 173.605 42.9321 173.605 51.4186C173.605 59.6178 168.964 66.1226 161.644 66.1226C154.023 66.1226 149.874 59.4484 149.874 51.1313C149.874 42.7627 154.074 36.2579 161.644 36.2579V36.2579ZM161.688 41.7461C157.833 41.7461 157.59 47.0059 157.59 50.2842C157.59 53.5697 157.539 60.5829 161.644 60.5829C165.697 60.5829 165.889 54.9252 165.889 51.4776C165.889 49.2086 165.793 46.4976 165.109 44.3466C164.52 42.4754 163.351 41.7461 161.688 41.7461" fill="black"/>
<path fill-rule="evenodd" clip-rule="evenodd" d="M183.669 65.5628H178.461C177.938 65.5259 177.519 65.106 177.519 64.5904L177.512 37.7018C177.556 37.2082 177.99 36.8251 178.52 36.8251H183.367C183.824 36.8472 184.199 37.1566 184.302 37.5765V41.6872H184.397C185.861 38.0112 187.914 36.2579 191.526 36.2579C193.872 36.2579 196.16 37.1051 197.632 39.4256C199 41.5767 199 45.1937 199 47.7942V64.7156C198.941 65.1871 198.507 65.5628 197.992 65.5628H192.747C192.269 65.5259 191.872 65.1723 191.82 64.7156V50.1147C191.82 47.1754 192.158 42.8732 188.546 42.8732C187.274 42.8732 186.104 43.7278 185.523 45.0243C184.787 46.6671 184.692 48.3025 184.692 50.1147V64.5904C184.684 65.1281 184.228 65.5628 183.669 65.5628" fill="black"/>
<path fill-rule="evenodd" clip-rule="evenodd" d="M113.981 52.7225C113.981 54.7631 114.033 56.4648 113.003 58.2771C112.172 59.7504 110.848 60.6565 109.384 60.6565C107.375 60.6565 106.198 59.1242 106.198 56.8626C106.198 52.3984 110.193 51.5881 113.981 51.5881V52.7225V52.7225ZM119.256 65.4891C118.91 65.7985 118.41 65.8206 118.02 65.6143C116.284 64.1705 115.968 63.5001 115.019 62.1225C112.15 65.0545 110.112 65.9311 106.397 65.9311C101.99 65.9311 98.5696 63.2128 98.5696 57.7688C98.5696 53.5182 100.865 50.623 104.146 49.2086C106.985 47.9563 110.95 47.7353 113.981 47.389V46.7113C113.981 45.4663 114.077 43.9929 113.341 42.9174C112.709 41.9524 111.488 41.5546 110.406 41.5546C108.413 41.5546 106.64 42.5785 106.206 44.7002C106.117 45.1716 105.772 45.6357 105.293 45.6578L100.225 45.1127C99.7981 45.0169 99.3199 44.6707 99.445 44.0151C100.607 37.8565 106.169 36 111.142 36C113.687 36 117.012 36.6778 119.021 38.6079C121.566 40.9873 121.323 44.1624 121.323 47.6174V55.7797C121.323 58.2329 122.338 59.3084 123.295 60.6344C123.626 61.1059 123.699 61.6731 123.273 62.0267C122.206 62.9181 120.308 64.5756 119.263 65.5038L119.256 65.4891" fill="black"/>
<path fill-rule="evenodd" clip-rule="evenodd" d="M45.4118 52.7226C45.4118 54.7632 45.4633 56.4649 44.4334 58.2772C43.6021 59.7505 42.2853 60.6566 40.814 60.6566C38.8057 60.6566 37.636 59.1243 37.636 56.8627C37.636 52.3985 41.6306 51.5882 45.4118 51.5882V52.7226V52.7226ZM50.6864 65.4892C50.3406 65.7986 49.8404 65.8207 49.4505 65.6144C47.7144 64.1706 47.4054 63.5002 46.449 62.1226C43.58 65.0546 41.5496 65.9312 37.8273 65.9312C33.4281 65.9312 30 63.2129 30 57.7689C30 53.5182 32.3026 50.6231 35.5762 49.2087C38.4158 47.9563 42.3809 47.7353 45.4118 47.3891V46.7114C45.4118 45.4664 45.5074 43.993 44.7791 42.9175C44.1391 41.9525 42.9179 41.5546 41.8439 41.5546C39.8503 41.5546 38.07 42.5786 37.636 44.7002C37.5477 45.1717 37.202 45.6358 36.7312 45.6579L31.6552 45.1128C31.2285 45.017 30.7577 44.6708 30.8754 44.0151C32.0451 37.8565 37.5992 36.0001 42.5722 36.0001C45.1175 36.0001 48.4426 36.6779 50.451 38.6079C52.9963 40.9874 52.7535 44.1625 52.7535 47.6175V55.7798C52.7535 58.233 53.7687 59.3085 54.7251 60.6345C55.0635 61.106 55.137 61.6732 54.7103 62.0268C53.6437 62.9182 51.7457 64.5757 50.7011 65.5039L50.6864 65.4892" fill="black"/>
</g>
<defs>
<clipPath id="clip0_21_1212">
<rect width="169" height="51" fill="white" transform="translate(30 36)"/>
</clipPath>
</defs>
</svg>
