<svg width="229" height="118" viewBox="0 0 229 118" fill="none" xmlns="http://www.w3.org/2000/svg">
<rect width="229" height="118" fill="white"/>
<path d="M82.0049 62.5262C89.0344 62.5262 92.5492 57.645 92.5492 52.7635C92.5492 47.8823 89.0342 43.1955 81.6144 43.1955C76.147 43 56.0348 43 56.0348 43V76H62.2824V48.2724C67.1641 48.2724 79.4657 48.2724 82.0043 48.2724C85.5189 48.2724 87.2764 49.4435 87.2764 52.7635C87.2764 55.4969 85.5193 57.059 82.1995 57.059H65.7981L85.3245 75.8039H92.94L78.8804 62.1355C80.2478 62.5262 81.8097 62.5262 82.0049 62.5262Z" fill="#16325B"/>
<path d="M105.046 43.0005H98.9929V76H105.046V43.0005Z" fill="#16325B"/>
<path d="M181.785 48.0774V43.0005H168.897H162.844H152.104L148.59 48.0774H162.844V76H168.897V48.0774H181.785Z" fill="#16325B"/>
<path d="M136.678 56.6687C133.554 56.6687 125.744 56.6687 121.252 56.6687C118.129 56.6687 116.371 55.3021 116.371 52.5681C116.371 49.4442 118.519 48.0774 121.252 48.0774C125.549 48.0774 142.341 48.0774 142.341 48.0774L145.074 43.0005C145.074 43.0005 124.572 43.0005 121.057 43.0005C115.589 43.0005 111.099 47.1006 111.099 52.764C111.099 57.8404 115.395 61.9408 121.252 61.9408C124.572 61.9408 134.53 61.9408 136.678 61.9408C140.194 61.9408 142.146 63.5035 142.146 66.4322C142.146 68.9703 139.998 70.7281 136.678 70.7281H115.395L112.271 76C112.271 76 131.016 76 137.459 76C143.903 76 147.418 71.3145 147.418 66.0423C147.418 61.1594 143.318 56.6687 136.678 56.6687Z" fill="#16325B"/>
<path d="M27.5264 45.1483C26.1598 47.2955 8 76 8 76H14.4435L20.4971 66.2367H33.3845L36.7041 60.9645H23.8163L30.8456 49.639L47.2482 75.8039H53.6919C53.6919 75.8039 35.7272 47.4911 34.1647 44.9528C32.4076 42.4149 29.2839 42.6099 27.5264 45.1483Z" fill="#16325B"/>
<path d="M212.831 76H219.275C219.275 76 201.311 47.6868 199.748 45.1483C197.992 42.2192 194.867 42.4149 193.109 44.953C191.742 47.1004 173.583 75.8041 173.583 75.8041H180.026L186.079 66.0413H199.163L202.482 60.7691H189.595L196.624 49.4435L212.831 76Z" fill="#16325B"/>
</svg>
