<svg width="229" height="118" viewBox="0 0 229 118" fill="none" xmlns="http://www.w3.org/2000/svg">
<rect width="229" height="118" fill="white"/>
<g clip-path="url(#clip0_20_1183)">
<path d="M23.1272 57.9388C23.0559 57.8465 22.9616 57.774 22.8536 57.7283C22.7456 57.6826 22.6274 57.6652 22.5106 57.6778C22.3938 57.6904 22.2822 57.7326 22.1867 57.8003C22.0913 57.868 22.0151 57.9589 21.9657 58.0642L16.0748 69.6989C16.021 69.8048 15.9955 69.9225 16.0007 70.0409C16.0059 70.1593 16.0416 70.2744 16.1045 70.3753C16.1674 70.4762 16.2554 70.5595 16.3601 70.6174C16.4648 70.6753 16.5827 70.7058 16.7027 70.7061H24.9057C25.0385 70.7086 25.1691 70.6726 25.2814 70.6025C25.3937 70.5324 25.4826 70.4313 25.5373 70.3118C27.3049 66.7275 26.2342 61.2184 23.1272 57.9388V57.9388Z" fill="url(#paint0_linear_20_1183)"/>
<path d="M27.4501 47.3722C25.9816 49.6032 25.1258 52.1729 24.9667 54.8291C24.8076 57.4854 25.3507 60.1368 26.5427 62.5231L30.5172 70.3118C30.5751 70.4275 30.6646 70.5251 30.7755 70.5934C30.8864 70.6618 31.0144 70.6983 31.1451 70.6989H39.3481C39.4631 70.6896 39.5742 70.6533 39.6721 70.593C39.7701 70.5328 39.8521 70.4504 39.9113 70.3527C39.9706 70.2549 40.0054 70.1446 40.0129 70.0309C40.0203 69.9172 40.0003 69.8034 39.9543 69.6989L28.6479 47.3722C28.5938 47.2608 28.5088 47.1667 28.4028 47.1008C28.2969 47.0349 28.1742 47 28.049 47C27.9238 47 27.8012 47.0349 27.6952 47.1008C27.5892 47.1667 27.5043 47.2608 27.4501 47.3722V47.3722Z" fill="#2684FF"/>
<path d="M200.752 59.7739L206.708 70.7061H212V51.1931H207.79V63.7848L206.196 60.1324L201.412 51.1931H194.766V70.7061H198.977V55.824L200.752 59.7739Z" fill="#0052CC"/>
<path d="M167.987 51.1931H163.384V70.7061H167.987V51.1931Z" fill="#0052CC"/>
<path d="M158.074 64.9354C158.074 61.5195 156.241 59.9173 151.065 58.8169C148.209 58.1933 147.519 57.5696 147.519 56.6664C147.519 55.5373 148.539 55.0606 150.423 55.0606C152.71 55.0606 154.967 55.7452 157.101 56.695V52.2326C155.052 51.311 152.82 50.8542 150.568 50.8956C145.454 50.8956 142.808 53.0928 142.808 56.6879C142.808 59.5553 144.162 61.8528 149.454 62.8636C152.612 63.516 153.276 64.0214 153.276 65.0608C153.276 66.1002 152.612 66.7239 150.372 66.7239C147.684 66.6754 145.05 65.9724 142.703 64.6773V69.3691C144.296 70.1398 146.401 71 150.325 71C155.857 71 158.052 68.5663 158.052 64.9425" fill="#0052CC"/>
<path d="M138.917 64.9354C138.917 61.5195 137.102 59.9173 131.912 58.8169C129.055 58.1933 128.362 57.5696 128.362 56.6664C128.362 55.5373 129.385 55.0606 131.266 55.0606C133.552 55.0606 135.806 55.7452 137.94 56.695V52.2326C135.891 51.311 133.659 50.8542 131.407 50.8956C126.297 50.8956 123.647 53.0928 123.647 56.6879C123.647 59.5553 125.001 61.8528 130.296 62.8636C133.454 63.516 134.115 64.0214 134.115 65.0608C134.115 66.1002 133.454 66.7239 131.211 66.7239C128.523 66.6754 125.889 65.9724 123.542 64.6773V69.3691C125.139 70.1398 127.244 71 131.164 71C136.699 71 138.891 68.5663 138.891 64.9425" fill="#0052CC"/>
<path d="M92.5553 66.4874V51.1931H87.9238V70.7061H97.3827L98.8709 66.4874H92.5553Z" fill="#0052CC"/>
<path d="M78.9804 70.7061V55.4083H84.4539V51.1931H69.2347V55.4083H74.3489V70.7061H78.9804Z" fill="#0052CC"/>
<path d="M62.5198 51.1931H56.451L49.5547 70.7061H54.8358L55.8158 67.4193C58.2211 68.1173 60.7788 68.1173 63.184 67.4193L64.1604 70.7061H69.4234L62.5198 51.1931ZM59.4854 63.9031C58.6255 63.9043 57.7699 63.7836 56.9447 63.5446L59.4854 55.0283L62.0262 63.5446C61.201 63.7833 60.3453 63.904 59.4854 63.9031V63.9031Z" fill="#0052CC"/>
<path d="M113.687 51.1931H107.618L100.722 70.7061H105.985L106.965 67.4193C109.37 68.1173 111.928 68.1173 114.333 67.4193L115.31 70.7061H120.573L113.687 51.1931ZM110.653 63.9031C109.793 63.9046 108.937 63.7839 108.112 63.5446L110.653 55.0283L113.194 63.5446C112.368 63.7839 111.513 63.9046 110.653 63.9031Z" fill="#0052CC"/>
<path d="M184.567 51.1931H178.498L171.602 70.7061H176.865L177.841 67.4193C180.247 68.1173 182.804 68.1173 185.21 67.4193L186.186 70.7061H191.453L184.567 51.1931ZM181.533 63.9031C180.673 63.904 179.817 63.7833 178.992 63.5446L181.533 55.0283L184.073 63.5446C183.248 63.7833 182.393 63.904 181.533 63.9031V63.9031Z" fill="#0052CC"/>
</g>
<defs>
<linearGradient id="paint0_linear_20_1183" x1="26.3576" y1="59.7345" x2="20.2565" y2="70.4392" gradientUnits="userSpaceOnUse">
<stop stop-color="#0052CC"/>
<stop offset="0.92" stop-color="#2684FF"/>
</linearGradient>
<clipPath id="clip0_20_1183">
<rect width="196" height="24" fill="white" transform="translate(16 47)"/>
</clipPath>
</defs>
</svg>
