<svg width="229" height="118" viewBox="0 0 229 118" fill="none" xmlns="http://www.w3.org/2000/svg">
<rect width="229" height="118" fill="white"/>
<g clip-path="url(#clip0_20_1170)">
<path fill-rule="evenodd" clip-rule="evenodd" d="M46.7412 67.0639C46.7412 64.8114 45.0804 63.2529 41.5948 63.2529H34.6108V70.9337H41.7653C44.6826 70.9337 46.7412 69.8941 46.7412 67.0639ZM45.4846 51.8197C45.4846 49.6247 43.9943 48.1231 41.7653 48.1231H34.6108V55.3995H41.5948C44.108 55.3995 45.4846 53.5521 45.4846 51.8197ZM57.154 68.1604C57.154 74.7448 51.0919 79.076 44.9668 79.076H25V39.9796H43.306C50.3468 39.9796 55.4364 43.4999 55.4364 50.7213C55.4364 56.9011 50.0627 58.7485 50.0627 58.7485C50.0627 58.8066 57.154 60.424 57.154 68.1604" fill="#EC1B24"/>
<path fill-rule="evenodd" clip-rule="evenodd" d="M87.041 59.5C87.041 53.3783 84.2373 48.412 78.6931 48.412C73.1425 48.412 70.3957 53.3783 70.3957 59.5C70.3957 65.6786 73.1425 70.6443 78.6931 70.6443C84.2373 70.6443 87.041 65.6786 87.041 59.5ZM96.6518 59.5C96.6518 70.9913 90.072 80 78.6931 80C67.3647 80 60.728 70.9913 60.728 59.5C60.728 48.0656 67.3647 39 78.6868 39C90.072 39 96.6518 48.0656 96.6518 59.5Z" fill="#EC1B24"/>
<path fill-rule="evenodd" clip-rule="evenodd" d="M130.201 67.2371C130.201 75.842 122.422 80 115.103 80C106.635 80 102.284 76.766 98.8556 72.6661L105.088 66.5438C107.721 69.8941 111.156 71.5689 114.989 71.5689C118.134 71.5689 120.249 70.0098 120.249 67.6991C120.249 65.2166 118.38 64.443 113.266 63.3679L111.895 63.0797C105.739 61.7854 100.681 58.2872 100.681 51.2996C100.681 43.62 106.919 39 115.16 39C122.138 39 126.659 42.0021 129.406 45.1179L123.337 51.1265C121.449 49.1046 118.589 47.488 115.33 47.488C113.101 47.488 110.582 48.5276 110.582 51.1265C110.582 53.494 113.202 54.3529 116.53 55.0532L117.907 55.3426C123.476 56.5125 130.201 58.2297 130.201 67.2371" fill="#EC1B24"/>
<path fill-rule="evenodd" clip-rule="evenodd" d="M167.356 71.5108C163.353 77.2855 159.633 80 151.911 80C140.93 80 133.832 70.8756 133.832 59.2687C133.832 48.2388 140.241 39.0569 152.024 39.0569C158.491 39.0569 163.125 41.5976 167.072 47.5461L159.179 52.8013C157.575 50.0286 155.516 48.4119 152.081 48.4119C147.737 48.4119 143.557 52.302 143.557 59.2687C143.557 67.0753 148.078 70.6443 152.372 70.6443C156.085 70.6443 157.802 68.7963 159.406 66.1399L167.356 71.5108" fill="#EC1B24"/>
<path fill-rule="evenodd" clip-rule="evenodd" d="M204 79.076H193.701V63.6573H181.855V79.076H171.619V39.9796H181.855V54.3598H193.701V39.9796H204V79.076" fill="#EC1B24"/>
</g>
<defs>
<clipPath id="clip0_20_1170">
<rect width="179" height="41" fill="white" transform="translate(25 39)"/>
</clipPath>
</defs>
</svg>
