<svg width="65" height="65" viewBox="0 0 65 65" fill="none" xmlns="http://www.w3.org/2000/svg">
<path d="M37.9166 21.6668H12.6388C12.1599 21.6668 11.7007 21.4766 11.3621 21.138C11.0235 20.7994 10.8333 20.3401 10.8333 19.8613V12.6391C10.8333 12.1602 11.0235 11.7009 11.3621 11.3623C11.7007 11.0237 12.1599 10.8335 12.6388 10.8335H37.9166C38.3954 10.8335 38.8547 11.0237 39.1933 11.3623C39.5319 11.7009 39.7221 12.1602 39.7221 12.6391V19.8613C39.7221 20.3401 39.5319 20.7994 39.1933 21.138C38.8547 21.4766 38.3954 21.6668 37.9166 21.6668ZM14.4444 18.0557H36.111V14.3363H14.4444V18.0557Z" fill="#BF2424"/>
<path d="M37.9166 25.4224H12.6388C12.1599 25.4224 11.7007 25.6126 11.3621 25.9512C11.0235 26.2898 10.8333 26.7491 10.8333 27.2279V34.3057C10.8333 34.7846 11.0235 35.2438 11.3621 35.5824C11.7007 35.921 12.1599 36.1113 12.6388 36.1113H33.1499L39.7221 29.4307V27.2279C39.7221 26.7491 39.5319 26.2898 39.1933 25.9512C38.8547 25.6126 38.3954 25.4224 37.9166 25.4224ZM36.111 32.5001H14.4444V28.889H36.111V32.5001Z" fill="#BF2424"/>
<path d="M19.9694 56.8933V56.7849L20.5472 54.2752H7.2222V7.22244H43.3333V25.7294L46.9444 22.3169V5.41688C46.9444 4.93802 46.7542 4.47877 46.4156 4.14016C46.077 3.80156 45.6177 3.61133 45.1389 3.61133H5.41664C4.93778 3.61133 4.47853 3.80156 4.13992 4.14016C3.80131 4.47877 3.61108 4.93802 3.61108 5.41688V55.9724C3.61108 56.4513 3.80131 56.9106 4.13992 57.2492C4.47853 57.5878 4.93778 57.778 5.41664 57.778H19.8611C19.876 57.4809 19.9122 57.1852 19.9694 56.8933Z" fill="#BF2424"/>
<path d="M39.7223 34.6123L38.314 36.0387C38.6634 35.9667 38.9836 35.7927 39.2343 35.5389C39.4849 35.285 39.6547 34.9626 39.7223 34.6123Z" fill="#BF2424"/>
<path d="M10.8333 48.6416C10.8333 49.1205 11.0235 49.5797 11.3621 49.9183C11.7007 50.2569 12.1599 50.4472 12.6388 50.4472H21.3777L21.9194 48.0999L22.1541 47.1069V47.0166H14.4444V43.3333H25.8916L29.5027 39.7222H12.6388C12.1599 39.7222 11.7007 39.9124 11.3621 40.251C11.0235 40.5896 10.8333 41.0489 10.8333 41.5277V48.6416Z" fill="#BF2424"/>
<path d="M60.468 30.0986L54.3833 24.0139C54.1132 23.7431 53.7924 23.5283 53.4392 23.3817C53.086 23.2351 52.7074 23.1597 52.3249 23.1597C51.9425 23.1597 51.5639 23.2351 51.2107 23.3817C50.8575 23.5283 50.5367 23.7431 50.2666 24.0139L25.5124 48.9125L23.4722 57.5972C23.3958 57.9719 23.3941 58.358 23.4671 58.7333C23.5402 59.1086 23.6865 59.4659 23.8979 59.7846C24.1092 60.1032 24.3813 60.3771 24.6987 60.5904C25.016 60.8038 25.3723 60.9524 25.7472 61.0278C25.9333 61.0465 26.1208 61.0465 26.3069 61.0278C26.5281 61.0639 26.7537 61.0639 26.9749 61.0278L35.7319 59.0959L60.468 34.3056C60.7382 34.0371 60.9527 33.7178 61.099 33.3661C61.2454 33.0144 61.3207 32.6372 61.3207 32.2563C61.3207 31.8753 61.2454 31.4982 61.099 31.1465C60.9527 30.7947 60.7382 30.4755 60.468 30.207V30.0986ZM33.8902 55.8097L27.2819 57.2722L28.8888 50.7181L47.4499 31.9584L52.5416 37.05L33.8902 55.8097ZM54.5819 35.0097L49.4902 29.9181L52.3611 27.0834L57.4888 32.2111L54.5819 35.0097Z" fill="#BF2424"/>
</svg>
