<svg width="229" height="118" viewBox="0 0 229 118" fill="none" xmlns="http://www.w3.org/2000/svg">
<rect width="229" height="118" fill="white"/>
<path d="M46.5493 53.6466C45.8571 53.9073 45.1215 54.0258 44.3845 53.9953C43.6475 53.9649 42.9236 53.786 42.2542 53.4691C41.5849 53.1521 40.9831 52.7032 40.4835 52.1481C39.9838 51.593 39.5961 50.9426 39.3424 50.234C39.0887 49.5254 38.974 48.7726 39.0049 48.0187C39.0359 47.2647 39.2118 46.5244 39.5227 45.8401C39.8336 45.1557 40.2733 44.5408 40.8166 44.0305C41.36 43.5202 41.9964 43.1246 42.6894 42.8661L73.4431 31.3727C74.1352 31.1026 74.8733 30.977 75.6136 31.0034C76.354 31.0299 77.0817 31.2077 77.7538 31.5265C78.4259 31.8453 79.0288 32.2985 79.5269 32.8595C80.025 33.4205 80.4082 34.0779 80.654 34.7929C80.9097 35.4879 81.0257 36.2286 80.9952 36.9706C80.9648 37.7125 80.7885 38.4406 80.4768 39.1113C80.1651 39.782 79.7245 40.3815 79.1812 40.874C78.638 41.3666 78.0033 41.742 77.315 41.9779L46.5493 53.6466Z" fill="#00285E"/>
<path d="M46.5454 69.6634C45.8533 69.9122 45.1179 70.025 44.3813 69.9954C43.6447 69.9658 42.9212 69.7944 42.2523 69.4911C41.5834 69.1877 40.9821 68.7582 40.4828 68.2273C39.9835 67.6963 39.596 67.0743 39.3424 66.3967C39.0888 65.719 38.9741 64.9991 39.0049 64.2781C39.0357 63.5571 39.2113 62.8491 39.5217 62.1945C39.8322 61.54 40.2713 60.9517 40.8141 60.4634C41.357 59.975 41.9927 59.5962 42.6852 59.3485L73.4409 48.3638C74.1321 48.1023 74.8699 47.9796 75.6106 48.0028C76.3512 48.026 77.0796 48.1947 77.7523 48.4989C78.425 48.8031 79.0284 49.2366 79.5266 49.7735C80.0247 50.3105 80.4076 50.94 80.6523 51.6247C80.9088 52.2894 81.0255 52.9979 80.9954 53.7078C80.9653 54.4177 80.789 55.1143 80.4772 55.7559C80.1654 56.3974 79.7244 56.9708 79.1806 57.4414C78.6369 57.9121 78.0017 58.2704 77.313 58.4949L46.5454 69.6634Z" fill="#00285E"/>
<path d="M46.553 86.6445C45.8608 86.9061 45.125 87.0254 44.3876 86.9955C43.6503 86.9656 42.926 86.7871 42.2562 86.4702C41.5863 86.1534 40.9842 85.7044 40.4842 85.149C39.9842 84.5936 39.5961 83.9427 39.3423 83.2335C39.0885 82.5244 38.9739 81.771 39.005 81.0165C39.0361 80.2619 39.2124 79.5211 39.5237 78.8364C39.835 78.1517 40.2753 77.5366 40.8193 77.0263C41.3632 76.516 42.0002 76.1205 42.6937 75.8626L73.4425 64.3813C74.1334 64.1076 74.8709 63.9789 75.6113 64.0028C76.3517 64.0267 77.0799 64.2027 77.7525 64.5204C78.4251 64.8381 79.0284 65.2909 79.5266 65.852C80.0248 66.4131 80.4076 67.071 80.6524 67.7866C80.9088 68.4815 81.0254 69.2222 80.9954 69.9644C80.9653 70.7066 80.7891 71.4349 80.4774 72.1057C80.1656 72.7765 79.7247 73.3759 79.1811 73.8681C78.6375 74.3603 78.0024 74.735 77.3138 74.9699L46.553 86.6445Z" fill="#00285E"/>
<path d="M91 49H101.816V51.9056H94.739V54.2694H101.629V57.3546H94.739V59.8995H102V63H91V49Z" fill="#00285E"/>
<path d="M121 49H118V63H121V49Z" fill="#00285E"/>
<path d="M134.822 49.7381L134.644 52.5201C131.603 50.9636 126.946 51.482 126.946 55.8357C126.768 60.3616 131.603 61.0536 134.822 59.4823L135 62.4374C129.453 64.0085 123 62.4374 123 55.8357C123 49.5653 129.63 47.8208 134.822 49.7381Z" fill="#00285E"/>
<path d="M146.233 49.5835L146.041 52.3461C143.914 51.3153 140.061 51.3153 140.061 52.8616C140.061 55.2803 147 53.5625 147 58.5727C147 63.4108 140.445 63.5826 136.192 62.366L136.4 59.4314C139.086 60.4764 142.955 60.82 142.955 58.9163C142.955 56.6688 136 57.8856 136 53.2047C136 49.2396 141.404 48.1948 146.233 49.5835Z" fill="#00285E"/>
<path d="M157.302 49.5835L157.13 52.3461C155.195 51.3153 151.68 51.3153 151.68 52.8616C151.68 55.2803 158 53.5625 158 58.5727C158 63.4108 152.035 63.5826 148.174 62.366L148.349 59.4314C150.81 60.4764 154.319 60.82 154.319 58.9163C154.319 56.6688 148 57.8856 148 53.2047C148 49.2396 152.905 48.1948 157.302 49.5835Z" fill="#00285E"/>
<path d="M174 49H178.753L183.339 57.9117V49H187V63H182.426L177.475 53.7276V63H174V49Z" fill="#00285E"/>
<path d="M162.708 56.0002C162.708 58.1015 163.561 60.3768 165.409 60.3768C167.439 60.3768 168.275 58.1015 168.275 56.0002C168.275 54.2467 167.439 51.6234 165.409 51.6234C163.561 51.6235 162.708 53.8986 162.708 56.0002ZM165.409 49C169.134 49 172 51.1015 172 56.0002C172 60.7247 169.134 63 165.409 63C161.866 63 159 60.7247 159 56.0002C159 51.1015 161.866 49 165.409 49H165.409Z" fill="#00285E"/>
<path d="M104 49H110.73C112.718 49 115.262 49.7225 115.262 52.628C115.311 53.4126 115.083 54.1893 114.618 54.8223C114.152 55.4552 113.48 55.904 112.718 56.0901C113.016 56.1838 113.288 56.3474 113.51 56.5673C113.733 56.7872 113.9 57.0572 113.997 57.3547C113.997 57.5353 116 62.8193 116 63H111.995L110.549 58.6343C110.453 58.3697 110.28 58.1404 110.052 57.9765C109.823 57.8126 109.551 57.7218 109.27 57.716C108.547 57.716 107.643 57.5353 107.643 57.716V63H104V49ZM107.643 54.8108H109.631C109.859 54.8326 110.089 54.807 110.306 54.7356C110.524 54.6642 110.725 54.5486 110.896 54.396C111.067 54.2433 111.205 54.057 111.3 53.8486C111.396 53.6402 111.448 53.4141 111.453 53.1847C111.453 52.2664 110.73 51.7243 109.631 51.7243H107.643L107.643 54.8108Z" fill="#00285E"/>
</svg>
