<svg width="65" height="65" viewBox="0 0 65 65" fill="none" xmlns="http://www.w3.org/2000/svg">
<path d="M21.2387 6.88048C17.8587 6.02248 14.3162 6.38648 11.5407 7.93998C8.71316 9.51948 6.73066 12.321 6.63316 16.0682C6.48366 21.9247 7.83891 29.7832 13.2209 39.0067C18.5347 48.1165 24.4009 53.5765 29.2694 56.82C32.3439 58.8707 35.7402 58.926 38.6424 57.5902C41.5024 56.274 43.8229 53.6447 45.0287 50.385C45.3288 49.5742 45.4493 48.708 45.382 47.8461C45.3146 46.9843 45.061 46.1473 44.6387 45.393L41.5382 39.8582C40.5846 38.1564 39.0504 36.8544 37.2161 36.1902C35.3818 35.5261 33.3698 35.5441 31.5477 36.241L29.3832 37.0697C28.3334 37.4695 27.3682 37.2842 26.8222 36.7447C24.9859 34.941 23.6729 32.4937 23.0782 29.8547C22.8897 29.0227 23.2732 28.0412 24.1897 27.349L26.1429 25.8735C27.722 24.6819 28.8121 22.9552 29.2088 21.0171C29.6055 19.0791 29.2816 17.0629 28.2977 15.3467L25.1387 9.83798C24.7202 9.10866 24.1592 8.47099 23.4892 7.9629C22.8192 7.45482 22.0538 7.08671 21.2387 6.88048ZM9.88316 16.1527C9.94816 13.6372 11.2222 11.84 13.1267 10.774C15.0832 9.67873 17.7547 9.34398 20.4392 10.0265C21.2354 10.228 21.9114 10.7415 22.3209 11.4532L25.4767 16.962C26.0669 17.9913 26.2615 19.2005 26.024 20.363C25.7865 21.5255 25.1331 22.5615 24.1864 23.2767L22.2332 24.7522C20.5432 26.0262 19.3732 28.2102 19.9062 30.5665C20.6277 33.758 22.2234 36.7837 24.5439 39.062C26.2404 40.726 28.6584 40.8235 30.5434 40.102L32.7079 39.2732C33.8015 38.8546 35.0092 38.8436 36.1103 39.2423C37.2113 39.6409 38.132 40.4225 38.7042 41.4442L41.8014 46.979C42.1914 47.6745 42.2564 48.5065 41.9802 49.254C41.0377 51.8052 39.2664 53.7195 37.2839 54.6327C35.3437 55.5265 33.1499 55.5005 31.0732 54.1127C26.6174 51.1422 21.0957 46.0462 16.0257 37.3655C10.9524 28.6587 9.74991 21.3982 9.88641 16.156L9.88316 16.1527Z" fill="#BF2424"/>
<path d="M41.4146 6.70481C41.0379 6.49536 40.5934 6.44411 40.179 6.56236C39.7645 6.6806 39.414 6.95864 39.2046 7.33531C38.9951 7.71199 38.9439 8.15644 39.0621 8.57089C39.1804 8.98535 39.4584 9.33586 39.8351 9.54531L41.0831 10.2408C44.9818 12.4066 48.2982 15.4842 50.7488 19.2105C53.1994 22.9368 54.7114 27.2011 55.1556 31.6388L55.2596 32.6626C55.2718 32.8817 55.3284 33.096 55.4257 33.2927C55.5231 33.4894 55.6593 33.6643 55.8261 33.8069C55.9929 33.9495 56.1869 34.0568 56.3964 34.1224C56.6058 34.188 56.8263 34.2105 57.0447 34.1886C57.263 34.1666 57.4747 34.1006 57.6669 33.9946C57.859 33.8886 58.0277 33.7448 58.1628 33.5718C58.2979 33.3989 58.3965 33.2003 58.4528 32.9882C58.509 32.7761 58.5217 32.5547 58.4901 32.3376L58.3893 31.3171C57.8934 26.3562 56.2036 21.5893 53.4643 17.4237C50.725 13.2581 47.0177 9.81788 42.6593 7.39706L41.4146 6.70481Z" fill="#BF2424"/>
<path d="M37.6057 15.4152C37.8277 15.0459 38.1872 14.7799 38.6053 14.6757C39.0234 14.5715 39.4658 14.6376 39.8352 14.8595L40.2382 15.1C42.861 16.6731 45.1109 18.7971 46.8324 21.325C48.554 23.8529 49.7061 26.7244 50.2092 29.7412L50.3522 30.609C50.3931 30.8218 50.391 31.0406 50.3461 31.2526C50.3011 31.4645 50.2143 31.6654 50.0906 31.8433C49.9669 32.0212 49.8088 32.1726 49.6258 32.2885C49.4427 32.4045 49.2383 32.4826 49.0246 32.5184C48.8109 32.5541 48.5921 32.5468 48.3813 32.4968C48.1705 32.4468 47.9718 32.3551 47.7969 32.2271C47.622 32.0992 47.4745 31.9376 47.363 31.7518C47.2515 31.566 47.1783 31.3597 47.1477 31.1452L47.0014 30.2775C46.5761 27.725 45.6018 25.2954 44.1457 23.1564C42.6895 21.0174 40.7864 19.22 38.5677 17.8885L38.1647 17.6447C37.9815 17.535 37.8218 17.3904 37.6946 17.219C37.5674 17.0476 37.4752 16.8528 37.4233 16.6458C37.3714 16.4387 37.3608 16.2235 37.3921 16.0123C37.4234 15.8012 37.4959 15.5983 37.6057 15.4152Z" fill="#BF2424"/>
</svg>
