<svg width="229" height="118" viewBox="0 0 229 118" fill="none" xmlns="http://www.w3.org/2000/svg">
<rect width="229" height="118" fill="white"/>
<path d="M102.067 60.2311C102.067 68.1429 95.9335 73.9731 88.4062 73.9731C80.8789 73.9731 74.7454 68.1429 74.7454 60.2311C74.7454 52.2635 80.8789 46.4891 88.4062 46.4891C95.9335 46.4891 102.067 52.2635 102.067 60.2311ZM96.087 60.2311C96.087 55.287 92.5321 51.9041 88.4062 51.9041C84.2803 51.9041 80.7254 55.287 80.7254 60.2311C80.7254 65.1257 84.2803 68.558 88.4062 68.558C92.5321 68.558 96.087 65.1195 96.087 60.2311Z" fill="#EA4335"/>
<path d="M131.538 60.2311C131.538 68.1429 125.404 73.9731 117.877 73.9731C110.35 73.9731 104.216 68.1429 104.216 60.2311C104.216 52.2697 110.35 46.4891 117.877 46.4891C125.404 46.4891 131.538 52.2635 131.538 60.2311ZM125.558 60.2311C125.558 55.287 122.003 51.9041 117.877 51.9041C113.751 51.9041 110.196 55.287 110.196 60.2311C110.196 65.1257 113.751 68.558 117.877 68.558C122.003 68.558 125.558 65.1195 125.558 60.2311Z" fill="#FBBC05"/>
<path d="M159.78 47.3194V71.9904C159.78 82.1389 153.849 86.2838 146.838 86.2838C140.238 86.2838 136.265 81.8291 134.767 78.1861L139.974 75.999C140.901 78.2357 143.172 80.875 146.832 80.875C151.32 80.875 154.101 78.0808 154.101 72.8207V70.8442H153.892C152.554 72.5109 149.975 73.9669 146.721 73.9669C139.912 73.9669 133.674 67.9819 133.674 60.2807C133.674 52.5237 139.912 46.4891 146.721 46.4891C149.969 46.4891 152.548 47.9451 153.892 49.5622H154.101V47.3255H159.78V47.3194ZM154.525 60.2807C154.525 55.4419 151.326 51.9041 147.255 51.9041C143.129 51.9041 139.673 55.4419 139.673 60.2807C139.673 65.0699 143.129 68.558 147.255 68.558C151.326 68.558 154.525 65.0699 154.525 60.2807Z" fill="#4285F4"/>
<path d="M169.143 32.8587V73.1304H163.311V32.8587H169.143Z" fill="#34A853"/>
<path d="M191.873 64.7539L196.514 67.8765C195.016 70.1132 191.406 73.9669 185.168 73.9669C177.432 73.9669 171.655 67.9323 171.655 60.2249C171.655 52.0528 177.481 46.4829 184.499 46.4829C191.566 46.4829 195.022 52.1582 196.152 55.225L196.772 56.7863L178.568 64.3946C179.962 67.1516 182.129 68.558 185.168 68.558C188.213 68.558 190.325 67.0463 191.873 64.7539ZM177.585 59.8098L189.754 54.7108C189.085 52.9946 187.071 51.7988 184.701 51.7988C181.662 51.7988 177.432 54.5063 177.585 59.8098V59.8098Z" fill="#EA4335"/>
<path d="M52.6671 56.6562V50.8261H72.1361C72.3264 51.8422 72.4246 53.0441 72.4246 54.3452C72.4246 58.7194 71.2397 64.1282 67.4208 67.9819C63.7063 71.8851 58.9603 73.9669 52.6732 73.9669C41.02 73.9669 31.2211 64.3884 31.2211 52.629C31.2211 40.8697 41.02 31.2912 52.6732 31.2912C59.1199 31.2912 63.7124 33.8438 67.1629 37.1709L63.0861 41.2848C60.6118 38.9428 57.2596 37.1213 52.6671 37.1213C44.1574 37.1213 37.502 44.0419 37.502 52.629C37.502 61.2162 44.1574 68.1367 52.6671 68.1367C58.1867 68.1367 61.3302 65.9001 63.344 63.8679C64.9772 62.2199 66.0516 59.8655 66.4753 56.65L52.6671 56.6562V56.6562Z" fill="#4285F4"/>
</svg>
