<svg width="229" height="118" viewBox="0 0 229 118" fill="none" xmlns="http://www.w3.org/2000/svg">
<rect width="229" height="118" fill="white"/>
<g clip-path="url(#clip0_20_955)">
<path fill-rule="evenodd" clip-rule="evenodd" d="M45.2279 37.5597L45.2268 37.4935V32.1934H50.5535V71.0672L50.5557 71.1884V76.4335H45.2268V71.1334L45.2279 71.0672V37.5597Z" fill="#3781C2"/>
<path fill-rule="evenodd" clip-rule="evenodd" d="M99.3909 60.3223C99.5276 68.3628 104.538 74.7929 110.582 74.6852C116.625 74.5774 121.413 67.9722 121.276 59.9317C121.138 51.8901 116.128 45.46 110.084 45.5688C104.041 45.6766 99.253 52.2818 99.3909 60.3223ZM143.495 50.6007C143.634 50.9071 143.304 50.1429 143.304 50.1429L143.495 50.6007ZM147.125 83.8883C147.369 83.4731 147.709 82.8379 148.114 82.0445L147.125 83.8883ZM147.438 47.8267C147.503 48.0051 147.577 48.1914 147.661 48.3878L149.454 52.7744L147.438 47.8267ZM125.119 69.9091C128.411 72.8942 131.376 74.4372 135.166 74.4372C139.046 74.4664 142.496 72.571 142.496 68.9227C142.496 65.8782 139.793 64.0973 134.965 62.0583C130.874 60.2897 127.829 59.0497 126.238 56.49C126.432 57.6021 126.534 58.7512 126.534 59.9272C126.534 69.8014 119.364 77.8071 110.519 77.8071C101.674 77.8071 94.5038 69.8014 94.5038 59.9272C94.5038 53.974 97.1101 48.7009 101.117 45.451H90.2792V71.0672L90.2803 71.1694V76.4335H85.4667V71.3411C85.4701 71.2513 85.4712 71.1604 85.4712 71.0672V45.451H81.2273V42.2269H85.5334C86.0894 35.7227 90.1232 32.0442 95.7075 32.0442C99.3287 32.0442 101.317 32.4212 102.465 32.952V37.3611C102.447 37.6899 102.447 37.8908 102.447 37.8908C102.397 37.8852 102.279 37.8829 102.279 37.8829C100.536 36.2771 98.8167 35.0819 94.8011 35.0864C91.6026 35.0864 89.4869 37.6821 90.226 42.2269H108.242C108.986 42.1091 109.746 42.0474 110.519 42.0474C116.935 42.0474 122.471 46.2601 125.026 52.3446C125.003 52.0068 124.991 51.6545 124.991 51.2864C124.991 44.9382 131.143 42.2382 137.533 42.2516C137.777 42.2505 138.017 42.2516 138.252 42.2572C140.501 42.2213 143.705 42.9541 145.662 43.4681L149.454 52.7744L154.875 65.9803L155.511 68.1013L156.22 65.9803L163.075 49.0297C164.339 44.3625 169.345 42.3425 174.874 42.3537C177.623 42.3414 179.652 42.6724 182.087 43.5276V48.6537C179.09 46.4778 176.943 45.2131 173.543 45.2131C170.553 45.2131 166.96 46.535 166.96 50.9295C166.903 54.2321 168.886 54.8359 174.707 57.721C179.491 59.7959 183.904 62.0863 183.93 67.3909C183.93 76.2349 175.207 77.7667 170.961 77.7802C167.17 77.7802 163.696 76.8454 161.764 75.2395V69.4008L162.074 69.6578C165.523 72.874 168.57 74.5404 172.507 74.5404C176.388 74.5696 179.837 72.6731 179.837 69.0249C179.837 65.9804 177.134 64.1994 172.306 62.1604C167.691 60.1652 164.664 58.8432 163.426 55.5384C161.544 60.1225 152.791 81.4161 150.73 85.9677H146.011L148.147 81.9839C149.33 79.6565 151.051 76.0049 152.581 72.5115L143.495 50.6007C143.434 50.4672 143.285 50.1305 142.981 49.4404C142.283 47.8536 141.635 46.388 139.673 45.6496C138.621 45.2961 137.503 45.111 136.202 45.111C133.212 45.111 129.389 46.4329 129.389 50.8274C129.331 54.13 131.544 54.7338 137.366 57.6178C142.15 59.6938 146.563 61.9842 146.589 67.2888C146.589 76.1328 137.865 77.6635 133.619 77.6781C130.249 77.6781 127.127 76.9385 125.119 75.6458V69.9091Z" fill="#3781C2"/>
<path fill-rule="evenodd" clip-rule="evenodd" d="M60.4937 42.5569L60.5525 46.4262L60.5491 46.6865L60.6011 46.6854C60.6632 46.5238 60.7469 46.3869 60.826 46.2848C62.7824 44.1897 65.2485 42.108 71.1098 42.108C76.7201 42.108 80.3514 46.8695 80.4972 49.8668L80.5029 71.0672V71.1727V76.4336H75.695V70.1123L75.6938 52.0641C75.6938 48.3272 72.4106 45.6249 68.3916 45.6249C65.0507 45.6249 60.7627 48.6279 60.6203 51.6679V71.0729L60.6226 71.2154V76.438H55.8124V47.012L55.8136 42.5569H60.4937Z" fill="#3781C2"/>
</g>
<defs>
<clipPath id="clip0_20_955">
<rect width="141" height="56" fill="white" transform="translate(44 31)"/>
</clipPath>
</defs>
</svg>
