<svg width="229" height="118" viewBox="0 0 229 118" fill="none" xmlns="http://www.w3.org/2000/svg">
<rect width="229" height="118" fill="white"/>
<path d="M114.12 9.80941L114.098 8.72226L113.555 8.70099C113.045 8.67972 113.009 8.66596 112.975 8.49082V8.1155C113.009 7.94036 113.045 7.9266 113.555 7.90658L114.098 7.88406L114.143 6.77815H114.898V7.91534L116.002 7.96038V8.6472L115.45 8.66846L114.898 8.69098V10.8966H114.141L114.12 9.80941ZM115.583 12.294C114.863 12.2214 114.822 12.2026 114.822 11.9387C114.822 11.7323 114.862 11.6772 115.06 11.6021C115.346 11.4933 115.471 11.5484 115.801 11.9249C116.053 12.2127 116.103 12.3528 115.944 12.3328L115.583 12.294ZM113.057 12.0913L113.421 11.6885C113.626 11.5283 113.687 11.5171 113.897 11.5896C114.102 11.6609 114.137 11.711 114.137 11.9287C114.137 12.2039 114.127 12.2076 113.209 12.289L112.929 12.3127L113.057 12.0913ZM115.583 13.6601L115.469 13.2322L115.355 13.0146L115.641 13.0646C116.255 13.1747 116.26 13.1785 116.082 13.6051C115.997 13.809 115.927 13.8703 115.778 13.8703L115.583 13.6601ZM112.93 13.6764L112.843 13.2986C112.843 13.1409 112.889 13.1096 113.189 13.0646C113.379 13.0358 113.551 13.0296 113.571 13.0496L113.53 13.2923L113.451 13.6839L113.235 13.8703L112.93 13.6764ZM114.212 13.8665C114.105 13.6676 114.18 13.4337 114.369 13.3736C114.722 13.261 114.99 13.555 114.824 13.8665C114.71 14.078 114.324 14.078 114.212 13.8665ZM117.698 14.3594C117.574 14.0855 117.701 13.9078 118.019 13.9078C118.204 13.9078 118.284 13.9503 118.329 14.0704C118.478 14.4758 117.877 14.751 117.698 14.3594ZM110.672 14.4032C110.469 14.178 110.621 13.8703 110.935 13.8703C111.273 13.8703 111.43 14.2056 111.201 14.437C111.038 14.5996 110.838 14.5871 110.672 14.4032ZM120.016 15.2001C119.815 15.0588 119.789 14.701 119.966 14.5233C120.144 14.3457 120.501 14.3719 120.642 14.5734C120.806 14.8073 120.791 14.9587 120.585 15.1526C120.375 15.349 120.245 15.3603 120.016 15.2001ZM108.35 15.1664C108.16 14.9762 108.155 14.696 108.338 14.5296C108.629 14.2656 109.112 14.4645 109.112 14.8486C109.112 15.0563 108.857 15.319 108.655 15.319L108.35 15.1664ZM114.151 15.4679C113.91 15.2427 113.926 14.8423 114.186 14.6384L114.518 14.4795C114.769 14.4795 115.05 14.7785 115.05 15.0438C115.05 15.5329 114.499 15.7931 114.151 15.4679ZM121.932 16.3611C121.69 16.1522 121.663 15.7719 121.871 15.5404C122.075 15.314 122.537 15.3453 122.734 15.5967C122.914 15.8256 122.927 15.922 122.808 16.1834C122.724 16.3673 122.452 16.5387 122.246 16.5387L121.932 16.3611ZM106.254 16.3511C106.026 16.1234 106.016 15.8619 106.224 15.5967C106.422 15.344 106.83 15.3202 107.056 15.5479C107.284 15.7744 107.26 16.1822 107.008 16.3811C106.741 16.59 106.482 16.58 106.254 16.3511ZM126.561 17.6672L126.61 17.123L127.106 17.1355C127.357 17.4145 127.217 17.7585 126.851 17.7585L126.561 17.6672ZM114.171 17.6522C113.465 17.3432 113.539 16.2973 114.282 16.0746C114.524 16.002 114.618 16.0096 114.853 16.1209C115.507 16.4324 115.519 17.3269 114.87 17.6347C114.559 17.7823 114.476 17.7848 114.171 17.6522ZM101.808 17.6497C101.519 17.3019 102.001 16.8077 102.334 17.1092L102.397 17.6672L101.808 17.6497ZM123.767 18.2802C123.49 18.1276 123.353 17.8849 123.35 17.5433C123.349 17.0829 123.657 16.7677 124.112 16.7677C124.548 16.7677 124.948 17.1505 124.948 17.5683C124.948 18.1351 124.258 18.5504 123.767 18.2802ZM104.401 18.2627C104.157 18.1276 104.017 17.8573 104.014 17.5171C104.01 17.1342 104.367 16.7677 104.744 16.7677C105.274 16.7677 105.61 17.098 105.61 17.6171C105.61 17.9537 105.18 18.3703 104.837 18.3665L104.401 18.2627ZM125.523 18.3765L125.632 18.3465L125.676 18.4453L125.523 18.3765ZM128.881 18.8394C128.442 18.354 129.132 17.6872 129.578 18.1638L129.744 18.5079C129.744 18.9032 129.146 19.1334 128.881 18.8394ZM99.3409 18.8394C99.0636 18.5329 99.2997 17.9874 99.7094 17.9874C100.127 17.9874 100.369 18.5779 100.065 18.8532C99.8805 19.0208 99.4983 19.0133 99.3409 18.8394ZM113.931 20.2018C113.013 19.6413 113.434 18.2176 114.518 18.2176C115.159 18.2176 115.583 18.648 115.583 19.2998C115.582 20.1392 114.657 20.6459 113.931 20.2018ZM131.132 20.6059C130.968 20.5396 130.803 20.138 130.854 19.9316C130.914 19.6926 131.229 19.4361 131.463 19.4361L131.849 19.6175C132.126 19.8565 132.143 20.3031 131.882 20.5145C131.717 20.6484 131.349 20.6934 131.132 20.6059ZM97.0127 20.4557C96.7916 20.1743 96.8141 19.9228 97.0864 19.6501C97.28 19.4562 97.3574 19.4261 97.5623 19.4662C97.877 19.5262 98.0731 19.7677 98.0731 20.0929C98.0731 20.4482 97.8495 20.6572 97.4698 20.6572C97.2375 20.6572 97.1351 20.6121 97.0127 20.4557ZM124.896 21.0312C124.628 20.9524 124.287 20.5896 124.216 20.3069C124.02 19.5225 124.915 18.8094 125.627 19.1847C126.008 19.3849 126.192 19.6738 126.192 20.0754C126.192 20.7735 125.573 21.2301 124.896 21.0312ZM103.428 21.0312C103.124 20.9424 102.814 20.5796 102.751 20.2381C102.651 19.7076 103.199 19.0558 103.745 19.0558C104.275 19.0558 104.818 19.6738 104.742 20.188C104.646 20.8298 104.049 21.2126 103.428 21.0312ZM115.284 23.0141C114.875 22.7939 114.419 22.7539 114.002 22.9015C113.805 22.9716 113.583 23.0479 113.509 23.0717C113.409 23.1029 113.346 23.0454 113.261 22.8415C112.847 21.8481 113.641 20.7685 114.684 20.9086C115.325 20.9937 115.891 21.6317 115.886 22.2622C115.884 22.4862 115.636 23.1918 115.568 23.1642L115.284 23.0141ZM132.857 23.2881C132.372 23.0229 132.252 22.3573 132.618 21.9532C133.339 21.1563 134.538 21.992 134.044 22.9466C133.833 23.3556 133.276 23.5158 132.857 23.2881ZM95.2041 23.2531C94.8968 23.0654 94.7994 22.8815 94.7994 22.4924C94.7994 21.6868 95.8273 21.334 96.3532 21.9595C96.9864 22.7126 96.0484 23.7685 95.2041 23.2531ZM125.08 24.2451C124.794 23.9511 124.259 23.7072 123.897 23.7072C123.717 23.7072 123.712 23.6934 123.742 23.2268C123.778 22.6576 123.976 22.3298 124.418 22.1034C124.971 21.8206 125.651 21.947 126.034 22.4036C126.435 22.8803 126.484 23.472 126.167 23.9937C126.022 24.2301 125.605 24.5479 125.442 24.5429L125.08 24.2451ZM103.203 24.4003C102.511 23.9774 102.359 23.0429 102.884 22.4436C103.198 22.0846 103.473 21.9532 103.905 21.9532C104.654 21.9532 105.261 22.5788 105.215 23.2993L105.191 23.6584L104.804 23.7447C104.35 23.8473 103.9 24.1063 103.733 24.364C103.589 24.5829 103.511 24.5879 103.203 24.4003ZM134.274 26.7485C133.981 26.6309 133.628 26.5333 133.491 26.5308C133.295 26.5283 133.226 26.487 133.168 26.3319C132.824 25.4274 133.686 24.4866 134.606 24.7618L135.146 25.1146C135.368 25.3435 135.411 25.4461 135.437 25.8214C135.462 26.1892 135.438 26.3043 135.29 26.5208C134.98 26.9699 134.879 26.9924 134.274 26.7485ZM113.932 26.836C113.575 26.6196 113.423 26.3406 113.423 25.909C113.423 25.0758 114.283 24.5679 115.035 24.957C115.753 25.3298 115.768 26.4995 115.058 26.8673C114.743 27.0312 114.227 27.0162 113.932 26.836ZM93.8126 26.7209C93.589 26.4907 93.5478 26.3907 93.5203 25.9991C93.4779 25.4211 93.664 25.0871 94.1599 24.8469C94.9043 24.4853 95.7324 24.9307 95.8423 25.7514C95.9035 26.2093 95.7536 26.5283 95.4776 26.5283C95.2965 26.5283 94.8456 26.6734 94.1873 26.9411L93.8126 26.7209ZM123.14 27.7756C122.793 27.6042 122.563 27.2001 122.569 26.7747C122.578 26.1792 123.045 25.7276 123.654 25.7276C124.52 25.7276 125.034 26.6484 124.578 27.3865C124.286 27.8606 123.657 28.0308 123.14 27.7756ZM104.879 27.7956C104.372 27.5654 104.138 26.9374 104.357 26.3907C104.662 25.6263 105.602 25.4661 106.188 26.0779C106.386 26.2843 106.409 26.3619 106.409 26.7985C106.409 27.2601 106.393 27.3039 106.131 27.5666C105.902 27.7956 105.787 27.8506 105.484 27.8744C105.269 27.8919 105.017 27.8581 104.879 27.7956ZM120.503 29.7585C119.878 29.5658 119.443 29.2293 119.013 28.6025L118.842 28.351L118.466 28.7038C118 29.1392 117.519 29.3581 116.92 29.4057C116.338 29.452 115.928 29.3419 115.562 29.0391C115.181 28.7238 114.966 28.2822 114.918 27.7155L114.879 27.2526L115.155 27.5704C115.961 28.4949 117.38 28.4023 117.99 27.384C118.275 26.9086 118.344 26.5508 118.241 26.0792C118.075 25.3223 117.338 24.698 116.61 24.698C116.294 24.698 116.284 24.6905 116.253 24.4253C116.224 24.1751 116.247 24.1375 116.512 23.9862L116.8 23.821V23.0204C116.801 20.4432 116.295 16.6563 115.767 15.2915C115.716 15.1563 115.747 15.1513 116.353 15.2051C117.838 15.3365 119.535 15.8219 120.507 16.3924C121.084 16.7314 122.116 17.7598 122.414 18.2927C122.827 19.0283 122.979 19.6113 123.024 20.6259C123.069 21.658 122.984 22.3035 122.693 23.1505C122.516 23.6672 122.512 23.7147 122.624 23.9324L122.667 24.1651C122.556 24.1651 122.132 24.9345 122.131 25.1396L121.984 25.2347C121.797 25.1346 121.333 25.1334 120.994 25.2297C120.578 25.3498 120.186 25.6688 119.98 26.0541C119.709 26.5646 119.663 26.9161 119.806 27.409C120.177 28.6876 121.72 29.1192 122.689 28.2159L122.904 28.0145L122.849 28.3198C122.764 28.7977 122.691 28.9428 122.352 29.3106C122.123 29.5583 121.927 29.6859 121.65 29.7685C121.182 29.9086 120.984 29.9061 120.503 29.7585ZM107.276 29.7785C106.665 29.5595 106.216 29.0379 106.102 28.4136L106.048 28.1246L106.43 28.3623C106.936 28.6776 107.302 28.7564 107.793 28.6575C108.329 28.55 108.742 28.2322 108.987 27.7405C109.454 26.8023 109.101 25.7739 108.164 25.336C107.758 25.1471 107.224 25.1008 106.975 25.2347L106.828 25.1546C106.828 24.9457 106.63 24.5579 106.394 24.3052C106.214 24.1138 106.212 24.0938 106.328 23.9149C106.444 23.7385 106.439 23.6884 106.227 23.0504C105.669 21.3627 105.795 19.535 106.559 18.2652C107.362 16.9291 108.623 16.0696 110.521 15.5642C111.186 15.3878 112.581 15.1664 113.032 15.1664C113.271 15.1664 113.308 15.1864 113.261 15.3002C113.104 15.6905 112.749 17.2869 112.614 18.2139C112.453 19.3236 112.28 21.1976 112.195 22.7677L112.145 23.6972L112.453 23.8923C112.738 24.0725 112.762 24.1113 112.746 24.3928L112.728 24.698L112.386 24.6993C111.468 24.7043 110.708 25.5074 110.712 26.4682C110.717 27.4478 111.49 28.2084 112.478 28.2034C112.993 28.2022 113.415 28.0083 113.775 27.6079L114.061 27.2902V27.6142C114.06 28.1309 113.92 28.5024 113.592 28.8577C113.183 29.3018 112.763 29.457 112.101 29.4082C111.472 29.3619 110.993 29.1467 110.467 28.6726C110.241 28.4699 110.064 28.3585 110.046 28.4111C109.969 28.6413 109.466 29.2005 109.138 29.4169C108.499 29.8423 107.822 29.9736 107.276 29.7785ZM132.127 30.6542C131.212 30.0775 131.519 28.7276 132.593 28.6063C132.958 28.565 133.255 28.6888 133.546 29.0003C133.687 29.1517 133.74 29.3068 133.765 29.6496C133.796 30.0862 133.787 30.1087 133.495 30.4228C133.226 30.7117 133.151 30.7493 132.783 30.7756C132.464 30.7993 132.316 30.7718 132.127 30.6542ZM95.7037 30.6129C95.4576 30.4453 95.3714 30.3089 95.224 29.856C95.1454 29.6133 95.3177 29.1642 95.59 28.9002C96.4469 28.0696 97.8083 29.0429 97.3249 30.1388C97.0389 30.7843 96.282 31.0057 95.7037 30.6129ZM129.388 31.949C128.617 31.7526 127.962 31.0983 127.492 30.0537C127.487 30.0424 127.287 30.1513 127.05 30.2952C126.505 30.6229 125.976 30.7518 125.375 30.7042C124.134 30.6042 123.454 29.6809 123.702 28.4361L123.752 28.1897L123.843 28.4073C124.422 29.7835 126.366 29.8385 127.033 28.4974C127.526 27.5078 127.033 26.3469 125.986 26.0316C125.799 25.9753 125.631 25.9453 125.611 25.9666C125.591 25.9853 125.592 25.8377 125.615 25.6363C125.637 25.4349 125.679 25.2597 125.709 25.2485C125.739 25.236 125.919 25.1284 126.108 25.0083C127.246 24.2852 127.412 22.8052 126.465 21.8344L126.163 21.5254L126.365 21.339C126.629 21.095 126.925 20.4582 126.926 20.1317L126.837 19.575C126.737 19.2372 126.242 18.6317 126.006 18.5567L125.879 18.4779C125.931 18.4278 127.021 18.8719 127.774 19.2497C129.649 20.1905 131.058 21.5116 131.754 22.9803C132.122 23.7585 132.261 24.3465 132.333 25.4324C132.367 25.9415 132.431 26.4257 132.476 26.5108C132.545 26.6421 132.518 26.6884 132.269 26.8535C132.112 26.9586 131.902 27.1963 131.802 27.384L131.622 27.7243L131.254 27.5842C130.683 27.3665 130.006 27.3952 129.507 27.6567C128.496 28.1847 128.361 29.7022 129.254 30.4878C129.716 30.8944 130.568 31.0383 131.048 30.7906L131.295 30.8644C131.411 30.9932 131.405 31.0233 131.198 31.3097C130.833 31.8139 130.006 32.1067 129.389 31.949H129.388ZM98.6814 31.9515C98.3067 31.8289 98.0157 31.6413 97.7733 31.3635C97.531 31.0871 97.5285 31.0808 97.6722 30.9369C97.7996 30.8093 97.8608 30.8018 98.1705 30.8706C98.9399 31.0433 99.7243 30.6655 100.08 29.9511C100.545 29.0178 100.158 27.8994 99.2497 27.5516C98.8375 27.3952 97.9307 27.4303 97.5672 27.6192C97.3287 27.743 97.3287 27.743 97.2338 27.5153C97.1813 27.389 96.9802 27.1413 96.7866 26.9649L96.4344 26.6421L96.5243 26.2993C96.573 26.1104 96.6167 25.6788 96.6205 25.3398C96.6467 22.6851 98.6189 20.3069 101.986 18.8707C103.033 18.4241 103.213 18.374 102.832 18.6367C102.469 18.8882 102.374 18.9995 102.181 19.3986C101.901 19.9803 102.018 20.6772 102.48 21.2001L102.775 21.5316L102.496 21.8031C102.116 22.1709 101.933 22.585 101.894 23.1567C101.838 23.9837 102.302 24.7931 103.019 25.1171C103.287 25.2372 103.327 25.2872 103.327 25.5037L103.368 25.8615L103.184 25.9778L102.667 26.1342C102.059 26.4482 101.717 27.0149 101.717 27.7105C101.717 28.7126 102.444 29.4507 103.442 29.4595C104.09 29.4657 104.572 29.2093 104.925 28.6726L105.191 28.2685L105.258 28.5737C105.414 29.2868 105.062 30.0887 104.433 30.4578C103.744 30.8619 102.508 30.7668 101.804 30.2564L101.476 30.0362C101.462 30.0362 101.369 30.2163 101.269 30.4365C101.047 30.9307 100.399 31.5937 99.9392 31.7976C99.5457 31.9715 98.9612 32.0429 98.6814 31.9515ZM100.181 32.9811C103.091 31.8102 106.894 30.9082 110.521 30.5303C112.144 30.3602 115.267 30.3027 116.877 30.4115C120.874 30.6817 124.934 31.5262 128.145 32.7559C129.741 33.3677 129.74 33.3677 130.222 33.2163C130.777 33.0399 131.281 32.6934 131.9 32.0616C132.392 31.56 132.441 31.5299 132.803 31.5087C134.042 31.4348 134.825 30.1976 134.374 29.0266C134.299 28.8314 134.333 28.7726 134.855 28.1609C135.902 26.9361 135.988 26.816 136.108 26.4007C136.441 25.2522 135.549 24.0287 134.369 24.0149C134.024 24.0112 134.011 23.9424 134.312 23.7197C134.801 23.3556 135.009 22.4862 134.751 21.8769C134.437 21.1351 133.55 20.726 132.812 20.9824L132.461 21.065C132.444 21.0475 132.512 20.8748 132.61 20.6809C132.894 20.1192 132.83 19.6163 132.423 19.1797C131.917 18.6367 131.094 18.6042 130.571 19.1046C130.333 19.3311 130.245 19.246 130.363 18.907C130.478 18.5767 130.408 18.05 130.212 17.7748C129.753 17.1292 128.653 17.153 128.24 17.8186L127.981 18.005C127.877 17.9837 127.863 17.9074 127.897 17.5321C127.93 17.1618 127.909 17.0392 127.773 16.8202C127.351 16.1347 126.314 16.1534 125.914 16.854L125.671 17.1455L125.437 16.8215C125.206 16.3511 124.711 16.0658 124.102 16.0533L123.632 16.0433L123.54 15.678C123.426 15.2314 123.13 14.9074 122.681 14.7347C122.338 14.6034 122.263 14.6109 121.579 14.8361L121.445 14.7135C121.445 14.2819 120.953 13.7639 120.463 13.6801C120.104 13.6201 119.528 13.8403 119.394 14.0917C119.271 14.3232 119.112 14.2869 119.057 14.0154C118.986 13.6564 118.74 13.3674 118.385 13.2247C117.855 13.0121 117.33 13.2122 117.065 13.7239C116.909 14.0254 116.794 14.0104 116.882 13.6989C116.989 13.3286 116.969 12.5579 116.843 12.2014C116.681 11.7448 116.328 11.2631 115.971 11.0154L115.66 10.799V9.44786H115.988C116.51 9.44786 116.801 9.03752 116.801 8.30316C116.801 7.57005 116.51 7.15971 115.988 7.15971H115.66V6.87197C115.66 6.31901 115.241 6 114.516 6C113.746 6 113.299 6.35529 113.299 6.96705C113.299 7.13469 113.266 7.15971 113.039 7.15971C112.666 7.15971 112.562 7.21726 112.372 7.52627C112.036 8.06922 112.215 9.23018 112.661 9.40157L113.039 9.44786H113.299V10.1722C113.299 10.6138 113.269 10.8966 113.222 10.8966L112.813 11.2018C112.187 11.7785 111.91 12.7456 112.105 13.6689C112.181 14.0254 112.086 14.0166 111.838 13.6413C111.447 13.0521 110.688 12.962 110.205 13.4462L109.909 13.9704C109.845 14.3106 109.777 14.3194 109.483 14.0242C109.191 13.7314 108.752 13.6088 108.366 13.7126C107.947 13.8265 107.513 14.3294 107.513 14.7035C107.513 14.8936 107.466 14.8974 107.089 14.7397C106.361 14.4345 105.519 14.9462 105.384 15.7756L105.341 16.0433L104.88 16.0533C104.2 16.0671 103.74 16.3311 103.469 16.8628L103.255 17.1492L103.044 16.8703C102.772 16.3448 102.031 16.1484 101.513 16.4649C101.152 16.6851 100.926 17.2181 101.027 17.6159C101.09 17.8623 101.081 17.9249 100.98 17.9812C100.886 18.0337 100.817 17.9924 100.687 17.801C100.231 17.128 99.1698 17.1467 98.7014 17.8348C98.514 18.11 98.4653 18.7155 98.609 18.9858C98.7326 19.2172 98.6164 19.3198 98.4266 19.1459C97.4973 18.2964 96.0921 18.947 96.1896 20.1818C96.2083 20.432 96.282 20.6684 96.3819 20.8023L96.5018 21.0612L96.1433 20.9887C95.4813 20.7497 94.6632 21.0662 94.2885 21.7055C93.9063 22.3598 94.0599 23.238 94.6432 23.7297L94.8756 23.9687L94.5483 24.0112C94.1224 24.0112 93.4979 24.3239 93.1981 24.6855C92.9008 25.0445 92.7122 25.6826 92.7722 26.1204C92.8359 26.5871 93.0507 26.9724 93.584 27.5716C93.8388 27.8581 94.1848 28.271 94.3547 28.4899L94.662 28.8877L94.5683 29.2568C94.311 30.2614 94.963 31.2872 95.981 31.4774C96.1883 31.5162 96.3819 31.5324 96.4119 31.5137C96.4419 31.4961 96.7329 31.7514 97.0601 32.0816C97.8221 32.851 98.589 33.3014 99.151 33.3114C99.261 33.3127 99.7256 33.165 100.181 32.9811ZM113.854 33.0249C113.509 32.8273 113.227 32.6496 113.225 32.6283L114.578 31.879C114.833 31.9903 115.812 32.5733 115.811 32.6146L114.507 33.3865C114.492 33.384 114.198 33.2213 113.854 33.0249ZM121.488 33.8869C120.658 33.698 120.456 33.5529 120.456 33.1475C120.456 32.8698 120.823 32.4745 121.078 32.4795C121.175 32.482 121.614 32.5633 122.051 32.6621C122.922 32.8573 123.12 32.9961 123.12 33.4052C123.12 33.7105 122.753 34.0808 122.461 34.0683C122.342 34.0633 121.904 33.982 121.488 33.8869ZM106.137 33.8544C105.877 33.5941 105.845 33.2664 106.051 33.0099C106.153 32.8848 106.393 32.7947 106.984 32.6621C107.421 32.5633 107.859 32.482 107.957 32.4795C108.212 32.4745 108.579 32.8698 108.579 33.1475C108.579 33.5579 108.38 33.6955 107.51 33.8919C106.482 34.1221 106.403 34.1208 106.137 33.8544ZM127.73 35.3368C127.534 35.1066 127.392 34.8877 127.416 34.8502C127.438 34.8139 127.637 34.7601 127.858 34.7313C128.079 34.7026 128.329 34.6613 128.414 34.6413C128.544 34.6087 128.592 34.6675 128.708 34.9915C128.786 35.2055 128.836 35.3906 128.82 35.4019L128.164 35.7547C128.123 35.7547 127.927 35.567 127.73 35.3368ZM100.509 35.587L100.218 35.4044C100.204 35.3956 100.255 35.2117 100.333 34.9953C100.448 34.6713 100.498 34.61 100.624 34.6413C100.707 34.6613 100.956 34.7026 101.177 34.7313C101.398 34.7601 101.597 34.8139 101.62 34.8502L100.861 35.7534L100.509 35.587ZM101.374 36.3339C101.64 36.0086 101.695 35.9824 103.039 35.5395C106.141 34.5162 109.359 33.9219 112.804 33.7368L113.642 33.6917L114.092 33.9519L114.542 34.2109L114.994 33.9457L115.447 33.6792L116.829 33.768C120.108 33.9795 123.069 34.5424 126.128 35.5332C127.24 35.8935 127.28 35.9136 127.621 36.2964L127.971 36.688L128.82 36.2151C129.285 35.9548 129.669 35.7184 129.669 35.6909C129.67 35.6634 129.524 35.238 129.345 34.7463L129.021 33.8519L128.64 33.8931C128.317 33.9282 128.108 33.8806 127.27 33.5804C123.981 32.4057 120.026 31.6375 116.614 31.5087C115.399 31.4624 115.3 31.4474 114.923 31.2484L114.522 31.0383L114.12 31.2597C113.756 31.4611 113.65 31.4824 112.99 31.4836C112.59 31.4836 111.699 31.5374 111.011 31.6025C107.807 31.9052 104.988 32.5132 101.994 33.5479C100.717 33.9895 100.822 33.9669 100.356 33.8969L100.014 33.8456L99.6794 34.7639C99.4958 35.2693 99.3684 35.7046 99.3959 35.7334L101.052 36.6667C101.078 36.6692 101.223 36.5191 101.374 36.3339ZM102.811 37.7726C110.261 35.2155 118.65 35.2142 126.228 37.7689C127.329 38.1404 127.564 38.1429 127.654 37.7851C127.735 37.4636 127.577 37.3072 126.947 37.092C124.03 36.0925 121.595 35.5383 118.496 35.1692C116.887 34.9765 112.147 34.9765 110.539 35.1692C107.734 35.5032 105.326 36.0262 102.902 36.8268C101.545 37.2734 101.347 37.381 101.347 37.66L101.76 38.1191C101.783 38.1191 102.256 37.9628 102.811 37.7726ZM145.236 42.7893C145.588 42.125 145.452 41.572 144.866 41.293C144.476 41.1079 144.084 41.1404 143.144 41.4356C142.199 41.7321 142.015 41.7522 141.706 41.5933C141.246 41.3556 141.254 41.2918 141.798 40.7138C142.425 40.047 142.537 39.728 142.314 39.2251C142.011 38.5382 141.361 38.4006 140.342 38.8097C140.022 38.9373 139.725 39.0699 139.683 39.1037C139.504 39.2438 138.702 39.4915 138.426 39.4915C138.048 39.4915 137.697 39.2075 137.575 38.8022C137.458 38.4069 137.525 38.3356 138.297 38.0366C139.21 37.6838 139.473 37.5324 139.601 37.2834C139.86 36.7818 139.658 36.0237 139.165 35.6521C138.866 35.4257 138.5 35.3181 137.719 35.228C136.795 35.1217 136.376 34.7864 136.311 34.1021C136.221 33.1438 137.072 32.0904 137.928 32.0966C138.204 32.0991 138.703 32.3781 138.899 32.6396C139.006 32.7797 139.198 33.1087 139.328 33.369C139.787 34.2897 140.322 34.6875 141.101 34.6875C141.55 34.6875 141.833 34.5387 142.018 34.2046C142.068 34.1133 142.129 33.6016 142.154 33.0662C142.179 32.527 142.237 32.0566 142.283 32.0103C142.412 31.8815 143.129 32.1217 143.476 32.4107C144.028 32.8673 144.119 33.5116 143.789 34.6162C143.683 34.969 143.576 35.4382 143.55 35.6584C143.465 36.3902 143.871 37.057 144.471 37.1696C144.941 37.2584 145.203 37.1383 145.785 36.5729L146.335 36.0387L146.597 36.3014C147.098 36.8043 147.108 37.2609 146.642 38.4619C146.286 39.3789 146.331 40.022 146.78 40.4273C147.027 40.6512 147.332 40.7 147.776 40.5862C147.999 40.5286 148.214 40.5011 148.251 40.5249C148.462 40.655 148.202 41.3844 147.764 41.8923L147.515 42.1813L146.835 41.313C145.432 39.5253 144.125 38.2367 141.931 36.4815C140.541 35.3694 138.237 33.6955 138.096 33.6955L137.855 34.0107C137.878 34.0683 138.076 34.2397 138.294 34.3923C138.843 34.7764 140.36 36.0875 141.84 37.4586C143.277 38.7909 144.553 40.1433 145.829 41.6871L146.725 42.773L146.514 42.8556C145.909 43.092 145.683 43.1508 145.378 43.1508H145.043L145.236 42.7893ZM146.194 44.1742C146.421 44.1079 146.803 43.9665 147.043 43.8602L147.479 43.6662L147.75 43.9039C148.056 44.1729 148.049 44.1717 148.25 44.0641C148.425 43.9702 148.441 43.6875 148.288 43.3935C148.186 43.1934 148.196 43.1683 148.558 42.7305C148.766 42.479 149.045 42.0524 149.18 41.7797C149.385 41.3656 149.424 41.1992 149.424 40.7501C149.424 40.1283 149.268 39.788 148.849 39.504C148.631 39.3552 148.517 39.3314 148.169 39.3589C147.937 39.3789 147.689 39.4202 147.615 39.4515L147.515 39.404C147.534 39.3477 147.668 38.9749 147.813 38.5758C148.151 37.6437 148.206 37.2134 148.057 36.6492C147.724 35.3906 146.611 34.6525 145.732 35.1054C145.586 35.1805 145.286 35.4344 145.067 35.6696C144.707 36.0549 144.667 36.0787 144.667 35.9111C144.666 35.8072 144.772 35.3468 144.904 34.8852C145.322 33.4052 145.146 32.4044 144.338 31.6588C143.921 31.2735 143.518 31.062 142.909 30.9057C142.313 30.7518 141.918 30.8181 141.565 31.1296C141.18 31.4674 141.074 31.7839 141.029 32.7234C141.008 33.175 140.968 33.5428 140.942 33.5428C140.784 33.5428 140.552 33.2576 140.291 32.7422C140.127 32.4194 139.849 31.9941 139.673 31.7976C138.72 30.7368 137.136 30.7105 136.109 31.7388C135.493 32.3556 135.091 33.409 135.171 34.1896C135.26 35.0503 135.799 35.8085 136.566 36.1475C136.754 36.2313 137.216 36.3302 137.593 36.3702C138.65 36.479 138.844 36.6454 138.176 36.8656C137.665 37.0345 137.062 37.3222 136.85 37.4999C136.336 37.929 136.229 38.6171 136.564 39.3389C136.917 40.102 137.484 40.5361 138.234 40.6137C138.774 40.6688 139.298 40.5336 140.257 40.092C140.699 39.8869 141.09 39.7205 141.124 39.7205C141.159 39.7205 140.997 39.9206 140.763 40.1658C140.022 40.9427 140.006 41.5683 140.711 42.2526C141.39 42.9119 142.092 42.9882 143.405 42.5428C143.779 42.4165 144.114 42.3126 144.149 42.3126L144.058 42.6141C143.749 43.2221 143.952 43.8026 144.588 44.1241C144.997 44.3305 145.593 44.3493 146.194 44.1742ZM82.8498 42.9932C82.6212 42.9106 82.4076 42.8193 82.3751 42.7868C82.2939 42.7054 84.1488 40.4874 85.2866 39.3076C86.8255 37.7113 89.6008 35.193 90.7487 34.3535C91.0497 34.1333 91.1472 34.017 91.1297 33.8956C91.0822 33.5629 90.8162 33.6805 89.5846 34.58C85.9948 37.1996 84.0501 38.9523 82.3164 41.1304C81.8817 41.6758 81.5033 42.1225 81.4746 42.1225C81.3909 42.1225 81.0536 41.6921 80.8763 41.3606C80.7139 41.0541 80.6539 40.4824 80.7863 40.4824L81.0649 40.5612C81.3946 40.6875 81.908 40.6688 82.1291 40.5236C82.239 40.4523 82.3976 40.2359 82.4825 40.0432C82.6824 39.5916 82.6374 39.1237 82.3177 38.3193C81.8955 37.2559 81.9292 36.738 82.4488 36.2801L82.7261 36.0362L83.1096 36.4603C83.789 37.2121 84.2687 37.3685 84.8557 37.0307C85.469 36.6792 85.5927 35.9373 85.2417 34.7226C84.867 33.4265 84.9094 33.0049 85.4678 32.4895C85.845 32.1404 86.6244 31.8489 86.728 32.0178C86.7593 32.0679 86.8017 32.5095 86.8217 32.9999C86.8767 34.346 87.1052 34.6875 87.9509 34.6875C88.699 34.6875 89.2111 34.286 89.6958 33.3202C90.3365 32.0429 91.2696 31.7514 92.1102 32.5658C92.636 33.075 92.8509 34.0858 92.5448 34.605C92.3138 35.0003 91.9953 35.1442 91.1009 35.2618C90.5214 35.3381 90.2016 35.4207 89.9756 35.5533C89.4285 35.8748 89.1012 36.7105 89.3398 37.1734C89.5246 37.5299 89.7207 37.66 90.5489 37.9753C91.5581 38.3581 91.5881 38.3894 91.4145 38.8447C91.1159 39.6291 90.5164 39.6742 89.1412 39.0199C88.353 38.6446 88.2481 38.6146 87.7323 38.6146C87.1864 38.6146 87.169 38.6208 86.9166 38.8973C86.402 39.4578 86.4595 39.8768 87.1502 40.6325C87.4213 40.9277 87.6423 41.2004 87.6423 41.2392C87.6423 41.3806 87.1677 41.7021 86.9579 41.7021C86.8392 41.7021 86.3596 41.582 85.8912 41.4356C84.6097 41.0328 84.0588 41.1041 83.6841 41.7209C83.4868 42.0436 83.493 42.1888 83.7228 42.6829C83.8265 42.9069 83.9127 43.1045 83.9127 43.1208C83.9127 43.2059 83.2132 43.122 82.8498 42.9932ZM84.466 44.1104C85.0543 43.8251 85.2604 43.1546 84.9457 42.5491C84.8395 42.3464 84.8345 42.3001 84.9194 42.3326C85.6963 42.6304 86.3783 42.7943 86.8817 42.8005C87.3863 42.808 87.5012 42.7805 87.8709 42.5728C88.4217 42.2638 88.7852 41.7472 88.7852 41.2705C88.7852 40.8539 88.6416 40.5674 88.1957 40.0895C88.0058 39.8869 87.8747 39.7205 87.9046 39.7205C87.9346 39.7205 88.3243 39.8894 88.7715 40.097C89.9631 40.6512 90.5501 40.7513 91.2371 40.5161C92.1514 40.2046 92.8596 38.9711 92.5923 38.1579C92.4037 37.5862 92.0102 37.2985 90.8212 36.8656C90.2091 36.6429 90.4052 36.4753 91.397 36.3752C92.0827 36.3051 92.686 36.0762 93.0894 35.7347C93.3929 35.4782 93.7164 34.8752 93.8064 34.3961C94.0287 33.2251 93.1956 31.665 92.0802 31.1659C91.5169 30.9132 90.7012 30.9282 90.1417 31.2022C89.5634 31.4861 89.1474 31.9203 88.7802 32.6283C88.4567 33.2514 88.1644 33.5929 88.0295 33.5091C87.9808 33.479 87.9471 33.1738 87.9471 32.7572C87.9459 31.889 87.8484 31.5237 87.5349 31.2097C87.0316 30.7042 86.2609 30.7142 85.2592 31.2372C83.9826 31.904 83.5779 33.1625 84.0901 34.8677C84.2012 35.2393 84.2924 35.6471 84.2924 35.7759V36.0074L83.8115 35.5445C83.2569 35.0116 82.8772 34.8602 82.4063 34.9878C81.6107 35.203 80.9537 36.095 80.885 37.057C80.8525 37.4999 80.885 37.6663 81.1623 38.4732C81.3347 38.9761 81.4758 39.4077 81.4758 39.4327L81.1935 39.4002C80.2355 39.1362 79.5248 39.7805 79.586 40.8589C79.6197 41.4707 79.857 41.9924 80.4154 42.6867L80.8088 43.1733L80.6852 43.4323C80.5228 43.7738 80.5303 43.8827 80.7264 44.0203C80.9075 44.1479 81.0724 44.0966 81.3796 43.8164L81.5495 43.6612L82.0654 43.8989C82.3476 44.0303 82.7174 44.1717 82.8847 44.2129C83.3344 44.323 84.1325 44.2717 84.466 44.1104ZM76.3085 43.1245C76.1661 42.9532 75.995 42.3351 75.995 41.9936C75.995 41.6721 76.1736 41.1717 76.321 41.0778C76.5146 40.954 76.7669 41.0266 77.0554 41.288C77.3952 41.5958 77.6325 42.0436 77.7074 42.524L77.7599 42.8493L77.3927 43.012C76.8956 43.2309 76.4372 43.2797 76.3085 43.1245ZM76.5271 44.3568C76.261 44.2717 76.261 44.2717 76.8793 44.1479C77.2191 44.0803 77.7087 43.9127 77.9672 43.7776C78.3257 43.5887 78.4206 43.5624 78.3644 43.665C78.0709 44.2117 77.1541 44.557 76.5271 44.3568ZM78.7679 45.7767C78.9465 45.5978 78.9153 45.2638 78.7017 45.0624L78.5168 44.8873L78.7441 44.6958C79.5435 44.0215 79.5997 42.5278 78.8378 42.16C78.663 42.0762 78.548 41.9235 78.3969 41.577C78.1621 41.0391 77.7849 40.5662 77.4002 40.3285C77.1316 40.1621 76.4609 39.9519 76.1948 39.9494C76.0212 39.9482 75.5104 40.4874 75.2905 40.9014C75.0994 41.2643 75.017 42.3376 75.1456 42.8005C75.2093 43.0332 75.2031 43.1408 75.1157 43.3097C74.8047 43.9139 75.1819 44.7446 75.9563 45.1587C76.2011 45.2888 76.3947 45.3214 76.9368 45.3226L77.6125 45.3251L77.8985 45.6104C78.2133 45.9256 78.5543 45.9907 78.7679 45.7767ZM151.974 43.1571L151.527 42.9657C151.281 42.8381 151.272 42.8193 151.316 42.4965C151.38 42.0361 151.6 41.6321 151.969 41.2968C152.46 40.8527 152.806 40.9678 152.965 41.6271C153.067 42.0549 153.024 42.4177 152.81 42.9031C152.684 43.1934 152.641 43.2271 152.417 43.2209L151.974 43.1571ZM151.472 44.3105C151.084 44.1491 150.894 44.0065 150.732 43.7563L150.605 43.5612L151.119 43.8164C151.412 43.9615 151.876 44.1116 152.203 44.1679L152.774 44.2642L152.515 44.3556C152.167 44.4794 151.847 44.4657 151.472 44.3105ZM150.88 45.8143L151.246 45.5003C151.341 45.3639 151.442 45.3439 152.071 45.3351C152.725 45.3251 152.817 45.3051 153.158 45.0937C153.864 44.6571 154.186 43.9227 153.919 43.3597C153.814 43.1396 153.805 43.0345 153.872 42.7955C153.992 42.3627 153.965 41.562 153.818 41.1492C153.673 40.7463 153.245 40.1608 152.991 40.022C152.766 39.8981 151.964 40.1033 151.557 40.3898C151.171 40.6613 150.713 41.2605 150.553 41.7034C150.467 41.9436 150.361 42.0799 150.198 42.16C149.789 42.3627 149.652 42.6354 149.655 43.2521C149.656 43.8727 149.776 44.1654 150.208 44.6183L150.481 44.9035L150.326 45.0762C150.087 45.3414 150.065 45.4102 150.146 45.6254C150.207 45.7855 150.403 45.9356 150.595 45.9682L150.88 45.8143ZM144.704 47.7747C144.18 47.5282 144.008 47.3243 144.1 47.0591C144.188 46.8126 144.576 46.5361 145.001 46.4223C145.304 46.3397 146.079 46.371 146.178 46.4698C146.205 46.4973 146.226 46.8101 146.226 47.1641C146.226 47.9235 146.201 47.9523 145.542 47.9535C145.22 47.9535 144.972 47.901 144.704 47.7747ZM147.057 48.2375C147.252 47.6183 147.255 46.4836 147.062 46.1058L147.207 46.2209C147.393 46.4235 147.558 46.8539 147.559 47.1404C147.559 47.4419 147.385 47.941 147.204 48.1525L147.057 48.2375ZM147.293 49.2609C147.849 49.0057 148.333 48.3351 148.44 47.6758C148.481 47.4156 148.53 47.3631 148.877 47.1929C149.35 46.9615 149.483 46.7038 149.283 46.3985C149.14 46.1796 148.809 46.1333 148.551 46.2947L148.381 46.351C148.368 46.3322 148.27 46.1445 148.161 45.9344C147.905 45.4427 147.45 45.0937 146.921 44.9836C146.455 44.886 146.118 44.9798 145.853 45.2763C145.738 45.4052 145.619 45.439 145.282 45.4402C144.826 45.4427 144.184 45.6654 143.761 45.9669C143.456 46.1846 142.991 46.8676 142.991 47.0978C142.991 47.3793 143.447 48.1062 143.772 48.3426C144.145 48.6128 144.759 48.8468 145.273 48.9156C145.559 48.9531 145.723 49.0269 145.883 49.1858C146.073 49.3772 146.156 49.4035 146.545 49.4023C146.81 49.4023 147.111 49.3447 147.293 49.2609ZM82.8435 47.7959C82.7311 47.587 82.7149 46.6074 82.8223 46.4998C82.9672 46.3547 83.6441 46.3322 84.0776 46.4573C84.6346 46.6199 84.9019 46.8364 84.9019 47.1216C84.9019 47.5695 84.3611 47.8897 83.5205 47.9398C82.9709 47.9723 82.9322 47.9636 82.8435 47.7959ZM81.7993 48.165C81.4383 47.7797 81.3646 47.014 81.6357 46.4548C81.8305 46.0495 81.9392 46.0282 81.8505 46.411C81.7531 46.8339 81.7668 47.4869 81.8842 47.9385C81.9404 48.1575 81.9804 48.3364 81.9729 48.3364L81.7993 48.165ZM82.9934 49.2922L83.2494 49.0732C83.2744 49.0082 83.4643 48.9444 83.7341 48.9106C84.7271 48.7867 85.4353 48.3289 85.8512 47.542L86.0773 47.1141L85.8899 46.7601C85.4752 45.9794 84.7483 45.5215 83.8165 45.4552C83.3619 45.4227 83.2457 45.3864 83.1308 45.24C82.8572 44.8923 82.154 44.861 81.5582 45.17C81.2822 45.3114 80.85 45.798 80.7214 46.1108C80.6439 46.2972 80.5852 46.3485 80.4941 46.3084C80.0207 46.1008 79.6485 46.2521 79.6485 46.6525C79.6485 46.8952 79.7809 47.0315 80.2393 47.2617C80.5003 47.3931 80.5628 47.4644 80.5628 47.6333C80.5628 47.906 80.9487 48.7104 81.1848 48.9269C81.6657 49.3697 82.5138 49.5411 82.9934 49.2922ZM154.284 61.5661C154.027 61.511 153.722 61.4035 153.608 61.3284L153.401 61.192L153.573 61.0744C153.925 60.8355 154.251 60.4802 154.301 60.2788C154.375 59.9848 154.141 59.4281 153.852 59.2079C153.601 59.0177 153.182 58.8826 152.168 58.6662C151.673 58.5611 151.513 58.4898 151.305 58.2809C150.895 57.8705 150.973 57.7191 151.713 57.479C152.513 57.22 152.701 57.0886 152.857 56.6783C153.025 56.2379 152.919 55.8438 152.546 55.5161C152.205 55.2146 151.907 55.137 150.778 55.0482C149.777 54.9694 149.449 54.8718 149.17 54.569C148.96 54.3413 148.882 53.8772 149 53.5695C149.084 53.353 149.089 53.3518 149.559 53.3993C149.82 53.4268 150.326 53.4694 150.683 53.4931C151.304 53.5369 151.344 53.5294 151.568 53.3418C151.893 53.0678 151.999 52.7675 151.961 52.2321C151.917 51.6228 151.658 51.245 150.986 50.8109C150.698 50.6245 150.392 50.3818 150.306 50.2717C150.14 50.0603 149.986 49.6049 150.032 49.456L150.106 49.152C150.167 48.8731 150.708 48.2888 151.081 48.0974C151.825 47.7184 152.603 47.9098 152.957 48.5578C153.122 48.8593 153.142 48.9944 153.152 49.8651C153.162 50.7384 153.182 50.8735 153.353 51.2062C153.578 51.6441 154.034 51.9919 154.455 52.0469C154.686 52.077 154.813 52.0457 155.02 51.9068C155.277 51.7329 155.411 51.5515 156.026 50.5507C156.182 50.298 156.351 50.0903 156.402 50.0903C156.452 50.0903 156.655 50.2567 156.848 50.4581C157.385 51.0161 157.494 51.6278 157.169 52.2634C157.104 52.3897 156.748 52.8076 156.377 53.1916C155.419 54.185 155.223 54.7041 155.555 55.3584C155.856 55.9477 156.396 56.0953 157.208 55.8101C157.866 55.5786 157.952 55.5974 158.065 55.9965C158.253 56.6733 158.017 57.0924 156.963 57.9493C156.389 58.416 156.162 58.79 156.162 59.2742C156.162 59.9072 156.45 60.215 157.17 60.3488C157.368 60.3851 157.456 60.4414 157.456 60.5302C157.456 60.7254 157.013 61.1145 156.542 61.3321C156.035 61.5673 156.096 61.6762 155.821 60.0586C155.573 58.6074 155.276 57.4089 154.828 56.0703C153.972 53.4994 152.233 49.6249 151.887 49.5148C151.5 49.3922 151.505 49.7125 151.906 50.7183C153.387 54.4339 154.286 57.3426 154.79 60.0411C154.923 60.7542 155.05 61.4147 155.072 61.5098C155.121 61.715 155.002 61.7237 154.284 61.5661ZM156.082 63.3638L156.162 62.9635C156.164 62.7195 156.182 62.7033 156.718 62.5019C157.857 62.0753 158.514 61.3985 158.582 60.5828C158.641 59.8722 158.34 59.4668 157.615 59.2817L157.272 59.1941L157.94 58.6274C158.307 58.3159 158.71 57.9056 158.834 57.7179C159.34 56.9548 159.397 56.084 158.997 55.2759C158.622 54.5202 158.011 54.3301 157.037 54.6654C156.794 54.7492 156.583 54.818 156.568 54.818C156.446 54.818 156.651 54.5515 157.269 53.9035C158.208 52.9202 158.482 52.3835 158.477 51.5378C158.472 50.8134 158.237 50.263 157.68 49.6737C157.024 48.9781 156.45 48.7967 155.861 49.097C155.502 49.2809 155.206 49.6312 154.826 50.3243C154.667 50.6158 154.512 50.8535 154.482 50.8535C154.358 50.8535 154.308 50.5382 154.295 49.6712C154.284 48.9344 154.249 48.6716 154.115 48.3251C153.636 47.0841 152.319 46.4598 151.074 46.8827C149.042 47.572 148.255 49.6787 149.509 51.0749C149.696 51.2838 149.976 51.5303 150.132 51.6228C150.514 51.8518 150.833 52.1545 150.833 52.2884C150.833 52.3747 150.763 52.3872 150.509 52.3484C149.158 52.142 148.609 52.2296 148.177 52.7213C147.719 53.2454 147.683 54.3038 148.099 55.0357C148.488 55.7162 149.245 56.084 150.414 56.1591C150.749 56.1804 151.176 56.2167 151.365 56.2404L151.707 56.2817L151.174 56.4506C150.494 56.667 150.251 56.8297 150.067 57.1912C149.87 57.579 149.881 58.0507 150.1 58.5161C150.451 59.2654 150.981 59.602 152.2 59.8472C152.63 59.9335 152.999 60.0035 153.022 60.0035L152.741 60.2375C152.372 60.5052 152.17 60.9093 152.235 61.2546C152.394 62.094 153.357 62.6758 154.787 62.7959C155.378 62.8447 155.386 62.8484 155.432 63.0761L155.563 63.4089L156.082 63.3638ZM73.9391 61.5886C73.9391 61.401 74.4874 58.6449 74.6723 57.9068C75.1157 56.1278 75.8876 53.8247 76.9543 51.0937C77.2216 50.4081 77.4414 49.7851 77.4414 49.7075L77.0217 49.5574C76.8643 49.6875 75.8576 51.7717 75.2793 53.1616C74.1689 55.8351 73.5831 57.7592 73.1709 60.1011C72.8849 61.7187 72.9586 61.6311 72.2266 61.2271C71.8931 61.0432 71.5022 60.6278 71.5022 60.4564L71.8269 60.3438C72.73 60.1937 73.0935 59.5444 72.7275 58.7362C72.6313 58.5236 72.3503 58.2208 71.8632 57.803C70.9301 57.0036 70.7365 56.5882 70.9776 55.8976C71.0763 55.6124 71.1687 55.6024 71.7695 55.8101C72.013 55.8939 72.3303 55.9614 72.4739 55.9614C73.372 55.9614 73.8629 55.0157 73.4157 54.1474C73.3233 53.9673 72.9386 53.4956 72.5614 53.0991C72.1842 52.7025 71.8257 52.2596 71.7657 52.1132C71.5234 51.534 71.702 50.8922 72.2541 50.3618L72.5664 50.0615L72.7462 50.2317C72.8449 50.3243 73.0597 50.6458 73.2234 50.9473C73.7667 51.9456 74.2376 52.2359 74.8596 51.9556C75.2493 51.7792 75.6578 51.3251 75.7602 50.9535C75.8051 50.7934 75.8414 50.3193 75.8426 49.9002C75.8426 49.4811 75.8788 49.0082 75.9226 48.8493C76.0287 48.4677 76.3934 48.0624 76.7307 47.951C77.7187 47.6245 79.0427 48.6304 78.9465 49.6349C78.9015 50.0978 78.7329 50.323 78.1159 50.7346C77.5076 51.1424 77.1828 51.5203 77.0592 51.9644C76.8968 52.5449 77.1091 53.1966 77.5338 53.4168C77.7362 53.5219 77.8935 53.5319 78.4656 53.4831C78.8441 53.4506 79.3424 53.4206 79.5723 53.4156L79.9919 53.4081L80.0144 53.8534C80.0581 54.6916 79.6684 54.9431 78.1608 55.0507C76.6932 55.1545 76.1599 55.4648 76.0924 56.2579C76.0375 56.896 76.3585 57.21 77.3552 57.4952C77.6275 57.5728 77.8798 57.6666 77.9173 57.7041C78.0222 57.8105 77.7911 58.2784 77.5588 58.431C77.4451 58.5061 76.9568 58.6512 76.4759 58.7525C75.5316 58.9539 75.2843 59.0528 75.0332 59.3292C74.5199 59.8972 74.5973 60.5327 75.2268 60.9181L75.5378 61.1633C75.5378 61.2846 75.1169 61.486 74.6723 61.5799C74.0852 61.7037 73.9391 61.705 73.9391 61.5886ZM73.5506 63.1649L73.6568 62.8559L74.3987 62.7671C75.5403 62.6295 76.2323 62.2954 76.5696 61.7187C76.9018 61.152 76.7682 60.5465 76.2386 60.2187L76.015 60.0336C76.03 60.0186 76.3834 59.936 76.7994 59.8509C78.1184 59.5807 78.7641 59.1178 79.0102 58.2684C79.2837 57.3288 78.8391 56.6983 77.6987 56.4081C77.3664 56.3242 77.3477 56.308 77.5176 56.2604C77.6225 56.2304 77.9323 56.2029 78.2071 56.1979C80.1281 56.1691 81.1685 55.3684 81.171 53.9197C81.1723 53.0728 80.945 52.6324 80.3716 52.3685C80.0157 52.2046 79.6047 52.1908 78.7929 52.3147C78.4681 52.3635 78.1833 52.3847 78.1583 52.3597C78.0559 52.2571 78.3207 51.9694 78.8028 51.6591C79.4224 51.2613 79.7496 50.8822 79.9632 50.3193C80.4216 49.1008 79.7072 47.6821 78.2982 47.019C77.6238 46.7025 76.7844 46.6737 76.1849 46.949C75.6652 47.1879 75.2106 47.6558 74.957 48.2138C74.7709 48.6241 74.7397 48.7993 74.7035 49.6862C74.6798 50.2555 74.626 50.7296 74.5786 50.7759C74.5186 50.8359 74.38 50.662 74.0765 50.1504C73.4469 49.0845 72.8924 48.773 72.1417 49.0595C71.6845 49.2346 71.0475 49.8776 70.7702 50.4444C70.5804 50.8309 70.5517 50.9798 70.5517 51.5403C70.5517 52.436 70.8077 52.9564 71.6858 53.8472C72.2978 54.4665 72.5689 54.818 72.4352 54.818C72.4015 54.818 72.1779 54.7492 71.9393 54.6654C71.4285 54.4852 70.8951 54.469 70.5941 54.6253C69.8784 54.9956 69.5399 56.2417 69.8984 57.1862C70.0995 57.7166 70.3343 58.0031 71.0937 58.6424L71.7445 59.1929L71.4023 59.2792C70.7215 59.4518 70.4068 59.8334 70.4155 60.4764C70.4255 61.3622 71.2311 62.1766 72.5052 62.5894C72.7537 62.6695 72.7912 62.7158 72.8374 63.001C72.9049 63.4076 73.001 63.524 73.2471 63.4964C73.4007 63.4777 73.4682 63.4051 73.5506 63.1649ZM131.19 66.7529L131.019 66.5302C130.924 66.5114 130.573 66.4451 130.239 66.3826C129.392 66.225 128.815 65.9923 128.519 65.687C128.053 65.2104 128.043 65.1378 128.01 61.9664L127.981 59.089H136.832L136.81 62.0427C136.786 64.9364 136.782 65.0052 136.616 65.318C136.309 65.8922 135.713 66.2037 134.53 66.4051C133.705 66.5465 133.703 66.5477 133.703 66.7529V66.9431H142.001V66.7529L141.83 66.5327C140.135 66.2149 139.59 65.9385 139.302 65.2466C139.061 64.6687 139.021 63.5652 139.051 58.2471C139.076 53.5269 139.092 52.9877 139.212 52.6212C139.483 51.7992 140.042 51.4264 141.377 51.1787C141.988 51.0649 142.008 51.0549 141.986 50.861L141.963 50.662L137.833 50.6433L133.703 50.6233V50.8397C133.703 51.0536 133.71 51.0561 134.554 51.2238C135.539 51.4177 136 51.6028 136.35 51.9419C136.789 52.366 136.825 52.6349 136.825 55.4798V58.0206H127.983L128.013 55.4097C128.033 53.6132 128.071 52.7062 128.136 52.5073C128.356 51.8293 128.999 51.4627 130.427 51.1975C131.125 51.0686 131.219 51.0198 131.178 50.8034C131.152 50.6683 130.974 50.662 127.021 50.6433L122.892 50.6233V50.8409C122.892 51.0536 122.907 51.0611 123.559 51.1862C124.39 51.3464 125.152 51.7129 125.385 52.0645C125.742 52.6049 125.741 52.5699 125.767 58.5161C125.792 64.202 125.768 64.8563 125.52 65.3392C125.244 65.8747 124.655 66.2174 123.691 66.4026C122.867 66.5615 122.892 66.5515 122.892 66.7529V66.9431H131.19V66.7529ZM117.563 66.7554C117.563 66.5978 117.517 66.5615 117.277 66.5227C116.638 66.4189 115.835 66.2337 115.583 66.1299C114.835 65.8221 114.434 65.2929 114.294 64.4235C114.243 64.1082 114.213 61.6824 114.213 57.6966V51.4627H115.425C117.451 51.4627 118.284 51.7079 119.111 52.5486C119.643 53.0878 119.914 53.5507 120.23 54.4589C120.42 55.0031 120.473 55.0882 120.642 55.1095C120.828 55.132 120.836 55.117 120.829 54.7667C120.826 54.564 120.766 53.5582 120.697 52.5311L120.57 50.662L113.103 50.6433L105.635 50.6233L105.544 52.1295C105.494 52.959 105.431 53.9735 105.405 54.3864L105.358 55.1358L105.565 55.1107C105.748 55.0882 105.793 55.0207 105.963 54.514C106.233 53.7058 106.574 53.1016 107.045 52.5924C107.827 51.7454 108.764 51.4627 110.793 51.4627H112.005V57.6966C112.004 64.0794 111.981 64.6399 111.704 65.1791C111.32 65.9247 110.658 66.2462 108.941 66.5227C108.701 66.5615 108.655 66.599 108.655 66.7554V66.9431H117.563V66.7554ZM95.941 66.7529L95.7699 66.5315C94.0712 66.2074 93.694 66.0698 93.3242 65.637C92.8496 65.0803 92.8658 65.3054 92.8384 59.089C92.8209 55.2146 92.8396 53.2492 92.8971 52.9102C93.0657 51.9006 93.4904 51.4865 94.6332 51.2125C95.304 51.0524 95.3377 51.0349 95.3165 50.8535L95.294 50.662H87.6811L87.6573 50.861C87.6361 51.0549 87.6548 51.0649 88.2669 51.1787C89.6271 51.4314 90.1729 51.8042 90.4377 52.6612C90.5639 53.069 90.5738 53.5419 90.5738 58.8213C90.5738 64.0644 90.5626 64.5773 90.4402 64.9739C90.2753 65.5081 90.0143 65.8284 89.5546 66.0598C89.1937 66.2412 88.3281 66.4852 88.0433 66.4852C87.7685 66.4852 87.6423 66.5715 87.6423 66.7604V66.9431H95.941V66.7529ZM159.541 64.8538L159.095 64.3259L158.952 64.0582L159.158 63.7867C159.48 63.3626 160.001 63.0936 160.499 63.0924C160.874 63.0924 160.925 63.1124 161.012 63.2913C161.214 63.7079 160.694 64.7012 160.117 65.0002L159.872 65.1128L159.541 64.8538ZM158.979 65.9422C158.508 65.7546 157.989 65.0302 157.99 64.5623L157.991 64.3121L158.213 64.6937C158.504 65.1903 158.708 65.4193 159.156 65.7533C159.462 65.9823 159.494 66.0273 159.346 66.0223L158.979 65.9422ZM160.274 66.7892C160.758 66.5427 161.017 66.1474 160.964 65.7408C160.956 65.687 161.086 65.4818 161.251 65.2829C161.923 64.4748 162.137 63.6979 161.917 62.8684C161.786 62.3743 161.751 62.3355 161.301 62.1979C160.525 61.9589 159.68 62.1391 158.904 62.7095C158.628 62.9122 158.464 62.9773 158.228 62.9773C157.841 62.9773 157.424 63.3163 157.208 63.8067C157.043 64.1783 157.013 64.8701 157.145 65.2141C157.249 65.4818 157.215 65.5381 156.924 65.5969C156.46 65.6895 156.437 66.3413 156.894 66.4564C157.007 66.4839 157.26 66.4664 157.458 66.4164C157.8 66.3275 157.832 66.3338 158.15 66.544C158.472 66.7566 158.774 66.893 159.093 66.9706C159.357 67.0356 159.98 66.9405 160.274 66.7892ZM68.6131 64.765C68.0311 64.2195 67.7688 63.5052 68.0398 63.2049C68.2209 63.0035 68.6931 63.006 69.1128 63.21C69.4325 63.3651 70.0558 63.9681 70.0558 64.122L69.079 65.1128C69.0266 65.1128 68.8167 64.9564 68.6131 64.765ZM69.756 65.8084C70.1794 65.5344 70.5242 65.1716 70.7652 64.7425C70.9813 64.3597 71.0713 64.4135 70.9588 64.8601C70.8102 65.4431 70.1432 66.0273 69.6261 66.0273C69.4288 66.0273 69.4363 66.0148 69.756 65.8084ZM70.1033 66.9068C70.3118 66.8442 70.6428 66.6866 70.8402 66.5552C71.1612 66.3426 71.2236 66.3263 71.4385 66.4014C71.9881 66.594 72.4165 66.4301 72.4165 66.0273C72.4165 65.7933 72.2416 65.6119 71.9493 65.5431L71.7482 65.4956L71.8619 65.1703C72.1055 64.471 71.8032 63.4639 71.2499 63.1249L70.7178 62.9773C70.5117 62.9773 70.3468 62.9122 70.147 62.7521C69.771 62.4518 69.0965 62.1503 68.6656 62.0915C68.2035 62.0277 67.3416 62.2542 67.2017 62.4756C67.0768 62.6733 66.9856 63.2137 67.0019 63.6628C67.0169 64.0894 67.3603 64.8401 67.7251 65.2454C67.8999 65.4393 68.0011 65.627 68.0011 65.7583C68.0011 66.2562 68.412 66.7204 69.0228 66.9118C69.4375 67.0419 69.6523 67.0406 70.1033 66.9068ZM104.829 67.1219C105.203 67.0769 105.229 67.0594 105.229 66.8655C105.229 66.6716 105.201 66.6541 104.834 66.6053C103.78 66.4652 103.145 66.0673 101.658 64.6186C100.597 63.584 95.1803 57.6328 95.1803 57.5015C95.1803 57.3776 99.3084 53.2142 99.9005 52.74C100.991 51.8668 102.039 51.3351 103.047 51.1437C103.528 51.0524 103.554 51.0361 103.554 50.8359V50.6245H97.3112V50.8372C97.3112 51.0361 97.3424 51.0574 97.7559 51.1424C98.584 51.3138 98.7463 51.7517 98.3129 52.6324C97.9744 53.318 97.2088 54.2363 95.0279 56.5694C93.96 57.7116 93.0857 58.6749 93.0857 58.71C93.0857 58.7913 98.3891 64.5711 99.1885 65.3605C100.595 66.7491 101.553 67.1557 103.44 67.1645C103.985 67.1682 104.609 67.1482 104.829 67.1219ZM76.5708 65.5331L76.2236 64.9426C76.0874 64.6386 76.0874 64.6111 76.2086 64.4773C76.5746 64.0719 77.4776 63.7892 77.9922 63.9193C78.2308 63.9793 78.3482 64.2458 78.267 64.5486C78.1783 64.8788 77.6537 65.4518 77.264 65.6395C76.8344 65.8484 76.8094 65.8446 76.5708 65.5331ZM75.995 66.5527C75.4079 66.3188 74.9121 65.4118 75.0657 64.8526L75.1257 64.6311L75.2268 64.9677C75.3817 65.4893 75.5978 65.8634 75.9738 66.2675C76.3272 66.6453 76.3297 66.6853 75.995 66.5527ZM77.1154 67.4034C77.4464 67.2533 77.7412 66.8792 77.7499 66.599C77.7524 66.5039 77.8873 66.3613 78.1096 66.2187C78.5318 65.9472 78.9927 65.3592 79.1526 64.8888C79.3087 64.4322 79.3062 63.6366 79.1476 63.4777C78.9677 63.2975 78.282 62.991 77.9335 62.936C77.5276 62.8709 76.8106 63.0098 76.3272 63.2462C76.0062 63.4026 75.8988 63.4239 75.729 63.3588C75.4179 63.24 74.9708 63.3926 74.6298 63.7354C74.2651 64.0994 74.0677 64.6599 74.1039 65.2291L74.1289 65.647H73.8479C73.3832 65.6457 73.1722 66.0973 73.4869 66.4139C73.6156 66.5427 73.7267 66.5677 74.0852 66.554C74.5124 66.5365 74.5336 66.544 74.8084 66.8492C75.4042 67.5098 76.371 67.7412 77.1154 67.4034ZM151.785 65.672C151.166 65.348 150.585 64.5173 150.755 64.2008C150.998 63.7466 151.894 63.8017 152.599 64.3146C152.955 64.5736 152.957 64.5773 152.866 64.8388C152.729 65.2304 152.302 65.7996 152.147 65.7958L151.785 65.672ZM153.055 66.3175C153.372 65.9735 153.874 65.0427 153.884 64.7788L153.962 64.8451C154.119 65.3605 153.679 66.2312 153.112 66.5252C152.758 66.7091 152.743 66.6553 153.055 66.3175ZM153.507 67.3884C153.709 67.3021 154.013 67.0794 154.183 66.8955C154.48 66.5727 154.505 66.5615 154.945 66.5615C155.299 66.5615 155.434 66.5277 155.553 66.4089C155.86 66.1011 155.622 65.6457 155.153 65.6457L154.906 65.647L154.932 65.2191C154.965 64.7087 154.798 64.222 154.466 63.843C154.135 63.4639 153.869 63.3501 153.362 63.3688C153.031 63.3801 152.811 63.3351 152.448 63.1762C151.753 62.8759 151.016 62.8822 150.397 63.1962C150.15 63.32 149.903 63.4777 149.847 63.544C149.689 63.7354 149.777 64.7675 149.988 65.1778C150.195 65.5794 150.682 66.1211 151.033 66.3388L151.29 66.6716C151.29 67.0156 151.75 67.4147 152.317 67.5611C152.63 67.6411 153.067 67.5786 153.507 67.3884ZM138.879 74.3117V73.5761H139.404C140.11 73.5761 140.288 73.7137 140.288 74.2541C140.288 74.8096 140.118 74.9572 139.42 75.0072L138.879 75.046V74.3117ZM138.879 77.0577V76.0393L139.569 75.9906C140.38 75.933 140.91 75.7328 141.236 75.3613C141.801 74.717 141.731 73.5585 141.095 73.0231C140.688 72.6791 140.208 72.5852 138.866 72.5852H137.662V78.076H138.879V77.0577ZM133.232 74.9122C133.429 74.3454 133.607 73.8826 133.63 73.8826C133.662 73.8813 134.092 75.1373 134.273 75.7691C134.322 75.938 134.313 75.9405 133.598 75.9405H132.875L133.232 74.9122ZM132.346 77.5231L132.541 76.9701L134.664 76.9276L135.024 78.076H135.658C136.007 78.076 136.29 78.0673 136.289 78.056C136.288 78.046 135.863 76.8187 135.345 75.33L134.404 72.624H132.925L131.946 75.33C131.406 76.8187 130.965 78.046 130.964 78.056C130.963 78.0673 131.23 78.076 131.558 78.076H132.153L132.346 77.5231ZM126.792 76.7637L126.812 75.4514L127.688 76.7349C128.17 77.4405 128.601 78.0322 128.646 78.0498C128.691 78.0673 129.041 78.0723 129.423 78.0598L130.119 78.0373L129.052 76.5585C128.465 75.7466 128 75.0423 128.02 74.996C128.039 74.9497 128.469 74.4067 128.976 73.79C129.482 73.1732 129.896 72.6503 129.896 72.6278C129.896 72.604 129.579 72.5865 129.192 72.5877L128.487 72.589L127.65 73.6911L126.812 74.7933L126.791 73.6899L126.771 72.5852H125.481V78.076H126.771L126.792 76.7637ZM113.85 75.923L113.87 73.7712L114.891 75.923L115.913 78.076H117.639V72.5852H116.499L116.459 76.7487L115.464 74.6857L114.468 72.624L113.541 72.6015L112.614 72.5802V78.076H113.83L113.85 75.923ZM110.544 77.5994L110.521 77.1227L107.971 77.0802V75.7116H110.254V74.7208H107.971V73.5761H110.406V72.5852H106.751V78.076H110.566L110.544 77.5994ZM103.554 75.8292V73.5823L104.335 73.5598L105.115 73.5385L105.16 72.5852H100.654L100.677 73.0619L100.7 73.5385L101.479 73.5598L102.26 73.5823V78.076H103.554V75.8292ZM99.1236 77.5994L99.1011 77.1227L96.5505 77.0802V75.7116H98.8338V74.7208H96.5505V73.5761H98.9862V72.5852H95.3327V78.076H99.146L99.1236 77.5994ZM92.7085 75.3963C93.2518 73.9226 93.7077 72.6853 93.7214 72.6478C93.7364 72.609 93.4716 72.589 93.1169 72.6015L92.4861 72.624L91.7967 74.7107L91.1084 76.7975L89.737 72.589L89.07 72.5877C88.704 72.5865 88.4043 72.604 88.4043 72.6265C88.4043 72.6578 90.1005 77.2929 90.354 77.9572C90.3902 78.0523 90.5351 78.076 91.061 78.076H91.7217L92.7085 75.3963ZM122.478 78.0335C123.305 77.8058 123.806 77.1928 123.806 76.4084C123.806 75.5364 123.274 75.1186 121.703 74.7533C121.101 74.6144 120.944 74.5218 120.829 74.2466V73.8225C121.091 73.1907 122.198 73.2333 122.407 73.8813L122.493 74.149L123.084 74.1715L123.674 74.1941L123.635 73.8463C123.54 73.0031 122.807 72.4689 121.75 72.4751C121.436 72.4776 121.039 72.5189 120.871 72.569C119.54 72.9593 119.016 74.438 119.931 75.2124C120.261 75.4914 120.563 75.619 121.394 75.8342C121.764 75.9293 122.15 76.0619 122.25 76.1269C122.621 76.3709 122.554 76.9238 122.128 77.139C122.025 77.1916 121.745 77.2353 121.506 77.2353C120.964 77.2366 120.69 77.0364 120.617 76.5848L120.568 76.2833L119.93 76.262L119.292 76.2395L119.337 76.6198C119.383 77.0102 119.543 77.3967 119.76 77.6457C120.209 78.1561 121.407 78.3275 122.478 78.0335ZM154.201 82.601L154.03 82.521C154.03 82.4985 154.218 81.973 154.446 81.355C155.332 78.9618 155.878 76.2207 156.2 72.5477C156.321 71.1678 156.344 70.3859 156.269 70.1895L155.876 70.1645C155.834 70.217 155.725 70.7737 155.634 71.403C155.025 75.6102 154.519 77.9309 153.634 80.5706L153.092 82.1882L152.869 82.0568C152.548 81.8692 151.927 81.2424 151.878 81.056C151.839 80.9096 151.868 80.8971 152.237 80.8971C153.014 80.8971 153.463 80.3254 153.266 79.5885C153.175 79.252 153.002 79.0556 151.921 78.0685C151.439 77.6282 151.287 77.2991 151.401 76.9388C151.462 76.7487 151.627 76.7387 152.203 76.8938C152.766 77.0452 153.066 77.0364 153.413 76.8588C153.964 76.5773 154.115 75.8016 153.724 75.2524C153.546 75.001 153.014 74.5919 152.21 74.0865C151.331 73.536 151.126 72.9868 151.565 72.3663L151.881 72.0535C151.997 72.051 152.389 72.3062 152.987 72.7716C153.597 73.2458 153.938 73.3296 154.379 73.1157C154.616 73.0006 154.778 72.8467 154.922 72.6027C155.226 72.0836 155.194 71.6069 154.801 70.785C154.434 70.0194 154.366 69.7116 154.485 69.3513C154.852 68.2341 156.988 68.0565 157.483 69.1011C157.746 69.6591 157.65 70.0581 156.966 71.2366C156.65 71.7821 156.613 72.4314 156.869 72.9906C157.264 73.8538 157.844 73.8776 159.088 73.0806C159.823 72.609 159.99 72.6478 160.116 73.3183C160.226 73.9026 160.089 74.388 159.711 74.7658C159.396 75.0798 159.163 75.1874 158.18 75.4764C157.028 75.8154 156.468 76.3746 156.565 77.0927C156.646 77.6982 157.032 77.9972 157.94 78.1561L158.446 78.2437V78.5064C158.446 78.8141 158.305 79.1156 158.053 79.3433C157.775 79.596 157.616 79.6561 156.778 79.825C155.841 80.0126 155.532 80.149 155.276 80.4855C154.896 80.9847 154.963 81.5164 155.47 81.998C155.75 82.2645 155.761 82.3508 155.535 82.4909C155.363 82.5998 154.512 82.6698 154.201 82.601ZM153.328 83.9859L153.536 83.6444L153.878 83.7007C154.067 83.7307 154.517 83.7545 154.88 83.7532C155.457 83.7495 155.594 83.7207 155.981 83.5231C156.741 83.134 157.103 82.3809 156.806 81.8066L156.447 81.3375C156.185 81.0923 156.155 81.1098 157.173 80.9046C158.078 80.7232 158.533 80.5131 158.954 80.0789C159.562 79.4509 159.793 78.2562 159.416 77.687C159.209 77.3742 158.702 77.104 158.201 77.0364C157.999 77.0102 157.816 76.9601 157.795 76.9251C157.736 76.8313 158.106 76.6649 158.779 76.481C159.918 76.1695 160.629 75.6678 161.02 74.9009C161.55 73.8613 161.257 72.2462 160.453 71.7746C159.867 71.4305 159.284 71.5769 158.072 72.3688L157.814 72.5389L157.854 72.1999C157.879 71.996 158.02 71.6482 158.21 71.3267C158.768 70.3834 158.888 69.6053 158.597 68.8271C158.379 68.2441 157.996 67.8325 157.398 67.5373C156.929 67.3059 156.829 67.2858 156.164 67.2858C154.704 67.2858 153.722 67.9401 153.37 69.1499C153.208 69.7003 153.306 70.3259 153.673 71.0865C154 71.7683 154.029 71.8534 153.962 71.9635C153.925 72.021 153.711 71.8997 153.325 71.6032C152.688 71.114 152.257 70.9063 151.878 70.9101C151.502 70.9126 151.04 71.159 150.769 71.5018C150.006 72.4664 150.012 73.5373 150.784 74.3942C151.059 74.6982 151.146 74.7633 152.188 75.4426C152.494 75.6415 152.733 75.8167 152.718 75.8317C152.703 75.8467 152.504 75.8092 152.275 75.7479C151.247 75.4739 150.604 75.7466 150.331 76.5735C150.033 77.4668 150.358 78.2487 151.395 79.1432L152.058 79.7149L151.692 79.7987C151.491 79.8438 151.254 79.9263 151.165 79.9826C150.722 80.2591 150.605 80.9609 150.894 81.609C151.088 82.0431 151.781 82.7437 152.339 83.0702C152.593 83.2178 152.72 83.3392 152.7 83.413C152.579 83.8508 152.578 84.0835 152.698 84.2024C152.915 84.42 153.106 84.355 153.328 83.9859ZM73.663 82.5723C73.2134 82.4334 73.1984 82.3108 73.5831 81.9355C74.0278 81.5026 74.0977 81.1936 73.8641 80.7082C73.6368 80.2391 73.2571 80.0302 72.2653 79.8325C71.3348 79.6461 70.9963 79.4922 70.7627 79.1469C70.5679 78.8604 70.4605 78.4026 70.5641 78.2987C70.6029 78.2599 70.8364 78.1911 71.0838 78.1461C72.073 77.9622 72.4165 77.6607 72.4165 76.9764C72.4165 76.1857 71.9031 75.7541 70.5129 75.3725C69.6049 75.1236 69.099 74.7395 68.9142 74.1578C68.7505 73.6449 68.9441 72.7379 69.2164 72.7379C69.2851 72.7379 69.5449 72.8617 69.7947 73.0118C70.6029 73.5022 70.9539 73.6524 71.2836 73.6524C71.5546 73.6524 71.6446 73.6086 71.8819 73.3584C72.4165 72.7967 72.4677 72.0135 72.0243 71.2216C71.461 70.2183 71.4272 70.1294 71.4272 69.6866C71.4272 69.1436 71.6321 68.8071 72.113 68.5569C72.5701 68.3204 73.3708 68.3517 73.8679 68.6269C74.6323 69.0498 74.7484 69.6928 74.2426 70.7112C73.8541 71.4918 73.7867 71.9722 73.9965 72.4476C74.1951 72.8955 74.6098 73.217 74.9883 73.2133C75.3905 73.2107 75.5653 73.1244 76.3247 72.5552C76.6957 72.2787 77.0467 72.051 77.1054 72.051C77.3002 72.051 77.67 72.6578 77.67 72.9793C77.67 73.3671 77.239 73.845 76.4934 74.2866C75.7739 74.7132 75.1969 75.2825 75.0794 75.6815C74.9995 75.9555 75.007 76.0368 75.1419 76.3421C75.2256 76.5335 75.3905 76.7524 75.5079 76.83C75.7702 77.0026 76.371 77.0139 77.0392 76.8588C77.3002 76.7987 77.5351 76.7725 77.5625 76.8L77.6213 77.154C77.63 77.5368 77.4889 77.732 76.7107 78.4088C75.9713 79.0518 75.7589 79.3408 75.7102 79.7762C75.634 80.4593 76.0525 80.8971 76.7869 80.8971C77.0467 80.8971 77.1366 80.9259 77.1366 81.011C77.1366 81.1661 76.6457 81.699 76.2548 81.9693L75.935 82.1894L75.5478 81.1048C75.0645 79.7512 74.9271 79.2983 74.5936 77.9609C74.1602 76.2258 73.7117 73.81 73.362 71.3267C73.2009 70.187 73.1547 70.0506 72.9298 70.0832C72.77 70.1057 72.7575 70.1507 72.7337 70.755C72.685 72.0373 73.0497 75.3075 73.4869 77.5043C73.7767 78.9605 74.1277 80.2066 74.6136 81.5039C74.8259 82.0681 74.9845 82.5435 74.967 82.5623C74.8958 82.6336 73.8866 82.6423 73.663 82.5723ZM76.2523 84.2762C76.3797 84.2399 76.3909 84.1811 76.3522 83.7645L76.3085 83.2941L76.6657 83.0702C77.2353 82.7136 77.9023 82.0393 78.0984 81.6215C78.3195 81.1486 78.332 80.6432 78.1296 80.3104C77.961 80.0327 77.7724 79.9163 77.2977 79.795L76.963 79.7099L77.5126 79.2332C78.4731 78.4038 78.7616 77.9347 78.7616 77.1991C78.7629 75.9743 77.9772 75.4138 76.7182 75.7378L76.261 75.8554L76.4896 75.6678C76.6145 75.5652 76.9455 75.345 77.2228 75.1786C78.9315 74.1565 79.2925 72.7041 78.1521 71.438C77.4714 70.6824 76.8344 70.7324 75.6365 71.6369C75.333 71.8646 75.0682 72.051 75.0457 72.051C74.9296 72.051 75.0395 71.672 75.328 71.0777C75.6065 70.506 75.6553 70.3296 75.679 69.8292C75.7015 69.325 75.6777 69.1837 75.5016 68.7896C74.9433 67.5435 73.3995 66.9481 71.9156 67.4072C71.4897 67.5385 71.3248 67.6424 70.9701 67.9977C70.453 68.5169 70.2844 68.9422 70.2869 69.7204C70.2881 70.3184 70.4692 70.8538 70.8877 71.5081C71.1624 71.9372 71.2836 72.4339 71.1137 72.4326L70.779 72.2737C70.2906 71.9347 69.4875 71.5944 69.1815 71.5944C68.5232 71.5944 68.0223 72.0923 67.8025 72.9655C67.4753 74.2679 68.0511 75.5464 69.2227 76.1169C69.4513 76.227 69.9421 76.4059 70.3131 76.5135C70.6853 76.6198 71.0538 76.7424 71.1337 76.7862C71.3136 76.8813 71.2474 77.0076 71.0176 77.0076C70.6778 77.0076 70.0495 77.2478 69.7897 77.4755C68.9641 78.2011 69.4912 79.9526 70.7253 80.5831C70.8864 80.6669 71.3935 80.8108 71.8507 80.9059C72.3091 80.9997 72.6975 81.0873 72.715 81.1023L72.5152 81.375C72.2054 81.704 72.1117 81.9005 72.1117 82.2295C72.1117 82.81 72.4652 83.2741 73.1397 83.5756C73.5519 83.7608 74.4724 83.8158 75.1656 83.6957C75.5079 83.6369 75.5191 83.6419 75.6128 83.8696C75.6977 84.0748 75.6927 84.1236 75.5666 84.2637L75.4242 84.4238L75.7664 84.37C75.955 84.3412 76.1736 84.2987 76.2523 84.2762ZM148.396 84.2662C148.021 83.8133 147.825 82.9326 148.017 82.571C148.157 82.3095 148.358 82.2558 148.698 82.3921C149.069 82.541 149.645 83.159 149.772 83.5468C149.864 83.8195 149.859 83.8321 149.58 84.0723C149.424 84.2086 149.145 84.37 148.962 84.4326L148.627 84.5477L148.396 84.2662ZM148.816 85.5485V85.4772C149.073 85.4684 149.937 85.0218 150.318 84.7003C150.707 84.3738 150.74 84.3738 150.573 84.694C150.238 85.3333 149.335 85.7724 148.816 85.5485ZM151.455 86.5668C151.703 86.3404 151.618 85.9863 151.274 85.8074C151.068 85.6999 151.058 85.6786 151.164 85.561C151.556 85.1269 151.715 84.1548 151.484 83.6019C151.339 83.2541 151.025 82.9701 150.723 82.9138C150.547 82.88 150.441 82.7937 150.336 82.5998C150.162 82.2758 149.615 81.7791 149.195 81.5639C148.832 81.3763 147.895 81.2912 147.649 81.4238C147.559 81.4714 147.378 81.7341 147.247 82.0068C147.022 82.4722 147.009 82.5447 147.041 83.1678C147.067 83.6857 147.121 83.9284 147.28 84.2624C147.452 84.6215 147.473 84.7266 147.405 84.9042C147.133 85.621 148.079 86.5393 149.088 86.5393C149.326 86.5393 149.689 86.4855 149.892 86.4192C150.257 86.3016 150.271 86.3029 150.605 86.4955C151.001 86.722 151.259 86.7432 151.455 86.5668ZM79.967 84.4038C79.4748 84.1811 79.1926 83.9547 79.1926 83.7858C79.1926 83.2603 80.0769 82.3458 80.5852 82.3458C81.1973 82.3458 81.2035 83.5055 80.594 84.305L80.3492 84.5552L79.967 84.4038ZM79.3824 85.5322C79.0564 85.4184 78.6704 85.1131 78.5006 84.8341C78.252 84.4276 78.3395 84.3713 78.7004 84.7053C79.0814 85.0556 79.882 85.4709 80.1818 85.4734L80.258 85.5485C80.1118 85.6436 79.6759 85.6348 79.3824 85.5322ZM78.337 86.5343C78.7429 86.3054 78.7566 86.3029 79.0489 86.4205C79.5335 86.6144 80.3042 86.5781 80.7851 86.3379C81.3621 86.0501 81.6382 85.5998 81.6219 84.9768C81.612 84.644 81.6669 84.3625 81.818 83.9472C82.149 83.0389 82.0179 82.1832 81.4471 81.5264C81.2472 81.2975 80.5865 81.2912 79.9944 81.5126C79.5173 81.6915 78.8441 82.2633 78.6192 82.6824C78.5093 82.8863 78.4231 82.9563 78.2782 82.9563C77.7924 82.9563 77.4102 83.5568 77.4064 84.3287C77.4039 84.7516 77.4401 84.8892 77.655 85.2708C77.7936 85.516 77.8973 85.7236 77.8836 85.7311L77.6462 85.8813C77.4651 85.9951 77.4364 86.0589 77.4551 86.2954C77.4726 86.503 77.5276 86.5994 77.67 86.6707C77.9135 86.7933 77.8598 86.8045 78.337 86.5356V86.5343ZM139.014 84.9192L139.034 82.6511H140.631V81.659H136.139V82.6511H137.738V84.8879C137.738 86.1177 137.762 87.1486 137.791 87.1786C137.821 87.2074 138.104 87.2224 138.42 87.2099L138.994 87.1873L139.014 84.9192ZM124.738 85.0068L124.756 82.7874L125.797 84.988L126.837 87.1873L127.682 87.2099L128.526 87.2311V81.659H127.387L127.366 83.7245L127.346 85.7887L126.355 83.7257L125.366 81.6628L124.472 81.6615L123.577 81.659V87.2261H124.716L124.736 85.0068H124.738ZM112.462 85.84V84.4538L113.395 85.82L114.328 87.1873L115.07 87.2099C115.477 87.2224 115.812 87.2036 115.812 87.1686C115.812 87.1348 115.332 86.4405 114.747 85.626C113.835 84.3575 113.696 84.1298 113.782 84.0285C114.543 83.1165 115.66 81.7328 115.66 81.7003C115.66 81.6778 115.342 81.659 114.955 81.659H114.251L112.5 83.9484L112.48 82.8037L112.458 81.659H111.244V87.2261H112.462V85.84ZM103.174 86.0064V84.7854H105.149L105.191 87.1873H106.409V81.6978L105.781 81.6753L105.153 81.654V83.7945H103.174V81.659H101.955V87.2261H103.174V86.0064ZM133.836 86.9897C134.392 86.7094 134.634 86.4292 134.775 85.905C135.026 84.9718 134.48 84.3212 133.165 83.9859C132.895 83.9171 132.554 83.8296 132.406 83.7908C132.023 83.6919 131.799 83.458 131.802 83.1628C131.806 82.7299 132.106 82.4985 132.662 82.4985C133.066 82.4985 133.315 82.6723 133.44 83.0414L133.526 83.2991H134.654L134.636 83.0051C134.61 82.5635 134.328 82.1181 133.907 81.8579C133.596 81.6665 133.445 81.6265 132.9 81.5977C131.476 81.5226 130.506 82.2245 130.506 83.3266C130.506 84.2011 131.063 84.6477 132.58 84.9918C133.282 85.1507 133.49 85.322 133.46 85.7211C133.426 86.1715 133.158 86.3491 132.511 86.3491C132.063 86.3491 131.997 86.3279 131.835 86.139L131.604 85.6623L131.554 85.3959H130.353L130.355 85.7199C130.358 86.3516 130.759 86.9046 131.381 87.1335C131.784 87.2812 131.901 87.2949 132.618 87.2712C133.241 87.2499 133.381 87.2174 133.836 86.9897ZM118.815 86.2853C118.497 86.1402 118.193 85.7574 118.09 85.3746C117.95 84.8567 118.028 83.513 118.218 83.1465C118.45 82.6961 118.786 82.4985 119.314 82.4985C120.085 82.4985 120.473 82.9176 120.612 83.9009C120.748 84.8604 120.487 85.8938 120.035 86.1915C119.764 86.3692 119.111 86.4192 118.815 86.2853ZM120.566 87.041C121.082 86.7883 121.54 86.2791 121.76 85.7124C121.985 85.1369 122.006 83.8746 121.802 83.2879C121.38 82.0668 120.538 81.5327 119.142 81.599C118.576 81.6252 118.363 81.6703 118.053 81.8304C117.03 82.3571 116.509 83.5844 116.715 84.9768C116.949 86.5481 117.907 87.3437 119.484 87.2749C120.011 87.2511 120.235 87.2036 120.566 87.041ZM99.1073 87.0785C99.7806 86.7808 100.199 86.2165 100.203 85.6023L100.205 85.3133L99.5795 85.3358L98.9549 85.3583L98.9075 85.586C98.7626 86.2941 97.9844 86.6244 97.4748 86.194C97.1001 85.8788 96.969 85.4134 96.9702 84.405C96.9715 83.6757 96.9989 83.4693 97.1313 83.1778C97.3574 82.6874 97.581 82.4985 97.9395 82.4985C98.4703 82.4985 98.91 82.8763 98.91 83.3329C98.91 83.4793 98.9562 83.4893 99.567 83.4893H100.224L100.185 83.1427C100.124 82.5973 99.7831 82.1219 99.2635 81.8554C98.6864 81.5602 97.6634 81.4864 97.1039 81.7003C96.6042 81.8917 96.1533 82.3383 95.8948 82.8988C95.6849 83.3529 95.6749 83.4267 95.6749 84.4451C95.6749 85.4997 95.6787 85.521 95.9248 86.0239C96.2158 86.6144 96.6517 87.0272 97.1576 87.1898C97.6472 87.3487 98.6239 87.2924 99.1073 87.0785ZM90.9486 86.2828C90.4502 86.0577 90.1554 85.3821 90.1554 84.4713C90.1554 83.6532 90.2816 83.2065 90.6151 82.8475C90.9061 82.5372 90.9061 82.536 91.4807 82.536C92.0365 82.536 92.0652 82.546 92.3213 82.8037C93.0382 83.5256 92.9595 85.6298 92.1951 86.1865C91.9328 86.3767 91.2683 86.4292 90.9486 86.2828ZM92.7909 86.9984C93.6577 86.5706 94.1149 85.6911 94.1136 84.4538C94.1099 82.531 93.1057 81.5114 91.2983 81.5977C90.1979 81.6502 89.5346 82.0819 89.1025 83.0264C88.8239 83.6356 88.7765 84.7879 89.0001 85.5222C89.3735 86.7532 90.2653 87.3375 91.6643 87.2724C92.1851 87.2474 92.3837 87.1986 92.7909 86.9984ZM155.603 87.3099C155.538 87.1461 155.46 86.8396 155.433 86.6281L155.382 86.2441L155.677 86.1215C156.11 85.9401 156.565 85.8975 156.977 86.0026C157.435 86.1165 157.609 86.2716 157.609 86.5631C157.609 87.0247 156.713 87.6077 156.004 87.6077C155.747 87.6077 155.712 87.5814 155.603 87.3099ZM154.645 87.9717C154.213 87.5276 154.07 86.5881 154.376 86.184C154.471 86.0589 154.482 86.0889 154.485 86.4692C154.487 86.9434 154.655 87.5952 154.872 87.9692C155.055 88.2858 154.953 88.287 154.645 87.9717ZM155.971 89.1265L156.351 88.7724L156.582 88.526C156.626 88.5235 156.899 88.4059 157.192 88.2645C157.922 87.9092 158.35 87.4513 158.562 86.7945C158.653 86.5118 158.712 86.2178 158.692 86.1427C158.672 86.0664 158.476 85.8387 158.255 85.6373C157.715 85.1431 157.228 84.9905 156.291 85.0205C155.753 85.0381 155.523 85.0118 155.298 84.9105C154.63 84.6077 153.689 85.1794 153.385 86.0727C153.321 86.2603 153.268 86.4743 153.268 86.5456C153.268 86.6607 153.236 86.6682 153.006 86.5969C152.794 86.5318 152.708 86.5406 152.55 86.6444C152.354 86.7732 152.289 87.0798 152.417 87.2799C152.491 87.3988 152.987 87.6077 153.193 87.6077C153.306 87.6077 153.391 87.7015 153.494 87.9442C153.747 88.5347 154.275 89.0251 154.867 89.2178C155.131 89.3041 155.699 89.2566 155.971 89.1265ZM72.2254 87.4275C71.2012 86.9509 71.1237 86.204 72.0767 86.0051C72.5089 85.915 72.8824 85.9551 73.357 86.1427C73.6455 86.2553 73.6493 86.2628 73.6018 86.5706C73.5756 86.742 73.5007 87.046 73.4357 87.2449L73.317 87.6077L72.9623 87.6064C72.7512 87.6064 72.4515 87.5339 72.2254 87.4275ZM74.0265 88.2495C74.4424 87.3662 74.5411 87.0197 74.5499 86.4255L74.5536 86.0439L74.6748 86.2678C74.9583 86.7933 74.7185 87.8029 74.2263 88.1531L74.0265 88.2495ZM74.4337 89.1052C74.8808 88.8963 75.338 88.4171 75.5403 87.9442C75.6578 87.6715 75.7215 87.6077 75.8801 87.6077C76.2248 87.6077 76.5933 87.4063 76.6482 87.1873C76.7582 86.7507 76.4047 86.4455 75.9788 86.6081C75.7877 86.6807 75.7752 86.6707 75.7302 86.3979C75.6553 85.9588 75.2693 85.3458 74.9208 85.1144C74.5011 84.8366 73.8304 84.7791 73.5619 84.9968C73.407 85.1231 73.3333 85.1344 73.106 85.0718C72.6988 84.9592 71.8269 85.0431 71.3773 85.2382C71.0051 85.3996 70.2844 86.0614 70.2844 86.2403C70.2844 86.4442 70.5592 87.1423 70.749 87.4225C71.0675 87.8942 71.7407 88.3521 72.3016 88.4797L72.6838 88.7749C73.0048 89.2878 73.7455 89.428 74.4337 89.1052ZM142.635 100.378C141.901 100.012 141.897 100.028 142.929 99.1222C145.033 97.2732 146.974 94.97 148.987 91.9338C149.932 90.5076 150.06 90.2549 149.918 90.086L149.726 89.9709C149.671 89.9709 149.199 90.5289 148.676 91.2107C146.216 94.4146 144.471 96.3462 142.021 98.573L141.324 99.2073L141.175 98.9146C140.957 98.4867 140.765 97.7736 140.82 97.5985C140.869 97.4471 140.872 97.4471 141.185 97.6072C141.816 97.93 142.319 97.7861 142.619 97.1994C142.828 96.7878 142.785 96.3287 142.46 95.4992C142.328 95.164 142.202 94.7148 142.178 94.5009C142.138 94.1456 142.154 94.0906 142.368 93.8529L142.6 93.5939L142.929 93.9104L143.553 94.4246C144.139 94.8162 144.849 94.6135 145.131 93.973C145.336 93.5088 145.283 93.2649 144.716 92.0676C144.308 91.2044 144.247 91.0193 144.247 90.6302C144.247 90.2161 144.267 90.1673 144.504 89.9684C144.839 89.6882 145.102 89.6244 145.275 89.7807C145.348 89.847 145.536 90.2111 145.693 90.5889C145.849 90.9667 146.06 91.3746 146.161 91.4959C146.424 91.8074 146.81 91.9213 147.207 91.8024C147.99 91.571 148.312 91.053 148.405 89.8721C148.467 89.0677 148.586 88.7674 148.943 88.5009C149.423 88.1419 150.431 88.297 151.006 88.8187C151.897 89.6219 151.618 90.6777 150.346 91.3195C149.459 91.7686 149.082 92.2728 149.082 93.0109C149.082 93.8754 149.43 94.1319 150.567 94.1093C150.985 94.1006 151.439 94.1118 151.575 94.1331C151.802 94.1694 151.822 94.1944 151.822 94.4546C151.821 94.7736 151.537 95.4342 151.316 95.6306C151.089 95.832 150.639 95.9959 150.308 95.9959C150.143 95.9959 149.637 95.9058 149.185 95.797C148.117 95.5393 147.606 95.5643 147.198 95.8933C146.846 96.1773 146.677 96.6089 146.755 97.0255C146.798 97.2607 146.922 97.4296 147.337 97.8262C147.626 98.1026 147.864 98.3804 147.864 98.4442C147.864 98.5718 147.535 98.9046 147.278 99.0359C146.991 99.1835 146.519 99.131 145.667 98.8545C144.726 98.5505 144.455 98.5318 144.002 98.7382C143.445 98.9909 143.246 99.5101 143.486 100.087L143.6 100.466C143.6 100.64 143.06 100.59 142.635 100.378ZM144.117 101.552C144.302 101.462 144.518 101.282 144.598 101.151C144.757 100.887 144.79 100.324 144.664 99.993L144.619 99.7528C144.638 99.7353 145.032 99.8428 145.496 99.993C146.436 100.297 147.011 100.341 147.564 100.149C148.641 99.7753 149.306 98.6281 148.9 97.8424C148.789 97.6285 148.451 97.2745 148.016 96.9192L147.825 96.7628L148.066 96.7603C148.2 96.759 148.679 96.8479 149.133 96.9567C151.064 97.4233 152.263 96.8641 152.809 95.2415C153.335 93.679 152.584 92.8283 150.814 92.9759C150.329 93.0159 150.223 93.0059 150.223 92.9158C150.223 92.7695 150.615 92.4467 151.081 92.2103C151.62 91.9375 152.165 91.3971 152.412 90.8954C152.591 90.5289 152.621 90.3737 152.62 89.8195C152.62 89.2603 152.59 89.1152 152.409 88.7674C151.71 87.4325 149.832 86.7607 148.587 87.3988C147.756 87.8241 147.369 88.5072 147.265 89.7332C147.202 90.4876 147.103 90.7703 146.958 90.6152C146.921 90.5752 146.785 90.2899 146.656 89.9797C146.34 89.2153 146.08 88.8625 145.699 88.6773C145.28 88.4747 144.869 88.4822 144.394 88.7036C143.342 89.1953 142.903 90.0685 143.139 91.2044C143.187 91.4409 143.416 92.0001 143.647 92.4492C143.878 92.8983 144.053 93.2799 144.035 93.2974C144.018 93.3149 143.847 93.1898 143.656 93.0209C143.249 92.6631 142.873 92.488 142.508 92.488C142.114 92.488 141.567 92.8971 141.284 93.4025C141.074 93.7791 141.05 93.8841 141.058 94.4321C141.064 94.9338 141.114 95.174 141.341 95.7857C141.494 96.1948 141.592 96.5276 141.562 96.5263L141.316 96.415C140.834 96.1385 140.145 96.3675 139.884 96.8891C139.55 97.5522 139.619 98.2303 140.131 99.3187L140.457 100.012L140.242 100.272L140.024 100.651C140.019 100.964 140.446 101.048 140.814 100.805L141.034 100.66L141.422 100.949C142.423 101.696 143.378 101.91 144.117 101.552ZM85.3591 100.537L85.444 100.289C85.7201 99.5939 85.6351 99.1448 85.1655 98.8245C84.7283 98.5255 84.3086 98.5318 83.3344 98.847C82.4001 99.151 82.0454 99.1823 81.6569 98.9984C81.3596 98.857 81.0749 98.5005 81.1348 98.3441C81.1573 98.2853 81.3484 98.1026 81.5582 97.9363C82.0529 97.5472 82.2627 97.2069 82.2627 96.7966C82.2627 96.1273 81.6944 95.6193 80.9437 95.6156C80.7551 95.6156 80.2467 95.6994 79.8158 95.8045C78.558 96.1097 78.0834 96.0459 77.615 95.5117C77.4002 95.2678 77.1366 94.6235 77.1366 94.3445C77.1366 94.1531 77.4326 94.0943 78.3257 94.1106C79.1076 94.1243 79.2637 94.1068 79.4761 93.978C80.1131 93.5914 80.1118 92.5555 79.4736 91.8912C79.3399 91.7511 79.0077 91.5147 78.7354 91.3646C77.8311 90.8666 77.5013 90.4438 77.5063 89.7945C77.5113 89.0389 78.2658 88.3858 79.2138 88.317C80.1206 88.252 80.5128 88.6773 80.584 89.8058C80.6065 90.1698 80.6827 90.6277 80.7526 90.8254C80.9075 91.267 81.3509 91.6861 81.7868 91.8024C82.4126 91.9713 82.7948 91.7311 83.1458 90.948C83.6342 89.8621 83.7053 89.7295 83.8203 89.6857C84.0214 89.6081 84.5759 89.9634 84.7171 90.2599C84.8944 90.6352 84.7858 91.0668 84.2424 92.154C83.7266 93.1836 83.6529 93.6102 83.9102 94.0693C84.1238 94.4509 84.4161 94.6235 84.8457 94.6235C85.1992 94.6235 85.3216 94.5522 86.0798 93.9067C86.4183 93.6189 86.432 93.6139 86.5794 93.7478L86.8142 94.1669C86.8904 94.4183 86.8654 94.5434 86.5856 95.3604C86.2284 96.3987 86.1872 96.8841 86.422 97.2682C86.7355 97.7849 87.2239 97.9037 87.7972 97.6047L88.1495 97.4446C88.2681 97.4446 88.1032 98.3041 87.9034 98.7357L87.6786 99.2186L86.5382 98.1514C84.0876 95.8583 82.3052 93.8379 79.8058 90.5214C79.3974 89.9797 79.1613 89.8408 79.0676 90.086C78.9865 90.2987 79.1089 90.5489 79.8608 91.6911C81.9292 94.8387 83.9252 97.2194 86.141 99.1823C86.5931 99.5814 86.9504 99.9442 86.9366 99.9867C86.8779 100.163 86.0048 100.568 85.6826 100.57L85.3591 100.537ZM86.7293 101.475C86.9591 101.367 87.3313 101.139 87.5562 100.969L87.9646 100.66L88.2032 100.805C88.5142 100.995 88.8327 100.995 88.9339 100.805C89.0413 100.603 89.0438 100.611 88.774 100.303L88.5342 100.029L88.8452 99.3662C89.2174 98.5718 89.3173 98.2177 89.3161 97.7111C89.3123 96.684 88.5279 96.0559 87.6886 96.4062C87.3488 96.5489 87.3451 96.6314 87.7223 95.5756C88.1357 94.4208 88.057 93.7015 87.4412 93.0184C86.7855 92.2903 86.0948 92.3204 85.2342 93.116C84.8332 93.4863 84.8457 93.435 85.4178 92.3204C86.0248 91.1419 86.0873 90.335 85.6351 89.5606C85.3116 89.0089 84.4823 88.5222 83.8615 88.5222C83.4918 88.5222 83.0334 88.7812 82.7786 89.134C82.6586 89.3003 82.4488 89.7107 82.3139 90.0472C82.179 90.3825 82.0391 90.6577 82.0029 90.6577C81.8618 90.6577 81.7593 90.2937 81.7044 89.5906C81.6144 88.4384 81.2485 87.8054 80.4478 87.4125C79.1276 86.7657 77.2653 87.43 76.5995 88.7862C75.9788 90.0485 76.5608 91.5059 77.9847 92.254C78.5093 92.5305 78.8116 92.7682 78.8116 92.9071C78.8116 92.9684 78.5443 92.9934 77.9173 92.9884C77.1316 92.9847 76.9842 93.0034 76.707 93.1523C76.1099 93.4726 75.8926 94.1043 76.0987 94.9138C76.5721 96.7615 77.8611 97.4559 79.8883 96.9567C80.3329 96.8479 80.7951 96.7578 80.9137 96.7578C81.1223 96.7578 81.1136 96.774 80.6602 97.1969C79.9295 97.8762 79.8033 98.3316 80.1506 99.0309C80.3941 99.5213 80.8375 99.9091 81.3934 100.121C81.9679 100.338 82.7174 100.286 83.6267 99.9667C83.9926 99.8366 84.3236 99.7315 84.3623 99.7315C84.3998 99.7315 84.3786 99.8979 84.3136 100.101C84.1038 100.757 84.3286 101.29 84.9344 101.574C85.3778 101.781 86.1685 101.738 86.7293 101.475ZM136.71 98.8383C136.351 98.7832 136.291 98.6881 136.291 98.1777C136.293 97.5847 136.398 97.2057 136.644 96.9129C137.035 96.4463 137.532 96.7215 137.774 97.5384C137.95 98.1289 137.901 98.7069 137.672 98.7707C137.432 98.8383 136.936 98.8733 136.71 98.8383ZM136.405 100.007L136.073 99.7815C135.978 99.6677 135.992 99.6602 136.225 99.7127C136.565 99.789 137.549 99.7853 137.916 99.7077C138.296 99.6277 138.225 99.7665 137.785 99.9667C137.418 100.134 136.741 100.154 136.405 100.007ZM138.043 101.791C138.222 101.609 138.236 101.418 138.083 101.214C137.923 101.001 137.935 100.971 138.251 100.807C138.826 100.511 139.332 99.7678 139.335 99.2148C139.338 98.8858 139.158 98.4679 138.973 98.3679C138.858 98.3066 138.816 98.1802 138.786 97.8099C138.74 97.2544 138.471 96.5976 138.135 96.2198C138.006 96.076 137.71 95.8545 137.475 95.7307L137.05 95.503L136.614 95.7419C135.877 96.1448 135.422 96.8979 135.323 97.8737C135.291 98.2027 135.231 98.3704 135.099 98.5042C134.874 98.7332 134.815 98.9571 134.865 99.3962C134.95 100.159 135.663 100.842 136.57 101.03C136.933 101.106 136.996 101.148 137.128 101.407L137.398 101.821C137.565 101.988 137.859 101.975 138.043 101.791ZM91.6018 98.837C91.1721 98.7845 91.1272 98.7056 91.1572 98.0514C91.1784 97.5647 91.2209 97.4096 91.4145 97.0956C91.6143 96.7703 91.6817 96.7165 91.9228 96.6965C92.1689 96.6752 92.2213 96.7052 92.3937 96.9592C92.6423 97.3258 92.7784 97.9375 92.711 98.3866C92.6822 98.5793 92.6348 98.7507 92.606 98.7669C92.5049 98.8257 91.8654 98.8695 91.6018 98.837ZM91.2596 100.01L90.8949 99.7528C90.7612 99.6014 90.7625 99.6014 91.1596 99.704C91.638 99.8291 92.2913 99.8378 92.6935 99.7252C93.0894 99.6164 93.1157 99.6777 92.7672 99.8929C92.4149 100.112 91.6143 100.173 91.2596 100.01ZM91.5706 101.834L91.8654 101.417C91.9815 101.156 92.049 101.1 92.2788 101.063C92.8259 100.974 93.2431 100.772 93.5928 100.425C94.2123 99.8091 94.3435 98.8395 93.8576 98.4567C93.7102 98.3416 93.674 98.2252 93.6415 97.7849C93.5815 96.9479 93.1319 96.161 92.5024 95.7982C91.9765 95.4955 92.0003 95.4967 91.5618 95.7194C90.8087 96.101 90.3115 96.8679 90.1854 97.8387C90.1479 98.1252 90.0692 98.3178 89.9156 98.4955C89.7345 98.7031 89.6983 98.8145 89.6983 99.1535C89.6983 99.8729 90.048 100.436 90.7 100.767C91.061 100.95 91.0697 100.963 90.9573 101.124C90.6151 101.614 91.0934 102.169 91.5706 101.834ZM139.875 105.041C139.684 104.475 139.941 103.645 140.411 103.309L140.619 103.208C140.601 103.246 140.494 103.466 140.383 103.697C140.272 103.927 140.135 104.392 140.078 104.727L139.975 105.336L139.875 105.041ZM141.392 105.391C141.085 105.271 141.048 105.229 141.027 104.986C141.014 104.837 141.079 104.515 141.169 104.273L141.334 103.83L141.747 103.872C142.457 103.946 143.256 104.552 143.205 104.977C143.147 105.455 142.138 105.686 141.392 105.391ZM140.999 106.473C141.148 106.37 141.243 106.364 141.666 106.438C142.211 106.532 142.909 106.448 143.331 106.237C143.683 106.059 144.285 105.441 144.285 105.256C144.285 104.951 144.007 104.248 143.764 103.941C143.487 103.591 142.936 103.214 142.45 103.044C142.231 102.967 142.063 102.844 141.963 102.683C141.512 101.962 140.306 102.032 139.539 102.823L139.259 103.112L139.083 102.947C138.747 102.631 138.271 102.799 138.271 103.234C138.271 103.383 138.364 103.538 138.576 103.744C138.877 104.038 138.879 104.045 138.881 104.612C138.882 105.504 139.269 106.179 139.946 106.473C140.296 106.625 140.782 106.625 140.999 106.473ZM88.9463 104.917C88.9351 104.43 88.7865 103.894 88.5466 103.477C88.363 103.159 88.3968 103.113 88.6616 103.322C89.0887 103.659 89.3211 104.413 89.1699 104.975C89.0425 105.449 88.9588 105.426 88.9463 104.917ZM86.3208 105.452C85.7001 105.254 85.6501 104.851 86.1885 104.367C86.5782 104.016 86.9791 103.85 87.4337 103.85C87.6786 103.85 87.7135 103.879 87.8297 104.169C87.9009 104.345 87.9771 104.646 87.9996 104.837C88.0395 105.181 88.0358 105.187 87.746 105.327C87.4113 105.489 86.6444 105.556 86.3208 105.452ZM89.1637 106.406C89.8269 106.068 90.1742 105.409 90.1479 104.535C90.1329 104.049 90.1379 104.035 90.4489 103.725C90.8049 103.37 90.8549 103.102 90.6126 102.858C90.4115 102.656 90.2104 102.665 89.9518 102.888L89.7407 103.071L89.4472 102.767C89.06 102.369 88.6228 102.176 88.0982 102.174C87.5861 102.171 87.2002 102.36 87.0366 102.693L86.8429 102.933C86.8017 102.934 86.5544 103.035 86.2946 103.158C85.4178 103.575 84.8944 104.24 84.7783 105.09C84.7346 105.414 84.7421 105.427 85.1642 105.815C85.459 106.084 85.7201 106.247 85.9861 106.326C86.3846 106.445 87.3001 106.471 87.6423 106.372L88.062 106.456C88.3755 106.646 88.7215 106.63 89.1637 106.406ZM127.328 110.968C127.192 110.902 126.82 110.558 126.499 110.204C125.828 109.465 125.472 109.248 124.93 109.252C124.314 109.257 124.028 109.547 123.918 110.275C123.888 110.474 123.826 110.636 123.778 110.636C123.646 110.634 123.301 110.388 123.136 110.176C122.968 109.961 122.663 109.381 122.663 109.276C122.663 109.237 122.86 109.181 123.101 109.151C124.953 108.924 129.109 107.462 131.987 106.023C133.074 105.48 133.207 105.392 133.207 105.224L133.085 105.01C133.018 104.997 132.281 105.249 131.448 105.57C129.295 106.4 126.581 107.288 124.986 107.686C123.532 108.047 122.529 108.24 122.458 108.168C122.388 108.097 122.579 106.984 122.704 106.744C122.854 106.452 122.92 106.46 123.125 106.794C123.541 107.467 124.309 107.542 124.85 106.961C125.08 106.715 125.215 106.301 125.326 105.489C125.451 104.581 125.622 104.194 125.972 104.026C126.312 103.864 126.394 103.932 126.585 104.535C126.799 105.211 126.998 105.511 127.346 105.679C127.743 105.873 127.923 105.872 128.307 105.675C128.81 105.417 128.972 104.961 129.026 103.652C129.092 102.043 129.314 101.637 130.125 101.639C130.733 101.641 130.741 101.664 130.629 103.126C130.561 104.021 130.666 104.33 131.114 104.554C131.414 104.704 131.985 104.729 132.308 104.608C132.61 104.493 133.059 104.039 133.367 103.532C133.836 102.762 134.298 102.479 134.907 102.589C135.561 102.708 136.283 103.527 136.35 104.224C136.396 104.711 136.34 104.923 136.085 105.227C135.758 105.618 135.37 105.753 134.573 105.754C134.178 105.755 133.713 105.807 133.487 105.873C132.582 106.143 132.025 107.069 132.369 107.734C132.491 107.971 132.738 108.145 133.617 108.615C134.319 108.99 134.392 109.091 134.177 109.393C133.742 110.004 132.914 110.258 132.219 109.993C132.025 109.917 131.606 109.612 131.224 109.268C130.452 108.57 129.999 108.319 129.517 108.32C128.529 108.324 128.12 109.147 128.564 110.24C128.668 110.498 128.755 110.743 128.755 110.786C128.755 111.061 127.77 111.187 127.328 110.968ZM128.851 112.085C129.478 111.85 129.899 111.334 129.895 110.803C129.894 110.691 129.809 110.358 129.705 110.064C129.601 109.771 129.517 109.503 129.517 109.471C129.515 109.352 129.869 109.601 130.516 110.174C130.878 110.494 131.374 110.857 131.62 110.982C132.026 111.187 132.135 111.209 132.828 111.209C133.504 111.209 133.631 111.186 133.969 111.006C135.165 110.373 135.747 109.254 135.282 108.485C135.074 108.14 134.745 107.887 134.046 107.533C133.391 107.201 133.419 107.228 133.575 107.071C133.678 106.967 133.903 106.931 134.675 106.897C135.797 106.846 136.285 106.677 136.803 106.158C137.304 105.656 137.472 105.222 137.472 104.419C137.472 103.79 137.449 103.686 137.209 103.199C136.886 102.539 136.29 101.93 135.703 101.654C135.348 101.488 135.154 101.448 134.693 101.448C133.75 101.448 133.089 101.851 132.501 102.782C132.171 103.304 131.956 103.545 131.82 103.545C131.734 103.545 131.726 103.442 131.776 102.992C131.907 101.819 131.8 101.255 131.378 100.884C130.938 100.496 130.141 100.382 129.41 100.602C128.429 100.897 127.923 101.774 127.912 103.196C127.908 103.577 127.882 104.043 127.852 104.23L127.797 104.574L127.628 104.078C127.393 103.39 127.211 103.118 126.857 102.938C126.493 102.752 126.162 102.74 125.693 102.9C124.863 103.184 124.425 103.877 124.213 105.25C124.144 105.696 124.067 106.06 124.04 106.06L123.852 105.827C123.574 105.352 123.014 105.179 122.489 105.404C121.875 105.666 121.486 106.423 121.353 107.612L121.263 108.42L120.841 108.504C120.185 108.633 119.597 108.808 119.409 108.928C119.183 109.073 119.192 109.306 119.427 109.461C119.594 109.57 119.718 109.573 120.538 109.495C121.046 109.446 121.469 109.417 121.478 109.43C121.486 109.443 121.566 109.635 121.656 109.854C121.84 110.31 122.268 110.983 122.527 111.222C123.057 111.714 123.991 111.899 124.443 111.603C124.71 111.427 124.938 111.055 124.996 110.693L125.095 110.408C125.124 110.408 125.398 110.684 125.704 111.023C126.564 111.972 127.036 112.228 127.933 112.234C128.265 112.236 128.587 112.184 128.851 112.085ZM100.526 111.015C100.259 110.907 100.248 110.754 100.463 110.173C100.692 109.552 100.71 109.274 100.539 108.914C100.253 108.31 99.4046 108.133 98.7201 108.535C98.5253 108.649 98.1068 108.979 97.7908 109.268C97.0914 109.907 96.7142 110.103 96.1808 110.103C95.6987 110.103 95.2965 109.914 94.9592 109.527C94.582 109.097 94.6432 108.985 95.5013 108.536C96.3707 108.082 96.598 107.888 96.7154 107.499C96.7916 107.243 96.7779 107.166 96.593 106.789C96.2258 106.035 95.6425 105.755 94.4396 105.755C93.3655 105.755 92.8571 105.471 92.6672 104.762C92.4349 103.899 93.3005 102.671 94.2086 102.578C94.7631 102.519 95.1391 102.777 95.6587 103.567C96.2095 104.407 96.603 104.688 97.22 104.688C97.4461 104.688 97.7396 104.637 97.872 104.574C98.3629 104.34 98.4753 103.915 98.3579 102.738C98.2505 101.666 98.2805 101.607 98.9237 101.654C99.216 101.674 99.4158 101.734 99.5245 101.833C99.8617 102.14 99.9267 102.387 99.9767 103.591C100.02 104.599 100.049 104.789 100.21 105.112C100.431 105.554 100.686 105.754 101.087 105.804C101.437 105.847 101.831 105.668 102.053 105.365C102.134 105.255 102.295 104.895 102.411 104.564C102.647 103.892 102.773 103.806 103.123 104.081C103.432 104.325 103.541 104.601 103.675 105.466C103.836 106.511 104.055 106.994 104.458 107.2C104.963 107.458 105.271 107.414 105.64 107.033L106.041 106.556C106.122 106.417 106.143 106.436 106.299 106.784C106.488 107.204 106.602 108.196 106.462 108.196C106.258 108.196 104.654 107.862 103.859 107.654C102.056 107.184 99.6032 106.367 97.3237 105.479C96.0109 104.966 95.8323 104.925 95.7611 105.107C95.6737 105.337 95.8211 105.45 96.894 105.978C100.069 107.538 103.959 108.903 105.942 109.151C106.178 109.181 106.372 109.221 106.372 109.239C106.372 109.258 106.282 109.457 106.171 109.682C105.956 110.124 105.596 110.513 105.329 110.593C105.183 110.638 105.155 110.608 105.109 110.354C104.96 109.532 104.674 109.247 104.006 109.252C103.505 109.256 103.318 109.373 102.527 110.179C102.15 110.562 101.749 110.925 101.635 110.985C101.408 111.106 100.794 111.122 100.526 111.015ZM102.146 112.012C102.389 111.893 102.781 111.563 103.228 111.101C103.69 110.622 103.939 110.413 103.961 110.487L104.079 110.912C104.292 111.701 105.139 111.978 106.007 111.541C106.465 111.31 106.894 110.801 107.235 110.081L107.551 109.412L108.16 109.471C109.196 109.572 109.567 109.551 109.689 109.382C109.83 109.189 109.825 109.139 109.651 108.964C109.558 108.872 109.167 108.74 108.585 108.604L107.666 108.39V107.908C107.666 107.642 107.612 107.186 107.545 106.895C107.189 105.326 105.851 104.783 105.098 105.903L104.925 106.101C104.925 106.068 104.87 105.694 104.803 105.27C104.594 103.958 104.312 103.43 103.611 103.044C103.094 102.76 102.392 102.731 102.056 102.979C101.744 103.212 101.505 103.596 101.367 104.096C101.301 104.339 101.226 104.515 101.201 104.492C101.177 104.467 101.136 103.961 101.111 103.367C101.045 101.819 100.775 101.208 99.9579 100.755C99.5982 100.555 99.487 100.532 98.8725 100.533C98.3042 100.533 98.1306 100.563 97.8583 100.709C97.2487 101.034 97.0614 101.732 97.2313 103.049C97.2637 103.301 97.28 103.518 97.2687 103.532C97.18 103.638 96.9065 103.381 96.598 102.899C95.9198 101.845 95.3077 101.452 94.341 101.449C93.8463 101.448 93.699 101.482 93.2618 101.697C92.0952 102.272 91.307 103.689 91.5219 104.823C91.6855 105.684 92.1601 106.287 92.9683 106.658C93.318 106.819 93.5491 106.861 94.3047 106.899C95.1391 106.94 95.56 107.039 95.56 107.193C95.56 107.225 95.3152 107.369 95.0154 107.514C93.935 108.033 93.5641 108.442 93.5641 109.113C93.5641 109.765 94.1836 110.56 95.0279 110.993C95.4002 111.185 95.5263 111.209 96.1708 111.209C96.8378 111.209 96.9365 111.187 97.4099 110.955C97.7109 110.806 98.1555 110.485 98.4865 110.178C98.9674 109.732 99.5195 109.339 99.5195 109.443C99.5195 109.461 99.4333 109.702 99.3297 109.981C98.9187 111.071 99.1998 111.723 100.254 112.123C100.715 112.298 101.675 112.242 102.146 112.012ZM113.932 109.447C113.647 109.129 113.414 108.84 113.414 108.804L114.518 107.515C114.538 107.518 114.808 107.809 115.115 108.162L115.675 108.803L115.123 109.415C114.82 109.751 114.546 110.026 114.512 110.026C114.479 110.026 114.218 109.765 113.932 109.447ZM108.895 112.85C109.833 112.56 110.502 112.028 111.849 110.5L112.787 109.437L113.938 110.733L113.294 111.356C112.576 112.052 111.841 112.476 111.084 112.632C110.837 112.683 110.635 112.751 110.635 112.782C110.635 112.87 111.164 112.999 111.522 113C112.269 113 113.338 112.482 114.14 111.731L114.514 111.381L115.025 111.852C115.983 112.73 117.212 113.164 118.077 112.93C118.43 112.834 118.511 112.695 118.213 112.695C117.964 112.695 117.132 112.388 116.713 112.142C116.289 111.893 115.768 111.456 115.397 111.038L115.111 110.716L115.666 110.071L116.222 109.427L116.53 109.784C117.436 110.824 118.315 111.75 118.696 112.062C119.587 112.794 120.718 113.143 121.503 112.93C121.856 112.834 121.937 112.695 121.639 112.695C121.384 112.695 120.556 112.387 120.104 112.123C119.645 111.857 118.811 111.055 117.658 109.775L116.78 108.799L116.967 108.593C117.07 108.479 117.586 107.905 118.113 107.315C119.439 105.832 120.252 105.078 120.883 104.749C121.458 104.448 122.115 104.23 122.449 104.23C122.775 104.23 122.706 104.106 122.326 104.011C121.498 103.802 120.542 103.995 119.717 104.538C119.266 104.834 118.483 105.631 116.984 107.319C116.611 107.738 116.272 108.086 116.23 108.09C116.188 108.095 115.908 107.819 115.606 107.479L115.059 106.861L115.835 106.074C116.262 105.64 116.755 105.185 116.932 105.062C117.601 104.593 118.51 104.234 119.028 104.231C119.349 104.23 119.277 104.106 118.9 104.011C118.07 103.802 117.086 104.001 116.279 104.54C116.026 104.711 115.524 105.164 115.163 105.546L114.507 106.244L113.846 105.545C113.483 105.161 112.982 104.707 112.733 104.537C111.946 104 110.966 103.801 110.135 104.011C109.755 104.106 109.685 104.23 110.011 104.23C110.346 104.23 111.002 104.448 111.587 104.751C111.981 104.956 112.355 105.259 113.024 105.915C113.521 106.403 113.915 106.839 113.9 106.881C113.884 106.925 113.629 107.233 113.333 107.567L112.794 108.172L111.339 106.555C109.767 104.806 109.262 104.385 108.373 104.085C107.848 103.909 107.226 103.881 106.71 104.011C106.329 104.106 106.259 104.23 106.587 104.23C106.918 104.23 107.573 104.447 108.16 104.748C108.754 105.053 109.914 106.166 111.418 107.869L112.24 108.8L111.209 109.94C110.643 110.567 109.952 111.289 109.672 111.544C109.093 112.075 108.313 112.497 107.658 112.632C107.411 112.683 107.209 112.752 107.209 112.785C107.209 112.874 107.662 112.985 108.057 112.992C108.252 112.998 108.629 112.932 108.895 112.85Z" fill="#0D64AE"/>
</svg>
