<svg width="229" height="118" viewBox="0 0 229 118" fill="none" xmlns="http://www.w3.org/2000/svg">
<rect width="229" height="118" fill="white"/>
<path d="M132.012 49.368C127.224 49.368 124.029 53.1695 124.029 58.3914C124.029 63.3855 126.95 66.5242 131.598 66.5242C134.623 66.5242 136.986 65.0036 137.855 63.5477L137.418 63.032C136.465 64.3455 134.412 65.3055 132.311 65.3055C128.556 65.3055 126.307 62.1039 126.307 57.3367C126.307 52.743 128.495 50.1649 132.081 50.1649C134.851 50.1649 136.45 51.6058 137.233 54.4305H137.717L137.556 49.5555H137.095C136.927 49.8977 136.641 50.0477 136.221 50.0477C135.268 50.0477 134.393 49.368 132.012 49.368ZM13.6128 49.7664V50.2586C14.4529 50.4311 15.6749 50.6477 15.5911 52.532L15.0851 62.5399C14.9728 64.6792 14.3784 65.463 12.9227 65.6336V66.1258H18.0755V65.6336C16.5076 65.3486 16.0595 64.7917 16.1432 62.6805L16.6033 52.6258L21.7561 66.0086H22.4002L27.4379 52.6258L27.921 63.3367C28.0056 64.9933 27.5612 65.4911 26.3568 65.6336V66.1258H32.1536V65.6336C30.7247 65.4911 30.168 64.8114 30.0833 62.8445L29.6002 52.6024C29.545 51.1183 30.1578 50.4883 31.4175 50.3758V49.8602H27.4149L22.6762 62.4461L17.8455 49.7664H13.6128ZM42.2982 49.7664V50.2586C44.0354 50.4011 44.1384 50.7695 44.1384 54.993V60.6414C44.1384 65.208 43.9526 65.4911 42.2982 65.6336V66.1258H48.049V65.6336C46.2272 65.3786 46.2318 65.2436 46.2318 60.3367V59.4227L46.9909 58.5555C48.8956 60.9527 50.9429 63.5861 53.1558 66.1258H56.9744H62.2652V65.6336C60.6963 65.5211 60.6549 65.5502 60.6549 61.9539V55.9305H56.9054V56.4227C58.5285 56.4808 58.7226 56.568 58.7226 59.4227V61.9305C58.7226 65.5177 58.6865 65.5514 56.9744 65.6336C56.0782 65.5483 55.181 65.2924 52.3507 61.9539C51.2594 60.6405 49.4578 58.4308 48.3941 57.032L51.8216 53.1414C53.5018 51.257 54.4155 50.3167 55.9852 50.2586V49.7664H50.6024V50.2586C51.3026 50.4011 51.5686 50.6599 51.5686 51.1727C51.5686 51.5158 51.5005 52.1177 50.4644 53.2586L46.2318 58.0164V54.9461C46.2318 50.7527 46.4231 50.4864 48.049 50.2586V49.7664H42.2982ZM59.5968 50.4227C58.868 50.4227 58.3316 50.9945 58.3316 51.7352C58.3316 52.4777 58.868 53.0477 59.5968 53.0477C60.3255 53.0477 60.885 52.4777 60.885 51.7352C60.885 50.9945 60.3255 50.4227 59.5968 50.4227ZM112.436 50.6102C110.925 50.6102 109.353 51.5711 109.353 53.6805C109.353 54.4811 109.6 55.2133 110.02 56.0711C107.947 56.7274 106.846 58.5592 106.846 60.6414C106.846 64.4374 109.68 66.5008 112.873 66.5008C114.861 66.5008 116.43 65.8586 117.888 64.6024C118.783 65.2605 119.678 65.897 120.211 66.1258H123.661V65.6336C122.54 65.5202 120.851 64.5845 119.061 63.243C119.704 62.1592 119.859 60.5917 120.027 59.4227C120.169 58.4242 120.887 58.4486 121.361 58.3914V57.9461H116.829V58.3914C117.894 58.5339 118.923 58.6755 118.923 60.3602C118.923 61.2452 118.787 62.1274 118.394 62.7274C114.417 59.5595 110.756 55.1739 110.756 52.9774C110.756 51.8917 111.4 51.3836 112.436 51.3836C113.725 51.3836 114.953 52.248 115.541 53.9617H115.978L115.932 50.8914H115.472C115.446 51.0911 115.261 51.2195 115.15 51.2195C114.59 51.2195 113.81 50.6102 112.436 50.6102ZM79.7938 55.7195C77.7217 55.7195 76.5273 57.0339 76.5273 58.6024C76.5273 62.028 82.2782 61.337 82.2782 64.1336C82.2782 65.0749 81.4096 65.6336 79.9548 65.6336C78.5259 65.6336 77.3094 64.8592 76.9184 63.032H76.3203C76.3203 63.7755 76.4335 65.1461 76.5733 65.3758C76.9662 66.032 78.5691 66.3836 79.8858 66.3836C82.2662 66.3836 83.7274 64.9736 83.7274 63.2899C83.7274 59.522 78.0226 60.1155 78.0226 57.6883C78.0226 56.8324 78.778 56.3992 79.7018 56.3992C81.578 56.3992 82.4098 58.1664 82.5772 58.7664H83.0143C83.0143 57.2824 82.8514 56.3486 82.7383 56.2352C82.626 56.1208 81.1943 55.7195 79.7938 55.7195ZM90.3294 55.7195C87.4153 55.7195 85.4527 58.0849 85.4527 61.368C85.4527 63.9349 86.7418 66.407 90.2144 66.407C91.6415 66.407 93.3576 65.8202 94.309 64.7664L94.079 64.2742C93.1552 64.8452 92.1393 65.118 91.1575 65.118C88.3842 65.118 87.2322 62.5783 87.316 60.2664H94.309C94.4213 57.9264 93.2131 55.7195 90.3294 55.7195ZM144.411 55.7195C141.272 55.7195 139.051 58.0427 139.051 61.0399C139.051 63.0377 139.832 64.697 141.259 65.6102C142.101 66.1511 143.189 66.3836 144.365 66.3836C147.474 66.3836 149.701 64.0933 149.701 61.0399C149.701 59.0711 148.922 57.4286 147.493 56.5164C146.653 55.9736 145.587 55.7195 144.411 55.7195ZM37.9965 55.7899C34.9987 55.7899 32.7517 58.5302 32.7517 61.5555C32.7517 63.9527 34.0684 66.407 37.5134 66.407C38.9406 66.407 40.6566 65.8211 41.6081 64.7664L41.378 64.2742C40.4542 64.8442 39.4365 65.118 38.4566 65.118C35.6833 65.118 34.638 62.7311 34.638 60.2195C34.638 59.0505 34.915 58.203 35.4201 57.6883C35.8949 57.2027 36.5666 57.032 37.2374 57.032C38.2173 57.032 39.3464 57.423 40.1588 58.5086L40.3429 58.4852C40.6511 58.0867 40.9575 57.2814 40.987 56.6805C40.2867 56.1105 39.2286 55.7899 37.9965 55.7899ZM70.4544 55.7899C69.1653 55.7899 67.8099 56.4152 66.7739 57.7586V55.9305H63.0243V56.4227C64.6483 56.4799 64.8416 56.568 64.8416 59.4227V61.9305C64.8416 65.5539 64.8342 65.5483 63.0703 65.6336V66.1258H68.4071V65.6336C66.8364 65.5211 66.7739 65.5492 66.7739 61.9539V59.1883C66.7739 58.2452 68.0446 57.0789 69.5573 57.0789C70.7884 57.0789 71.7656 57.6245 71.7656 60.0789V62.118C71.7656 65.5155 71.6534 65.5483 70.2244 65.6336V66.1258H75.4692V65.6336C73.7053 65.5483 73.6979 65.5155 73.6979 62.118V59.8445C73.6979 56.762 72.0508 55.7899 70.4544 55.7899ZM157.891 55.7899C156.518 55.7899 155.178 56.673 154.394 57.7586V55.9305H150.645V56.4227C152.271 56.4799 152.462 56.568 152.462 59.4227V62.3289C152.462 65.612 152.416 65.6064 150.737 65.6336V66.1258H156.027V65.6336C154.543 65.4911 154.394 65.4883 154.394 62.2352V59.282C154.394 58.2264 155.709 57.0789 157.108 57.0789C158.621 57.0789 159.271 57.9367 159.271 59.9617V62.0242C159.271 65.3927 159.198 65.5483 157.799 65.6336V66.1258H162.767V65.6336C161.115 65.4911 161.157 65.343 161.157 62.118V59.2586C161.157 58.2311 162.433 57.0789 163.918 57.0789C165.179 57.0789 165.988 57.8505 165.988 59.9617V62.3055C165.988 65.388 165.972 65.5211 164.516 65.6336V66.1258H169.783V65.6336C167.963 65.5483 168.035 65.297 168.035 62.3289V59.6805C168.035 56.8539 166.533 55.7899 164.769 55.7899C163.174 55.7899 161.874 56.7049 160.95 58.0164C160.557 56.6186 159.572 55.7899 157.891 55.7899ZM177.053 55.7899C175.596 55.7899 174.414 56.4836 173.602 57.4539V55.9305H169.944V56.4227C171.485 56.4799 171.67 56.5755 171.67 59.9149V66.8758C171.67 70.5011 171.75 70.7749 170.013 70.8602V71.3524H175.373V70.8602C173.469 70.8049 173.602 70.4842 173.602 66.6883V65.3055C174.358 66.0761 175.552 66.3836 176.615 66.3836C179.64 66.3836 181.538 64.0755 181.538 60.993C181.538 58.0258 179.656 55.7899 177.053 55.7899ZM186.829 55.7899C185.736 55.7899 184.132 56.1911 183.263 56.9617C183.32 57.4464 183.743 58.3877 184.023 58.6727L184.276 58.6258C184.723 57.513 185.487 56.7039 186.691 56.7039C188.009 56.7039 188.554 57.6536 188.554 58.7664V59.9383C188.554 60.7089 185.21 60.8533 183.839 62.0242C183.362 62.4517 183.01 62.9936 183.01 63.7352C183.01 65.3336 184.12 66.3836 185.771 66.3836C186.807 66.3836 187.699 66.0339 188.623 64.9774C188.763 65.7189 189.369 66.1258 190.349 66.1258H192.718H197.894V65.6336C196.325 65.5211 196.26 65.5492 196.26 61.9539V59.1883C196.26 58.2452 197.533 57.0789 199.044 57.0789C200.277 57.0789 201.252 57.6245 201.252 60.0789V62.118C201.252 65.5155 201.138 65.5483 199.711 65.6336V66.1258H204.956V65.6336C203.19 65.5483 203.184 65.5155 203.184 62.118V59.8445C203.184 56.762 201.539 55.7899 199.941 55.7899C198.654 55.7899 197.296 56.4152 196.26 57.7586V55.9305H192.511V56.4227C194.135 56.4799 194.328 56.568 194.328 59.4227V61.9305C194.328 65.5539 194.298 65.5483 192.534 65.6336H192.12C190.719 65.6336 190.556 65.1517 190.556 63.1258V59.7039C190.556 59.0486 190.487 58.4542 190.349 57.9695C189.872 56.3711 188.593 55.7899 186.829 55.7899ZM94.7921 56.0711V56.5633C95.9395 56.6205 96.0352 56.7855 97.5755 60.2664L100.198 66.1727C99.3017 68.5127 97.8985 69.782 95.0681 70.4383C95.2098 70.9239 95.7334 71.7742 96.0113 72.032C99.7378 70.4908 100.469 67.9764 101.785 64.1805L103.763 58.4149C104.211 57.1014 104.928 56.5633 105.627 56.5633V56.0711H102.015V56.5633C102.885 56.6205 103.341 57.1117 103.004 58.1102L101.072 63.8992L99.2088 59.4227C98.7064 58.1964 98.5186 57.7174 98.5186 57.2899C98.5186 56.8895 98.7349 56.6505 99.4618 56.5633V56.0711H94.7921ZM204.243 56.0711V56.5633C205.39 56.6205 205.509 56.7855 207.049 60.2664L209.648 66.1727C208.751 68.5127 207.348 69.782 204.519 70.4383C204.659 70.9239 205.183 71.7742 205.462 72.032C209.188 70.4908 209.92 67.9764 211.236 64.1805L213.237 58.4149C213.684 57.1014 214.378 56.5633 215.077 56.5633V56.0711H211.466V56.5633C212.335 56.6205 212.815 57.1117 212.478 58.1102L210.546 63.8992L208.659 59.4227C208.155 58.1964 207.969 57.7174 207.969 57.2899C207.969 56.8895 208.185 56.6505 208.912 56.5633V56.0711H204.243ZM89.9384 56.5633C91.5054 56.5633 92.4641 57.6095 92.4917 59.493H87.339C87.5064 57.6095 88.3419 56.5633 89.9384 56.5633ZM144.135 56.5633C145.927 56.5633 147.7 58.3305 147.7 61.6961C147.7 64.0652 146.673 65.5164 144.572 65.5164C142.752 65.5164 141.052 63.8139 141.052 60.3602C141.052 57.9058 142.199 56.5633 144.135 56.5633ZM110.388 56.8211C111.79 59.3608 114.406 62.0561 117.151 64.1102C116.31 64.7674 114.894 64.9539 113.747 64.9539C110.805 64.9539 108.479 62.8352 108.479 60.0086C108.479 58.2395 109.239 57.1352 110.388 56.8211ZM176.155 57.0789C178.226 57.0789 179.514 58.6539 179.514 61.2508C179.514 63.9049 178.429 65.6102 176.385 65.6102C175.069 65.6102 173.602 64.8508 173.602 63.8524V58.7899C173.602 57.9339 174.811 57.0789 176.155 57.0789ZM188.554 60.8992V63.7117C188.554 64.5677 187.449 65.2586 186.553 65.2586C185.713 65.2586 185.012 64.7186 185.012 63.5477C185.012 61.4655 187.127 61.698 188.554 60.8992Z" fill="#24477F"/>
</svg>
