<svg width="229" height="118" viewBox="0 0 229 118" fill="none" xmlns="http://www.w3.org/2000/svg">
<rect width="229" height="118" fill="white"/>
<path d="M98.6123 56.2996V38.1221H95.1964L88.8525 47.1498L82.6307 38.1221H79.0928V56.2996H82.6307V44.344L87.7545 51.9078H89.9505L95.0744 44.344V56.2996H98.6123Z" fill="#0075F3"/>
<path d="M107.762 56.2996H111.3V38.1221H107.762V56.2996Z" fill="#0075F3"/>
<path d="M138.261 54.4696V50.4438H134.723V52.7617H123.988V41.66H134.723V43.978H138.261V39.952C138.261 38.8541 137.529 38.1221 136.431 38.1221H122.28C121.304 38.1221 120.572 38.8541 120.572 39.952V54.4696C120.572 55.4456 121.304 56.2996 122.28 56.2996H136.553C137.529 56.2996 138.261 55.5676 138.261 54.4696V54.4696Z" fill="#0075F3"/>
<path d="M165.222 56.2995L159.855 48.9797H163.392C164.368 48.9797 165.222 48.2477 165.222 47.1498V39.83C165.222 38.732 164.49 38 163.392 38H147.411V56.1775H150.949V48.8577H155.341L160.709 56.1775H165.222V56.2995ZM150.949 41.6599H161.685V45.4418H150.949V41.6599Z" fill="#0075F3"/>
<path d="M192.184 54.4696V39.952C192.184 38.8541 191.452 38.1221 190.354 38.1221H176.08C175.104 38.1221 174.372 38.8541 174.372 39.952V54.4696C174.372 55.4456 175.104 56.2996 176.08 56.2996H190.476C191.452 56.2996 192.184 55.5676 192.184 54.4696V54.4696ZM177.91 41.66H188.646V52.7617H177.91V41.66Z" fill="#0075F3"/>
<path d="M96.9044 65.5713V61.9115H79.0928V80.089H82.6307V72.8911H93.2444V69.2313H82.6307V65.5713H96.9044Z" fill="#0075F3"/>
<path d="M119.596 78.381V63.7414C119.596 62.6435 118.864 61.9115 117.766 61.9115H103.614C102.638 61.9115 101.906 62.6435 101.906 63.7414V78.259C101.906 79.235 102.638 80.089 103.614 80.089H117.888C118.864 80.089 119.596 79.357 119.596 78.381V78.381ZM105.444 65.5713H116.058V76.673H105.322V65.5713H105.444Z" fill="#0075F3"/>
<path d="M143.873 78.381V74.3551H140.335V76.6731H129.599V65.5713H140.335V67.8893H143.873V63.8634C143.873 62.7654 143.141 62.0334 142.043 62.0334H127.769C126.793 62.0334 126.061 62.7654 126.061 63.8634V78.381C126.061 79.357 126.793 80.211 127.769 80.211H142.043C143.019 80.0892 143.873 79.357 143.873 78.381V78.381Z" fill="#0075F3"/>
<path d="M168.028 78.381V61.9115H164.49V76.551H153.755V61.9115H150.217V78.259C150.217 79.235 150.949 80.089 151.925 80.089H166.198C167.296 80.089 168.028 79.357 168.028 78.381Z" fill="#0075F3"/>
<path d="M192.184 78.381V71.1833C192.184 70.2073 191.452 69.3533 190.354 69.3533H177.91V65.5713H188.646V67.5233H192.184V63.8634C192.184 62.7654 191.452 62.0334 190.354 62.0334H176.08C175.104 62.0334 174.372 62.7654 174.372 63.8634V71.0613C174.372 72.0372 175.104 72.8911 176.08 72.8911H188.524V76.6731H177.788V74.8431H174.25V78.503C174.25 79.479 174.982 80.333 175.958 80.333H190.232C191.452 80.0887 192.184 79.357 192.184 78.381V78.381Z" fill="#0075F3"/>
<path d="M198.162 44.9539C196.332 44.9539 194.868 43.49 194.868 41.66C194.868 39.8301 196.332 38.3661 198.162 38.3661C199.992 38.3661 201.456 39.8301 201.456 41.66C201.456 43.49 199.992 44.9539 198.162 44.9539ZM198.162 38.6101C196.454 38.6101 195.112 39.9521 195.112 41.66C195.112 43.368 196.454 44.5879 198.162 44.5879C199.87 44.5879 201.09 43.246 201.09 41.66C201.09 39.9521 199.87 38.6101 198.162 38.6101V38.6101ZM199.016 43.7339L198.162 41.9039H197.43V43.7339H196.942V39.586H198.162C199.138 39.586 199.504 39.9521 199.504 40.806C199.504 41.4157 199.259 41.782 198.65 41.9039L199.504 43.7339H199.016ZM197.43 41.416H198.162C198.771 41.416 199.016 41.1717 199.016 40.684C199.016 40.1961 198.771 39.952 198.162 39.952H197.552V41.416H197.43Z" fill="#0075F3"/>
<path d="M69.089 38.1221V72.0371H60.9152V46.2958H35.1738V38.1221H69.089Z" fill="#0075F3"/>
<path d="M60.9151 72.037V80.2109H27V46.2957H35.1738V72.037H60.9151Z" fill="#0075F3"/>
</svg>
