<svg width="229" height="118" viewBox="0 0 229 118" fill="none" xmlns="http://www.w3.org/2000/svg">
<rect width="229" height="118" fill="white"/>
<g clip-path="url(#clip0_20_915)">
<path d="M208 57.0962V53.8028H203.916V48.6829L203.779 48.7253L199.943 49.9006L199.867 49.9236V53.803H193.813V51.6418C193.813 50.6355 194.037 49.8655 194.48 49.3519C194.92 48.8445 195.549 48.5865 196.351 48.5865C196.928 48.5865 197.525 48.7226 198.126 48.9909L198.277 49.0582V45.5899L198.206 45.5638C197.645 45.362 196.883 45.2604 195.938 45.2604C194.746 45.2604 193.664 45.52 192.72 46.0344C191.776 46.5496 191.033 47.2851 190.512 48.2202C189.994 49.1543 189.73 50.233 189.73 51.4268V53.8028H186.887V57.0962H189.73V70.9705H193.813V57.0962H199.867V65.9131C199.867 69.5443 201.577 71.3844 204.951 71.3844C205.505 71.3844 206.088 71.3194 206.684 71.192C207.29 71.0612 207.703 70.9306 207.946 70.7911L208 70.7593V67.4355L207.834 67.5454C207.613 67.6933 207.337 67.8141 207.013 67.9039C206.688 67.9954 206.417 68.0412 206.207 68.0412C205.417 68.0412 204.832 67.828 204.469 67.4072C204.102 66.9826 203.916 66.24 203.916 65.2013V57.0962H208ZM177.77 68.0418C176.289 68.0418 175.12 67.5498 174.297 66.5806C173.469 65.6066 173.049 64.2178 173.049 62.4534C173.049 60.633 173.469 59.2082 174.298 58.217C175.121 57.2322 176.278 56.7324 177.737 56.7324C179.153 56.7324 180.279 57.2098 181.087 58.1519C181.898 59.099 182.309 60.5124 182.309 62.354C182.309 64.2182 181.922 65.6502 181.159 66.6081C180.401 67.5588 179.261 68.0418 177.77 68.0418V68.0418ZM177.952 53.3892C175.125 53.3892 172.88 54.2187 171.279 55.8547C169.679 57.4909 168.868 59.7551 168.868 62.5851C168.868 65.2731 169.66 67.4351 171.221 69.0102C172.783 70.5859 174.909 71.3841 177.538 71.3841C180.279 71.3841 182.479 70.543 184.079 68.8843C185.68 67.2275 186.49 64.9847 186.49 62.2208C186.49 59.4908 185.729 57.3127 184.229 55.748C182.727 54.1827 180.615 53.3892 177.952 53.3892V53.3892ZM162.286 53.3892C160.363 53.3892 158.772 53.8818 157.557 54.853C156.335 55.8299 155.715 57.1112 155.715 58.6617C155.715 59.4676 155.849 60.1836 156.112 60.7908C156.377 61.4 156.787 61.9364 157.332 62.3866C157.873 62.8331 158.707 63.3008 159.813 63.7767C160.743 64.1599 161.436 64.4839 161.877 64.7394C162.307 64.9897 162.613 65.2414 162.786 65.4865C162.953 65.7263 163.038 66.0545 163.038 66.4596C163.038 67.613 162.176 68.1742 160.401 68.1742C159.743 68.1742 158.992 68.0365 158.169 67.7652C157.353 67.4979 156.582 67.1065 155.884 66.6047L155.714 66.483V70.4189L155.777 70.4479C156.354 70.7149 157.082 70.9401 157.941 71.1172C158.798 71.2946 159.576 71.3848 160.252 71.3848C162.339 71.3848 164.019 70.8899 165.245 69.9129C166.479 68.9293 167.104 67.6177 167.104 66.0136C167.104 64.8564 166.768 63.864 166.104 63.0637C165.445 62.2699 164.301 61.5411 162.706 60.8969C161.435 60.3861 160.621 59.962 160.285 59.6365C159.961 59.322 159.797 58.8773 159.797 58.3141C159.797 57.8148 160 57.4148 160.416 57.0909C160.836 56.7654 161.421 56.5998 162.154 56.5998C162.834 56.5998 163.53 56.7074 164.222 56.9183C164.913 57.1291 165.521 57.4116 166.028 57.757L166.195 57.8711V54.1376L166.131 54.1101C165.663 53.9092 165.046 53.7372 164.297 53.5978C163.551 53.4592 162.874 53.3892 162.286 53.3892V53.3892ZM145.072 68.0418C143.591 68.0418 142.423 67.5498 141.599 66.5806C140.771 65.6066 140.352 64.2182 140.352 62.4534C140.352 60.633 140.771 59.2082 141.6 58.217C142.423 57.2322 143.58 56.7324 145.04 56.7324C146.455 56.7324 147.581 57.2098 148.389 58.1519C149.2 59.099 149.612 60.5124 149.612 62.354C149.612 64.2182 149.224 65.6502 148.461 66.6081C147.703 67.5588 146.563 68.0418 145.072 68.0418V68.0418ZM145.254 53.3892C142.427 53.3892 140.181 54.2187 138.581 55.8547C136.982 57.4909 136.17 59.7551 136.17 62.5851C136.17 65.2741 136.962 67.4351 138.524 69.0102C140.086 70.5859 142.211 71.3841 144.841 71.3841C147.581 71.3841 149.782 70.543 151.382 68.8843C152.982 67.2275 153.793 64.9847 153.793 62.2208C153.793 59.4908 153.032 57.3127 151.531 55.748C150.029 54.1827 147.917 53.3892 145.254 53.3892V53.3892ZM129.973 56.7759V53.8028H125.941V70.9701H129.973V62.1884C129.973 60.6951 130.311 59.4684 130.978 58.5418C131.637 57.6262 132.515 57.1623 133.586 57.1623C133.95 57.1623 134.357 57.2223 134.799 57.3409C135.236 57.4588 135.552 57.5869 135.739 57.7217L135.909 57.8447V53.7735L135.843 53.7454C135.468 53.5856 134.937 53.505 134.264 53.505C133.251 53.505 132.344 53.8311 131.567 54.4731C130.886 55.0374 130.393 55.8111 130.016 56.7759H129.973ZM118.719 53.3892C116.869 53.3892 115.219 53.7865 113.815 54.5696C112.409 55.3546 111.321 56.4752 110.581 57.9001C109.844 59.3216 109.47 60.9821 109.47 62.8338C109.47 64.4559 109.833 65.9444 110.55 67.2563C111.267 68.5704 112.282 69.5984 113.567 70.3115C114.851 71.0236 116.334 71.3846 117.976 71.3846C119.892 71.3846 121.529 71.0009 122.84 70.2442L122.893 70.2138V66.5141L122.724 66.638C122.13 67.0715 121.466 67.4175 120.751 67.6668C120.038 67.9159 119.389 68.0418 118.819 68.0418C117.236 68.0418 115.966 67.546 115.044 66.5685C114.12 65.5897 113.652 64.2153 113.652 62.4858C113.652 60.7455 114.14 59.3358 115.103 58.2956C116.063 57.2585 117.336 56.7324 118.885 56.7324C120.211 56.7324 121.502 57.1819 122.724 58.0695L122.893 58.1925V54.2943L122.839 54.2635C122.379 54.0057 121.752 53.7929 120.973 53.6314C120.198 53.4704 119.44 53.3892 118.719 53.3892V53.3892ZM106.693 53.803H102.66V70.9701H106.693V53.803V53.803ZM104.718 46.4897C104.054 46.4897 103.475 46.7159 103 47.1643C102.522 47.6139 102.28 48.18 102.28 48.8481C102.28 49.5057 102.519 50.0615 102.992 50.4991C103.462 50.9355 104.043 51.1567 104.718 51.1567C105.393 51.1567 105.976 50.9355 106.451 50.4999C106.93 50.0615 107.173 49.5059 107.173 48.8481C107.173 48.2034 106.937 47.6431 106.471 47.1824C106.006 46.7226 105.416 46.4897 104.718 46.4897ZM94.6565 52.5364V70.9701H98.7719V47.0152H93.0761L85.8363 64.8082L78.8105 47.0152H72.8827V70.9699H76.7501V52.5346H76.8828L84.3019 70.9701H87.2205L94.5238 52.5364H94.6565V52.5364Z" fill="#706D6E"/>
<path d="M39.9701 58.0074H21V39.0103H39.9701V58.0074Z" fill="#F1511B"/>
<path d="M60.9154 58.0074H41.9456V39.0103H60.9154V58.0074Z" fill="#80CC28"/>
<path d="M39.9696 78.9897H21V59.9928H39.9696V78.9897Z" fill="#00ADEF"/>
<path d="M60.9154 78.9897H41.9456V59.9928H60.9154V78.9897Z" fill="#FBBC09"/>
</g>
<defs>
<clipPath id="clip0_20_915">
<rect width="187" height="40" fill="white" transform="translate(21 39)"/>
</clipPath>
</defs>
</svg>
