<svg xmlns="http://www.w3.org/2000/svg" viewBox="0 0 156.72 128.97"><defs><style>.cls-1{fill:#2c296a;}.cls-2{fill:#b83e4b;}</style></defs><title>Asset 2</title><g id="Layer_2" data-name="Layer 2"><g id="Layer_1-2" data-name="Layer 1"><path class="cls-1" d="M109.18,44.13a24.38,24.38,0,0,1,13.46-7.6,4.33,4.33,0,0,0,.24-1.28c0-1.55,0-3.11,0-4.66a12.89,12.89,0,0,1,2.86-8.24c7.35-8.25,28.84-4.74,30.49-4.49.15,0,.3.09.48.14-1.31,3.81-2.61,7.6-3.93,11.42l-1.88-.32a28.51,28.51,0,0,0-5.69-.46,13,13,0,0,0-1.76.18,3.65,3.65,0,0,0-3.16,3.25,20.66,20.66,0,0,0-.15,2.61c0,.35,0,.71,0,1.06a1,1,0,0,0,1.07,1.15c.32,0,.65,0,1,0l4.87-.09c.72,0,1,.43.71,1.08q-2,4.45-3.88,8.92A1.52,1.52,0,0,1,142.08,48a4.42,4.42,0,0,0-.63,0,1.29,1.29,0,0,0-1.35,1.45c0,3.57,0,7.15,0,10.72q0,9.85,0,19.71c0,.46,0,.93,0,1.4a1.15,1.15,0,0,1-1.34,1.23H125a1.87,1.87,0,0,1-2.06-1.93c0-.21,0-.42,0-.63V49c0-.93-.33-1.32-1.26-1.16a19.18,19.18,0,0,0-3.14.85,15.44,15.44,0,0,0-6.18,3.72,7.68,7.68,0,0,0-2.23,5.5c0,7.49,0,15,0,22.47a1.8,1.8,0,0,1-2,2H94.51a2.33,2.33,0,0,1-2.43-1.71,4.39,4.39,0,0,1-.06-.89V37.61c0-.21,0-.42,0-.64a1.43,1.43,0,0,1,1.11-1.58,4.23,4.23,0,0,1,1.17-.16h12.59a1.7,1.7,0,0,1,1.91,1.91c0,1.88,0,3.76,0,5.64a1.79,1.79,0,0,0,.38,1.36"/><path class="cls-1" d="M17.28,43A7.6,7.6,0,0,0,18,42.2a17.26,17.26,0,0,1,10.4-7.5A18.65,18.65,0,0,1,41.6,35.93a15.83,15.83,0,0,1,6.48,5.74,12.08,12.08,0,0,1,1.47,4.52,41.52,41.52,0,0,1,.47,7.3v27c0,.42,0,.85,0,1.27,0,.61-.17.74-.76.74H33.94a1.26,1.26,0,0,1-1.34-1.35c0-2.21,0-4.43-.06-6.65,0-7-.09-14-.16-21a6.39,6.39,0,0,0-5.46-6.15,8.74,8.74,0,0,0-9.26,4.7,2.07,2.07,0,0,0-.22.91q.31,13,.64,26c0,.82,0,1.64,0,2.46s-.32,1.09-1.12,1.09H1.13c-.6,0-.82-.22-.83-.82,0-.11,0-.22,0-.33v-45c0-.88.21-1.1,1.1-1.1H15.93c.93,0,1.12.19,1.13,1.12q0,3.3.11,6.6a.67.67,0,0,0,.11.07"/><path class="cls-1" d="M59.21,88.22V37.6c0-.31,0-.62,0-.93a1.36,1.36,0,0,1,1.3-1.41,4.17,4.17,0,0,1,.5,0c6.83,0,13.65,0,20.48,0a3,3,0,0,1,1.14.23,1.51,1.51,0,0,1,.91,1.37,5,5,0,0,1,0,.55V88.35l-.33-.46a122.48,122.48,0,0,0-8.44-11.56c-.89-1-1.89-2-2.86-3a9.6,9.6,0,0,0-1-.82C66.39,77.29,62,82.06,59.21,88.22"/><path class="cls-2" d="M0,100.88V92.37c1.37-.37,2.68-.75,4-1.08a107,107,0,0,1,14.55-2.54,112.3,112.3,0,0,1,18.15-.51,96.26,96.26,0,0,1,32.47,7.3.41.41,0,0,0,.24,0C92.86,87,116.57,86,140.6,92.86v7.73a1.27,1.27,0,0,1-.28,0A140.1,140.1,0,0,0,122.87,97a141.14,141.14,0,0,0-23.23-1.49,95.31,95.31,0,0,0-23.4,3.21c-2,.56-4,1.27-6,1.89a1.41,1.41,0,0,1-.76,0A173.54,173.54,0,0,0,51.9,97a145.29,145.29,0,0,0-22.23-1.88,79.93,79.93,0,0,0-20.2,2.23,46.12,46.12,0,0,0-9.23,3.42l-.21.09"/><path class="cls-2" d="M57.58,7.15a1.91,1.91,0,0,1,.5-.12c.65,0,1.3.06,2,.07A4.75,4.75,0,0,0,60.87,7a.83.83,0,0,0,.57-1.44c-.27-.33-.66-.56-1-.87a1.77,1.77,0,0,1-.28-.46l.1-.14a2.17,2.17,0,0,1,.51,0l2.34.6a1.08,1.08,0,0,0,1.14-.35.8.8,0,0,0-.11-1c-.32-.44-.66-.87-1-1.28.24-.45.41-.51.75-.22A6.83,6.83,0,0,0,66.19,3a.91.91,0,0,0,1.06-.12,1,1,0,0,0,.16-1.14c-.17-.41-.35-.82-.53-1.23L67,.36a1.61,1.61,0,0,1,.51.16c.55.44,1.08.91,1.62,1.36a3.69,3.69,0,0,0,.64.48,1,1,0,0,0,1.11-.12c.33-.25.29-.59.23-.93a4.8,4.8,0,0,1-.14-.83c0-.14.12-.29.22-.48a4,4,0,0,1,1.13,1.4,4.16,4.16,0,0,0,.74,1c.63.58,1.3.31,1.43-.53,0-.28,0-.57,0-.85a3.4,3.4,0,0,1,.09-.46c.42,0,.72.35.85.82.2.66.43,1.31.68,2a.8.8,0,0,0,.83.59c.43,0,.56-.32.7-.64s.32-.78.5-1.17c.09-.21.22-.42.51-.32s.24.34.15.57a3.74,3.74,0,0,0-.06,1.88c.05.29.11.58.14.88a.76.76,0,0,0,.5.72.84.84,0,0,0,1-.23c.24-.29.44-.62.66-.93l.36-.46.4.2a2.89,2.89,0,0,1,0,.43c-.15.8-.32,1.6-.46,2.41-.06.37-.08.75.29,1a1,1,0,0,0,1.12,0c.34-.22.66-.49,1-.73a.58.58,0,0,1,.18-.08c.33.18.44.48.17.75a7.1,7.1,0,0,0-1.15,2.38.74.74,0,0,0,.14.9.79.79,0,0,0,.9.15c.34-.15.64-.35,1-.51a1,1,0,0,1,.48-.11.34.34,0,0,1,.27.22.59.59,0,0,1-.14.4c-.58.65-1.18,1.29-1.77,1.93a2,2,0,0,0-.27.38c-.34.7,0,1.25.76,1.21.42,0,.83-.14,1.25-.21.27,0,.48,0,.54.36a2.92,2.92,0,0,1-.32.28c-.63.4-1.27.8-1.91,1.18a.93.93,0,0,0-.51.91.79.79,0,0,0,.59.75c.42.14.85.27,1.28.39.26.06.42.16.32.47,0,0-.08.08-.13.09-.93.27-1.87.51-2.79.82a1,1,0,0,0-.42.65.9.9,0,0,0,.52,1,8.88,8.88,0,0,1,.9.36c.14.08.22.28.33.42s0,.14-.08.2c-.77.06-1.53.12-2.3.16-.23,0-.47,0-.71,0a.71.71,0,0,0-.73.41.84.84,0,0,0,.18,1c.25.25.56.44.81.69s.42.37.14.73l-2.13-.38a5.17,5.17,0,0,0-.79-.1.76.76,0,0,0-.8.35.94.94,0,0,0,.1,1c.27.36.57.7.86,1.05.13.17.26.35-.09.61-.7-.35-1.45-.74-2.2-1.1a4.83,4.83,0,0,0-1-.38.81.81,0,0,0-.85.43.77.77,0,0,0,.07.88,7.22,7.22,0,0,1,.41.78c.14.3,0,.52-.35.63a3.65,3.65,0,0,1-.45-.31c-.41-.36-.81-.75-1.22-1.12a3.26,3.26,0,0,0-.68-.49.8.8,0,0,0-1.22.76c0,.46.13.92.17,1.39,0,.27,0,.51-.4.46-.52-.8-1-1.59-1.54-2.34a1.58,1.58,0,0,0-.78-.57c-.54-.14-.78.09-.83.65a2.27,2.27,0,0,1-.52,1.45c-.26.07-.36-.05-.43-.3-.25-.81-.5-1.61-.81-2.39a.92.92,0,0,0-.62-.41.87.87,0,0,0-1,.45c-.15.26-.2.57-.35.81a2,2,0,0,1-.47.4c-.11-.17-.29-.34-.31-.53-.08-.84-.11-1.69-.17-2.54a.78.78,0,0,0-.58-.79c-.39-.11-.64.11-.87.39a10.87,10.87,0,0,1-.79.87,1.65,1.65,0,0,1-.49.21l-.11-.1a1.73,1.73,0,0,1,.1-.45,8.2,8.2,0,0,0,.48-2.82.74.74,0,0,0-.51-.8.84.84,0,0,0-1,.28,3.64,3.64,0,0,1-.7.6,1.41,1.41,0,0,1-.55.07l-.13-.15a11.29,11.29,0,0,1,.44-1.09c.21-.42.49-.79.69-1.21a1,1,0,0,0-.08-1.23,1.13,1.13,0,0,0-1.31-.13c-.27.11-.52.27-.79.4s-.27.11-.41.17L56.11,19c0-.18,0-.41.1-.53A17,17,0,0,1,57.5,17.1a2.46,2.46,0,0,0,.77-1.24c.1-.47-.09-.77-.56-.8s-.93,0-1.4,0a2.07,2.07,0,0,1-.5-.16c.07-.17.09-.41.22-.5.46-.35,1-.63,1.42-1a3.47,3.47,0,0,0,.84-.87c.36-.57.1-1.06-.57-1.15-.31,0-.62,0-.93,0l-.54-.05c.1-.22.13-.44.25-.5.44-.23.92-.4,1.38-.61a12.94,12.94,0,0,0,1.56-.72.69.69,0,0,0-.12-1.21c-.25-.14-.56-.2-.82-.34s-.63-.38-.94-.57a1.79,1.79,0,0,0,0-.23"/><path class="cls-2" d="M69.91,105.7c1.33-.44,2.62-.9,3.93-1.3a107.05,107.05,0,0,1,16.89-3.67,119.36,119.36,0,0,1,22-1A114.62,114.62,0,0,1,140,104.34l.34.12c0,.13-.08.24-.12.36-1.41-.38-2.8-.77-4.18-1.13a113,113,0,0,0-15.47-2.88,116.46,116.46,0,0,0-19.13-.64,112.25,112.25,0,0,0-27.76,4.73c-.92.28-1.82.6-2.73.92a1.79,1.79,0,0,0-.68.46c-.18,0-.35-.09-.51-.15A90.39,90.39,0,0,0,51,101.19,113.44,113.44,0,0,0,28.15,100a130.73,130.73,0,0,0-23,3.17c-.77.18-1.53.37-2.29.57l-2.33.63c0-.11-.09-.22-.15-.35A.88.88,0,0,1,.54,104c2.71-.66,5.41-1.36,8.14-2a112.26,112.26,0,0,1,12.89-1.93,124.11,124.11,0,0,1,18.29-.46,99.93,99.93,0,0,1,24.39,4.17c1.91.59,3.8,1.27,5.66,1.9"/><polygon points="0.96 109.13 0.94 109.13 0.94 113.94 0 113.94 0 107.3 1.31 107.3 2.36 111.28 2.38 111.28 2.38 107.3 3.31 107.3 3.31 113.94 2.24 113.94 0.96 109.13"/><path d="M7.57,113.94H6.52l-.18-1.21H5.06l-.18,1.21h-1L5,107.3H6.51Zm-2.38-2.11h1l-.49-3.35h0Z"/><polygon points="7.53 107.3 10.75 107.3 10.75 108.25 9.66 108.25 9.66 113.94 8.61 113.94 8.61 108.25 7.53 108.25 7.53 107.3"/><rect x="11.34" y="107.31" width="1.04" height="6.63"/><path d="M13.2,108.9a1.47,1.47,0,0,1,1.58-1.67,1.47,1.47,0,0,1,1.58,1.67v3.45A1.47,1.47,0,0,1,14.78,114a1.46,1.46,0,0,1-1.58-1.66Zm1,3.51c0,.48.21.66.54.66s.54-.18.54-.66v-3.58c0-.47-.21-.65-.54-.65s-.54.18-.54.65Z"/><polygon points="18.12 109.13 18.1 109.13 18.1 113.94 17.16 113.94 17.16 107.3 18.47 107.3 19.52 111.28 19.54 111.28 19.54 107.3 20.47 107.3 20.47 113.94 19.4 113.94 18.12 109.13"/><path d="M24.73,113.94H23.68l-.18-1.21H22.22L22,113.94h-1l1.06-6.64h1.53Zm-2.38-2.11h1l-.5-3.35h0Z"/><polygon points="25.35 107.3 26.39 107.3 26.39 112.99 28.11 112.99 28.11 113.94 25.35 113.94 25.35 107.3"/><rect x="30.31" y="107.31" width="1.04" height="6.63"/><polygon points="33.2 109.13 33.18 109.13 33.18 113.94 32.24 113.94 32.24 107.3 33.55 107.3 34.6 111.28 34.62 111.28 34.62 107.3 35.55 107.3 35.55 113.94 34.48 113.94 33.2 109.13"/><path d="M37.84,107.23c1,0,1.53.6,1.53,1.67v.2h-1v-.27c0-.47-.19-.65-.52-.65s-.53.18-.53.65.21.84.89,1.44a2.56,2.56,0,0,1,1.15,2.08c0,1.06-.53,1.66-1.55,1.66a1.45,1.45,0,0,1-1.56-1.66v-.41h1v.47c0,.48.21.65.54.65s.54-.17.54-.65-.21-.84-.89-1.44a2.59,2.59,0,0,1-1.15-2.07c0-1.07.52-1.67,1.54-1.67"/><polygon points="39.81 107.3 43.04 107.3 43.04 108.25 41.95 108.25 41.95 113.94 40.91 113.94 40.91 108.25 39.81 108.25 39.81 107.3"/><rect x="43.63" y="107.31" width="1.04" height="6.63"/><polygon points="45.27 107.3 48.49 107.3 48.49 108.25 47.4 108.25 47.4 113.94 46.36 113.94 46.36 108.25 45.27 108.25 45.27 107.3"/><path d="M50.08,107.3v5.12c0,.47.21.65.54.65s.54-.18.54-.65V107.3h1v5c0,1.07-.53,1.67-1.55,1.67s-1.55-.6-1.55-1.67v-5Z"/><polygon points="52.69 107.3 55.91 107.3 55.91 108.25 54.82 108.25 54.82 113.94 53.78 113.94 53.78 108.25 52.69 108.25 52.69 107.3"/><rect x="56.51" y="107.31" width="1.04" height="6.63"/><path d="M58.36,108.9a1.59,1.59,0,1,1,3.17,0v3.45a1.59,1.59,0,1,1-3.17,0Zm1,3.51c0,.48.21.66.54.66s.54-.18.54-.66v-3.58c0-.47-.2-.65-.54-.65s-.54.18-.54.65Z"/><polygon points="63.28 109.13 63.27 109.13 63.27 113.94 62.33 113.94 62.33 107.3 63.63 107.3 64.69 111.28 64.7 111.28 64.7 107.3 65.63 107.3 65.63 113.94 64.56 113.94 63.28 109.13"/><path d="M69.89,113.94h-1l-.18-1.21H67.38l-.18,1.21h-1l1.06-6.64h1.52Zm-2.37-2.11h1L68,108.48h0Z"/><polygon points="70.52 107.3 71.56 107.3 71.56 112.99 73.27 112.99 73.27 113.94 70.52 113.94 70.52 107.3"/><path d="M77.66,113.94a2,2,0,0,1-.1-.82v-1c0-.61-.21-.84-.68-.84h-.36v2.7h-1v-6.63h1.57c1.08,0,1.54.5,1.54,1.52v.52a1.32,1.32,0,0,1-.68,1.34v0c.52.21.69.71.69,1.4v1a1.9,1.9,0,0,0,.12.81Zm-1.14-5.69v2h.41c.38,0,.62-.17.62-.7v-.66c0-.47-.16-.68-.53-.68Z"/><path d="M82.8,113.94H81.74l-.18-1.21H80.28l-.18,1.21h-.95l1.06-6.64h1.52Zm-2.38-2.11h1l-.49-3.35h0Z"/><polygon points="84.36 109.13 84.35 109.13 84.35 113.94 83.41 113.94 83.41 107.3 84.72 107.3 85.77 111.28 85.78 111.28 85.78 107.3 86.72 107.3 86.72 113.94 85.64 113.94 84.36 109.13"/><polygon points="88.97 111.29 88.64 111.9 88.64 113.94 87.6 113.94 87.6 107.3 88.64 107.3 88.64 110.17 88.66 110.17 90.01 107.3 91.05 107.3 89.6 110.26 91.05 113.94 89.98 113.94 88.97 111.29"/><rect x="91.66" y="107.31" width="1.04" height="6.63"/><polygon points="94.55 109.13 94.53 109.13 94.53 113.94 93.59 113.94 93.59 107.3 94.9 107.3 95.95 111.28 95.97 111.28 95.97 107.3 96.9 107.3 96.9 113.94 95.83 113.94 94.55 109.13"/><path d="M99.35,110.24h1.46v2.11c0,1.06-.53,1.66-1.55,1.66a1.45,1.45,0,0,1-1.56-1.66V108.9c0-1.07.53-1.67,1.56-1.67s1.55.6,1.55,1.67v.64h-1v-.71c0-.47-.2-.65-.54-.65s-.54.18-.54.65v3.58c0,.48.21.65.54.65s.54-.17.54-.65v-1.22h-.47Z"/><polygon points="104.27 110.25 105.62 110.25 105.62 111.2 104.27 111.2 104.27 113.94 103.23 113.94 103.23 107.3 105.99 107.3 105.99 108.25 104.27 108.25 104.27 110.25"/><path d="M108.81,113.94a2,2,0,0,1-.1-.82v-1c0-.61-.2-.84-.68-.84h-.36v2.7h-1v-6.63h1.57c1.08,0,1.55.5,1.55,1.52v.52a1.31,1.31,0,0,1-.69,1.34v0c.52.21.7.71.7,1.4v1a2.07,2.07,0,0,0,.11.81Zm-1.14-5.69v2h.41c.39,0,.62-.17.62-.7v-.66c0-.47-.16-.68-.53-.68Z"/><path d="M114,113.94h-1l-.18-1.21h-1.28l-.18,1.21h-1l1.06-6.64h1.53Zm-2.38-2.11h1l-.5-3.35h0Z"/><polygon points="116.77 112.01 116.79 112.01 117.49 107.3 118.94 107.3 118.94 113.94 117.95 113.94 117.95 109.18 117.94 109.18 117.23 113.94 116.25 113.94 115.49 109.25 115.47 109.25 115.47 113.94 114.56 113.94 114.56 107.3 116.01 107.3 116.77 112.01"/><polygon points="120.88 110.1 122.31 110.1 122.31 111.05 120.88 111.05 120.88 112.99 122.68 112.99 122.68 113.94 119.83 113.94 119.83 107.3 122.68 107.3 122.68 108.25 120.88 108.25 120.88 110.1"/><polygon points="125.78 110.4 125.76 110.4 125.39 113.94 123.96 113.94 123.22 107.3 124.24 107.3 124.79 112.53 124.81 112.53 125.3 107.3 126.3 107.3 126.81 112.57 126.83 112.57 127.36 107.3 128.27 107.3 127.53 113.94 126.15 113.94 125.78 110.4"/><path d="M128.85,108.9a1.58,1.58,0,1,1,3.16,0v3.45a1.58,1.58,0,1,1-3.16,0Zm1,3.51c0,.48.21.66.54.66s.54-.18.54-.66v-3.58c0-.47-.21-.65-.54-.65s-.54.18-.54.65Z"/><path d="M135,113.94a2.27,2.27,0,0,1-.09-.82v-1c0-.61-.21-.84-.68-.84h-.36v2.7h-1.05v-6.63h1.58c1.08,0,1.54.5,1.54,1.52v.52a1.32,1.32,0,0,1-.68,1.34v0c.52.21.69.71.69,1.4v1a2.07,2.07,0,0,0,.11.81Zm-1.13-5.69v2h.4c.39,0,.63-.17.63-.7v-.66c0-.47-.16-.68-.53-.68Z"/><polygon points="138.14 111.29 137.81 111.9 137.81 113.94 136.77 113.94 136.77 107.3 137.81 107.3 137.81 110.17 137.83 110.17 139.18 107.3 140.22 107.3 138.77 110.26 140.22 113.94 139.15 113.94 138.14 111.29"/><path d="M116.69,118.69c-.58,0-1,.32-1,1.15v1.25H114V120c0-1.87.93-2.94,2.73-2.94s2.74,1.07,2.74,2.94c0,1.55-.57,2.8-2.27,4.62-1.08,1.17-1.38,1.72-1.38,2.34a2.09,2.09,0,0,0,0,.25h3.47v1.67H114V127.4c0-1.3.47-2.28,1.83-3.72s1.81-2.4,1.81-3.65c0-1.06-.37-1.34-1-1.34"/><path d="M120.71,120c0-1.87,1-2.94,2.79-2.94s2.78,1.07,2.78,2.94V126c0,1.87-1,2.94-2.78,2.94s-2.79-1.07-2.79-2.94Zm1.83,6.19c0,.83.37,1.15,1,1.15s1-.32,1-1.15v-6.31c0-.83-.37-1.15-1-1.15s-1,.32-1,1.15Z"/><path d="M130.4,118.69c-.59,0-1,.32-1,1.15v1.25h-1.73V120c0-1.87.93-2.94,2.73-2.94s2.74,1.07,2.74,2.94c0,1.55-.56,2.8-2.27,4.62-1.08,1.17-1.38,1.72-1.38,2.34a2.09,2.09,0,0,0,0,.25H133v1.67h-5.31V127.4c0-1.3.47-2.28,1.83-3.72s1.81-2.4,1.81-3.65c0-1.06-.37-1.34-.95-1.34"/><path d="M134.41,120c0-1.87,1-2.94,2.79-2.94S140,118.09,140,120V126c0,1.87-1,2.94-2.78,2.94s-2.79-1.07-2.79-2.94Zm1.84,6.19c0,.83.36,1.15.95,1.15s1-.32,1-1.15v-6.31c0-.83-.37-1.15-1-1.15s-.95.32-.95,1.15Z"/></g></g></svg>