<svg width="229" height="118" viewBox="0 0 229 118" fill="none" xmlns="http://www.w3.org/2000/svg">
<rect width="229" height="118" fill="white"/>
<path d="M159.663 49.4519C158.766 49.2018 157.768 49.0836 155.666 48.8243C146.964 48.4677 125.459 47.6322 114.5 47.6322C103.542 47.6322 82.037 48.4672 73.3361 48.8243C71.2327 49.0836 70.2336 49.2018 69.3378 49.4519C66.6019 50.0964 66 51.0776 66 53.0354V66.4531C66 68.4113 68.0996 69.7308 69.5468 69.9969C70.995 70.2648 71.9112 70.3719 73.4346 70.5168C81.2174 70.9985 99.2739 72.0026 114.5 72.0185C129.727 72.004 147.782 70.999 155.565 70.5168C157.088 70.3719 158.005 70.2643 159.454 69.9969C160.9 69.7303 163 68.4113 163 66.4531V53.0354C163 51.0776 162.399 50.0964 159.663 49.4519Z" fill="url(#paint0_linear_20_902)"/>
<path d="M79.6042 49.9796C83.8858 35.0979 97.9542 24.1787 114.654 24.1787C131.306 24.1787 145.346 35.0378 149.669 49.8599C149.683 49.9122 149.692 49.9393 149.707 49.9897C152.189 49.7111 154.413 49.2808 155.984 48.8616C155.956 48.7662 155.949 48.7468 155.924 48.6528C151.01 30.9969 134.395 18.0046 114.654 18.0046C94.8468 18.0046 78.188 31.0812 73.3351 48.8243C75.5181 49.4218 77.1171 49.6723 79.6042 49.9796Z" fill="url(#paint1_radial_20_902)"/>
<path d="M149.567 69.4842C149.524 69.6165 149.476 69.7623 149.453 69.8346C144.901 84.3004 131.044 94.8218 114.655 94.8218C98.1356 94.8218 84.1919 84.1381 79.7498 69.4982C77.0347 69.9785 76.1176 70.1612 73.4346 70.5178C78.4058 88.0875 94.9754 100.996 114.655 100.996C134.342 100.996 150.918 88.0739 155.88 70.4897C153.516 70.198 152.123 69.9775 149.567 69.4842V69.4842Z" fill="url(#paint2_radial_20_902)"/>
<path d="M80.4782 49.9476C81.5089 49.5221 82.506 48.8437 84.0604 48.4071C88.6946 36.3772 100.642 27.8107 114.654 27.8107C128.622 27.8107 140.54 36.3244 145.203 48.2961C145.219 48.3368 145.236 48.3863 145.25 48.4168C146.052 48.6945 148.415 49.652 149.15 49.9723C149.255 49.9747 149.477 49.9825 149.707 49.9888C149.694 49.9458 149.681 49.9025 149.669 49.8589C145.344 35.0417 131.305 24.186 114.654 24.186C97.9581 24.186 83.8897 35.1004 79.6067 49.9791C79.854 49.9796 80.325 49.9583 80.4782 49.9476V49.9476Z" fill="url(#paint3_radial_20_902)"/>
<path d="M114.388 25.1925C130.011 25.1925 143.86 34.5004 149.106 49.8429L149.149 49.9733C149.23 49.9733 149.528 49.9839 149.706 49.9897C149.692 49.934 149.677 49.9015 149.668 49.8599C145.343 35.0427 131.303 24.187 114.652 24.187C97.9567 24.187 83.8883 35.1013 79.6052 49.9801C79.9389 49.9747 80.0994 49.9747 80.4777 49.9481C85.1677 35.3824 98.8796 25.1925 114.388 25.1925V25.1925Z" fill="white"/>
<path d="M148.681 69.5264C147.559 70.1529 146.162 70.7558 145.045 71.108C145.03 71.1439 144.966 71.3028 144.953 71.3402C140.121 82.9809 128.376 91.198 114.654 91.198C100.846 91.198 89.0409 82.8811 84.2656 71.125C82.9808 70.7688 81.0602 69.8937 80.3332 69.5283C80.0611 69.5152 79.9146 69.5075 79.7473 69.4987C84.1894 84.1367 98.1356 94.8223 114.655 94.8223C131.099 94.8223 144.991 84.2345 149.499 69.6998C149.508 69.6717 149.558 69.5118 149.569 69.4847C149.308 69.4949 148.91 69.5264 148.681 69.5264V69.5264Z" fill="url(#paint4_radial_20_902)"/>
<path d="M158.885 50.4234C156.581 50.1433 155.009 50.1734 149.395 49.98C149.14 49.9708 148.88 49.9631 148.617 49.9539C138.437 49.605 123.145 49.1388 114.5 49.1388C105.856 49.1388 90.5643 49.605 80.3827 49.9539C80.1198 49.9631 79.8613 49.9708 79.6067 49.98C73.9913 50.1734 72.4204 50.1433 70.1152 50.4234C67.8105 50.7059 66 51.7144 66 53.4293V65.8721C66 67.588 68.181 68.9773 70.1147 68.9773C70.1147 68.9773 94.7266 70.4955 114.5 70.5135C134.274 70.4955 158.885 68.9773 158.885 68.9773C160.819 68.9773 163 67.588 163 65.8721V53.4293C163 51.7144 161.19 50.7059 158.885 50.4234V50.4234Z" fill="url(#paint5_radial_20_902)"/>
<path d="M148.681 69.5263C143.851 83.8425 130.267 93.8153 114.923 93.8153C99.4233 93.8153 85.6697 84.6537 80.3318 69.5263C80.1358 69.5162 79.9418 69.5084 79.7502 69.4973C84.1914 84.1357 98.14 94.8213 114.66 94.8213C131.184 94.8213 145.135 84.1289 149.572 69.4827C149.28 69.4963 148.983 69.5123 148.681 69.5263V69.5263Z" fill="white"/>
<path d="M148.71 69.5254L148.68 69.5263C147.558 70.1529 146.161 70.7557 145.043 71.108C145.028 71.1439 144.965 71.3028 144.952 71.3401C143.423 75.024 141.202 78.3647 138.442 81.2117C142.761 78.0565 146.285 74.0703 148.71 69.5254V69.5254Z" fill="#8C8C8C"/>
<path d="M91.7972 82.1377C88.5487 79.0461 85.9626 75.3036 84.2651 71.124C82.9804 70.7674 81.0603 69.8917 80.3328 69.5263C81.1102 71.1366 82.0267 72.676 83.072 74.127C85.2104 76.9095 87.8022 79.3896 90.7525 81.4884C91.0959 81.7132 91.4441 81.9294 91.7972 82.1377V82.1377Z" fill="#4D4D4D"/>
<path d="M79.7488 69.4992V69.4982L79.7376 69.5002C77.0313 69.9794 76.1132 70.1631 73.4341 70.5178C73.6499 71.2835 73.889 72.038 74.1495 72.7847L79.7488 69.4992Z" fill="#252525"/>
<path d="M134.209 55.9342C133.4 54.1276 133.687 54.3171 131.926 54.2706C131.783 54.2221 131.401 54.2221 130.878 54.2221C130.357 54.2221 130.261 54.2221 129.832 54.2706C128.167 54.2706 128.452 54.1756 127.882 55.3638C127.882 55.3638 125.025 61.7807 123.789 64.4425L123.742 64.5375C123.504 65.0119 123.647 65.0119 124.027 65.0119H126.597C126.788 65.0119 126.882 64.9189 126.93 64.822C126.93 64.822 127.31 64.0137 127.786 62.8734H134.066C134.543 63.9671 134.875 64.7745 134.875 64.822C134.923 64.9649 135.066 65.0119 135.208 65.0119H137.873C138.253 65.0119 138.349 65.0618 138.206 64.727C137.73 63.5867 134.637 56.931 134.209 55.9342V55.9342ZM128.737 60.592C129.546 58.691 130.356 56.8374 130.356 56.7895C130.404 56.694 130.499 56.6465 130.641 56.6465C130.689 56.598 130.832 56.598 130.974 56.598C131.07 56.598 131.212 56.598 131.26 56.6465C131.354 56.6465 131.451 56.694 131.497 56.8369C131.689 57.3588 132.401 58.9759 133.067 60.592H128.737V60.592ZM94.4802 54.1271C94.7178 54.1271 94.7658 54.2216 94.7658 54.4121V64.586C94.7658 64.8224 94.7178 64.9194 94.4331 64.9194H91.9587C91.674 64.9194 91.6264 64.8709 91.6264 64.586V54.4121C91.6264 54.2216 91.674 54.1271 91.8636 54.1271H94.4802V54.1271ZM89.199 54.2216C89.4837 54.2216 89.5327 54.3161 89.5327 54.555V64.6809C89.5327 64.9668 89.4837 65.0143 89.199 65.0143H86.2963C84.5842 65.0143 84.4412 65.0143 83.8708 64.0645C82.6811 62.211 79.112 56.7439 79.112 56.7439V64.6819C79.112 64.9683 79.0645 65.0148 78.7798 65.0148H76.638C76.3528 65.0148 76.3048 64.9683 76.3048 64.6819V54.555C76.3048 54.3171 76.3528 54.2216 76.638 54.2216H79.112C80.9676 54.2216 81.2052 54.1746 81.8726 55.1254C82.3954 55.9816 86.725 62.6365 86.725 62.6365V54.555C86.725 54.3171 86.7726 54.2216 87.0587 54.2216H89.199V54.2216ZM152.716 54.2216C153.004 54.2216 153.05 54.3161 153.05 54.555V64.6809C153.05 64.9668 153.003 65.0143 152.716 65.0143H149.817C148.102 65.0143 147.959 65.0143 147.389 64.0645C146.198 62.2095 142.63 56.7429 142.63 56.7429V64.6814C142.63 64.9673 142.582 65.0138 142.296 65.0138H140.156C139.871 65.0138 139.822 64.9673 139.822 64.6814V54.555C139.822 54.3171 139.872 54.2216 140.156 54.2216H142.63C144.486 54.2216 144.724 54.1746 145.389 55.1254C145.96 55.9816 150.243 62.6365 150.243 62.6365V54.555C150.243 54.3171 150.291 54.2216 150.577 54.2216H152.716V54.2216ZM105.376 58.359C107.28 58.5485 108.66 58.8809 109.04 60.6879C109.04 60.8294 109.088 61.3053 109.088 61.8287C109.088 62.1621 109.088 62.5885 108.993 62.9694C108.661 64.6805 107.375 65.0129 105.378 65.0129H97.3829C97.0972 65.0129 97.0492 64.9664 97.0492 64.6805V62.9694C97.0492 62.6835 97.0972 62.636 97.3829 62.636H105.47C105.804 62.636 105.899 62.5415 105.946 62.3026V61.8747V61.5898C105.898 61.3988 105.851 61.1139 105.423 61.0674C104.519 61.0199 101.855 60.7815 100.046 60.592C97.7146 60.3541 97.1443 59.3568 97.0487 58.5005C97.0012 58.2146 97.0012 57.8347 97.0012 57.5018C97.0012 57.2164 97.0012 56.789 97.0487 56.4556C97.3824 54.9335 98.5246 54.2216 100.522 54.2216H108.277C108.564 54.2216 108.659 54.2701 108.659 54.5071V56.2666C108.659 56.5026 108.564 56.5985 108.277 56.551H100.665C100.332 56.551 100.19 56.6935 100.141 57.0259V57.4538C100.141 57.6918 100.284 57.8822 100.617 57.9282C101.523 58.0251 104.329 58.2626 105.376 58.359V58.359ZM119.125 58.359C121.031 58.5485 122.409 58.8809 122.791 60.6879C122.791 60.8294 122.838 61.3053 122.838 61.8287C122.838 62.1621 122.838 62.5885 122.743 62.9694C122.411 64.6805 121.127 65.0129 119.127 65.0129H111.133C110.847 65.0129 110.799 64.9664 110.799 64.6805V62.9694C110.799 62.6835 110.847 62.636 111.133 62.636H119.222C119.555 62.636 119.648 62.5415 119.697 62.3026V61.8747V61.5898C119.648 61.3988 119.554 61.1139 119.173 61.0674C118.27 61.0199 115.605 60.7815 113.798 60.592C111.465 60.3541 110.943 59.3568 110.799 58.5005C110.752 58.2146 110.752 57.8347 110.752 57.5018C110.752 57.2164 110.752 56.789 110.799 56.4556C111.133 54.9335 112.275 54.2216 114.273 54.2216H122.029C122.313 54.2216 122.41 54.2701 122.41 54.5071V56.2666C122.41 56.5026 122.313 56.5985 122.029 56.551H114.416C114.083 56.551 113.941 56.6935 113.892 57.0259V57.4538C113.892 57.6918 113.988 57.8822 114.369 57.9282C115.273 58.0251 118.079 58.2626 119.125 58.359V58.359Z" fill="url(#paint6_radial_20_902)"/>
<defs>
<linearGradient id="paint0_linear_20_902" x1="114.5" y1="19.2297" x2="114.5" y2="86.7815" gradientUnits="userSpaceOnUse">
<stop offset="0.194" stop-color="white"/>
<stop offset="0.208" stop-color="#F8F8F8"/>
<stop offset="0.366" stop-color="#AEAEAE"/>
<stop offset="0.513" stop-color="#707070"/>
<stop offset="0.647" stop-color="#404040"/>
<stop offset="0.764" stop-color="#1D1D1D"/>
<stop offset="0.86" stop-color="#080808"/>
<stop offset="0.922"/>
</linearGradient>
<radialGradient id="paint1_radial_20_902" cx="0" cy="0" r="1" gradientUnits="userSpaceOnUse" gradientTransform="translate(87.2706 1.32078) scale(67.6395 67.5819)">
<stop offset="0.202" stop-color="white"/>
<stop offset="0.382" stop-color="#FDFDFD"/>
<stop offset="0.487" stop-color="#F4F4F4"/>
<stop offset="0.573" stop-color="#E6E6E6"/>
<stop offset="0.648" stop-color="#D2D2D2"/>
<stop offset="0.689" stop-color="#C4C4C4"/>
<stop offset="1" stop-color="#333333"/>
</radialGradient>
<radialGradient id="paint2_radial_20_902" cx="0" cy="0" r="1" gradientUnits="userSpaceOnUse" gradientTransform="translate(250.962 109.57) scale(140.868 140.748)">
<stop offset="0.202" stop-color="white"/>
<stop offset="0.368" stop-color="#E4E4E4"/>
<stop offset="0.594" stop-color="#C4C4C4"/>
<stop offset="1" stop-color="#333333"/>
</radialGradient>
<radialGradient id="paint3_radial_20_902" cx="0" cy="0" r="1" gradientUnits="userSpaceOnUse" gradientTransform="translate(103.517 78.5101) scale(43.247 43.2101)">
<stop offset="0.202" stop-color="white"/>
<stop offset="0.368" stop-color="#E4E4E4"/>
<stop offset="0.594" stop-color="#C4C4C4"/>
<stop offset="1" stop-color="#333333"/>
</radialGradient>
<radialGradient id="paint4_radial_20_902" cx="0" cy="0" r="1" gradientUnits="userSpaceOnUse" gradientTransform="translate(138.416 122.694) scale(82.059 81.9892)">
<stop offset="0.202" stop-color="white"/>
<stop offset="0.368" stop-color="#E4E4E4"/>
<stop offset="0.594" stop-color="#C4C4C4"/>
<stop offset="1" stop-color="#333333"/>
</radialGradient>
<radialGradient id="paint5_radial_20_902" cx="0" cy="0" r="1" gradientUnits="userSpaceOnUse" gradientTransform="translate(113.85 26.5541) scale(65.2092 65.1537)">
<stop offset="0.202" stop-color="white"/>
<stop offset="0.397" stop-color="#FDFDFD"/>
<stop offset="0.51" stop-color="#F4F4F4"/>
<stop offset="0.603" stop-color="#E6E6E6"/>
<stop offset="0.684" stop-color="#D2D2D2"/>
<stop offset="0.728" stop-color="#C4C4C4"/>
<stop offset="1" stop-color="#4D4D4D"/>
</radialGradient>
<radialGradient id="paint6_radial_20_902" cx="0" cy="0" r="1" gradientUnits="userSpaceOnUse" gradientTransform="translate(115.36 33.0787) scale(43.922 43.8846)">
<stop offset="0.111" stop-color="#4D4D4D"/>
<stop offset="0.248" stop-color="#494949"/>
<stop offset="0.355" stop-color="#404040"/>
<stop offset="0.451" stop-color="#2F2F2F"/>
<stop offset="0.541" stop-color="#181818"/>
<stop offset="0.611"/>
</radialGradient>
</defs>
</svg>
