<svg width="229" height="118" viewBox="0 0 229 118" fill="none" xmlns="http://www.w3.org/2000/svg">
<rect width="229" height="118" fill="white"/>
<path d="M23.747 38V42.0701H26.6121C26.8284 42.0701 27.0051 42.2432 27.0051 42.4595V49.6995L32.5702 54.6769V42.4595C32.5702 42.2432 32.7433 42.0701 32.9596 42.0701H35.8247V38H23.7468H23.747ZM49.4152 38V42.0701H52.2803C52.4966 42.0701 52.672 42.2432 52.6697 42.4595V50.5664L55.4468 54.2323L58.2348 50.5517V42.4595C58.2348 42.2432 58.4115 42.0701 58.6278 42.0701H61.4967V38H49.4152H49.4152ZM11.0013 45.4532V49.5232H13.8664C14.0803 49.5232 14.2558 49.7024 14.2558 49.9163V66.0054C14.2558 66.2217 14.0803 66.3984 13.8664 66.3984H11.0013V70.4685H22.9027V66.3984H20.2065C19.9926 66.3984 19.8171 66.2217 19.8171 66.0054V52.7043L39.6852 70.4683H45.4816V52.7227L55.4472 65.8841L65.4093 52.7227V66.0054C65.4093 66.2217 65.2362 66.3984 65.0199 66.3984H62.3237V70.4685H74.2325V66.3984H71.3636C71.1473 66.3984 70.9742 66.2217 70.9742 66.0054V49.9163C70.9742 49.7023 71.1473 49.5232 71.3636 49.5232H74.2325V45.4532H63.9398L55.4472 56.6713L46.9545 45.4532H36.6619V49.5232H39.527C39.7409 49.5232 39.92 49.7024 39.92 49.9163V63.2174L20.0482 45.4518H11L11.0013 45.4532ZM27.0168 61.1125V72.6797C27.0168 72.849 27.075 73.0233 27.1785 73.1573C30.7612 77.8426 36.7531 79.7839 42.621 79.7839C48.4888 79.7839 54.4807 77.8426 58.0634 73.1573C58.1692 73.0233 58.2251 72.849 58.2251 72.6797V64.65L55.448 68.3232L52.6636 64.6462V71.519C52.6636 71.6718 52.6027 71.8199 52.4946 71.9304C51.3027 73.1317 47.7435 75.4274 42.6208 75.4274C37.498 75.4274 33.9389 73.1318 32.7469 71.9304C32.6388 71.8199 32.5816 71.6718 32.5816 71.519V66.0861L27.0165 61.1125H27.0168Z" fill="#BA0C2F"/>
<path d="M204.735 45.3136C202.13 45.3136 200.29 47.311 200.29 49.6995V49.7215C200.29 52.1101 202.107 54.0854 204.709 54.0854C207.316 54.0854 209.157 52.0856 209.157 49.6995V49.6738C209.157 47.2876 207.342 45.3135 204.735 45.3135L204.735 45.3136ZM169.61 45.3357C167.927 45.3357 166.712 46.3416 166.712 47.7968V47.8225C166.712 49.3835 167.729 49.9186 169.537 50.3534C171.11 50.7178 171.451 51.0435 171.451 51.6501V51.6721C171.451 52.3139 170.87 52.7411 169.948 52.7411C168.895 52.7411 168.079 52.342 167.271 51.6391L166.374 52.7043C167.39 53.6118 168.616 54.0598 169.912 54.0598C171.694 54.0598 172.942 53.1181 172.942 51.5289V51.5032C172.942 50.0997 172.008 49.4549 170.217 49.02C168.592 48.6321 168.204 48.3402 168.204 47.6866V47.6609C168.204 47.1061 168.713 46.6581 169.585 46.6581C170.361 46.6581 171.122 46.9634 171.888 47.5323L172.682 46.4048C171.82 45.7112 170.844 45.3358 169.607 45.3358L169.61 45.3357ZM86.2713 45.4569V46.8381H88.9602V53.9386H90.4626V46.8381H93.1515V45.4569H86.2714H86.2713ZM94.7273 45.4569V53.9386H96.2187V50.3645H100.267V53.9386H101.754V45.4569H100.267V48.9833H96.2187V45.4569H94.7273ZM103.661 45.4569V53.9386H110.008V52.6052H105.148V50.3314H109.399V48.9943H105.148V46.7903H109.946V45.4569H103.661V45.4569ZM117.715 45.4569V50.3425C117.715 52.8015 119.121 54.0746 121.326 54.0746C123.543 54.0746 124.973 52.8033 124.973 50.2691V45.4571H123.482V50.3427C123.482 51.906 122.669 52.7047 121.348 52.7047C120.015 52.7047 119.203 51.8554 119.203 50.2802V45.4571H117.715L117.715 45.4569ZM127.063 45.4569V53.9386H128.529V47.9034L133.209 53.9386H134.458V45.4569H132.992V51.3231L128.445 45.4569H127.063H127.063ZM136.926 45.4569V53.9386H138.414V45.4569H136.926ZM139.99 45.4569L143.516 54.0011H144.827L148.354 45.4569H146.741L144.192 51.977L141.639 45.4569H139.99V45.4569ZM149.878 45.4569V53.9386H156.229V52.6052H151.37V50.3314H155.623V48.9943H151.37V46.7903H156.171V45.4569H149.878V45.4569ZM158.118 45.4569V53.9386H159.605V50.9853H161.471L163.558 53.9386H165.314L163.025 50.7282C164.212 50.3897 165.045 49.5547 165.045 48.1606V48.1386C165.045 47.3981 164.796 46.7664 164.347 46.3056C163.802 45.7743 162.962 45.4571 161.897 45.4571H158.118L158.118 45.4569ZM174.647 45.4569V53.9386H176.139V45.4569H174.647ZM177.608 45.4569V46.8381H180.297V53.9386H181.799V46.8381H184.488V45.4569H177.608H177.608ZM185.487 45.4569L188.856 50.5922V53.9386H190.358V50.5591L193.727 45.4569H192.019L189.62 49.2146L187.243 45.4569H185.487H185.487ZM210.804 45.4569V53.9386H212.292V50.4894H216.571V49.1302H212.292V46.816H217.118V45.4569H210.804V45.4569ZM204.71 46.6838C206.396 46.6838 207.597 48.0492 207.597 49.6995V49.7216C207.597 51.3719 206.421 52.7153 204.736 52.7153C203.05 52.7153 201.852 51.3452 201.852 49.6996V49.6738C201.852 48.0259 203.029 46.6839 204.71 46.6839V46.6838ZM159.595 46.816H161.766C162.871 46.816 163.522 47.3117 163.522 48.2192V48.2449C163.522 49.1053 162.846 49.6628 161.781 49.6628H159.595V46.8159L159.595 46.816ZM197.815 56.5503C193.612 56.5503 190.638 59.778 190.638 63.6288V63.6692C190.638 67.5224 193.569 70.7073 197.775 70.7073C199.606 70.7073 201.206 70.0909 202.429 69.08C201.975 68.3865 201.615 67.6336 201.349 66.832C200.531 67.8499 199.296 68.4997 197.815 68.4997C195.098 68.4997 193.161 66.2877 193.161 63.6289V63.5885C193.161 60.9296 195.057 58.7581 197.775 58.7581C199.265 58.7581 200.515 59.4257 201.345 60.4625C201.616 59.6397 201.991 58.8706 202.454 58.1629C201.241 57.1591 199.649 56.5503 197.815 56.5503L197.815 56.5503ZM210.863 56.5503C206.657 56.5503 203.685 59.778 203.685 63.6288V63.6692C203.685 67.5224 206.617 70.7073 210.822 70.7073C215.026 70.7073 218 67.482 218 63.6288V63.5884C218 59.7351 215.066 56.5503 210.863 56.5503V56.5503ZM122.391 56.745L119.027 66.931L115.761 56.7854H113.16L117.932 70.5714H120.004L123.369 60.7342L126.73 70.5714H128.805L133.577 56.7854H131.053L127.788 66.931L124.423 56.745H122.391V56.745ZM86.2606 56.7854V70.472H88.6262V60.7342L96.1711 70.472H98.1878V56.7854H95.8223V66.2479L88.4904 56.7854H86.2608H86.2606ZM101.318 56.7854V70.472H111.562V68.3231H103.724V64.6461H110.589V62.4936H103.724V58.9341H111.467V56.7852H101.318V56.7854ZM141.812 56.7854V70.472H144.177V60.6937L148.46 67.1074H148.537L152.861 60.657V70.4722H155.263V56.7856H152.703L148.537 63.2579L144.372 56.7856H141.812L141.812 56.7854ZM158.459 56.7854V70.472H168.704V68.3231H160.862V64.6461H167.727V62.4936H160.862V58.9341H168.605V56.7852H158.459L158.459 56.7854ZM170.849 56.7854L175.639 63.5112L170.654 70.4722H173.413L177.028 65.2929L180.628 70.4722H183.463L178.493 63.4708L183.265 56.7854H180.506L177.086 61.693L173.685 56.7854H170.849V56.7854ZM185.697 56.7854V70.472H188.103V56.7854H185.697ZM210.921 58.7579C213.639 58.7579 215.579 60.9698 215.579 63.6286V63.669C215.579 66.328 213.679 68.4995 210.961 68.4995C208.241 68.4995 206.307 66.2876 206.307 63.6288V63.5884C206.307 60.9294 208.203 58.7579 210.921 58.7579V58.7579Z" fill="#63666A"/>
</svg>
