<svg width="65" height="65" viewBox="0 0 65 65" fill="none" xmlns="http://www.w3.org/2000/svg">
<path d="M58.6625 11.5104C58.1235 11.037 57.4187 10.7968 56.7027 10.8425C55.9868 10.8882 55.3182 11.2161 54.8438 11.7542L49.7792 17.5771L48.0729 15.6542C47.5952 15.1155 46.9231 14.7885 46.2044 14.7454C45.4858 14.7022 44.7793 14.9463 44.2406 15.424C43.7019 15.9016 43.375 16.5737 43.3318 17.2924C43.2887 18.0111 43.5327 18.7175 44.0104 19.2563L47.775 23.4813C48.0313 23.7652 48.3448 23.9917 48.6949 24.1457C49.045 24.2998 49.4238 24.3779 49.8062 24.375C50.1862 24.3707 50.561 24.2865 50.9063 24.1278C51.2516 23.9692 51.5596 23.7397 51.8104 23.4542L58.8792 15.3292C59.3559 14.7936 59.6008 14.0909 59.5602 13.375C59.5196 12.6592 59.1967 11.9886 58.6625 11.5104ZM27.0833 29.7917C29.226 29.7917 31.3205 29.1563 33.102 27.9659C34.8835 26.7755 36.2721 25.0836 37.092 23.1041C37.912 21.1245 38.1265 18.9463 37.7085 16.8449C37.2905 14.7434 36.2587 12.8131 34.7437 11.298C33.2286 9.78295 31.2983 8.75117 29.1968 8.33316C27.0954 7.91516 24.9171 8.12969 22.9376 8.94964C20.9581 9.76959 19.2661 11.1581 18.0757 12.9397C16.8854 14.7212 16.25 16.8157 16.25 18.9583C16.25 21.8315 17.3914 24.587 19.423 26.6187C21.4547 28.6503 24.2102 29.7917 27.0833 29.7917ZM27.0833 13.5417C28.1546 13.5417 29.2019 13.8594 30.0927 14.4545C30.9834 15.0497 31.6777 15.8957 32.0877 16.8855C32.4977 17.8752 32.6049 18.9643 32.3959 20.0151C32.1869 21.0658 31.671 22.031 30.9135 22.7885C30.156 23.546 29.1908 24.0619 28.1401 24.2709C27.0893 24.4799 26.0002 24.3727 25.0105 23.9627C24.0207 23.5527 23.1747 22.8584 22.5795 21.9677C21.9843 21.0769 21.6667 20.0297 21.6667 18.9583C21.6667 17.5217 22.2374 16.144 23.2532 15.1282C24.269 14.1124 25.6467 13.5417 27.0833 13.5417ZM27.0833 35.2083C22.0553 35.2083 17.2331 37.2057 13.6778 40.7611C10.1224 44.3165 8.125 49.1386 8.125 54.1667C8.125 54.885 8.41034 55.5738 8.91825 56.0818C9.42616 56.5897 10.115 56.875 10.8333 56.875C11.5516 56.875 12.2405 56.5897 12.7484 56.0818C13.2563 55.5738 13.5417 54.885 13.5417 54.1667C13.5417 50.5752 14.9684 47.1308 17.5079 44.5913C20.0475 42.0517 23.4919 40.625 27.0833 40.625C30.6748 40.625 34.1192 42.0517 36.6587 44.5913C39.1983 47.1308 40.625 50.5752 40.625 54.1667C40.625 54.885 40.9103 55.5738 41.4183 56.0818C41.9262 56.5897 42.615 56.875 43.3333 56.875C44.0516 56.875 44.7405 56.5897 45.2484 56.0818C45.7563 55.5738 46.0417 54.885 46.0417 54.1667C46.0417 49.1386 44.0443 44.3165 40.4889 40.7611C36.9335 37.2057 32.1114 35.2083 27.0833 35.2083Z" fill="#BF2424"/>
</svg>
