<svg width="72" height="72" viewBox="0 0 72 72" fill="none" xmlns="http://www.w3.org/2000/svg">
<g id="play">
<path id="Oval 2" fill-rule="evenodd" clip-rule="evenodd" d="M35.9236 70.3139C54.8781 69.8767 69.8848 53.9592 69.442 34.7612C68.9992 15.5631 53.2746 0.354407 34.3201 0.791585C15.3656 1.22876 0.358967 17.1463 0.801763 36.3443C1.24456 55.5424 16.9692 70.7511 35.9236 70.3139ZM34.3763 3.22944C52.0016 2.82292 66.6234 16.9651 67.0352 34.8168C67.4469 52.6686 53.4926 67.4698 35.8674 67.8763C18.2421 68.2829 3.62027 54.1407 3.20852 36.289C2.79678 18.4372 16.7511 3.63596 34.3763 3.22944Z" fill="#FFD92A"/>
<path id="Path 2" d="M25.1496 41.1146L23.408 39.4301L35.0367 27.0956L46.5454 38.2268L44.8833 39.9898L35.1162 30.5431L25.1496 41.1146Z" fill="#FFD92A"/>
</g>
</svg>
