<svg width="72" height="72" viewBox="0 0 72 72" fill="none" xmlns="http://www.w3.org/2000/svg">
<g id="play">
<path id="Oval 2" fill-rule="evenodd" clip-rule="evenodd" d="M34.32 0.79158C15.3655 1.22876 0.358872 17.1463 0.801668 36.3443C1.24446 55.5424 16.9691 70.7511 35.9235 70.3139C54.878 69.8767 69.8847 53.9592 69.4419 34.7612C68.9991 15.5631 53.2745 0.354403 34.32 0.79158ZM35.8673 67.876C18.2421 68.2825 3.62022 54.1404 3.20847 36.2886C2.79673 18.4369 16.751 3.63565 34.3763 3.22913C52.0015 2.82261 66.6234 16.9648 67.0351 34.8165C67.4469 52.6683 53.4926 67.4695 35.8673 67.876Z" fill="#FFD92A"/>
<path id="Path 2" d="M45.094 29.9909L46.8357 31.6754L35.207 44.0098L23.6982 32.8787L25.3603 31.1157L35.1275 40.5624L45.094 29.9909Z" fill="#FFD92A"/>
</g>
</svg>
