<svg width="274" height="61" viewBox="0 0 274 61" fill="none" xmlns="http://www.w3.org/2000/svg">
<path d="M114.368 0.133812H89.5717V8.32963H96.1267V60.5485H107.514V8.32963H114.368V0.133812Z" fill="#EE1F36"/>
<path d="M130.272 0.133812V23.1154H127.583V0.133812H116.67V60.5485H127.583V31.3112H130.272V60.5485H141.009V0.133812H130.272Z" fill="#B2218B"/>
<path d="M165.033 8.32963V0.133812H154.893H146.563H143.698V60.9164H146.563H154.893H165.033V51.6669H154.893V31.3447H163.362V23.9517H154.893V8.32963H165.033Z" fill="#1B69B1"/>
<path d="M99.0259 57.5712V58.8758H98.4285V55.5306H99.0259V56.8687H105.317V57.521L99.0259 57.5712Z" fill="white"/>
<path d="M98.4285 54.895V54.226H105.317V54.895H98.4285Z" fill="white"/>
<path d="M98.4285 53.0217V51.9846L101.944 51.1985C102.559 51.0648 103.262 50.931 104.052 50.8305C103.35 50.8305 102.664 50.6131 101.961 50.4626L98.3581 49.6598V48.606H105.248V49.2081H98.9214L105.317 50.6299V51.048L98.9214 52.4363H105.317V53.0217H98.4285Z" fill="white"/>
<path d="M98.4285 47.4351V44.4746H99.0787V46.7662H101.452V45.0935H102.067V46.7662H104.737V44.4077H105.37V47.4351H98.4285Z" fill="white"/>
<path d="M103.49 43.2704C104.386 43.2704 104.825 42.9024 104.825 42.2333C104.824 42.0962 104.792 41.961 104.732 41.8363C104.673 41.7115 104.586 41.6 104.479 41.5086C104.372 41.4173 104.245 41.3485 104.109 41.3062C103.971 41.2639 103.826 41.2493 103.683 41.2632C102.927 41.2632 102.488 41.7483 101.926 42.5344C101.364 43.3205 100.837 43.8056 99.905 43.8056C99.7031 43.8124 99.5012 43.7802 99.3127 43.7107C99.1243 43.6412 98.9524 43.536 98.8085 43.4016C98.6635 43.2671 98.5496 43.1061 98.4719 42.9283C98.3943 42.7504 98.356 42.5596 98.3581 42.3672C98.3581 41.397 99.0259 40.7949 100.221 40.6946V41.3135C99.3779 41.3135 98.9389 41.6814 98.9389 42.2668C98.9296 42.3882 98.9493 42.5099 98.9959 42.6233C99.0414 42.7367 99.1139 42.8392 99.205 42.9236C99.2972 43.0079 99.408 43.0723 99.5281 43.1119C99.6492 43.1516 99.7776 43.1657 99.905 43.1533C100.206 43.1436 100.493 43.0308 100.714 42.8355C101.091 42.448 101.437 42.0343 101.75 41.5978C101.964 41.2898 102.253 41.0361 102.593 40.8583C102.933 40.6806 103.314 40.5842 103.701 40.5775C103.936 40.5627 104.171 40.5958 104.391 40.6747C104.612 40.7535 104.812 40.8762 104.977 41.0346C105.144 41.1929 105.274 41.3832 105.356 41.593C105.439 41.8026 105.473 42.0266 105.458 42.2501C105.458 43.2871 104.755 43.9227 103.49 43.9227V43.2704Z" fill="white"/>
<path d="M118.568 58.3741V57.705H121.52V55.7982H118.568V55.1291H125.457V55.7982H122.188V57.705H125.457V58.3741H118.568Z" fill="white"/>
<path d="M118.568 53.9416V53.2726H125.457V53.9416H118.568Z" fill="white"/>
<path d="M125.07 49.2583C125.248 49.3975 125.388 49.5747 125.479 49.7753C125.571 49.9758 125.611 50.1941 125.598 50.4124C125.598 51.6502 124.437 52.269 122.083 52.269C119.728 52.269 118.41 51.7003 118.41 50.3957C118.41 49.4089 119.201 48.7231 120.572 48.7231V49.3755C119.552 49.3755 119.025 49.7768 119.025 50.3622C119.025 51.232 120.009 51.5163 122.065 51.5163C124.121 51.5163 124.948 51.1651 124.948 50.2787C124.948 49.6932 124.49 49.3085 123.647 49.3085H122.838V50.2619H122.311V48.7398H125.545V49.2081L125.07 49.2583Z" fill="white"/>
<path d="M118.568 47.7195V47.0672H121.52V45.1437H118.568V44.458H125.457V45.1437H122.188V47.0672H125.457V47.7529L118.568 47.7195Z" fill="white"/>
<path d="M118.568 43.2871V40.3767H119.201V42.6515H121.591V40.9789H122.206V42.6515H124.824V40.2597H125.457V43.2871H118.568Z" fill="white"/>
<path d="M118.568 39.507V38.3027C118.568 36.8977 119.166 36.1952 120.325 36.1952C120.684 36.1603 121.044 36.2445 121.345 36.4335C121.647 36.6224 121.869 36.9047 121.977 37.2323L125.492 36.1618V36.881L122.223 37.8678C122.223 38.1021 122.223 38.3362 122.223 38.5704V38.8379H125.475V39.507H118.568ZM121.591 38.2525C121.591 37.3661 121.187 36.9144 120.378 36.9144C119.57 36.9144 119.183 37.3493 119.183 38.2525V38.8379H121.591V38.2525Z" fill="white"/>
<path d="M146.105 58.3741V55.4302H146.755V57.705H149.129V56.0323H149.744V57.705H152.362V55.4302H152.995V58.4576L146.105 58.3741Z" fill="white"/>
<path d="M146.105 54.5605V53.3395C146.105 51.8007 147.178 51.1651 149.62 51.1651C152.063 51.1651 153.135 51.784 153.135 53.3395V54.5605H146.105ZM152.362 53.8747C152.362 53.7576 152.362 53.6238 152.362 53.5235C152.362 52.2188 151.536 51.8509 149.497 51.8509C147.458 51.8509 146.685 52.2355 146.685 53.5235C146.677 53.646 146.677 53.769 146.685 53.8915L152.362 53.8747Z" fill="white"/>
<path d="M146.105 50.2117V49.5427H150.516C151.869 49.5427 152.502 49.5427 152.502 48.5726C152.502 47.6025 151.852 47.6025 150.516 47.6025H146.105V46.9167H150.586C151.266 46.8302 151.955 46.9533 152.555 47.2679C152.746 47.4318 152.898 47.6335 152.997 47.8589C153.097 48.0844 153.144 48.328 153.135 48.5726C153.144 48.8172 153.097 49.0608 152.997 49.2862C152.898 49.5116 152.746 49.7134 152.555 49.8772C151.953 50.1849 151.264 50.3021 150.586 50.2117H146.105Z" fill="white"/>
<path d="M150.903 42.4007C152.345 42.4007 153.135 43.0362 153.135 44.0732C153.135 45.1103 151.975 45.9131 149.62 45.9131C147.266 45.9131 145.93 45.3444 145.93 44.0398C145.93 43.0529 146.72 42.3671 148.091 42.3671V43.0194C147.072 43.0194 146.545 43.4209 146.545 44.0063C146.545 44.8594 147.529 45.1772 149.55 45.1772C151.571 45.1772 152.467 44.8426 152.467 43.8892C152.467 43.3039 151.905 42.9191 150.85 42.9191H150.71V42.3002L150.903 42.4007Z" fill="white"/>
<path d="M146.105 40.5943V39.6575L152.995 38.2358V38.9383L150.974 39.3231V40.9956L152.995 41.3636V42.0493L146.105 40.5943ZM150.323 39.4568L146.808 40.1426L150.323 40.8284V39.4568Z" fill="white"/>
<path d="M146.703 37.0315V38.3362H146.105V34.991H146.703V36.3123H152.995V37.0315H146.703Z" fill="white"/>
<path d="M146.105 34.3219V33.6864H152.995V34.3554L146.105 34.3219Z" fill="white"/>
<path d="M149.55 32.666C147.178 32.666 146.035 32.0305 146.035 30.8596C146.035 29.6888 147.231 29.0364 149.55 29.0364C151.869 29.0364 153.064 29.6721 153.064 30.8596C153.064 32.0472 151.922 32.666 149.55 32.666ZM149.392 32.0137C151.483 32.0137 152.484 31.7294 152.484 30.9265C152.484 30.1236 151.518 29.8226 149.55 29.8226C147.582 29.8226 146.616 30.1404 146.616 30.9265C146.616 31.7126 147.529 32.0137 149.392 32.0137Z" fill="white"/>
<path d="M146.65 27.4809H152.995V28.0663H146.105V27.0962L150.024 25.7415L151.781 25.2062C151.202 25.2062 150.692 25.2062 150.288 25.2062H146.105V24.6208H152.995V25.3233L148.232 26.9959C147.67 27.1799 147.125 27.3471 146.65 27.4809Z" fill="white"/>
<path d="M272.336 0.133812H167.581V18.2482H272.336V0.133812Z" fill="#EE1F36"/>
<path d="M253.567 21.4596H167.581V39.5739H253.567V21.4596Z" fill="#B2218B"/>
<path d="M240.44 42.802H167.581V60.9164H240.44V42.802Z" fill="#1B69B1"/>
<path d="M172.799 15.9065L170.621 2.67618H171.921L173.186 10.5374C173.352 11.5628 173.464 12.5956 173.52 13.6318C173.595 12.5811 173.741 11.5364 173.96 10.504L175.717 2.67618H176.789L178.546 10.504C178.769 11.536 178.923 12.5808 179.003 13.6318C179.046 12.5953 179.151 11.5622 179.319 10.5374L180.584 2.67618H181.903L179.705 15.9065H178.44L176.542 6.40606C176.415 5.81654 176.338 5.21795 176.314 4.61641C176.209 5.56977 176.121 6.28898 176.015 6.75729L174.258 15.9065H172.799Z" fill="white"/>
<path d="M182.921 9.283C182.921 4.73349 184.257 2.42528 186.752 2.42528C189.249 2.42528 190.583 4.73349 190.583 9.283C190.583 13.8325 189.249 16.1574 186.752 16.1574C184.257 16.1574 182.921 13.8325 182.921 9.283ZM184.433 8.96518C184.433 12.9795 185.031 14.9197 186.752 14.9197C188.475 14.9197 189.09 13.063 189.09 9.283C189.09 5.50286 188.405 3.57938 186.752 3.57938C185.101 3.57938 184.433 5.38579 184.433 8.96518Z" fill="white"/>
<path d="M192.605 2.67618H195.153C198.141 2.67618 199.616 3.81353 199.616 6.15515C199.688 6.83977 199.51 7.52686 199.113 8.10199C198.717 8.67712 198.125 9.10571 197.438 9.31641L199.704 15.9065H198.159L196.12 9.61747H194.643H194.081V15.8731H192.605V2.67618ZM195.241 8.46337C197.139 8.46337 198.106 7.694 198.106 6.15515C198.106 4.61641 197.156 3.84704 195.241 3.84704H194.028V8.46337H195.241Z" fill="white"/>
<path d="M201.69 2.67618H203.149V14.6353H207.507V15.9065H201.708L201.69 2.67618Z" fill="white"/>
<path d="M209.036 2.67618H211.601C214.888 2.67618 216.223 4.73348 216.223 9.26624C216.223 13.799 214.905 15.9566 211.601 15.9566H209.036V2.67618ZM210.477 14.652H211.233C214.01 14.652 214.747 13.0798 214.747 9.19933C214.747 5.31887 213.957 3.78012 211.233 3.78012H210.442L210.477 14.652Z" fill="white"/>
<path d="M171.516 24.0354H172.94V32.4988C172.94 35.0913 173.098 36.3123 175.014 36.3123C176.929 36.3123 177.07 35.0746 177.07 32.4988V24.0354H178.475V32.6326C178.661 33.928 178.408 35.2458 177.756 36.396C177.4 36.7511 176.971 37.034 176.497 37.2271C176.022 37.4204 175.512 37.5199 174.996 37.5199C174.481 37.5199 173.97 37.4204 173.496 37.2271C173.022 37.034 172.593 36.7511 172.237 36.396C171.576 35.2486 171.324 33.9282 171.516 32.6326V24.0354Z" fill="white"/>
<path d="M182.184 25.0724V37.2657H180.937V24.0354H183.009L185.874 31.5454C186.261 32.6158 186.648 33.7198 186.999 34.8906C186.904 33.9345 186.862 32.9741 186.876 32.0137V24.0354H188.123V37.2657H186.735L183.221 28.1166C182.817 26.9959 182.465 25.9924 182.184 25.0724Z" fill="white"/>
<path d="M190.689 24.0354H192.113V37.2657H190.689V24.0354Z" fill="white"/>
<path d="M193.519 24.0354H194.925L196.998 33.0507C197.121 33.5358 197.209 34.2216 197.35 35.1248C197.473 34.4891 197.595 33.7699 197.771 33.0006L199.828 24.0354H201.199L198.018 37.2657H196.682L193.519 24.0354Z" fill="white"/>
<path d="M202.534 24.0354H208.79V25.3233H203.957V29.8728H207.472V31.0771H203.957V36.0949H208.949V37.3326H202.534V24.0354Z" fill="white"/>
<path d="M210.547 24.0354H213.078C216.083 24.0354 217.559 25.1727 217.559 27.5144C217.632 28.1901 217.462 28.8692 217.08 29.4426C216.698 30.0159 216.123 30.4502 215.45 30.6756L217.718 37.2657H216.188L214.097 30.9767H212.621H211.936V37.2323H210.512L210.547 24.0354ZM213.183 29.8226C215.081 29.8226 216.047 29.0532 216.047 27.5144C216.047 25.9756 215.099 25.2062 213.183 25.2062H211.936V29.8226H213.183Z" fill="white"/>
<path d="M220.318 33.6864C220.424 35.3589 221.109 36.2287 222.532 36.2287C222.823 36.2283 223.11 36.1693 223.375 36.0557C223.64 35.942 223.876 35.7761 224.069 35.5691C224.261 35.3621 224.406 35.1186 224.492 34.8546C224.579 34.5906 224.606 34.3122 224.571 34.0376C224.571 32.5992 223.57 31.7628 221.882 30.5753C220.195 29.3878 219.193 28.4846 219.193 26.6948C219.18 26.3044 219.248 25.9153 219.397 25.5513C219.546 25.1871 219.771 24.8557 220.059 24.5771C220.346 24.2985 220.691 24.0786 221.071 23.9309C221.451 23.7831 221.858 23.7106 222.269 23.7176C224.325 23.7176 225.59 25.0222 225.66 27.297H224.342C224.22 25.6244 223.552 24.855 222.322 24.855C222.066 24.8391 221.811 24.8764 221.572 24.9642C221.334 25.052 221.119 25.1882 220.942 25.3634C220.764 25.5385 220.629 25.7485 220.545 25.9784C220.462 26.2084 220.432 26.4529 220.458 26.6948C220.464 27.2755 220.704 27.832 221.126 28.2503C221.945 28.9996 222.814 29.698 223.727 30.3411C224.396 30.7319 224.953 31.2738 225.349 31.9186C225.744 32.5635 225.966 33.2914 225.995 34.0376C226.041 34.494 225.983 34.9545 225.825 35.3876C225.666 35.8206 225.412 36.216 225.077 36.5466C224.744 36.8771 224.339 37.1349 223.891 37.3023C223.442 37.4698 222.961 37.5429 222.479 37.5166C220.283 37.5166 218.965 36.1618 218.965 33.7533L220.318 33.6864Z" fill="white"/>
<path d="M227.928 24.0354H229.35V37.2657H227.928V24.0354Z" fill="white"/>
<path d="M233.622 25.1727H230.845V24.0354H237.874V25.1727H235.079V37.2657H233.674L233.622 25.1727Z" fill="white"/>
<path d="M240.896 31.5788L237.786 24.0354H239.262L241.652 30.0568L243.972 24.0354H245.43L242.355 31.5788V37.2657H240.896V31.5788Z" fill="white"/>
<path d="M171.516 45.3946H174.047C177.053 45.3946 178.528 46.5153 178.528 48.8569C178.611 49.556 178.435 50.2607 178.031 50.8498C177.627 51.4389 177.02 51.8756 176.314 52.0851L178.546 58.625H177.018L175.032 52.336H173.537H172.993V58.5915H171.516V45.3946ZM174.153 51.1651C176.05 51.1651 177.018 50.3957 177.018 48.8569C177.018 47.3181 176.068 46.5487 174.153 46.5487H172.94V51.1651H174.153Z" fill="white"/>
<path d="M182.5 45.3946H184.468L187.491 58.6082H185.998L185.189 54.711H181.674L180.866 58.6082H179.478L182.5 45.3946ZM184.907 53.4733L183.449 46.5487L182.061 53.4901L184.907 53.4733Z" fill="white"/>
<path d="M190.215 46.4316V58.625H188.95V45.3946H191.041L193.887 52.8878C194.292 53.9584 194.679 55.0622 195.03 56.2331C194.934 55.277 194.893 54.3166 194.907 53.3562V45.3946H196.12V58.6082H194.731L191.216 49.459C190.848 48.3886 190.496 47.3516 190.215 46.4316Z" fill="white"/>
<path d="M198.65 45.3946H200.091V52.4363L204.203 45.3946H205.627L202.868 50.0444L206.066 58.6082H204.537L201.937 51.4494L200.074 54.6441V58.6082H198.65V45.3946Z" fill="white"/>
<path d="M207.243 45.3946H208.667V58.6082H207.243V45.3946Z" fill="white"/>
<path d="M212.48 46.4316V58.625H211.233V45.3946H213.307L216.171 52.8878C216.576 53.9584 216.962 55.0622 217.313 56.2331C217.217 55.277 217.176 54.3166 217.191 53.3562V45.3946H218.438V58.6082H217.05L213.535 49.459C213.131 48.3886 212.78 47.3516 212.48 46.4316Z" fill="white"/>
<path d="M226.873 57.8555C226.583 58.1969 226.212 58.4675 225.791 58.645C225.368 58.8224 224.909 58.9016 224.448 58.8758C221.829 58.8758 220.494 56.6512 220.494 52.1854C220.494 47.4351 221.724 45.127 224.483 45.127C226.575 45.127 227.998 46.649 227.998 49.275H226.61C226.522 47.3181 225.766 46.3145 224.536 46.3145C222.673 46.3145 222.093 48.2046 222.093 52.152C222.093 56.0993 222.814 57.6715 224.712 57.6715C225.942 57.6715 226.768 56.7683 226.768 55.1626V53.6071H224.747V52.4195H228.12V58.625H227.119L226.873 57.8555Z" fill="white"/>
<path d="M230.95 55.1125C231.038 56.785 231.741 57.6548 233.164 57.6548C233.457 57.6527 233.746 57.5912 234.011 57.4744C234.276 57.3577 234.513 57.1884 234.704 56.9779C234.895 56.7673 235.037 56.5204 235.12 56.2535C235.203 55.9866 235.225 55.7059 235.185 55.4302C235.185 53.9918 234.201 53.1555 232.497 51.968C230.792 50.7804 229.808 49.8939 229.808 48.0875C229.796 47.6977 229.867 47.3096 230.016 46.9466C230.166 46.5836 230.392 46.2531 230.679 45.975C230.966 45.6969 231.309 45.477 231.688 45.3283C232.067 45.1797 232.473 45.1055 232.883 45.1103C234.94 45.1103 236.205 46.4148 236.293 48.6897H234.957C234.852 47.017 234.184 46.2476 232.954 46.2476C232.698 46.2317 232.443 46.269 232.204 46.3568C231.966 46.4446 231.751 46.5809 231.573 46.756C231.396 46.9312 231.261 47.1411 231.178 47.3711C231.094 47.601 231.065 47.8455 231.091 48.0875C231.096 48.6681 231.335 49.2247 231.759 49.643C232.571 50.3618 233.434 51.0268 234.342 51.6334C235.013 52.0402 235.566 52.6012 235.95 53.2646C236.334 53.9281 236.536 54.6729 236.538 55.4302C236.584 55.8793 236.528 56.3324 236.375 56.7593C236.221 57.1862 235.975 57.5773 235.651 57.9063C235.327 58.2355 234.932 58.4951 234.494 58.668C234.056 58.841 233.585 58.9232 233.112 58.9093C230.933 58.9093 229.597 57.5544 229.597 55.1459L230.95 55.1125Z" fill="white"/>
<path d="M62.4384 52.2021H61.8058V54.5103H62.4384C62.5381 54.521 62.639 54.5101 62.7336 54.4785C62.8283 54.447 62.9142 54.3956 62.9851 54.3281C63.0561 54.2606 63.11 54.1788 63.1431 54.0888C63.1763 53.9987 63.1878 53.9027 63.1766 53.8078V52.9213C63.1873 52.8241 63.1756 52.7258 63.1423 52.6333C63.1089 52.5408 63.0546 52.4565 62.9833 52.3861C62.8345 52.2585 62.6385 52.1923 62.4384 52.2021Z" fill="#58595B"/>
<path d="M22.1074 55.9655H23.109L22.5995 52.7541L22.1074 55.9655Z" fill="#58595B"/>
<path d="M9.96415 52.2021H9.33151V54.5103H9.96415C10.0638 54.521 10.1647 54.5101 10.2593 54.4785C10.354 54.447 10.4399 54.3956 10.5108 54.3281C10.5817 54.2606 10.6357 54.1788 10.6689 54.0888C10.702 53.9987 10.7134 53.9027 10.7022 53.8078V52.9213C10.7131 52.8241 10.7014 52.7258 10.668 52.6333C10.6346 52.5408 10.5803 52.4565 10.5089 52.3861C10.3601 52.2585 10.1642 52.1923 9.96415 52.2021Z" fill="#58595B"/>
<path d="M0.070282 49.2583V60.6488H85.4948V49.2583H0.070282ZM6.88872 53.8413C6.91326 54.0865 6.88044 54.3338 6.79285 54.5655C6.70525 54.7973 6.56495 55.0078 6.38189 55.182C6.19893 55.3562 5.97777 55.4897 5.73424 55.5731C5.49081 55.6565 5.23092 55.6877 4.97331 55.6645H4.28787V58.7754H3.05779V51.0814H4.97331C5.22916 51.0636 5.48605 51.0993 5.72585 51.1859C5.96565 51.2726 6.18268 51.4082 6.3616 51.5833C6.53958 51.761 6.67812 51.9711 6.76862 52.2011C6.85922 52.431 6.90011 52.676 6.88872 52.9213V53.8413ZM10.8428 58.8591L9.96411 55.6811H9.33148V58.7754H8.0838V51.0814H10.0168C10.2727 51.0636 10.5296 51.0993 10.7695 51.1859C11.0093 51.2726 11.2263 51.4082 11.4051 51.5833C11.5832 51.761 11.7216 51.9711 11.8122 52.2011C11.9028 52.431 11.9437 52.676 11.9323 52.9213V53.7576C11.9423 54.0833 11.8636 54.4061 11.7039 54.6943C11.5668 54.9578 11.3534 55.1783 11.0888 55.3299L12.108 58.7754L10.8428 58.8591ZM14.5332 58.8591H13.3558V51.1651H14.5859L14.5332 58.8591ZM18.6278 58.7754H16.9935L15.658 51.0814H16.8705L17.837 57.1029L18.7508 51.0647H19.981L18.6278 58.7754ZM23.5308 58.7754L23.2672 57.1029H21.9492L21.6856 58.7754H20.3851L21.7207 51.0814H23.3726L24.7785 58.7754H23.5308ZM28.9259 52.1854H27.5903V58.7754H26.3777V52.2021H25.0245V51.0982H28.9259V52.1854ZM33.5301 52.1854H31.2807V54.3264H33.038V55.4302H31.2807V57.6715H33.5301V58.7754H30.0154V51.0814H33.5301V52.1854ZM40.9812 57.1029C40.9995 57.3424 40.9635 57.5828 40.8755 57.8079C40.7875 58.0329 40.6496 58.2373 40.4712 58.4071C40.2928 58.5769 40.078 58.7081 39.8416 58.7919C39.6051 58.8757 39.3525 58.91 39.1009 58.8925C38.5946 58.9098 38.1017 58.7353 37.7302 58.4075C37.5508 58.2368 37.41 58.033 37.3163 57.8087C37.2226 57.5844 37.1781 57.3441 37.1854 57.1029V51.0982H38.4155V57.1029C38.4089 57.2927 38.478 57.478 38.6089 57.6213C38.6734 57.6822 38.7503 57.73 38.8349 57.7617C38.9195 57.7933 39.01 57.8082 39.1009 57.8053C39.1916 57.8072 39.2819 57.7919 39.3663 57.7603C39.4508 57.7288 39.5278 57.6816 39.5929 57.6213C39.6988 57.4685 39.7425 57.2842 39.7159 57.1029V51.0982H40.911L40.9812 57.1029ZM46.5696 58.7754H45.2692L43.6524 53.858V58.7754H42.4574V51.0814H43.8106L45.3571 56.2498V51.0982H46.5696V58.7754ZM49.311 58.7754H48.0809V51.0814H49.311V58.7754ZM53.4233 58.7754H51.7889L50.4358 51.0814H51.6834L52.6149 57.1029L53.5287 51.0647H54.7588L53.4233 58.7754ZM59.363 52.1854H57.1137V54.3264H58.871V55.4302H57.1137V57.6715H59.363V58.7754H55.8484V51.0814H59.363V52.1854ZM63.3171 58.7754L62.4384 55.5975H61.8058V58.7754H60.5756V51.0814H62.5614C62.8173 51.0636 63.0741 51.0993 63.314 51.1859C63.5539 51.2726 63.7709 51.4082 63.9497 51.5833C64.1278 51.761 64.2662 51.9711 64.3568 52.2011C64.4474 52.431 64.4883 52.676 64.4769 52.9213V53.7576C64.4869 54.0833 64.4082 54.4061 64.2485 54.6943C64.1114 54.9578 63.898 55.1783 63.6334 55.3299L64.5823 58.7754H63.3171ZM69.2042 57.9726C69.0351 58.2502 68.7929 58.4808 68.5013 58.6416C68.1903 58.8068 67.8378 58.8878 67.482 58.8758C67.1205 58.8875 66.7625 58.8066 66.4451 58.6416C66.1536 58.4808 65.9113 58.2502 65.7422 57.9726C65.5763 57.6679 65.4918 57.3289 65.4962 56.9858V56.7181L66.6736 56.6011V56.8854C66.6569 57.1201 66.7321 57.3525 66.8845 57.5378C66.9535 57.6201 67.0421 57.6857 67.1429 57.7293C67.2437 57.7729 67.3538 57.7932 67.4644 57.7886C67.5677 57.7946 67.6711 57.7797 67.768 57.7452C67.8649 57.7106 67.953 57.657 68.0267 57.5879C68.1035 57.5199 68.1636 57.4368 68.2031 57.3443C68.2425 57.2519 68.2603 57.1523 68.2553 57.0527C68.2474 56.7979 68.1685 56.5497 68.0267 56.3334C67.7612 56.0041 67.4609 55.7014 67.1305 55.4302C66.662 55.0299 66.2486 54.5747 65.9004 54.0755C65.686 53.7187 65.5709 53.3156 65.5665 52.9046C65.5384 52.3962 65.7214 51.8975 66.0761 51.5163C66.2511 51.3457 66.4623 51.2127 66.6957 51.1262C66.9291 51.0397 67.1792 51.0016 67.4293 51.0145C67.6823 50.9991 67.9357 51.036 68.1723 51.1226C68.4089 51.2093 68.623 51.3436 68.8 51.5163C69.136 51.9067 69.311 52.4003 69.292 52.9046V53.1053L68.1146 53.2224V53.0049C68.1239 52.7706 68.0629 52.5386 67.9389 52.336C67.8826 52.2623 67.8085 52.2024 67.7229 52.1617C67.6372 52.1209 67.5426 52.1004 67.4468 52.1017C67.3531 52.0966 67.2592 52.1103 67.1714 52.142C67.0836 52.1738 67.0038 52.2226 66.9372 52.2857C66.8231 52.4485 66.7676 52.6423 66.7791 52.8377C66.7764 53.0888 66.8563 53.3345 67.0075 53.5402C67.2661 53.8852 67.5605 54.2046 67.8861 54.4936C68.3489 54.9116 68.7615 55.3772 69.1163 55.8819C69.3191 56.1997 69.4337 56.5615 69.4491 56.9332C69.4644 57.3048 69.3801 57.674 69.2042 58.0061V57.9726ZM71.8929 58.7754H70.6803V51.0814H71.8929V58.7754ZM76.9189 52.1854H75.5833V58.7754H74.3707V52.2021H73.1055V51.0982H77.0068L76.9189 52.1854ZM80.4336 55.5306V58.7754H79.2034V55.564L77.5691 51.0982H78.8696L79.8186 54.0253L80.7851 51.0982H82.0679L80.4336 55.5306Z" fill="#58595B"/>
<path d="M4.92048 52.2021H4.28784V54.5773H4.92048C5.02112 54.5829 5.12187 54.5679 5.21588 54.5333C5.3099 54.4986 5.39491 54.4452 5.46531 54.3765C5.53624 54.3094 5.5905 54.2279 5.62394 54.1382C5.65738 54.0485 5.66929 53.9527 5.65863 53.858V52.9213C5.6694 52.8241 5.65769 52.7258 5.62435 52.6333C5.59091 52.5408 5.53665 52.4565 5.46531 52.3861C5.31653 52.2585 5.12052 52.1923 4.92048 52.2021Z" fill="#58595B"/>
<path d="M0 0.618866H8.08379L17.4329 31.5956V0.618866H24.638V46.7494H16.8705L7.20514 17.2279V46.7494H0V0.618866Z" fill="#58595B"/>
<path d="M30.3142 44.3409C29.2202 43.2777 28.3673 42.0122 27.808 40.6225C27.2488 39.2329 26.9952 37.7489 27.0631 36.2621V25.7415C26.9952 24.2547 27.2488 22.7707 27.808 21.3811C28.3673 19.9914 29.2202 18.7259 30.3142 17.6627C31.4437 16.6306 32.7813 15.8272 34.2462 15.3012C35.7112 14.775 37.273 14.5371 38.8373 14.6019C40.3988 14.5385 41.9575 14.7771 43.4194 15.3032C44.8813 15.8292 46.2161 16.6319 47.3428 17.6627C48.4425 18.7227 49.3005 19.9873 49.8629 21.3774C50.4253 22.7675 50.6801 24.2533 50.6115 25.7415V36.2621C50.6801 37.7503 50.4253 39.2361 49.8629 40.6262C49.3005 42.0162 48.4425 43.2809 47.3428 44.3409C46.2161 45.3716 44.8813 46.1744 43.4194 46.7004C41.9575 47.2265 40.3988 47.4651 38.8373 47.4017C37.273 47.4664 35.7112 47.2285 34.2462 46.7024C32.7813 46.1764 31.4437 45.3729 30.3142 44.3409ZM42.0884 39.624C42.9256 38.6987 43.3484 37.4976 43.2657 36.2789V25.7415C43.3484 24.5227 42.9256 23.3217 42.0884 22.3962C41.1923 21.6322 40.0315 21.2097 38.8285 21.2097C37.6254 21.2097 36.4647 21.6322 35.5687 22.3962C34.7443 23.3278 34.3289 24.5259 34.4088 25.7415V36.2621C34.3289 37.4777 34.7443 38.6758 35.5687 39.6074C35.9938 40.0146 36.5051 40.3311 37.0687 40.5359C37.6323 40.7406 38.2352 40.8289 38.8373 40.7949C39.4353 40.8298 40.0344 40.7435 40.5949 40.5416C41.1553 40.3398 41.6644 40.027 42.0884 39.624Z" fill="#58595B"/>
<path d="M51.1563 42.6013H55.5321V46.7494H51.1563V42.6013Z" fill="#58595B"/>
<path d="M62.3154 10.1694H53.9153V5.25195C56.2647 5.16197 58.5664 4.59147 60.6635 3.57938C62.2925 2.81444 63.6493 1.61037 64.5648 0.117058H69.7314V46.7494H62.3154V10.1694Z" fill="#58595B"/>
<path d="M72.5783 46.5988V44.7423H85.4069V46.5988H72.5783Z" fill="#58595B"/>
<path d="M72.5783 42.7184V40.6778L81.1718 38.3362H72.5783V36.513H85.4069V38.47L77.2001 40.912H85.4069V42.7184H72.5783Z" fill="#58595B"/>
<path d="M72.5783 29.5215V27.6817H85.4069V29.5215H72.5783Z" fill="#58595B"/>
<path d="M72.5783 25.6578V23.6506L81.1718 21.2923H72.5783V19.4525H85.4069V21.4093L77.2001 23.8346H85.4069V25.6578H72.5783Z" fill="#58595B"/>
<path d="M72.5784 17.4286V14.535C72.5592 14.1488 72.6226 13.7629 72.7645 13.4007C72.9065 13.0385 73.1241 12.7074 73.4043 12.4275C73.7027 12.1619 74.0538 11.9556 74.437 11.8206C74.8202 11.6856 75.2279 11.6247 75.6361 11.6414H82.3315C82.7398 11.6247 83.1474 11.6856 83.5307 11.8206C83.9139 11.9556 84.265 12.1619 84.5634 12.4275C84.8468 12.706 85.0676 13.0364 85.2126 13.3988C85.3576 13.7611 85.4237 14.1476 85.4069 14.535V17.4286H72.5784ZM83.6496 14.6186C83.6585 14.4662 83.6351 14.3135 83.5808 14.1698C83.5265 14.0262 83.4422 13.8943 83.3333 13.7822C83.2161 13.6777 83.0778 13.5971 82.9266 13.5453C82.7755 13.4935 82.6149 13.4717 82.4545 13.4812H75.6009C75.4406 13.4717 75.2801 13.4935 75.1289 13.5453C74.9778 13.5971 74.8394 13.6777 74.7223 13.7822C74.6132 13.8943 74.5291 14.0262 74.4747 14.1698C74.4204 14.3135 74.397 14.4662 74.406 14.6186V15.5887H83.6496V14.6186Z" fill="#58595B"/>
<path d="M72.5783 9.80146V7.9449H85.4069V9.80146H72.5783Z" fill="#58595B"/>
<path d="M82.56 2.29144V4.26518L85.4069 4.66657V6.52313L72.5783 4.49933V2.02388L85.4069 0V1.9068L82.56 2.29144ZM80.6796 2.52559L75.3198 3.27831L80.6796 4.03103V2.52559Z" fill="#58595B"/>
<path d="M249.649 50.0612C249.649 54.3598 244.57 55.8986 244.552 59.1936V59.4111H249.473V60.8663H242.9V59.6285C242.9 55.0288 247.979 54.1256 247.979 50.1113C247.979 48.6395 247.452 47.87 246.221 47.87C244.991 47.87 244.464 48.7064 244.464 49.9776V51.232H242.9V50.0779C242.9 47.8868 243.937 46.4484 246.257 46.4484C248.576 46.4484 249.649 47.87 249.649 50.0612Z" fill="#6D6E71"/>
<path d="M250.597 50.0278C250.597 47.8534 251.722 46.4484 254.024 46.4484C256.326 46.4484 257.539 47.8534 257.539 50.0278V57.3872C257.539 59.5783 256.397 61 254.024 61C251.651 61 250.597 59.5783 250.597 57.3872V50.0278ZM252.231 57.4875C252.231 58.7755 252.812 59.5616 253.989 59.5616C255.166 59.5616 255.746 58.7755 255.746 57.4875V49.9441C255.746 48.6395 255.184 47.87 253.989 47.87C252.794 47.87 252.231 48.6395 252.231 49.9441V57.4875Z" fill="#6D6E71"/>
<path d="M265.412 50.0612C265.412 54.3598 260.333 55.8986 260.298 59.1936V59.4111H265.236V60.8663H258.663V59.6285C258.663 55.0288 263.724 54.1256 263.724 50.1113C263.724 48.6395 263.215 47.87 261.967 47.87C260.719 47.87 260.21 48.7064 260.21 49.9776V51.232H258.645V50.0779C258.645 47.8868 259.683 46.4484 262.002 46.4484C264.323 46.4484 265.412 47.87 265.412 50.0612Z" fill="#6D6E71"/>
<path d="M266.413 50.0278C266.413 47.8534 267.538 46.4484 269.84 46.4484C272.142 46.4484 273.355 47.8534 273.355 50.0278V57.3872C273.355 59.5783 272.212 61 269.84 61C267.468 61 266.413 59.5783 266.413 57.3872V50.0278ZM268.048 57.4875C268.048 58.7755 268.628 59.5616 269.805 59.5616C270.982 59.5616 271.562 58.7755 271.562 57.4875V49.9441C271.562 48.6395 271 47.87 269.805 47.87C268.61 47.87 268.048 48.6395 268.048 49.9441V57.4875Z" fill="#6D6E71"/>
</svg>
