<svg width="329" height="68" viewBox="0 0 329 68" fill="none" xmlns="http://www.w3.org/2000/svg">
<g clip-path="url(#clip0_1_421)">
<path d="M81.5251 53.7573H5.69397V64.3808H81.5251V53.7573Z" fill="#4A4B4C"/>
<path d="M5.92798 6.59876H13.1195L21.4187 35.4898V6.59876H27.7991V49.6233H20.9195L12.3083 22.0895V49.6233H5.92798V6.59876Z" fill="#58595B"/>
<path d="M32.8378 47.3925C31.8631 46.4028 31.1026 45.2232 30.6034 43.9269C30.1042 42.6307 29.8771 41.2456 29.9362 39.8578V30.0298C29.8765 28.6443 30.1033 27.2614 30.6026 25.9675C31.1019 24.6737 31.8628 23.4969 32.8378 22.5107C33.8373 21.5472 35.0216 20.7962 36.3192 20.3028C37.6169 19.8095 39.001 19.5841 40.3881 19.6403C41.7776 19.5847 43.1639 19.8103 44.464 20.3036C45.7641 20.7968 46.9512 21.5475 47.9541 22.5107C48.9232 23.5004 49.6793 24.6782 50.1757 25.9714C50.672 27.2646 50.8981 28.6458 50.8401 30.0298V39.8578C50.8984 41.2441 50.6725 42.6278 50.1762 43.9236C49.6799 45.2193 48.9237 46.3999 47.9541 47.3925C46.9504 48.3536 45.7628 49.102 44.4626 49.5925C43.1625 50.0831 41.7766 50.3058 40.3881 50.2473C39.002 50.3064 37.6183 50.0839 36.3206 49.5932C35.0229 49.1026 33.8381 48.3539 32.8378 47.3925V47.3925ZM43.2741 42.9933C44.0174 42.1302 44.3926 41.0101 44.3193 39.8734V30.0454C44.3876 28.9094 44.013 27.7911 43.2741 26.9254C42.8985 26.5476 42.4471 26.2536 41.9497 26.0627C41.4523 25.8718 40.9201 25.7884 40.3881 25.8178C39.8563 25.7894 39.3244 25.8733 38.8271 26.0641C38.3299 26.2549 37.8784 26.5484 37.5022 26.9254C36.7633 27.7911 36.3887 28.9094 36.457 30.0454V39.8734C36.3837 41.0101 36.7589 42.1302 37.5022 42.9933C37.8784 43.3704 38.3299 43.6638 38.8271 43.8547C39.3244 44.0455 39.8563 44.1294 40.3881 44.1009C40.9201 44.1304 41.4523 44.047 41.9497 43.8561C42.4471 43.6652 42.8985 43.3712 43.2741 42.9933V42.9933Z" fill="#58595B"/>
<path d="M51.3237 45.7545H55.2393V49.6233H51.3237V45.7545Z" fill="#58595B"/>
<path d="M61.2452 15.5063H53.7729V10.9199C55.8645 10.8431 57.9142 10.3107 59.7789 9.35994C61.214 8.63654 62.4108 7.51558 63.2264 6.13076H67.8284V49.6233H61.2452V15.5063Z" fill="#58595B"/>
<path d="M70.34 49.4829V47.7513H81.7279V49.4829H70.34Z" fill="#58595B"/>
<path d="M70.34 45.8793V43.9761L77.9995 41.7766H70.3556V40.0918H81.7435V41.9014L74.4584 44.1789H81.7435V45.8793H70.34Z" fill="#58595B"/>
<path d="M70.34 33.5554V31.8394H81.7279V33.5554H70.34Z" fill="#58595B"/>
<path d="M70.34 29.9518V28.0798L77.984 25.8959H70.34V24.1643H81.7279V25.9894L74.4428 28.267H81.7279V29.9518H70.34Z" fill="#58595B"/>
<path d="M70.34 22.2767V19.5779C70.3169 19.2161 70.3714 18.8536 70.4998 18.5147C70.6283 18.1757 70.8277 17.8681 71.0848 17.6125C71.3418 17.357 71.6505 17.1593 71.9902 17.0328C72.3299 16.9063 72.6928 16.8539 73.0544 16.8791H79.0135C79.3736 16.863 79.7332 16.9197 80.071 17.0456C80.4087 17.1716 80.7175 17.3643 80.9791 17.6123C81.2314 17.8715 81.428 18.1797 81.5567 18.5177C81.6855 18.8557 81.7438 19.2165 81.7279 19.5779V22.2767H70.34ZM80.0899 19.6715C80.1028 19.5302 80.0858 19.3877 80.0401 19.2533C79.9944 19.119 79.9211 18.9957 79.8247 18.8915C79.7202 18.7947 79.5973 18.72 79.4633 18.6717C79.3293 18.6235 79.1869 18.6027 79.0447 18.6107H73.0232C72.881 18.6027 72.7386 18.6235 72.6046 18.6717C72.4706 18.72 72.3477 18.7947 72.2432 18.8915C72.1441 18.9944 72.0678 19.1171 72.0194 19.2515C71.971 19.3859 71.9516 19.529 71.9624 19.6715V20.5607H80.0899V19.6715Z" fill="#58595B"/>
<path d="M70.34 15.1631V13.4471H81.7279V15.1631H70.34Z" fill="#58595B"/>
<path d="M79.2007 8.15876V10.0151L81.7279 10.3895V12.1055L70.34 10.2179V7.90916L81.7279 6.02157V7.79996L79.2007 8.15876ZM77.5472 8.39275L72.7892 9.07915L77.5472 9.78115V8.39275Z" fill="#58595B"/>
<path d="M153.316 6.13076H157.247L159.852 16.5983H159.899L163.315 6.13076H166.654L170.039 16.8791H170.086L172.831 6.13076H176.482L171.708 22.4483H168.495L164.907 11.1539H164.86L161.256 22.4483H158.167L153.316 6.13076Z" fill="#231F20"/>
<path d="M186.029 5.70957C187.185 5.63431 188.344 5.80295 189.431 6.20455C190.518 6.60615 191.509 7.23173 192.338 8.04073C193.168 8.84973 193.818 9.82408 194.247 10.9006C194.676 11.9771 194.873 13.1317 194.827 14.2895C194.732 16.5609 193.762 18.7075 192.121 20.2809C190.48 21.8543 188.295 22.7327 186.021 22.7327C183.748 22.7327 181.562 21.8543 179.921 20.2809C178.28 18.7075 177.311 16.5609 177.215 14.2895C177.169 13.1303 177.367 11.9743 177.796 10.8966C178.226 9.81898 178.878 8.84384 179.709 8.03459C180.54 7.22534 181.533 6.60011 182.622 6.19954C183.71 5.79897 184.871 5.63203 186.029 5.70957V5.70957ZM186.029 19.5467C186.717 19.5678 187.401 19.4448 188.038 19.1856C188.675 18.9263 189.251 18.5366 189.729 18.0414C190.206 17.5463 190.575 16.9566 190.811 16.3105C191.047 15.6643 191.145 14.9759 191.099 14.2895C191.137 13.599 191.034 12.908 190.796 12.2586C190.558 11.6093 190.191 11.0152 189.715 10.5129C189.24 10.0105 188.667 9.61038 188.032 9.33691C187.397 9.06344 186.713 8.92239 186.021 8.92239C185.33 8.92239 184.645 9.06344 184.01 9.33691C183.375 9.61038 182.802 10.0105 182.327 10.5129C181.852 11.0152 181.484 11.6093 181.246 12.2586C181.008 12.908 180.905 13.599 180.943 14.2895C180.897 14.9772 180.996 15.667 181.233 16.3143C181.47 16.9616 181.84 17.552 182.319 18.0474C182.798 18.5428 183.376 18.9322 184.015 19.1904C184.654 19.4487 185.34 19.57 186.029 19.5467" fill="#231F20"/>
<path d="M197.276 6.13076H203.516C206.855 6.13076 209.756 7.28515 209.756 11.0915C209.848 12.152 209.533 13.2076 208.876 14.0447C208.218 14.8817 207.267 15.4377 206.215 15.5999L210.38 22.4951H206.059L202.643 15.9743H200.864V22.4951H197.276V6.13076ZM200.864 12.8855H202.986C204.312 12.8855 206.012 12.8855 206.012 11.0603C206.012 9.23514 204.546 9.17274 203.22 9.17274H200.864V12.8855Z" fill="#231F20"/>
<path d="M212.362 6.13076H215.95V19.1411H222.611V22.4483H212.362V6.13076Z" fill="#231F20"/>
<path d="M224.639 6.13076H230.036C235.309 6.13076 239.708 8.36155 239.708 14.3363C239.708 19.6247 235.387 22.4483 230.52 22.4483H224.639V6.13076ZM228.242 19.1255H230.114C233.453 19.1255 235.964 17.8619 235.964 14.1491C235.964 10.9511 233.406 9.46914 230.364 9.46914H228.242V19.1255Z" fill="#231F20"/>
<path d="M168.791 36.4726C168.791 38.2972 168.066 40.047 166.776 41.3372C165.486 42.6273 163.736 43.3521 161.911 43.3521C160.087 43.3521 158.337 42.6273 157.047 41.3372C155.757 40.047 155.032 38.2972 155.032 36.4726V26.5198H158.62V36.3478C158.62 37.2208 158.967 38.058 159.584 38.6753C160.201 39.2926 161.038 39.6394 161.911 39.6394C162.784 39.6394 163.622 39.2926 164.239 38.6753C164.856 38.058 165.203 37.2208 165.203 36.3478V26.5198H168.791V36.4726Z" fill="#231F20"/>
<path d="M172.114 26.4418H177.012L183.954 37.7986H184.001V26.4418H187.589V42.7749H182.893L175.764 31.153H175.717V42.7749H172.114V26.4418Z" fill="#231F20"/>
<path d="M194.468 26.4418H190.865V42.7749H194.468V26.4418Z" fill="#231F20"/>
<path d="M196.122 26.4418H200.225L204.265 37.1434H204.312L208.415 26.4418H212.268L205.529 42.7749H202.643L196.122 26.4418Z" fill="#231F20"/>
<path d="M214.109 26.4418H225.2V29.7646H217.712V32.8066H224.779V36.1294H217.712V39.4522H225.621V42.7749H214.109V26.4418Z" fill="#231F20"/>
<path d="M228.492 26.5198H234.81C238.164 26.5198 240.972 27.6742 240.972 31.4806C241.032 32.52 240.705 33.5446 240.054 34.357C239.403 35.1694 238.474 35.7119 237.446 35.8798L241.596 42.775H237.29L233.874 36.2542H232.095V42.775H228.492V26.5198ZM232.095 33.2746H234.217C235.527 33.2746 237.243 33.2746 237.243 31.465C237.243 29.6554 235.683 29.5618 234.451 29.5618H232.095V33.2746Z" fill="#231F20"/>
<path d="M251.502 30.4354C251.168 30.0826 250.763 29.8043 250.314 29.6188C249.865 29.4333 249.382 29.3448 248.897 29.359C247.883 29.359 246.479 29.8114 246.479 31.0282C246.479 34.0078 253.998 32.089 253.998 37.8142C253.998 41.4645 251.065 43.1961 247.758 43.1961C245.729 43.2502 243.759 42.5115 242.267 41.137L244.825 38.329C245.193 38.8081 245.665 39.1974 246.206 39.4676C246.746 39.7378 247.341 39.8819 247.945 39.889C249.115 39.889 250.425 39.3274 250.425 38.173C250.425 35.1778 242.781 36.8002 242.781 31.3558C242.781 27.8614 245.808 26.0518 249.021 26.0518C250.843 25.9849 252.625 26.5901 254.029 27.7522L251.502 30.4354Z" fill="#231F20"/>
<path d="M260.238 26.4418H256.634V42.7749H260.238V26.4418Z" fill="#231F20"/>
<path d="M266.665 29.6242H262V26.4418H274.917V29.6242H270.253V42.7749H266.665V29.6242Z" fill="#231F20"/>
<path d="M280.752 35.8018L274.621 26.4418H279.082L282.546 32.557L286.212 26.4418H290.486L284.355 35.8018V42.7749H280.752V35.8018Z" fill="#231F20"/>
<path d="M155.032 46.7997H161.35C164.688 46.7997 167.512 47.9541 167.512 51.7605C167.568 52.8013 167.237 53.8261 166.584 54.6381C165.93 55.4501 164.999 55.9919 163.971 56.1597L168.136 63.0548H163.799L160.383 56.5185H158.604V63.0548H155.016L155.032 46.7997ZM158.62 53.5545H160.679C162.005 53.5545 163.705 53.5545 163.705 51.7293C163.705 49.9041 162.145 49.8417 160.913 49.8417H158.557L158.62 53.5545Z" fill="#231F20"/>
<path d="M175.343 46.7997H178.323L185.421 63.1328H181.365L179.961 59.6697H173.611L172.254 63.1328H168.292L175.343 46.7997ZM176.731 51.4797L174.719 56.5965H178.713L176.731 51.4797Z" fill="#231F20"/>
<path d="M187.059 46.7685H191.941L198.899 58.1097H198.93V46.7685H202.534V63.1016H197.822L190.709 51.4641H190.662V63.1016H187.059V46.7685Z" fill="#231F20"/>
<path d="M205.981 46.7685H209.585V53.5545L215.934 46.7685H220.63L213.376 54.3501L221.254 63.1016H216.23L209.585 55.3485V63.1016H205.981V46.7685Z" fill="#231F20"/>
<path d="M226.058 46.7685H222.455V63.1016H226.058V46.7685Z" fill="#231F20"/>
<path d="M229.319 46.7685H234.217L241.159 58.1097H241.206V46.7685H244.809V63.1016H240.098L232.969 51.4641H232.922V63.1016H229.319V46.7685Z" fill="#231F20"/>
<path d="M262.905 61.9472C260.783 63.0149 258.432 63.5503 256.057 63.5072C254.899 63.5848 253.738 63.4178 252.65 63.0173C251.561 62.6167 250.568 61.9915 249.737 61.1822C248.906 60.373 248.254 59.3978 247.824 58.3202C247.395 57.2425 247.197 56.0865 247.243 54.9273C247.197 53.768 247.395 52.612 247.824 51.5344C248.254 50.4567 248.906 49.4816 249.737 48.6724C250.568 47.8631 251.561 47.2379 252.65 46.8373C253.738 46.4367 254.899 46.2698 256.057 46.3473C258.415 46.1928 260.742 46.9463 262.562 48.4533L260.019 51.2145C259.514 50.6793 258.897 50.262 258.212 49.9923C257.527 49.7227 256.791 49.6074 256.057 49.6545C255.368 49.6311 254.682 49.7525 254.043 50.0108C253.404 50.269 252.826 50.6584 252.347 51.1538C251.868 51.6492 251.497 52.2396 251.261 52.8869C251.024 53.5342 250.925 54.224 250.971 54.9117C250.925 55.5994 251.024 56.2892 251.261 56.9364C251.497 57.5837 251.868 58.1741 252.347 58.6695C252.826 59.1649 253.404 59.5543 254.043 59.8126C254.682 60.0709 255.368 60.1922 256.057 60.1689C257.233 60.1846 258.396 59.9114 259.442 59.3733V56.7213H256.509V53.4141H262.905V61.9472Z" fill="#231F20"/>
<path d="M274.137 50.7621C273.802 50.4052 273.396 50.1234 272.944 49.9352C272.492 49.747 272.006 49.6566 271.516 49.6701C270.502 49.6701 269.098 50.1381 269.098 51.3549C269.098 54.3345 276.618 52.4157 276.618 58.1409C276.618 61.7756 273.7 63.5072 270.378 63.5072C268.351 63.5655 266.382 62.8325 264.886 61.4636L267.445 58.6401C267.813 59.1192 268.285 59.5085 268.826 59.7787C269.366 60.0489 269.961 60.193 270.565 60.2C271.735 60.2 273.061 59.6541 273.061 58.4997C273.061 55.5045 265.401 57.1113 265.401 51.6669C265.401 48.1881 268.428 46.3629 271.641 46.3629C273.465 46.2944 275.25 46.906 276.649 48.0789L274.137 50.7621Z" fill="#231F20"/>
<path d="M316.943 6.23996C318.064 6.24393 319.137 6.6875 319.934 7.47522C320.73 8.26294 321.186 9.33184 321.202 10.4519V18.4547C321.202 18.5327 321.202 18.6107 321.202 18.7043V22.7135H242.641V6.23996H316.943Z" fill="#FCB131"/>
<path d="M316.943 63.1328C318.069 63.1288 319.147 62.6809 319.945 61.8865C320.742 61.092 321.194 60.0152 321.202 58.8897V50.8713C321.202 50.8713 321.202 50.7153 321.202 50.6373V46.6281H280.174V63.1328H316.943Z" fill="#FCB131"/>
<path d="M321.202 26.5666H292.841V43.0713H321.202V26.5666Z" fill="#FCB131"/>
<path d="M150.508 9.74994V58.9988C150.508 59.5047 150.408 60.0056 150.213 60.4724C150.018 60.9391 149.732 61.3626 149.372 61.7181C149.012 62.0736 148.585 62.3541 148.116 62.5434C147.647 62.7327 147.145 62.827 146.639 62.8208H93.5994C93.0975 62.8208 92.6005 62.722 92.1368 62.5299C91.6731 62.3378 91.2518 62.0563 90.8969 61.7014C90.542 61.3465 90.2605 60.9252 90.0684 60.4615C89.8763 59.9978 89.7775 59.5008 89.7775 58.9988V9.74994C89.7775 9.24803 89.8763 8.75104 90.0684 8.28733C90.2605 7.82363 90.542 7.4023 90.8969 7.04739C91.2518 6.69249 91.6731 6.41097 92.1368 6.21889C92.6005 6.02682 93.0975 5.92796 93.5994 5.92796H146.639C147.653 5.92796 148.625 6.33064 149.342 7.04739C150.058 7.76415 150.461 8.73629 150.461 9.74994" fill="#E6B134"/>
<path d="M93.5995 62.8208H146.639C147.141 62.8208 147.638 62.722 148.102 62.5299C148.565 62.3378 148.987 62.0563 149.342 61.7014C149.697 61.3465 149.978 60.9252 150.17 60.4615C150.362 59.9978 150.461 59.5008 150.461 58.9989V19.2503C139.845 16.0378 128.544 15.8406 117.823 18.6809C107.101 21.5211 97.3799 27.2869 89.7463 35.3338V58.9989C89.7463 59.5034 89.8461 60.003 90.0402 60.4687C90.2342 60.9345 90.5185 61.3572 90.8767 61.7125C91.2349 62.0678 91.66 62.3487 92.1273 62.5389C92.5946 62.7291 93.0949 62.825 93.5995 62.8208Z" fill="#FCB131"/>
<path d="M114.238 36.8002C112.484 37.3952 110.646 37.7008 108.794 37.705C98.6226 37.705 94.7538 30.1702 94.7538 23.9303C94.7538 18.2675 98.8098 10.4987 108.981 10.4987C117.265 10.4987 123.021 15.5375 123.021 23.6495C123.014 25.8977 122.463 28.1109 121.414 30.0996C120.366 32.0883 118.851 33.7933 116.999 35.0686L123.972 38.641C131.289 42.385 135.906 42.7749 138.262 42.7749C140.573 42.7784 142.867 42.3663 145.032 41.5582C145.198 41.4845 145.37 41.427 145.547 41.3866C145.589 41.3843 145.63 41.3908 145.669 41.4057C145.708 41.4206 145.743 41.4435 145.773 41.4729C145.802 41.5024 145.825 41.5377 145.84 41.5765C145.855 41.6154 145.861 41.657 145.859 41.6986C145.859 41.9014 145.688 42.0106 145.454 42.1198C142.052 43.7879 138.322 44.6778 134.534 44.7249C129.292 44.7249 125.61 43.3365 119.854 40.045L114.394 36.847L114.238 36.8002ZM118.247 24.6323C118.247 16.2395 113.053 12.1523 108.263 12.1523C103.708 12.1523 99.6522 15.0695 99.6522 23.0723C99.6522 31.075 104.644 35.911 110.229 35.911C113.006 35.911 118.247 34.6942 118.247 24.5231" fill="white"/>
<path d="M128.824 36.8002C128.262 36.5662 128.153 36.3946 128.153 35.6302C128.153 33.7114 128.294 31.6366 128.34 31.075C128.387 30.5134 128.465 30.1702 128.746 30.1702C129.027 30.1702 129.105 30.4822 129.105 30.763C129.156 31.3689 129.282 31.9662 129.479 32.5414C129.779 33.6084 130.437 34.5391 131.344 35.176C132.251 35.8128 133.35 36.1165 134.456 36.0358C135.025 36.1004 135.602 36.0481 136.15 35.8821C136.699 35.7161 137.208 35.44 137.646 35.0705C138.084 34.701 138.442 34.246 138.698 33.7334C138.954 33.2207 139.103 32.6612 139.136 32.089C139.136 30.3886 138.605 28.7506 135.735 26.5354L134.175 25.2875C130.368 22.2923 129.042 19.8743 129.042 17.0663C129.042 13.2443 132.162 10.4987 137.061 10.4987C138.641 10.4712 140.217 10.6709 141.741 11.0915C142.053 11.0915 142.224 11.2631 142.224 11.5127C142.224 11.7623 142.084 12.9635 142.084 15.6779C142.084 16.4423 141.975 16.7075 141.71 16.7075C141.444 16.7075 141.351 16.5047 141.351 16.0835C141.288 15.2527 140.978 14.4595 140.462 13.8059C140.02 13.2293 139.443 12.7708 138.782 12.4714C138.12 12.172 137.395 12.0409 136.671 12.0899C136.158 12.0213 135.636 12.0627 135.14 12.2112C134.644 12.3597 134.185 12.612 133.794 12.9513C133.403 13.2906 133.089 13.7092 132.872 14.1793C132.655 14.6494 132.541 15.1602 132.537 15.6779C132.537 17.2379 133.332 18.4859 136.218 20.6699L137.186 21.4031C141.351 24.6323 142.88 26.9566 142.88 30.2482C142.9 31.4497 142.61 32.6361 142.039 33.6934C141.468 34.7507 140.635 35.6433 139.619 36.2854C137.954 37.2812 136.036 37.7742 134.097 37.705C132.366 37.7793 130.64 37.4703 129.042 36.8002" fill="white"/>
<path d="M145.61 56.5809C145.61 57.2361 134.284 57.7665 120.322 57.7665C106.36 57.7665 95.0346 57.2361 95.0346 56.5809C95.0346 55.9257 106.36 55.3953 120.322 55.3953C134.284 55.3953 145.61 55.9257 145.61 56.5809Z" fill="#868686"/>
<path d="M291.562 52.5561C291.562 56.0661 287.616 57.3297 287.6 59.9972V60.1845H291.438V61.37H286.321V60.3716C286.321 56.6121 290.268 55.8789 290.268 52.5717C290.268 51.3705 289.862 50.7465 288.91 50.7465C287.959 50.7465 287.538 51.4173 287.538 52.4469V53.4921H286.321V52.5717C286.321 50.7933 287.148 49.6077 288.942 49.6077C290.736 49.6077 291.562 50.7777 291.562 52.5561Z" fill="#231F20"/>
<path d="M292.327 52.5405C292.327 50.7621 293.216 49.6077 294.994 49.6077C296.773 49.6077 297.677 50.7621 297.677 52.5405V58.5465C297.677 60.3248 296.788 61.4792 294.994 61.4792C293.2 61.4792 292.327 60.3248 292.327 58.5465V52.5405ZM293.606 58.6245C293.606 59.6697 294.058 60.3092 294.994 60.3092C295.93 60.3092 296.367 59.6697 296.367 58.6245V52.4625C296.367 51.4017 295.946 50.7777 294.994 50.7777C294.043 50.7777 293.606 51.4017 293.606 52.4625V58.6245Z" fill="#231F20"/>
<path d="M303.808 52.5561C303.808 56.0661 299.861 57.3297 299.846 59.9972V60.1845H303.668V61.37H298.567V60.3716C298.567 56.6121 302.513 55.8789 302.513 52.5717C302.513 51.3705 302.108 50.7465 301.141 50.7465C300.173 50.7465 299.783 51.4173 299.783 52.4469V53.4921H298.567V52.5717C298.567 50.7933 299.378 49.6077 301.172 49.6077C302.966 49.6077 303.808 50.7777 303.808 52.5561Z" fill="#231F20"/>
<path d="M304.573 52.5405C304.573 50.7621 305.446 49.6077 307.24 49.6077C309.034 49.6077 309.908 50.7621 309.908 52.5405V58.5465C309.908 60.3248 309.034 61.4792 307.24 61.4792C305.446 61.4792 304.573 60.3248 304.573 58.5465V52.5405ZM305.852 58.6245C305.852 59.6697 306.304 60.3092 307.24 60.3092C308.176 60.3092 308.613 59.6697 308.613 58.6245V52.4625C308.613 51.4017 308.176 50.7777 307.24 50.7777C306.304 50.7777 305.852 51.4017 305.852 52.4625V58.6245Z" fill="#231F20"/>
<path d="M8.59558 55.9257H9.57837V61.4948H8.59558V55.9257Z" fill="white"/>
<path d="M10.3895 55.9257H11.4035L12.6359 59.1393V55.9257H13.5095V61.4948H12.6515L11.2787 57.9225V61.4948H10.3895V55.9257Z" fill="white"/>
<path d="M15.1787 56.7681H14.1179V55.9257H17.2379V56.7681H16.1927V61.448H15.1787V56.7681Z" fill="white"/>
<path d="M17.7995 55.9257H20.3579V56.7681H18.7199V58.2033H19.9679V59.0456H18.7199V60.6056H20.2799V61.448H17.7995V55.9257Z" fill="white"/>
<path d="M21.0599 55.9257H22.6199C23.5403 55.9257 24.0707 56.4405 24.0707 57.4857C24.103 57.768 24.0576 58.0538 23.9394 58.3123C23.8212 58.5707 23.6346 58.7919 23.3999 58.9521L24.1331 61.4324H23.1191L22.4639 59.2797H22.0427V61.5416H21.0599V55.9257ZM22.4951 58.4997C22.8383 58.4997 23.0411 58.2345 23.0411 57.6261C23.0411 57.0177 22.8695 56.7525 22.4795 56.7525H22.0427V58.4997H22.4951Z" fill="white"/>
<path d="M24.7726 55.9257H25.7866L27.019 59.1393V55.9257H27.8926V61.4948H27.0034L25.6462 57.9225V61.4948H24.7726V55.9257Z" fill="white"/>
<path d="M29.6398 55.9101H30.9814L32.0578 61.4948H31.075L30.8098 60.1376H29.6398L29.3902 61.4948H28.4698L29.6398 55.9101ZM30.6538 59.342L30.2638 57.0333L29.8426 59.2796L30.6538 59.342Z" fill="white"/>
<path d="M33.181 56.7681H32.1358V55.9257H35.2558V56.7681H34.2106V61.448H33.2122L33.181 56.7681Z" fill="white"/>
<path d="M35.8798 55.9257H36.8626V61.4948H35.8798V55.9257Z" fill="white"/>
<path d="M37.549 60.1064V57.3141C37.5269 57.1038 37.5521 56.8912 37.6227 56.6919C37.6933 56.4926 37.8075 56.3116 37.957 56.1621C38.1065 56.0126 38.2875 55.8984 38.4868 55.8278C38.6861 55.7572 38.8987 55.732 39.109 55.7541C39.3105 55.7287 39.5152 55.7478 39.7086 55.8102C39.9019 55.8725 40.0793 55.9765 40.228 56.1149C40.3768 56.2532 40.4934 56.4226 40.5696 56.6109C40.6458 56.7992 40.6797 57.002 40.669 57.2049V59.9972C40.6941 60.2081 40.671 60.422 40.6014 60.6227C40.5319 60.8234 40.4178 61.0057 40.2676 61.1558C40.1174 61.306 39.9351 61.4202 39.7344 61.4897C39.5337 61.5592 39.3199 61.5823 39.109 61.5572C38.9069 61.5855 38.701 61.5684 38.5064 61.5071C38.3118 61.4458 38.1333 61.3419 37.9838 61.2029C37.8344 61.064 37.7179 60.8935 37.6426 60.7038C37.5674 60.5141 37.5354 60.31 37.549 60.1064V60.1064ZM39.6394 60.1064V57.2517C39.6394 57.1069 39.5818 56.968 39.4795 56.8656C39.3771 56.7632 39.2382 56.7057 39.0934 56.7057C38.9486 56.7057 38.8097 56.7632 38.7073 56.8656C38.6049 56.968 38.5474 57.1069 38.5474 57.2517V60.1064C38.5407 60.1813 38.55 60.2566 38.5747 60.3276C38.5993 60.3985 38.6387 60.4635 38.6904 60.518C38.742 60.5726 38.8046 60.6156 38.8741 60.6441C38.9436 60.6727 39.0183 60.6861 39.0934 60.6836C39.1677 60.6885 39.2421 60.6771 39.3116 60.6504C39.3811 60.6237 39.444 60.5822 39.4959 60.5288C39.5478 60.4754 39.5875 60.4114 39.6123 60.3412C39.6371 60.2709 39.6463 60.1962 39.6394 60.122V60.1064Z" fill="white"/>
<path d="M41.3866 55.9257H42.4006L43.6798 59.1393V55.9257H44.5533V61.4948H43.6798L42.307 57.9225V61.4948H41.4334L41.3866 55.9257Z" fill="white"/>
<path d="M46.2693 55.9101H47.6109L48.7029 61.4948H47.7045L47.4549 60.1376H46.3005L46.0509 61.4948H45.1461L46.2693 55.9101ZM47.2989 59.342L46.8933 57.0333L46.4565 59.2796L47.2989 59.342Z" fill="white"/>
<path d="M49.3113 55.9257H50.2941V60.6056H51.8541V61.448H49.3113V55.9257Z" fill="white"/>
<path d="M53.7261 55.9257H56.2689V56.7681H54.7089V58.2345H55.9725V59.0768H54.7089V61.4948H53.7417L53.7261 55.9257Z" fill="white"/>
<path d="M57.5325 55.9101H58.8741L59.966 61.4948H58.9677L58.7181 60.1376H57.5637L57.3141 61.4948H56.4093L57.5325 55.9101ZM58.5621 59.342L58.1565 57.0333L57.7197 59.2796L58.5621 59.342Z" fill="white"/>
<path d="M60.4341 60.1688V57.2361C60.4328 57.0378 60.4736 56.8415 60.5537 56.6601C60.6338 56.4788 60.7514 56.3164 60.8988 56.1838C61.0462 56.0512 61.22 55.9512 61.4088 55.8906C61.5975 55.83 61.797 55.81 61.9941 55.8321C62.1768 55.8121 62.3618 55.8313 62.5365 55.8884C62.7113 55.9454 62.8719 56.0391 63.0077 56.163C63.1435 56.287 63.2513 56.4385 63.324 56.6073C63.3967 56.7762 63.4325 56.9586 63.4292 57.1425V57.7197H62.5401V57.1893C62.5449 57.117 62.534 57.0446 62.508 56.9769C62.4821 56.9093 62.4418 56.8482 62.3898 56.7977C62.3379 56.7472 62.2756 56.7087 62.2072 56.6847C62.1389 56.6607 62.0661 56.6519 61.9941 56.6589C61.9183 56.6537 61.8423 56.6653 61.7716 56.693C61.7009 56.7206 61.6371 56.7635 61.5849 56.8187C61.5327 56.8739 61.4934 56.9399 61.4697 57.012C61.4461 57.0842 61.4387 57.1607 61.4481 57.2361V60.0908C61.4383 60.1676 61.446 60.2456 61.4705 60.319C61.495 60.3924 61.5358 60.4593 61.5898 60.5148C61.6437 60.5702 61.7095 60.6128 61.7822 60.6394C61.8549 60.6659 61.9326 60.6757 62.0097 60.668C62.0797 60.675 62.1504 60.6666 62.2169 60.6435C62.2833 60.6203 62.3439 60.5829 62.3944 60.5338C62.4449 60.4848 62.4841 60.4254 62.5093 60.3596C62.5344 60.2939 62.5449 60.2235 62.5401 60.1532V59.6229H63.4292V60.2C63.4345 60.3858 63.4002 60.5705 63.3287 60.7419C63.2571 60.9134 63.15 61.0677 63.0142 61.1945C62.8785 61.3214 62.7174 61.418 62.5415 61.4778C62.3656 61.5376 62.179 61.5594 61.9941 61.5416C61.7983 61.5713 61.5984 61.5577 61.4084 61.5019C61.2184 61.4461 61.043 61.3494 60.8943 61.2186C60.7457 61.0878 60.6274 60.926 60.5479 60.7447C60.4684 60.5633 60.4296 60.3668 60.4341 60.1688V60.1688Z" fill="white"/>
<path d="M64.0844 60.1532V55.9257H65.0828V60.1064C65.0713 60.1837 65.0769 60.2625 65.0994 60.3373C65.1218 60.4121 65.1605 60.481 65.2126 60.5391C65.2648 60.5973 65.3291 60.6431 65.4011 60.6735C65.473 60.7039 65.5508 60.718 65.6288 60.7148C65.9876 60.7148 66.1592 60.4652 66.1592 60.1064V55.9257H67.0796V60.122C67.0903 60.3249 67.0564 60.5277 66.9802 60.716C66.904 60.9043 66.7874 61.0737 66.6387 61.212C66.4899 61.3504 66.3126 61.4544 66.1192 61.5167C65.9259 61.5791 65.7212 61.5982 65.5196 61.5728C65.3278 61.592 65.1341 61.5685 64.9523 61.5041C64.7706 61.4398 64.6053 61.3361 64.4682 61.2005C64.3311 61.065 64.2257 60.9008 64.1593 60.7198C64.093 60.5387 64.0674 60.3453 64.0844 60.1532V60.1532Z" fill="white"/>
<path d="M67.8908 55.9257H68.858V60.6056H70.418V61.448H67.8908V55.9257Z" fill="white"/>
<path d="M71.4788 56.7681H70.4336V55.9257H73.5536V56.7681H72.5084V61.448H71.51L71.4788 56.7681Z" fill="white"/>
<path d="M75.0044 59.2796L73.85 55.9413H74.8796L75.5348 58.1097L76.1744 55.9413H77.1104L75.9872 59.2796V61.5104H75.0044V59.2796Z" fill="white"/>
</g>
<defs>
<clipPath id="clip0_1_421">
<rect width="328.066" height="68" fill="white"/>
</clipPath>
</defs>
</svg>
