<svg id="Layer_1" data-name="Layer 1" xmlns="http://www.w3.org/2000/svg" viewBox="0 0 51.06 55.58"><defs><style>.cls-1{fill:#f15a22;fill-rule:evenodd;}</style></defs><g id="Layer_2" data-name="Layer 2"><g id="Layer_1-2" data-name="Layer 1-2"><g id="Layer_1-3" data-name="Layer 1-3"><path class="cls-1" d="M24.45,16.24c.25-.25-1.59-2.5-4.11-5s-4.77-4.36-5-4.11,1.59,2.5,4.11,5S24.2,16.49,24.45,16.24Z" transform="translate(0 0.19)"/><path class="cls-1" d="M25,15.85c.31-.18-.89-2.83-2.67-5.92S18.81,4.48,18.5,4.66s.89,2.83,2.67,5.92S24.65,16,25,15.85Z" transform="translate(0 0.19)"/><path class="cls-1" d="M23.82,17.34C23.91,17,21.19,16,17.75,15s-6.31-1.39-6.41-1,2.63,1.37,6.07,2.29S23.72,17.68,23.82,17.34Z" transform="translate(0 0.19)"/><path class="cls-1" d="M23.73,18c0-.36-2.89-.65-6.46-.65s-6.46.29-6.46.65,2.89.64,6.46.65S23.73,18.33,23.73,18Z" transform="translate(0 0.19)"/><path class="cls-1" d="M18.14,14.08c3.09,1.78,5.74,3,5.92,2.67s-2.18-2-5.27-3.79-5.74-3-5.92-2.67S15.06,12.29,18.14,14.08Z" transform="translate(0 0.19)"/><path class="cls-1" d="M25.55,15.6c.34-.09-.13-3-1.05-6.4S22.55,3,22.2,3.13s.13,3,1.05,6.41S25.2,15.69,25.55,15.6Z" transform="translate(0 0.19)"/><path class="cls-1" d="M28.31,16.74c.18.31,2.83-.89,5.92-2.67s5.45-3.48,5.27-3.79-2.83.89-5.92,2.67S28.13,16.43,28.31,16.74Z" transform="translate(0 0.19)"/><path class="cls-1" d="M23.82,18.61c-.09-.34-3,.13-6.4,1.05s-6.16,1.95-6.07,2.3,3-.13,6.41-1.05S23.91,19,23.82,18.61Z" transform="translate(0 0.19)"/><path class="cls-1" d="M26.18,15.52c.36,0,.65-2.89.65-6.46s-.29-6.46-.65-6.46-.65,2.89-.65,6.46S25.82,15.52,26.18,15.52Z" transform="translate(0 0.19)"/><path class="cls-1" d="M27.92,16.23c.25.25,2.5-1.59,5-4.11s4.36-4.77,4.11-5-2.5,1.59-5,4.11S27.66,16,27.92,16.23Z" transform="translate(0 0.19)"/><path class="cls-1" d="M28.55,17.33c.09.34,3-.12,6.41-1s6.16-2,6.07-2.3-3,.13-6.41,1S28.46,17,28.55,17.33Z" transform="translate(0 0.19)"/><path class="cls-1" d="M26.82,15.6c.34.09,1.37-2.63,2.3-6.07s1.39-6.31,1.05-6.41-1.37,2.63-2.3,6.07S26.47,15.51,26.82,15.6Z" transform="translate(0 0.19)"/><path class="cls-1" d="M27.41,15.84c.31.18,2-2.18,3.79-5.27s3-5.74,2.67-5.92-2,2.18-3.79,5.27S27.1,15.67,27.41,15.84Z" transform="translate(0 0.19)"/><path class="cls-1" d="M27.92,19.7c-.25.25,1.59,2.5,4.11,5s4.77,4.36,5,4.11-1.59-2.5-4.11-5S28.17,19.45,27.92,19.7Z" transform="translate(0 0.19)"/><path class="cls-1" d="M27.41,20.1c-.31.18.89,2.83,2.67,5.92s3.48,5.45,3.79,5.27S33,28.46,31.2,25.37,27.72,19.93,27.41,20.1Z" transform="translate(0 0.19)"/><path class="cls-1" d="M24.06,19.2c-.18-.31-2.83.89-5.92,2.67s-5.45,3.48-5.27,3.79,2.83-.89,5.92-2.67S24.24,19.51,24.06,19.2Z" transform="translate(0 0.19)"/><path class="cls-1" d="M34.22,21.86c-3.09-1.78-5.74-3-5.92-2.67s2.18,2,5.27,3.79,5.74,3,5.92,2.67S37.31,23.64,34.22,21.86Z" transform="translate(0 0.19)"/><path class="cls-1" d="M28.64,18c0,.36,2.89.65,6.46.65s6.46-.29,6.46-.65-2.89-.65-6.46-.65S28.64,17.61,28.64,18Z" transform="translate(0 0.19)"/><path class="cls-1" d="M35,19.65c-3.44-.92-6.31-1.39-6.41-1s2.63,1.37,6.07,2.29,6.31,1.39,6.41,1S38.4,20.57,35,19.65Z" transform="translate(0 0.19)"/><path class="cls-1" d="M26.82,20.35c-.34.09.13,3,1.05,6.4s1.95,6.16,2.3,6.07-.13-3-1.05-6.41S27.17,20.26,26.82,20.35Z" transform="translate(0 0.19)"/><path class="cls-1" d="M24.45,19.72c-.25-.25-2.5,1.59-5,4.11s-4.36,4.77-4.11,5,2.5-1.59,5-4.11S24.71,20,24.45,19.72Z" transform="translate(0 0.19)"/><path class="cls-1" d="M25,20.11c-.31-.18-2,2.18-3.79,5.27s-3,5.74-2.67,5.92,2-2.18,3.79-5.27S25.27,20.29,25,20.11Z" transform="translate(0 0.19)"/><path class="cls-1" d="M26.19,20.43c-.36,0-.65,2.89-.65,6.46s.29,6.46.65,6.46.65-2.89.65-6.46S26.54,20.43,26.19,20.43Z" transform="translate(0 0.19)"/><path class="cls-1" d="M25.55,20.35c-.34-.09-1.37,2.63-2.29,6.07s-1.39,6.31-1.05,6.41,1.37-2.63,2.29-6.07S25.9,20.44,25.55,20.35Z" transform="translate(0 0.19)"/><path class="cls-1" d="M26.23,35.86A18,18,0,0,0,44.35,18v-.05A18.12,18.12,0,1,0,26.18,35.86Zm0-35.22A17.28,17.28,0,1,1,9,18v0A17.3,17.3,0,0,1,26.23.64Z" transform="translate(0 0.19)"/><path class="cls-1" d="M26.23,34.37A16.45,16.45,0,1,0,9.78,17.92h0A16.47,16.47,0,0,0,26.23,34.37ZM12.26,26a2.61,2.61,0,0,0,.34-1.31,2.69,2.69,0,0,0-2-2.58,2.73,2.73,0,0,0,.67-1.18,2.69,2.69,0,0,0-1.22-3A2.82,2.82,0,0,0,11,17a2.68,2.68,0,0,0-.4-3.21,2.72,2.72,0,0,0,1.17-.68,2.68,2.68,0,0,0,.44-3.21,2.68,2.68,0,0,0,2.64-2.72,2.57,2.57,0,0,0-.08-.62,2.68,2.68,0,0,0,3.29-1.89A2.52,2.52,0,0,0,18.15,4a2.61,2.61,0,0,0,1.31.34,2.69,2.69,0,0,0,2.58-2A2.82,2.82,0,0,0,23.22,3a2.69,2.69,0,0,0,3-1.22,2.69,2.69,0,0,0,4.21.6,2.72,2.72,0,0,0,.68,1.17A2.67,2.67,0,0,0,34.28,4,2.68,2.68,0,0,0,37,6.64a2.57,2.57,0,0,0,.62-.08,2.69,2.69,0,0,0,1.94,3.26,2.65,2.65,0,0,0,.63.08,2.61,2.61,0,0,0-.34,1.31,2.69,2.69,0,0,0,1.95,2.58A2.67,2.67,0,0,0,42.35,18a2.69,2.69,0,0,0-.6,4.21,2.72,2.72,0,0,0-1.17.68A2.66,2.66,0,0,0,40.19,26a2.68,2.68,0,0,0-2.64,2.72,2.57,2.57,0,0,0,.08.62,2.69,2.69,0,0,0-3.26,1.94,2.65,2.65,0,0,0-.08.63,2.6,2.6,0,0,0-3.87,1.63,2.73,2.73,0,0,0-1.18-.67,2.69,2.69,0,0,0-3,1.22,2.76,2.76,0,0,0-1-1,2.68,2.68,0,0,0-3.21.4,2.72,2.72,0,0,0-.68-1.17,2.68,2.68,0,0,0-3.21-.44,2.68,2.68,0,0,0-2.72-2.64,2.57,2.57,0,0,0-.62.08,2.67,2.67,0,0,0-1.88-3.28A2.44,2.44,0,0,0,12.26,26Z" transform="translate(0 0.19)"/><path class="cls-1" d="M12,50.13H3l.29.55H5.85v.46h-2a.4.4,0,0,0-.4.37c0,.37.64.91.66.91.23-.07.91-.19.91.19,0,.16-.58.35-.63.32A.65.65,0,0,0,4,52.65c-.29,0-.47.14-.47.35,0,.46.89.49.92.46l.41.54.37-.22-.44-.39c.06,0,.63-.23.63-.69,0-.66-.73-.81-1.27-.68,0,0-.2-.2-.13-.3a.19.19,0,0,1,.17-.1H5.87v1.81l.75.45v-3.2h.81v2.74l.75.46v-3.2h2.63v.79H9a.19.19,0,0,0-.18.18c-.05.36.69,1.07.92,1.07.07,0,.09-.1.09-.16v-.5h1v1.38l.75.47V50.68h.7Z" transform="translate(0 0.19)"/><polygon class="cls-1" points="11.91 51.78 12.17 52.38 14.19 52.38 13.87 51.78 11.91 51.78"/><path class="cls-1" d="M44.52,50.13H30.65a.73.73,0,0,1-.19-.46c0-.35.31-.57.85-.57a3.36,3.36,0,0,1,2.1,1l.19-.16A4.51,4.51,0,0,0,31,48.56a.93.93,0,0,0-.93.93,1,1,0,0,0,.26.64h-.7l.29.55h.41v2.74l.76.45V50.68h2.29v1.44a1.45,1.45,0,0,1-.89.32c-.18,0-.38,0-.4-.22,0-.56,1.14-.63,1.14-.62L33,51.08s-1.26,0-1.26.75a1.13,1.13,0,0,0,1,1.17,2.08,2.08,0,0,0,.6-.18v.59l.75.45V50.68H35v1h-.34c-.06,0-.08.08-.08.14,0,.25.71.85,1,.85a.14.14,0,0,0,.1-.11v-.35h1v1.16l.48.3a.81.81,0,0,0-.31,0,1.77,1.77,0,0,0-1,.54l.47.37c0-.46,1-.73,1-.14,0,.35-.57.56-1,.55-.81,0-1.74-1.06-1.74-1.07l-.2.2a3.68,3.68,0,0,0,2.12,1.27c.6,0,1.18-.16,1.21-.8a.88.88,0,0,0-.32-.74V50.68h2.27V52a1.29,1.29,0,0,1-.94.49c-.16,0-.43,0-.43-.28,0-.61,1.24-.54,1.24-.49l-.43-.58s-1.1.06-1.1.77A1.13,1.13,0,0,0,39,53a1.45,1.45,0,0,0,.67-.2v.61l.75.47V52.46c0-.36.54-.46.84-.4a5.32,5.32,0,0,0,1,1.82l.32-.18a3.12,3.12,0,0,1-.86-1.49.43.43,0,0,1,.43-.39h1.1v1.6l.75.45V50.68h1.25a1.26,1.26,0,0,1,.16.46c0,.51-.82.47-.82.47A1.32,1.32,0,0,0,45.83,53H46a1.22,1.22,0,0,0,.67-.2v.68l.75.47V50.68h.7l-.28-.55Zm-7.83,1.61h-1V50.68h1Zm6.66-.51H42a.66.66,0,0,0-.61.44,1.11,1.11,0,0,0-.4-.13,1.61,1.61,0,0,0-.48.08v-.94H43.4v.55Zm3.33.72a1,1,0,0,1-1.37.37l-.16-.12c.77,0,1-1,.55-1.51h1Z" transform="translate(0 0.19)"/><path class="cls-1" d="M45.84,49.1a.57.57,0,0,1,.44.2l.63.83h.29a10.55,10.55,0,0,0-1-1.31.64.64,0,0,0-.52-.28h-.84l.28.62A2.92,2.92,0,0,1,45.84,49.1Z" transform="translate(0 0.19)"/><path class="cls-1" d="M24,50.13H14.8a.73.73,0,0,1-.19-.46c0-.35.31-.57.85-.57a3.36,3.36,0,0,1,2.1,1l.19-.16a4.53,4.53,0,0,0-2.63-1.35.93.93,0,0,0-.93.93,1,1,0,0,0,.26.64h-.7l.29.55h.41v2.74l.76.45V50.68H17.5v1.44a1.45,1.45,0,0,1-.89.32c-.18,0-.38,0-.4-.22,0-.56,1.14-.63,1.14-.62l-.26-.52s-1.26,0-1.26.75A1.13,1.13,0,0,0,16.9,53a2.08,2.08,0,0,0,.6-.18v.59l.75.45V50.68h3v.46h-2a.4.4,0,0,0-.4.37c0,.37.64.91.66.91.23-.07.91-.19.91.19,0,.16-.58.35-.63.32a.63.63,0,0,0-.46-.28c-.29,0-.47.14-.47.35,0,.46.89.49.92.46l.41.54.37-.22-.44-.39c.06,0,.63-.23.63-.69,0-.66-.73-.81-1.27-.68,0,0-.2-.2-.13-.3a.19.19,0,0,1,.17-.1h1.72v1.81l.75.45v-3.2h.81v2.74l.75.46v-3.2h2.63v.79h-1.8a.18.18,0,0,0-.18.18c-.05.36.69,1.07.92,1.07.07,0,.09-.1.09-.16v-.5h1v1.38l.75.47V50.68h.71l-.29-.55Z" transform="translate(0 0.19)"/><path class="cls-1" d="M26.2,41.81c-10-5.56-15.13-6.87-26.2-7.29v.64L26.22,46.93,51.06,35.51v-.65C40.59,35,34.66,36.7,26.2,41.81Zm18-4.69c-6,2.72-12,5.5-18,8.22-6.4-2.82-12.69-5.69-19.09-8.51-.81-.39-.85-.58.11-.33,7.77,1.62,12.53,5.44,18.92,7.65,6-2.54,12.28-6,17.94-7.54,1.16-.27,1.07,0,.11.51Z" transform="translate(0 0.19)"/><path class="cls-1" d="M38.42,34.42a15.86,15.86,0,0,0-8.32,2.52c-1.27.77-2.61,1.7-3.88,2.47-1.85-.92-3.63-2-5.48-2.91-2.94-1.53-5.82-2.62-8-2.33-.58.08-.45.1.09.39l13.42,5.6,12.26-5.39C39.2,34.46,39.18,34.35,38.42,34.42Z" transform="translate(0 0.19)"/></g></g></g></svg>