<svg width="318" height="62" viewBox="0 0 318 62" fill="none" xmlns="http://www.w3.org/2000/svg">
<path d="M256 21H157V41H256V21Z" fill="#1B1B1B"/>
<path d="M238 0H157V19H238V0Z" fill="#1B1B1B"/>
<path d="M80 0V8.40122H86.3909V62H97.3733V8.40122H104V0H80Z" fill="#E31E29"/>
<path d="M119.992 0V23.4629H117.088V0H106L106.08 62H117.088V31.8767H119.992V62H131V0H119.992Z" fill="#B81D81"/>
<path d="M133 0V62H154V52.6653H143.959V31.8767H152.369V24.308H143.959V8.40122H154V0H133Z" fill="#2650A3"/>
<path d="M162 2H159V17H162V2Z" fill="white"/>
<path d="M164 2H166.349L168.133 9.80423C168.477 11.3089 168.751 12.8321 168.952 14.3677C169.157 12.873 169.446 11.3519 169.795 9.81746L171.59 2H174V17H172.651V3.0582L169.422 17H168.482L165.325 3.0582V17H164V2Z" fill="white"/>
<path d="M177.012 2H179.387C182.443 2 184 3.32275 184 6.06085C184 8.79894 182.489 10.1349 179.387 10.1349H178.453V17H177L177.012 2ZM179.699 8.86508C181.624 8.86508 182.582 7.93915 182.582 6.21958C182.582 4.5 181.624 3.45502 179.699 3.45502H178.453V8.93122L179.699 8.86508Z" fill="white"/>
<path d="M187.356 2H189.593L193 17H191.322L190.407 12.582H186.479L185.576 17H184L187.356 2ZM190.064 11.1667L188.424 3.32275L186.797 11.1667H190.064Z" fill="white"/>
<path d="M203 12.322C203 15.3475 201.397 17 198.675 17C195.576 17 194 14.572 194 9.70339C194 4.51695 195.469 2 198.743 2C201.235 2 202.784 3.66526 202.784 6.53814H201.127C201.019 4.40254 200.13 3.29661 198.662 3.29661C196.493 3.29661 195.711 5.33051 195.711 9.56356C195.711 13.7966 196.56 15.6907 198.931 15.6907C200.427 15.6907 201.41 14.4831 201.41 12.2966V11.9915H202.946L203 12.322Z" fill="white"/>
<path d="M206.78 3.28307H204V2H211V3.28307H208.186V17H206.78V3.28307Z" fill="white"/>
<path d="M159 24H161.844C165.21 24 166.924 25.3204 166.924 27.9613C166.979 28.7645 166.764 29.5627 166.314 30.2183C165.864 30.8739 165.209 31.3459 164.46 31.5528L167 39H165.273L162.924 31.8829C162.378 31.8829 161.819 31.8829 161.26 31.8829H160.625V38.9736H159V24ZM161.946 30.6021C164.092 30.6021 165.171 29.7306 165.171 27.9613C165.171 26.1919 164.105 25.3204 161.946 25.3204H160.587V30.6021H161.946Z" fill="white"/>
<path d="M171.771 24H174.215L178 39H176.136L175.119 34.582H170.754L169.751 39H168L171.771 24ZM174.766 33.1799L172.887 25.336L171.079 33.1799H174.766Z" fill="white"/>
<path d="M180.394 25.164V39H179V24H181.311L184.488 32.5053C184.94 33.7354 185.367 34.9788 185.744 36.2487C185.637 35.159 185.591 34.0636 185.606 32.9683V24H187V39H185.443L181.562 28.6296C181.085 27.3862 180.695 26.2222 180.381 25.164" fill="white"/>
<path d="M190 24H191.559V32.0159L195.991 24H197.513L194.542 29.291L198 39H196.344L193.543 30.8915L191.534 34.5026V39H190V24Z" fill="white"/>
<path d="M201 24H200V39H201V24Z" fill="white"/>
<path d="M205.222 25.164V39H204V24H206.003L208.788 32.5053C209.184 33.7354 209.558 34.9788 209.888 36.2487C209.803 35.1583 209.766 34.0633 209.778 32.9683V24H211V39H209.635L206.223 28.6296C205.816 27.3862 205.475 26.2222 205.2 25.164" fill="white"/>
<path d="M221.633 37.808C221.269 38.2112 220.82 38.5271 220.319 38.7322C219.818 38.9373 219.277 39.0265 218.737 38.9932C215.597 38.9932 214 36.3912 214 31.1737C214 25.6156 215.475 23 218.764 23C221.268 23 222.824 24.771 222.824 27.8497H221.173C221.051 25.5611 220.158 24.3895 218.683 24.3895C216.463 24.3895 215.746 26.5828 215.746 31.2009C215.746 35.533 216.612 37.6581 218.899 37.6581C220.361 37.6581 221.362 36.6092 221.362 34.7292V32.8493H218.94V31.487H223V38.6935H221.795L221.633 37.808Z" fill="white"/>
<path d="M226.351 34.643C226.442 36.648 227.14 37.5963 228.582 37.5963C228.864 37.6089 229.144 37.5508 229.405 37.4257C229.666 37.3007 229.901 37.1116 230.096 36.871C230.291 36.6303 230.44 36.3435 230.534 36.0296C230.628 35.7156 230.665 35.3815 230.642 35.0495C230.642 33.3967 229.635 32.34 227.918 30.9853C226.202 29.6306 225.206 28.5604 225.206 26.4741C225.207 26.0017 225.289 25.5343 225.448 25.1007C225.606 24.667 225.837 24.276 226.128 23.9516C226.418 23.6271 226.761 23.376 227.135 23.2134C227.51 23.0509 227.909 22.9803 228.308 23.0061C228.773 22.9751 229.239 23.0628 229.674 23.263C230.108 23.4633 230.502 23.7716 230.827 24.167C231.152 24.5624 231.402 25.0359 231.56 25.5554C231.718 26.0749 231.78 26.6284 231.741 27.1786H230.402C230.288 25.282 229.601 24.3201 228.365 24.3201C228.117 24.2923 227.867 24.3283 227.632 24.4255C227.397 24.5228 227.182 24.679 227.003 24.8836C226.823 25.0882 226.683 25.3362 226.593 25.6108C226.502 25.8853 226.462 26.1798 226.476 26.4741C226.482 26.8125 226.545 27.1461 226.661 27.4555C226.777 27.7648 226.944 28.0437 227.152 28.2759C227.987 29.1134 228.866 29.8872 229.784 30.5925C230.435 31.0306 230.98 31.6594 231.367 32.4184C231.754 33.1775 231.969 34.0415 231.993 34.9275C232.023 35.4705 231.955 36.0149 231.793 36.5243C231.632 37.0337 231.38 37.4963 231.055 37.8811C230.73 38.2659 230.339 38.564 229.908 38.7556C229.478 38.9471 229.018 39.0276 228.559 38.9917C226.339 38.9917 225.034 37.4202 225 34.6159L226.351 34.643Z" fill="white"/>
<path d="M164 43H157V62H164V43Z" fill="#E4243C"/>
<path d="M170 43H164V62H170V43Z" fill="#DEA63A"/>
<path d="M177 43H170V62H177V43Z" fill="#4C9E45"/>
<path d="M184 43H177V62H184V43Z" fill="#C4202F"/>
<path d="M192 43H184V62H192V43Z" fill="#EF412B"/>
<path d="M198 43H192V62H198V43Z" fill="#26BDE3"/>
<path d="M205 43H198V62H205V43Z" fill="#FAC212"/>
<path d="M211 43H205V62H211V43Z" fill="#A31D43"/>
<path d="M219 43H211V62H219V43Z" fill="#F26A2C"/>
<path d="M226 43H219V62H226V43Z" fill="#DE1767"/>
<path d="M232 43H226V62H232V43Z" fill="#F99E26"/>
<path d="M239 43H232V62H239V43Z" fill="#BF8C2C"/>
<path d="M247 43H239V62H247V43Z" fill="#DE1767"/>
<path d="M254 43H247V62H254V43Z" fill="#1B95D3"/>
<path d="M260 43H254V62H260V43Z" fill="#5BBA47"/>
<path d="M267 43H260V62H267V43Z" fill="#006A9E"/>
<path d="M275 43H267V62H275V43Z" fill="#18486B"/>
<path d="M278.114 59.9618L281.478 54.518C282.759 52.6129 283.524 50.4388 283.703 48.1881V47.6563C283.703 46.6309 283.341 45.7194 282.363 45.7194C281.384 45.7194 281.022 46.5043 281.022 47.3905V48.5552H278.02V47.3905C277.96 46.811 278.035 46.2261 278.239 45.6766C278.443 45.1271 278.771 44.6264 279.201 44.2092C279.631 43.7921 280.153 43.4687 280.729 43.2616C281.305 43.0545 281.922 42.9687 282.537 43.0102C285.566 43.0102 286.946 44.8712 286.946 47.7323C286.707 50.8688 285.577 53.8864 283.676 56.4676L281.974 59.1642V59.2528H287V62H278.087L278.114 59.9618Z" fill="#6D6E71"/>
<path d="M289 57.8804V47.0696C289 44.3233 291.372 43 293.993 43C296.614 43 299 44.2484 299 47.0447V57.8804C299 60.6767 296.71 62 293.993 62C291.276 62 289 60.6518 289 57.8804ZM295.579 57.9678V46.9947C295.543 46.6419 295.362 46.3141 295.072 46.0756C294.783 45.837 294.405 45.7048 294.014 45.7048C293.622 45.7048 293.245 45.837 292.955 46.0756C292.666 46.3141 292.485 46.6419 292.448 46.9947V57.9928C292.485 58.3456 292.666 58.6734 292.955 58.912C293.245 59.1505 293.622 59.2828 294.014 59.2828C294.405 59.2828 294.783 59.1505 295.072 58.912C295.362 58.6734 295.543 58.3456 295.579 57.9928V57.9678Z" fill="#6D6E71"/>
<path d="M301.1 59.9617L304.459 54.5176C305.739 52.6125 306.502 50.4382 306.681 48.1874V47.6557C306.681 46.6302 306.32 45.7186 305.343 45.7186C304.366 45.7186 304.004 46.5036 304.004 47.3898V48.5546H301.02V47.3898C300.96 46.8114 301.034 46.2276 301.237 45.6791C301.44 45.1306 301.767 44.6305 302.195 44.2136C302.623 43.7966 303.142 43.4729 303.716 43.265C304.289 43.057 304.904 42.9697 305.517 43.0093C308.528 43.0093 309.92 44.8704 309.92 47.7316C309.696 50.8789 308.577 53.9104 306.681 56.5054L304.981 59.202V59.2907H310V62H301.1V59.9617Z" fill="#6D6E71"/>
<path d="M314.215 46.2993L312.523 46.6459L312 44.2196L315.8 43H318V62H314.215V46.2993Z" fill="#6D6E71"/>
<path d="M0 1H7.39931L16.4544 24.1176H16.6226V1H23V41H16.5321L6.49381 15.3322H6.37739V41H0V1Z" fill="#58595B"/>
<path d="M28 32.1682V18.8825C28 13.0708 32.1398 10 36.9756 10C41.8114 10 46 12.7916 46 18.6541V32.1175C46 38.1449 41.9213 41 36.9756 41C31.8345 40.9366 28 38.1449 28 32.1682ZM39.6621 32.5108V18.5526C39.7085 18.1558 39.6739 17.7534 39.5604 17.3715C39.447 16.9896 39.2573 16.6368 39.0038 16.3363C38.7502 16.0357 38.4386 15.7941 38.0891 15.6272C37.7396 15.4603 37.3602 15.3718 36.9756 15.3676C35.095 15.3676 34.3379 16.8776 34.3379 18.6034V32.5997C34.2868 32.9947 34.3184 33.3966 34.4307 33.7778C34.543 34.1589 34.7332 34.5103 34.9884 34.808C35.2435 35.1057 35.5575 35.3425 35.9089 35.5023C36.2604 35.6621 36.6409 35.7411 37.0244 35.7339C39.0638 35.6959 39.6621 34.1224 39.6621 32.5108V32.5108Z" fill="#58595B"/>
<path d="M51 32H56V41H51V32Z" fill="#58595B"/>
<path d="M64.0582 7.9194L60.9478 8.64575L60 3.54858L66.9951 1H71V41H64.0049L64.0582 7.9194Z" fill="#58595B"/>
<path d="M0 44H3V62H0V44Z" fill="#58595B"/>
<path d="M7 44H10.2258L14.2084 54.3851V44H17V62H14.2084L9.866 50.4385V62H7.08684L7 44Z" fill="#58595B"/>
<path d="M23 44H27V62H23V44Z" fill="#58595B"/>
<path d="M30.0125 44H33.2503L37.198 54.4357V44H40V62H37.1606L32.7895 50.4385V62H30L30.0125 44Z" fill="#58595B"/>
<path d="M43 44H48.1235C50.8283 44 53 45.3749 53 48.2004V57.5599C53 60.5873 50.8283 62 48.0715 62H43V44ZM47.7854 59.2754C48.0418 59.2893 48.2983 59.2492 48.5373 59.158C48.7763 59.0668 48.9921 58.9265 49.1699 58.7468C49.3478 58.5671 49.4835 58.3522 49.5677 58.1168C49.652 57.8815 49.6828 57.6313 49.658 57.3833V48.5536C49.6811 48.3084 49.6474 48.0612 49.5594 47.8303C49.4714 47.5993 49.3313 47.3903 49.1493 47.2186C48.9673 47.0469 48.7481 46.9169 48.5076 46.8379C48.2671 46.759 48.0115 46.7332 47.7594 46.7624H46.251V59.3006L47.7854 59.2754Z" fill="#58595B"/>
<path d="M55 44H59V62H55V44Z" fill="#58595B"/>
<path d="M64.563 44H68.6761L72 62H68.963L68.15 57.6417H64.563L63.7978 62H61L64.563 44ZM67.6956 55.0721L66.5 47.6151H66.4283L65.1609 55.0721H67.6956Z" fill="#58595B"/>
</svg>
