<?xml version="1.0" encoding="utf-8"?>
<!-- Generator: Adobe Illustrator 16.0.0, SVG Export Plug-In . SVG Version: 6.00 Build 0)  -->
<!DOCTYPE svg PUBLIC "-//W3C//DTD SVG 1.1//EN" "http://www.w3.org/Graphics/SVG/1.1/DTD/svg11.dtd">
<svg version="1.1" id="Layer_1" xmlns="http://www.w3.org/2000/svg" xmlns:xlink="http://www.w3.org/1999/xlink" x="0px" y="0px"
	 width="315.619px" height="84.484px" viewBox="15.023 7.09 315.619 84.484" enable-background="new 15.023 7.09 315.619 84.484"
	 xml:space="preserve">
<path fill="#58595B" d="M137.651,61.588v-3.567h6.142v2.96c-0.057,0.43-0.018,0.867,0.112,1.281
	c0.131,0.413,0.351,0.793,0.645,1.111c0.293,0.32,0.654,0.57,1.055,0.734c0.401,0.165,0.834,0.239,1.267,0.219
	c1.894,0,2.96-1.392,2.96-4.026v-7.593c0-2.294-1.066-3.686-2.96-3.686c-0.633,0.07-1.238,0.302-1.756,0.673
	c-0.518,0.37-0.933,0.867-1.204,1.444l-5.758-0.385l0.74-21.062h16.414v5.92h-11.071c0,0-0.222,7.652-0.385,10.169
	c1.535-1.229,3.452-1.878,5.418-1.836c3.848,0,7.149,2.117,7.149,7.815v8.881c0,6.143-4.248,9.502-9.666,9.502
	C140.774,70.143,137.651,66.783,137.651,61.588z"/>
<path fill="#58595B" d="M162.235,32.015h-4.144v-2.131h10.775v2.131h-4.144v19.567h-2.487V32.015z"/>
<path fill="#58595B" d="M171.309,29.883h2.516v9.428h5.387v-9.428h2.502v21.699h-2.502v-9.946h-5.387v9.946h-2.516V29.883z"/>
<path fill="#58595B" d="M190.284,29.735h11.174c5.284,0,8.362,3.079,8.362,9.458c0,5.018-2.041,7.889-4.913,8.673v0.208
	c3.301,0.829,5.12,3.863,5.12,8.451c0,7.209-3.389,10.449-8.303,10.449h-11.44V29.735z M199.682,45.454
	c2.25,0,3.612-1.672,3.612-5.432c0-3.449-1.258-4.958-3.183-4.958h-3.256v10.361L199.682,45.454z M200.111,61.603
	c2.132,0,3.285-1.999,3.285-5.491c0-3.493-1.405-5.27-3.654-5.27h-2.961v10.761H200.111z"/>
<path fill="#58595B" d="M214.409,29.735h17.081v5.595h-10.553v9.606h8.48v5.639h-8.406v10.76h10.611v5.639h-17.214V29.735z"/>
<path fill="#58595B" d="M234.051,57.162l6.157-0.207c0.267,2.545,0.992,5.21,3.655,5.21c2.354,0,3.078-2.028,3.078-3.907
	c0-1.881-1.301-3.864-3.433-5.921l-3.729-3.908c-3.184-3.079-5.166-6.098-5.166-10.02c-0.077-1.25,0.113-2.501,0.56-3.671
	c0.447-1.169,1.138-2.23,2.029-3.111c0.89-0.88,1.958-1.56,3.133-1.994c1.174-0.434,2.429-0.61,3.677-0.52
	c4.545,0,8.614,2.398,8.881,10.08l-5.803,0.208c-0.311-2.96-1.095-4.958-3.433-4.958c-1.939,0-2.962,1.48-2.962,3.493
	c0,2.013,1.998,3.966,3.82,5.802l3.448,3.493c3.448,3.404,5.373,6.586,5.373,10.716c0.07,1.272-0.128,2.546-0.583,3.735
	c-0.455,1.19-1.156,2.271-2.057,3.172c-0.901,0.901-1.982,1.603-3.172,2.057c-1.19,0.455-2.463,0.654-3.735,0.583
	C237.914,67.493,234.421,63.645,234.051,57.162z"/>
<path fill="#58595B" d="M262.084,35.33h-7.045v-5.595h20.721v5.595h-6.986v31.645h-6.646L262.084,35.33z"/>
<path fill="#58595B" d="M137.814,86.868V72.407h3.419v14.298c-0.042,0.267-0.025,0.539,0.052,0.798
	c0.076,0.259,0.209,0.498,0.389,0.698c0.18,0.201,0.402,0.36,0.651,0.465c0.249,0.105,0.518,0.152,0.787,0.141
	c1.199,0,1.806-0.828,1.806-2.057V72.407h3.212v14.356c0.035,0.688-0.078,1.373-0.332,2.013c-0.255,0.639-0.644,1.216-1.141,1.69
	c-0.497,0.475-1.091,0.837-1.741,1.062c-0.651,0.224-1.341,0.306-2.026,0.239C139.797,91.768,137.814,90.287,137.814,86.868z"/>
<path fill="#58595B" d="M151.105,72.407h3.463l4.234,11.013V72.407h2.96v19.063h-2.96l-4.678-12.211v12.211h-2.96L151.105,72.407z"
	/>
<path fill="#58595B" d="M164.9,72.407h3.359v19.063H164.9V72.407z"/>
<path fill="#58595B" d="M170.287,72.407h3.375l2.189,12.937h0.104l2.22-12.937h3.049l-3.611,19.167h-3.566L170.287,72.407z"/>
<path fill="#58595B" d="M183.253,72.407h8.748v2.872h-5.403v4.913h4.338v2.96h-4.308v5.506h5.433v2.813h-8.777L183.253,72.407z"/>
<path fill="#58595B" d="M194.693,72.407h5.123c3.151,0,4.986,1.791,4.986,5.565c0,2.723-0.902,4.336-2.322,5.002l2.545,8.496h-3.508
	l-2.086-7.756h-1.48v7.756h-3.375L194.693,72.407z M199.594,81.199c1.198,0,1.864-0.902,1.864-2.961
	c0-1.835-0.562-2.959-1.894-2.959h-1.48v5.92H199.594z"/>
<path fill="#58595B" d="M207.023,86.438l3.152-0.104c0.135,1.317,0.504,2.679,1.865,2.679s1.584-1.051,1.584-2.013
	c-0.07-0.601-0.264-1.183-0.566-1.706c-0.302-0.525-0.709-0.981-1.195-1.343l-1.909-1.969c-0.777-0.622-1.413-1.4-1.867-2.286
	c-0.454-0.885-0.716-1.855-0.767-2.85c-0.049-0.641,0.045-1.285,0.271-1.887c0.226-0.603,0.579-1.148,1.037-1.6
	c0.457-0.452,1.007-0.799,1.612-1.018s1.25-0.303,1.89-0.248c2.324,0,4.44,1.229,4.56,5.151l-2.961,0.104
	c-0.162-1.479-0.563-2.53-1.762-2.53s-1.48,0.754-1.48,1.791c0,1.035,1.021,2.027,1.955,2.959l1.717,1.836
	c0.816,0.669,1.484,1.502,1.958,2.445c0.475,0.943,0.745,1.977,0.795,3.031c0.034,0.652-0.069,1.303-0.304,1.912
	s-0.594,1.162-1.057,1.623c-0.462,0.461-1.016,0.819-1.626,1.052s-1.262,0.333-1.913,0.298
	C208.992,91.768,207.216,89.725,207.023,86.438z"/>
<path fill="#58595B" d="M219.457,72.407h3.359v19.063h-3.359V72.407z"/>
<path fill="#58595B" d="M228.723,75.279h-3.611v-2.872h10.582v2.872h-3.567v16.191h-3.403V75.279z"/>
<path fill="#58595B" d="M241.052,83.818l-3.938-11.411h3.582l2.25,7.4l2.162-7.4h3.211l-3.907,11.411v7.652h-3.359V83.818z"/>
<path fill="#58595B" d="M254.757,72.407h3.375v19.063h-3.375V72.407z"/>
<path fill="#58595B" d="M261.182,72.407h3.463l4.233,11.013h0.074V72.407h2.96v19.063h-3.049l-4.678-12.211v12.211h-2.959
	L261.182,72.407z"/>
<path fill="#58595B" d="M279.4,72.407h3.375v19.063H279.4V72.407z"/>
<path fill="#58595B" d="M285.825,72.407h3.463l4.233,11.013h0.074V72.407h2.961v19.063h-3.05L288.83,79.26v12.211h-2.961
	L285.825,72.407z"/>
<path fill="#58595B" d="M299.605,72.407h5.299c2.781,0,5.002,1.479,5.002,4.44v9.916c0,3.213-2.221,4.707-5.047,4.707h-5.226
	L299.605,72.407z M304.534,88.585c0.263,0.012,0.526-0.033,0.771-0.132c0.244-0.098,0.465-0.248,0.647-0.438
	s0.322-0.417,0.409-0.667c0.087-0.248,0.12-0.514,0.097-0.775v-9.369c0.021-0.26-0.016-0.521-0.107-0.766s-0.235-0.465-0.421-0.647
	c-0.188-0.183-0.412-0.321-0.658-0.407s-0.508-0.116-0.768-0.09h-1.48v13.321L304.534,88.585z"/>
<path fill="#58595B" d="M312.704,72.407h3.375v19.063h-3.375V72.407z"/>
<path fill="#58595B" d="M322.325,72.393h4.603l3.715,19.078h-3.39l-0.888-4.633h-3.922l-0.858,4.633h-3.123L322.325,72.393z
	 M325.832,84.115l-1.361-7.904h-0.073l-1.48,7.904H325.832z"/>
<path fill="#58595B" d="M274.311,65.88l2.086-3.715c1.129-1.864,1.771-3.981,1.865-6.157v-0.341c0-1.154-0.341-2.102-1.303-2.102
	s-1.273,0.77-1.273,1.613v0.873h-1.479v-0.755c-0.052-0.398-0.017-0.803,0.104-1.187s0.322-0.736,0.594-1.033
	c0.27-0.297,0.602-0.532,0.972-0.688c0.371-0.156,0.771-0.229,1.172-0.216c1.894,0,2.812,1.288,2.812,3.553
	c-0.103,2.634-0.916,5.19-2.353,7.4l-1.317,2.412h3.789v1.48h-5.713L274.311,65.88z"/>
<path fill="#58595B" d="M282.465,64.119V55.09c-0.001-0.408,0.082-0.812,0.245-1.187c0.162-0.375,0.399-0.711,0.699-0.989
	c0.299-0.278,0.651-0.491,1.036-0.626c0.386-0.135,0.795-0.189,1.201-0.158c0.398-0.042,0.799,0,1.179,0.126
	c0.38,0.125,0.728,0.33,1.022,0.6c0.293,0.271,0.526,0.6,0.684,0.968c0.156,0.367,0.232,0.764,0.225,1.163v9.117
	c-0.055,0.797-0.41,1.543-0.994,2.089c-0.584,0.545-1.353,0.849-2.152,0.849c-0.797,0-1.566-0.304-2.15-0.849
	c-0.584-0.546-0.939-1.292-0.994-2.089V64.119z M287.143,64.119v-9.088c0-0.393-0.156-0.77-0.434-1.047
	c-0.277-0.278-0.654-0.434-1.047-0.434s-0.77,0.156-1.046,0.434c-0.278,0.277-0.435,0.654-0.435,1.047v9.191
	c0,0.393,0.156,0.769,0.435,1.046c0.276,0.278,0.653,0.434,1.046,0.434c0.197,0,0.395-0.04,0.577-0.116
	c0.183-0.078,0.348-0.19,0.485-0.333c0.139-0.142,0.246-0.311,0.318-0.495c0.071-0.185,0.105-0.382,0.1-0.58V64.119z"/>
<path fill="#58595B" d="M291.346,65.88l2.072-3.729c1.137-1.856,1.788-3.969,1.895-6.143v-0.341c0-1.154-0.34-2.102-1.303-2.102
	c-0.962,0-1.258,0.77-1.258,1.613v0.873h-1.48v-0.755c-0.051-0.396-0.017-0.801,0.104-1.183c0.12-0.382,0.32-0.734,0.59-1.031
	c0.268-0.297,0.598-0.532,0.967-0.689c0.368-0.157,0.768-0.232,1.168-0.22c1.894,0,2.812,1.288,2.812,3.553
	c-0.106,2.631-0.915,5.186-2.339,7.4l-1.332,2.412h3.804v1.48h-5.713L291.346,65.88z"/>
<path fill="#58595B" d="M300.566,54.098l-1.154,0.34l-0.191-1.199l1.997-0.858h0.947v14.549h-1.599V54.098z"/>
<path fill="#2B296A" d="M85.003,35.404c2.263-2.53,5.295-4.246,8.629-4.884c0.093-0.262,0.143-0.537,0.148-0.814
	c0-0.992,0-1.998,0-2.96c-0.021-1.921,0.627-3.79,1.835-5.284c4.707-5.284,18.487-3.035,19.538-2.872l0.311,0.089l-2.516,7.4
	l-1.199-0.207c-1.206-0.224-2.431-0.323-3.656-0.296c-0.377,0.005-0.753,0.039-1.125,0.104c-0.525,0.065-1.012,0.307-1.381,0.687
	s-0.597,0.874-0.647,1.4c-0.074,0.554-0.103,1.113-0.089,1.672c-0.015,0.227-0.015,0.454,0,0.681
	c-0.016,0.096-0.01,0.194,0.018,0.287c0.027,0.093,0.076,0.179,0.142,0.25c0.065,0.071,0.146,0.126,0.237,0.162
	c0.09,0.035,0.188,0.049,0.284,0.041h0.622h3.123c0.474,0,0.651,0.281,0.459,0.696l-2.487,5.713
	c-0.028,0.127-0.081,0.247-0.156,0.354c-0.075,0.106-0.17,0.196-0.28,0.265c-0.111,0.069-0.234,0.115-0.362,0.136
	c-0.128,0.021-0.26,0.016-0.386-0.015c-0.133-0.015-0.267-0.015-0.4,0c-0.121-0.007-0.243,0.012-0.357,0.057
	c-0.113,0.045-0.215,0.115-0.299,0.204c-0.083,0.089-0.146,0.195-0.183,0.312c-0.038,0.116-0.049,0.239-0.034,0.36v19.345
	c0,0.296,0,0.592,0,0.888c0.008,0.112-0.01,0.225-0.051,0.329c-0.041,0.105-0.105,0.199-0.188,0.275
	c-0.082,0.076-0.18,0.134-0.287,0.168c-0.108,0.033-0.221,0.043-0.332,0.027h-8.881c-0.171,0.017-0.344-0.003-0.506-0.059
	c-0.163-0.055-0.312-0.145-0.436-0.263c-0.125-0.118-0.223-0.261-0.288-0.421c-0.064-0.158-0.094-0.33-0.087-0.502V38.483
	c0-0.592-0.222-0.844-0.814-0.74c-0.686,0.123-1.359,0.306-2.013,0.547c-1.49,0.464-2.846,1.282-3.952,2.383
	c-0.471,0.457-0.845,1.005-1.099,1.61s-0.384,1.255-0.381,1.912c0,4.811,0,9.606,0,14.401c0.024,0.178,0.007,0.357-0.05,0.527
	c-0.057,0.17-0.151,0.324-0.277,0.451c-0.126,0.128-0.279,0.225-0.448,0.283s-0.35,0.078-0.527,0.056h-8.585
	c-0.334,0.012-0.662-0.091-0.931-0.29c-0.269-0.198-0.462-0.482-0.549-0.805c-0.015-0.193-0.015-0.386,0-0.578V31.216
	c0.007-0.133,0.007-0.267,0-0.4c-0.031-0.23,0.027-0.464,0.161-0.653c0.135-0.19,0.336-0.321,0.564-0.368
	c0.24-0.072,0.49-0.107,0.74-0.104h8.066c0.167-0.021,0.336-0.005,0.495,0.049c0.159,0.054,0.303,0.144,0.422,0.262
	c0.119,0.119,0.209,0.263,0.263,0.422c0.054,0.159,0.071,0.328,0.049,0.495c0,1.199,0,2.398,0,3.612
	C84.801,34.829,84.849,35.141,85.003,35.404L85.003,35.404z"/>
<path fill="#2B296A" d="M26.095,34.694c0.133-0.178,0.296-0.34,0.429-0.533c1.515-2.404,3.902-4.128,6.66-4.811
	c2.833-0.784,5.854-0.504,8.496,0.785c1.718,0.812,3.174,2.088,4.204,3.686c0.518,0.91,0.84,1.918,0.947,2.96
	c0.219,1.544,0.298,3.104,0.237,4.663c0,5.772,0,11.56,0,17.332c0,0.267,0,0.548,0,0.814c0,0.266-0.104,0.473-0.489,0.473h-9.813
	c-0.115,0.01-0.23-0.007-0.339-0.047c-0.108-0.04-0.207-0.103-0.288-0.185c-0.082-0.081-0.145-0.18-0.185-0.288
	c-0.04-0.107-0.056-0.224-0.047-0.338v-4.264c0-4.44,0-8.984-0.104-13.483c-0.025-0.963-0.389-1.886-1.028-2.606
	s-1.512-1.192-2.465-1.331c-1.173-0.201-2.38-0.022-3.445,0.511c-1.065,0.532-1.932,1.39-2.476,2.449
	c-0.09,0.185-0.141,0.387-0.148,0.592c0.133,5.55,0.281,11.116,0.414,16.666c0,0.532,0,1.051,0,1.584
	c0,0.532-0.207,0.695-0.725,0.695H15.733c-0.385,0-0.518-0.133-0.533-0.519V30.401c0-0.563,0.133-0.695,0.696-0.695h9.266
	c0.592,0,0.71,0.118,0.725,0.71c0,1.406,0,2.827,0,4.233L26.095,34.694z"/>
<path fill="#2B296A" d="M52.973,63.645V31.216c0-0.208,0-0.4,0-0.592c-0.006-0.115,0.011-0.229,0.049-0.338
	c0.039-0.108,0.098-0.208,0.175-0.293c0.077-0.085,0.17-0.154,0.274-0.204s0.216-0.078,0.331-0.083h13.439
	c0.253,0.003,0.504,0.053,0.74,0.148c0.173,0.076,0.321,0.2,0.425,0.357c0.105,0.158,0.163,0.341,0.167,0.531v33.006l-0.207-0.295
	c-1.664-2.568-3.473-5.039-5.417-7.401c-0.563-0.666-1.213-1.288-1.835-1.924c-0.21-0.187-0.433-0.36-0.666-0.518
	C57.407,56.508,54.879,59.901,52.973,63.645L52.973,63.645z"/>
<path fill="#B83D4B" d="M15.023,71.785v-5.461c0.873-0.237,1.717-0.488,2.575-0.695c3.067-0.758,6.183-1.303,9.325-1.629
	c3.862-0.43,7.752-0.548,11.634-0.355c7.156,0.339,14.198,1.922,20.81,4.678c0.053,0.021,0.111,0.021,0.163,0
	c14.597-5.502,30.588-6.105,45.558-1.717v4.958h-0.177c-8.486-2.257-17.241-3.337-26.021-3.212
	c-5.069,0.063-10.11,0.754-15.008,2.058c-1.288,0.354-2.546,0.813-3.819,1.214c-0.161,0.036-0.328,0.036-0.488,0
	c-3.72-0.982-7.49-1.769-11.293-2.354c-4.71-0.748-9.469-1.145-14.239-1.184c-4.362-0.064-8.715,0.434-12.951,1.479
	c-2.05,0.506-4.036,1.24-5.92,2.19L15.023,71.785z"/>
<path fill="#B83D4B" d="M51.922,11.693c0.104-0.043,0.214-0.073,0.326-0.089h1.243c0.183,0.015,0.366,0.015,0.548,0
	c0.105-0.002,0.207-0.036,0.293-0.097c0.086-0.061,0.152-0.146,0.19-0.244s0.046-0.205,0.023-0.308
	c-0.023-0.103-0.076-0.196-0.152-0.269c-0.189-0.206-0.397-0.395-0.622-0.563c-0.07-0.091-0.13-0.191-0.177-0.296V9.739h0.34
	l1.48,0.385c0.141,0.068,0.3,0.084,0.452,0.047c0.151-0.038,0.285-0.128,0.377-0.254c0.078-0.094,0.121-0.211,0.121-0.333
	c0-0.122-0.043-0.24-0.121-0.333l-0.637-0.814c0.148-0.296,0.267-0.326,0.474-0.148c0.443,0.337,0.945,0.588,1.48,0.74
	c0.101,0.068,0.219,0.104,0.341,0.104c0.121,0,0.24-0.037,0.34-0.104c0.095-0.096,0.157-0.219,0.175-0.353
	c0.019-0.133-0.006-0.269-0.072-0.387c-0.104-0.266-0.222-0.518-0.34-0.785V7.416c0.118,0,0.251,0,0.325,0.104l1.051,0.873
	c0.12,0.115,0.254,0.214,0.399,0.296c0.115,0.061,0.245,0.087,0.374,0.074s0.251-0.065,0.352-0.148
	c0.207-0.148,0.177-0.37,0.133-0.592c-0.074-0.202-0.128-0.41-0.163-0.622c0-0.089,0.089-0.192,0.148-0.311
	c0.31,0.239,0.559,0.548,0.725,0.903c0.128,0.229,0.287,0.438,0.474,0.622c0.4,0.355,0.829,0.192,0.918-0.355
	c0.015-0.177,0.015-0.355,0-0.533c0-0.104,0-0.207,0-0.296c0.281,0,0.458,0.222,0.547,0.518s0.281,0.844,0.43,1.258
	c0.036,0.115,0.11,0.213,0.209,0.28c0.099,0.067,0.218,0.099,0.338,0.09c0.267,0,0.355-0.207,0.444-0.414l0.415-0.726
	c0.074-0.133,0.148-0.266,0.326-0.207s0.163,0.222,0.104,0.355c-0.104,0.398-0.104,0.816,0,1.214l0.089,0.563
	c0,0.207,0.104,0.399,0.311,0.458c0.106,0.044,0.223,0.053,0.334,0.026s0.212-0.087,0.287-0.174c0.163-0.178,0.281-0.4,0.429-0.592
	l0.222-0.296l0.267,0.133c0.008,0.093,0.008,0.188,0,0.281c-0.104,0.503-0.207,1.021-0.296,1.48
	c-0.042,0.112-0.046,0.236-0.011,0.351c0.035,0.115,0.106,0.215,0.204,0.286c0.104,0.073,0.228,0.111,0.355,0.111
	c0.127,0,0.251-0.039,0.355-0.111c0.222-0.148,0.429-0.311,0.636-0.474h0.119c0.207,0.119,0.281,0.311,0.104,0.474
	c-0.333,0.446-0.583,0.947-0.74,1.48c-0.052,0.092-0.071,0.199-0.055,0.304c0.016,0.104,0.067,0.201,0.144,0.273
	c0.073,0.075,0.168,0.126,0.272,0.145s0.21,0.004,0.306-0.041c0.222-0.089,0.414-0.222,0.636-0.326
	c0.092-0.047,0.193-0.072,0.296-0.074c0.037,0.009,0.072,0.025,0.103,0.048c0.031,0.023,0.056,0.052,0.075,0.085
	c0.002,0.097-0.029,0.191-0.089,0.267l-1.14,1.243c-0.067,0.073-0.126,0.152-0.178,0.237c-0.207,0.444,0,0.799,0.489,0.77
	c0.269-0.029,0.536-0.073,0.799-0.133c0.178,0,0.311,0,0.355,0.237c-0.062,0.067-0.131,0.126-0.207,0.177
	c-0.4,0.252-0.814,0.518-1.229,0.755c-0.106,0.053-0.193,0.136-0.251,0.239c-0.058,0.103-0.084,0.221-0.074,0.339
	c0.002,0.112,0.042,0.22,0.111,0.308c0.069,0.088,0.166,0.151,0.274,0.18l0.814,0.251c0.178,0,0.267,0.104,0.207,0.296
	c-0.059,0.192,0,0-0.088,0c-0.592,0.178-1.199,0.326-1.776,0.533c-0.074,0.045-0.137,0.105-0.186,0.177
	c-0.048,0.071-0.081,0.152-0.096,0.238c-0.025,0.131-0.005,0.267,0.057,0.385c0.062,0.118,0.162,0.212,0.283,0.266
	c0.199,0.063,0.392,0.143,0.577,0.237c0.089,0,0.148,0.178,0.208,0.267v0.133l-1.48,0.088c-0.148,0-0.296,0-0.459,0
	s-0.385,0-0.459,0.267c-0.052,0.102-0.068,0.219-0.047,0.331c0.021,0.112,0.08,0.215,0.166,0.291
	c0.148,0.163,0.355,0.281,0.503,0.444c0.148,0.163,0.281,0.237,0.104,0.474l-1.362-0.252h-0.518c-0.1-0.017-0.203-0.004-0.296,0.038
	c-0.092,0.042-0.17,0.112-0.222,0.199c-0.055,0.106-0.077,0.226-0.063,0.344s0.061,0.23,0.137,0.322
	c0.163,0.222,0.37,0.444,0.548,0.666c0.178,0.222,0.163,0.237,0,0.4l-1.48-0.71c-0.206-0.107-0.425-0.187-0.651-0.237
	c-0.108-0.021-0.22-0.007-0.319,0.041c-0.099,0.048-0.179,0.127-0.229,0.225c-0.058,0.083-0.089,0.181-0.089,0.281
	c0,0.101,0.031,0.199,0.089,0.281c0.097,0.163,0.186,0.331,0.266,0.503c0.089,0.192,0,0.34-0.237,0.4
	c-0.098-0.058-0.192-0.122-0.281-0.193c-0.267-0.237-0.518-0.488-0.784-0.71c-0.13-0.125-0.274-0.234-0.429-0.325
	c-0.082-0.05-0.176-0.076-0.272-0.075s-0.189,0.028-0.271,0.078c-0.081,0.051-0.147,0.123-0.189,0.208
	c-0.043,0.085-0.061,0.182-0.053,0.277c0,0.296,0.089,0.592,0.104,0.888c0.015,0.296,0,0.34-0.251,0.296
	c-0.34-0.503-0.637-1.021-0.992-1.48c-0.124-0.168-0.293-0.297-0.488-0.37c-0.355-0.089-0.503,0-0.548,0.429
	c-0.002,0.334-0.117,0.657-0.326,0.917c-0.163,0-0.222,0-0.281-0.192c-0.143-0.503-0.316-0.998-0.518-1.48
	c-0.052-0.089-0.127-0.163-0.216-0.214s-0.191-0.078-0.294-0.078c-0.103,0-0.205,0.027-0.294,0.078
	c-0.09,0.051-0.164,0.125-0.216,0.214c-0.089,0.163-0.119,0.355-0.222,0.518c-0.104,0.163-0.192,0.163-0.296,0.251
	c-0.104,0.089-0.192-0.222-0.208-0.34c0-0.548,0-1.081-0.104-1.628c0.005-0.115-0.029-0.229-0.096-0.323
	c-0.067-0.094-0.163-0.163-0.274-0.195c-0.108-0.018-0.219-0.003-0.319,0.042c-0.1,0.045-0.185,0.118-0.244,0.21
	c-0.156,0.197-0.324,0.385-0.503,0.563c-0.092,0.068-0.198,0.113-0.311,0.133l0,0c-0.008-0.094-0.008-0.188,0-0.281
	c0.214-0.583,0.32-1.2,0.311-1.821c0.018-0.109-0.005-0.222-0.065-0.315c-0.06-0.093-0.153-0.16-0.26-0.188
	c-0.106-0.042-0.224-0.047-0.333-0.015c-0.11,0.032-0.206,0.1-0.273,0.192c-0.134,0.144-0.283,0.273-0.444,0.385
	c-0.118,0.022-0.238,0.022-0.355,0l-0.089-0.089c0.089-0.237,0.178-0.489,0.281-0.71c0.104-0.222,0.326-0.503,0.444-0.77
	c0.086-0.115,0.133-0.255,0.133-0.399s-0.046-0.284-0.133-0.399c-0.124-0.086-0.271-0.132-0.422-0.132
	c-0.151,0-0.298,0.046-0.422,0.132c-0.178,0-0.34,0.177-0.503,0.251l-0.266,0.118h-0.089c0-0.118,0-0.266,0.074-0.34
	c0.253-0.317,0.53-0.614,0.829-0.888c0.238-0.212,0.408-0.49,0.488-0.799c0-0.296,0-0.488-0.37-0.503s-0.592,0-0.888,0
	c-0.109-0.014-0.214-0.049-0.311-0.104c0-0.104,0-0.252,0.133-0.311s0.622-0.415,0.917-0.636c0.207-0.158,0.387-0.348,0.533-0.563
	c0.237-0.37,0-0.681-0.37-0.74c-0.192,0-0.399,0-0.592,0h-0.355c0-0.148,0.088-0.281,0.163-0.326s0.592-0.251,0.888-0.385
	c0.346-0.129,0.682-0.282,1.006-0.459c0.071-0.038,0.131-0.094,0.172-0.163c0.042-0.069,0.063-0.148,0.063-0.229
	s-0.022-0.16-0.063-0.229c-0.042-0.069-0.101-0.126-0.172-0.164c-0.178-0.089-0.37-0.119-0.533-0.208l-0.799-0.577L51.922,11.693z"
	/>
<path fill="#B83D4B" d="M59.826,74.864c0.858-0.281,1.688-0.577,2.516-0.829c3.542-1.078,7.165-1.865,10.834-2.354
	c4.686-0.657,9.424-0.87,14.15-0.637c5.909,0.289,11.763,1.283,17.437,2.961h0.207l-0.074,0.236l-2.768-0.666
	c-7.247-1.854-14.73-2.611-22.202-2.25c-6.024,0.265-11.991,1.283-17.761,3.035c-0.592,0.178-1.169,0.385-1.747,0.592
	c-0.167,0.061-0.318,0.156-0.444,0.281c-0.11-0.023-0.219-0.053-0.326-0.089c-3.871-1.483-7.89-2.546-11.989-3.167
	c-4.847-0.742-9.756-0.99-14.653-0.74c-4.985,0.229-9.939,0.907-14.801,2.027l-1.48,0.37l-1.48,0.399l-0.089-0.222h0.119
	c1.747-0.415,3.478-0.874,5.225-1.243c2.728-0.569,5.485-0.984,8.259-1.244c3.92-0.378,7.862-0.472,11.796-0.281
	c5.317,0.217,10.587,1.092,15.689,2.605C57.429,74.006,58.627,74.465,59.826,74.864z"/>
<path fill="#231F20" d="M21.654,80.666v1.273H20.1v-1.348c0-1.332-0.533-2.131-1.732-2.131s-1.717,0.799-1.717,2.131v7.771
	c0,1.332,0.547,2.131,1.717,2.131s1.732-0.799,1.732-2.131v-2.961h-1.48v-1.48h3.079v4.338c0,2.22-1.051,3.699-3.331,3.699
	s-3.301-1.479-3.301-3.699v-7.594c0-2.22,1.051-3.7,3.301-3.7S21.654,78.446,21.654,80.666z"/>
<path fill="#231F20" d="M23.416,80.666c0-2.25,1.11-3.7,3.36-3.7c2.25,0,3.389,1.48,3.389,3.7v7.623
	c0.069,0.475,0.031,0.959-0.11,1.418c-0.141,0.459-0.383,0.881-0.708,1.235c-0.324,0.354-0.723,0.632-1.168,0.813
	s-0.924,0.261-1.403,0.234c-2.25,0-3.36-1.48-3.36-3.7V80.666z M25.029,88.363c0,1.347,0.577,2.131,1.747,2.131
	s1.747-0.784,1.747-2.131v-7.771c0-1.332-0.548-2.131-1.747-2.131c-1.199,0-1.747,0.799-1.747,2.131V88.363z"/>
<path fill="#231F20" d="M33.273,77.114l2.398,12.803l2.368-12.803h1.48l-2.753,14.728h-2.383l-2.768-14.728H33.273z"/>
<path fill="#231F20" d="M43.279,91.842V78.609H40.57v-1.48h7.045v1.48h-2.723v13.232H43.279z"/>
<path fill="#231F20" d="M47.882,89.65v2.191h-1.169V89.65H47.882z"/>
<path fill="#231F20" d="M54.853,80.666c0-2.25,1.125-3.7,3.375-3.7c2.25,0,3.375,1.48,3.375,3.7v7.623c0,2.22-1.11,3.7-3.375,3.7
	c-0.478,0.024-0.956-0.058-1.398-0.239s-0.84-0.46-1.163-0.814c-0.323-0.354-0.563-0.773-0.704-1.232
	c-0.141-0.457-0.178-0.94-0.11-1.414V80.666z M56.481,88.363c0,1.347,0.562,2.131,1.746,2.131s1.747-0.784,1.747-2.131v-7.771
	c0-1.332-0.547-2.131-1.747-2.131c-1.199,0-1.746,0.799-1.746,2.131V88.363z"/>
<path fill="#231F20" d="M68.515,83.967v1.48h-3.39v6.379h-1.628V77.114h5.92v1.479h-4.292v5.358L68.515,83.967z"/>
<path fill="#231F20" d="M76.211,77.114v14.728h-1.643V77.114H76.211z"/>
<path fill="#231F20" d="M79.675,91.842h-1.48V77.114h2.087l3.404,10.642V77.114h1.48v14.728h-1.717L79.675,80V91.842z"/>
<path fill="#231F20" d="M90.613,77.114c2.294,0,3.345,1.392,3.345,3.655v7.4c0,2.25-1.051,3.642-3.345,3.642h-3.449V77.114H90.613z
	 M90.613,90.346c1.184,0,1.747-0.739,1.747-2.086v-7.564c0-1.346-0.563-2.086-1.762-2.086h-1.791v11.678L90.613,90.346z"/>
<path fill="#231F20" d="M97.466,77.114v14.728h-1.643V77.114H97.466z"/>
<path fill="#231F20" d="M101.136,88.807l-0.562,2.961h-1.48l2.812-14.728h2.383l2.812,14.728h-1.672l-0.563-2.961H101.136z
	 M101.343,87.4h3.286l-1.657-8.496L101.343,87.4z"/>
<path fill="#58595B" d="M122.924,29.691h-1.066v62.298h1.066V29.691z"/>
</svg>
