<?xml version="1.0" encoding="utf-8"?>
<!-- Generator: Adobe Illustrator 16.0.0, SVG Export Plug-In . SVG Version: 6.00 Build 0)  -->
<!DOCTYPE svg PUBLIC "-//W3C//DTD SVG 1.1//EN" "http://www.w3.org/Graphics/SVG/1.1/DTD/svg11.dtd">
<svg version="1.1" id="Layer_1" xmlns="http://www.w3.org/2000/svg" xmlns:xlink="http://www.w3.org/1999/xlink" x="0px" y="0px"
	 width="366px" height="87px" viewBox="0 0 366 87" enable-background="new 0 0 366 87" xml:space="preserve">
<path fill="#ED1C24" d="M67.984,8.692c6.212,0.005,12.283,1.852,17.446,5.306c5.163,3.454,9.186,8.363,11.559,14.103
	c2.373,5.741,2.991,12.057,1.775,18.149c-1.216,6.092-4.211,11.686-8.606,16.074c-4.396,4.391-9.994,7.377-16.088,8.586
	c-6.093,1.209-12.408,0.582-18.146-1.799c-5.738-2.381-10.641-6.41-14.089-11.578c-3.448-5.166-5.286-11.24-5.282-17.452
	c0.016-8.327,3.334-16.308,9.226-22.192C51.672,12.006,59.657,8.698,67.984,8.692"/>
<path fill="#231F20" d="M88.773,66.18v-0.125l-0.144-0.018l-0.697,0.553l-0.369,0.266l-0.82,0.596l-0.369,0.328
	c0.191,0.273,0.362,0.563,0.513,0.859l0.205-0.143l-0.246-0.574c0.19-0.229,0.411-0.426,0.656-0.594
	c0.132-0.119,0.276-0.221,0.431-0.309c0.225,0.246,0.389,0.492,0.553,0.697l0.8,1.086c0.328,0.432,0.534,0.74,0.534,0.74
	c0.007,0.033,0.007,0.068,0,0.102l-0.329,0.328l0.144,0.186l0.676-0.535l0.799-0.572l-0.143-0.186l-0.348,0.205
	c-0.121-0.1-0.225-0.217-0.308-0.348c-0.246-0.289-0.41-0.533-0.738-0.965c-0.328-0.43-0.636-0.861-0.922-1.271
	C88.682,66.381,88.723,66.279,88.773,66.18z"/>
<path fill="none" stroke="#ED1C24" stroke-miterlimit="2.61" d="M68.702,84.303c7.483,1.23,22.122-3.178,30.035-1.701
	c-5.822-0.205-8.201,0-7.934,1.395c0.594,2.48,5.289,2.748,10.251,0.902c2.179-1.01,4.634-1.256,6.97-0.697
	c1.661,0.512,3.567,1.086,4.593,0.102c1.025-0.984,0.738-2.049-0.471-1.414c-0.779,0.369-1.641,0.963-2.235,0
	c-1.62-1.537-4.675-1.619-8.201-1.313c2.05-1.395,5.125-1.578,8.96-1.887c3.833-0.307,4.859-2.807,0.123-3.279
	c-0.328,0.287,1.64,0.943,1.354,1.865c-0.821,0.514-2.378,0-3.486-0.348c-1.323-0.557-2.76-0.779-4.189-0.654
	s-2.806,0.594-4.012,1.371c0.165-1.064,0.308-2.049,0.472-3.178c-7.504-1.846-24.602,1.6-32.435,1.764
	c-7.852-0.164-24.931-3.609-32.434-1.764c0.164,1.047,0.308,2.051,0.472,3.178c-1.207-0.777-2.583-1.246-4.012-1.371
	s-2.867,0.098-4.189,0.654c-1.106,0.328-2.665,0.861-3.485,0.348c-0.287-0.922,1.681-1.578,1.353-1.865
	c-4.736,0.473-3.751,2.994,0.124,3.279c3.875,0.289,6.95,0.492,8.959,1.887c-3.465-0.307-6.52-0.225-8.201,1.313
	c-0.595,1.066-1.456,0.471-2.235,0c-1.21-0.574-1.784,0.186-0.472,1.414c1.313,1.23,2.932,0.41,4.593-0.102
	c2.336-0.559,4.791-0.313,6.971,0.697c5.043,1.846,9.738,1.578,10.25-0.902c0.329-1.332-2.05-1.6-7.934-1.395
	C46.58,81.125,61.218,85.533,68.702,84.303z"/>
<path fill="none" stroke="#ED1C24" stroke-width="0.3" stroke-miterlimit="2.61" d="M101.176,75.795l-3.567-0.145"/>
<path fill="none" stroke="#ED1C24" stroke-width="0.3" stroke-miterlimit="2.61" d="M101.054,76.266l-2.953-0.143"/>
<path fill="none" stroke="#ED1C24" stroke-width="0.3" stroke-miterlimit="2.61" d="M100.951,76.738l-2.439-0.123"/>
<path fill="none" stroke="#ED1C24" stroke-width="0.3" stroke-miterlimit="2.61" d="M100.828,77.23l-3.075-0.143"/>
<path fill="none" stroke="#ED1C24" stroke-width="0.3" stroke-miterlimit="2.61" d="M100.705,77.703l-2.748-0.123"/>
<path fill="none" stroke="#ED1C24" stroke-width="0.3" stroke-miterlimit="2.61" d="M100.603,78.193l-2.439-0.143"/>
<path fill="none" stroke="#ED1C24" stroke-width="0.3" stroke-miterlimit="2.61" d="M100.438,78.604l3.628-0.123"/>
<path fill="none" stroke="#ED1C24" stroke-width="0.3" stroke-miterlimit="2.61" d="M100.336,79.096l3.014-0.143"/>
<path fill="none" stroke="#ED1C24" stroke-width="0.3" stroke-miterlimit="2.61" d="M100.213,79.568l4.879-0.123"/>
<path fill="none" stroke="#ED1C24" stroke-width="0.3" stroke-miterlimit="2.61" d="M100.11,80.059l3.137-0.143"/>
<path fill="none" stroke="#ED1C24" stroke-width="0.3" stroke-miterlimit="2.61" d="M100.008,80.533l2.809-0.125"/>
<path fill="none" stroke="#ED1C24" stroke-width="0.3" stroke-miterlimit="2.61" d="M99.905,81.023l2.481-0.143"/>
<path fill="none" stroke="#ED1C24" stroke-width="0.3" stroke-miterlimit="2.61" d="M99.536,81.535l3.158-0.143"/>
<path fill="none" stroke="#ED1C24" stroke-width="0.3" stroke-miterlimit="2.61" d="M99.434,82.008l2.604-0.123"/>
<path fill="none" stroke="#ED1C24" stroke-width="0.3" stroke-miterlimit="2.61" d="M98.675,82.377l2.604-0.021"/>
<path fill="none" stroke="#ED1C24" stroke-width="0.3" stroke-miterlimit="2.61" d="M98.491,82.889l3.547-0.041"/>
<path fill="none" stroke="#ED1C24" stroke-width="0.3" stroke-miterlimit="2.61" d="M90.905,83.463l10.579-0.145"/>
<path fill="none" stroke="#ED1C24" stroke-miterlimit="2.61" d="M67.963,0.062c8.92-0.025,17.593,2.934,24.639,8.406
	c7.046,5.47,12.061,13.139,14.248,21.788c2.188,8.648,1.42,17.778-2.178,25.942c-3.599,8.162-9.823,14.887-17.683,19.105
	c-6.807,0.635-13.962,1.723-18.288,1.824c-4.716-0.102-12.732-1.373-20.031-2.051c-7.778-4.281-13.912-11.027-17.435-19.178
	s-4.235-17.24-2.026-25.838c2.21-8.6,7.217-16.221,14.232-21.662C50.458,2.956,59.084,0.002,67.963,0V0.062z"/>
<path fill="#ED1C24" d="M71.551,77.436c1.959-1.521,4.417-2.252,6.889-2.051l-0.554-0.615c1.477-0.572,2.419-1.311,2.051-2.439
	c-1.192,0.666-2.5,1.098-3.854,1.271c0-0.348,0-0.697,0-1.066c-2.258,1.111-4.197,2.775-5.638,4.838h1.066"/>
<path fill="#ED1C24" d="M69.583,72.371c0.22,0.211,0.396,0.463,0.515,0.744c0.12,0.279,0.182,0.582,0.182,0.887
	s-0.062,0.605-0.182,0.885c-0.119,0.281-0.294,0.535-0.515,0.744l0,0c-0.221-0.209-0.396-0.463-0.515-0.744
	c-0.12-0.279-0.181-0.58-0.181-0.885s0.061-0.607,0.181-0.887C69.187,72.834,69.362,72.582,69.583,72.371z M69.87,77.457
	c0.298-1.299,0.935-2.496,1.845-3.467c0.677-0.676,0.902-1.537,0.205-1.926c-0.267,0.326-0.513,0.676-0.758,1.004
	c-0.194-1.037-0.754-1.967-1.579-2.625c-0.825,0.652-1.38,1.588-1.558,2.625l-0.779-1.004c-0.697,0.389-0.472,1.25,0.205,1.926
	c0.911,0.971,1.547,2.168,1.845,3.467h0.287H69.87z"/>
<path fill="#ED1C24" d="M67.041,77.436c-1.956-1.529-4.416-2.26-6.889-2.051l0.554-0.615c-1.476-0.572-2.399-1.311-2.05-2.439
	c1.193,0.662,2.501,1.096,3.854,1.271v-1.066c2.252,1.111,4.185,2.775,5.617,4.838h-1.066"/>
<path fill="none" stroke="#ED1C24" stroke-width="0.3" stroke-miterlimit="2.61" d="M90.905,84.037l9.943-0.143"/>
<path fill="none" stroke="#ED1C24" stroke-width="0.3" stroke-miterlimit="2.61" d="M90.782,84.611l9.431-0.145"/>
<path fill="none" stroke="#ED1C24" stroke-width="0.3" stroke-miterlimit="2.61" d="M91.684,85.186l7.873-0.123"/>
<path fill="none" stroke="#ED1C24" stroke-width="0.3" stroke-miterlimit="2.61" d="M36.021,75.795l3.568-0.145"/>
<path fill="none" stroke="#ED1C24" stroke-width="0.3" stroke-miterlimit="2.61" d="M36.144,76.266l2.953-0.143"/>
<path fill="none" stroke="#ED1C24" stroke-width="0.3" stroke-miterlimit="2.61" d="M36.247,76.738l2.439-0.123"/>
<path fill="none" stroke="#ED1C24" stroke-width="0.3" stroke-miterlimit="2.61" d="M36.37,77.23l3.075-0.143"/>
<path fill="none" stroke="#ED1C24" stroke-width="0.3" stroke-miterlimit="2.61" d="M36.493,77.703l2.747-0.123"/>
<path fill="none" stroke="#ED1C24" stroke-width="0.3" stroke-miterlimit="2.61" d="M36.595,78.193l2.44-0.143"/>
<path fill="none" stroke="#ED1C24" stroke-width="0.3" stroke-miterlimit="2.61" d="M36.759,78.604L33.13,78.48"/>
<path fill="none" stroke="#ED1C24" stroke-width="0.3" stroke-miterlimit="2.61" d="M36.862,79.096l-3.014-0.143"/>
<path fill="none" stroke="#ED1C24" stroke-width="0.3" stroke-miterlimit="2.61" d="M36.985,79.568l-4.879-0.123"/>
<path fill="none" stroke="#ED1C24" stroke-width="0.3" stroke-miterlimit="2.61" d="M37.087,80.059l-3.137-0.143"/>
<path fill="none" stroke="#ED1C24" stroke-width="0.3" stroke-miterlimit="2.61" d="M37.19,80.533l-2.809-0.125"/>
<path fill="none" stroke="#ED1C24" stroke-width="0.3" stroke-miterlimit="2.61" d="M37.292,81.023l-2.48-0.143"/>
<path fill="none" stroke="#ED1C24" stroke-width="0.3" stroke-miterlimit="2.61" d="M37.661,81.535l-3.157-0.143"/>
<path fill="none" stroke="#ED1C24" stroke-width="0.3" stroke-miterlimit="2.61" d="M37.764,82.008l-2.604-0.123"/>
<path fill="none" stroke="#ED1C24" stroke-width="0.3" stroke-miterlimit="2.61" d="M38.522,82.377l-2.604-0.021"/>
<path fill="none" stroke="#ED1C24" stroke-width="0.3" stroke-miterlimit="2.61" d="M38.707,82.889l-3.547-0.041"/>
<path fill="none" stroke="#ED1C24" stroke-width="0.3" stroke-miterlimit="2.61" d="M46.292,83.463l-10.579-0.145"/>
<path fill="none" stroke="#ED1C24" stroke-width="0.3" stroke-miterlimit="2.61" d="M46.292,84.037l-9.943-0.143"/>
<path fill="none" stroke="#ED1C24" stroke-width="0.3" stroke-miterlimit="2.61" d="M46.416,84.611l-9.431-0.145"/>
<path fill="none" stroke="#ED1C24" stroke-width="0.3" stroke-miterlimit="2.61" d="M45.514,85.186l-7.873-0.123"/>
<path fill="#231F20" d="M55.457,81.393v0.307l0.861,0.227l0.902,0.205v-1.027h-0.247v0.146c0.042,0.139,0.042,0.289,0,0.43
	c-0.048,0.023-0.101,0.035-0.154,0.035c-0.053,0-0.106-0.012-0.153-0.035H56.4v-0.963h0.144h0.102c0.012,0.053,0.012,0.109,0,0.164
	v0.184h0.246v-1.086h-0.246v0.203v0.145h-0.102H56.4v-0.842h0.287c0.06,0.006,0.116,0.027,0.167,0.059
	c0.05,0.031,0.092,0.076,0.121,0.127c0.04,0.129,0.04,0.264,0,0.389v0.246h0.247v-0.922l-0.902-0.246l-0.697-0.164v0.328v0.125
	v1.863v0.104H55.457z"/>
<path fill="#231F20" d="M55.231,81.043c0.012-0.191,0.012-0.383,0-0.574l-0.286-0.02c0.042,0.223,0.042,0.453,0,0.676
	c-0.041,0.164-0.124,0.164-0.247,0.164l0,0c-0.067-0.008-0.13-0.039-0.179-0.088c-0.048-0.049-0.079-0.111-0.088-0.178
	c-0.006-0.117-0.006-0.234,0-0.35V80.08v-0.574V79.18c0.005-0.029,0.016-0.055,0.031-0.078c0.015-0.021,0.035-0.041,0.058-0.059
	c0.023-0.014,0.049-0.025,0.076-0.029c0.027-0.006,0.055-0.006,0.082,0c0.058,0.018,0.111,0.051,0.154,0.092
	c0.042,0.043,0.074,0.096,0.092,0.154c0.04,0.209,0.04,0.424,0,0.637h0.246v-1.086h-0.205v0.203
	c-0.026-0.088-0.074-0.166-0.138-0.23c-0.064-0.064-0.144-0.111-0.231-0.139c-0.111-0.027-0.229-0.014-0.331,0.041
	c-0.102,0.051-0.181,0.139-0.223,0.246c-0.061,0.152-0.102,0.311-0.123,0.473c-0.023,0.23-0.023,0.465,0,0.695
	c-0.013,0.213-0.013,0.426,0,0.635c0.014,0.152,0.055,0.297,0.123,0.432c0.055,0.109,0.136,0.205,0.236,0.277
	c0.1,0.07,0.216,0.117,0.337,0.133c0.093,0.039,0.197,0.041,0.292,0.006c0.094-0.033,0.173-0.104,0.222-0.189
	C55.181,81.281,55.216,81.164,55.231,81.043z"/>
<path fill="#231F20" d="M75.733,80.512c-0.081-0.199-0.142-0.406-0.185-0.615c0-0.186,0-0.391-0.164-0.596c-0.164-0.205,0,0,0,0
	h-0.123c-0.011-0.109-0.011-0.219,0-0.328h0.41h0.431c0,0,0,0.227,0,0.328c-0.01,0.125-0.01,0.246,0,0.369
	c-0.012,0.131-0.012,0.26,0,0.389l0,0l0.123-0.389c0.057-0.133,0.105-0.27,0.144-0.41h-0.144c-0.01-0.102-0.01-0.205,0-0.307h0.246
	h0.328c0.011,0.109,0.011,0.219,0,0.326h-0.144c0,0.205-0.143,0.412-0.226,0.637c-0.082,0.227-0.144,0.41-0.184,0.617v0.674
	c0,0,0,0.104,0,0.123h0.225v0.369H76h-0.472v-0.328v-0.676L75.733,80.512z M73.766,81.494c0-0.348,0-0.676,0-1.025
	c0-0.348,0-0.674,0-1.004c-0.053,0-0.105,0.014-0.151,0.039c-0.047,0.025-0.086,0.061-0.116,0.105
	c-0.057,0.158-0.091,0.322-0.103,0.49c0,0,0,0.123,0,0.166H73.17c0-0.186,0-0.369,0-0.555c0-0.184,0-0.389,0-0.574h0.8h0.8
	c0,0.186,0,0.369,0,0.555v0.574h-0.226c-0.01-0.049-0.01-0.096,0-0.145c0.027-0.162,0.027-0.328,0-0.492
	c-0.024-0.043-0.061-0.078-0.104-0.1c-0.043-0.021-0.093-0.029-0.142-0.023l0,0c0,0.348,0,0.676,0,1.006c0,0.326,0,0.676,0,1.023
	c-0.008,0.016-0.011,0.033-0.011,0.051c0,0.02,0.003,0.037,0.011,0.053h0.225v0.061h-0.492H73.52v-0.328h0.225
	c0.018,0.014,0.039,0.025,0.061,0.029c0.022,0.004,0.046,0.004,0.067-0.002c0.022-0.006,0.042-0.018,0.06-0.031
	c0.017-0.016,0.03-0.035,0.038-0.057L73.766,81.494z M72.392,81.494v-0.943c0-0.307,0-0.635,0-0.941v-0.125h-0.164
	c0.011-0.109,0.011-0.217,0-0.326h0.841c0.009,0.109,0.009,0.217,0,0.326l0,0v0.965v0.943c0,0,0,0.102,0,0.123h0.164v0.326h-0.43
	h-0.431v-0.326c0,0,0.226-0.063,0.226-0.123L72.392,81.494z M70.629,82.049v-0.35h0.164c0.002-0.035,0.002-0.068,0-0.102
	c0-0.328,0-0.637,0-0.943s0-0.637,0-0.963H70.69c-0.01-0.109-0.01-0.221,0-0.33h0.882c0.01,0.104,0.01,0.207,0,0.309h-0.185
	c-0.011,0.033-0.011,0.068,0,0.104c0,0.348,0,0.676,0,1.023v0.902h0.164c0.052,0.006,0.104-0.002,0.15-0.025
	c0.047-0.021,0.087-0.055,0.116-0.098c0.044-0.119,0.044-0.25,0-0.369v-0.246h0.226v1.047h-0.738L70.629,82.049z M69.809,81.658
	v-0.963c0-0.309,0-0.637,0-0.943v-0.123h0.102c0,0,0-0.203,0-0.307h0.41h0.431c0.011,0.109,0.011,0.219,0,0.326l0,0
	c0,0.309,0,0.637,0,0.943v0.965c0,0,0,0,0,0.102h0.144v0.33h-0.841v-0.289c0,0-0.041,0-0.041-0.143L69.809,81.658z M68.537,80.92
	v0.779h0.103c0.038,0.02,0.081,0.029,0.124,0.029c0.042,0,0.084-0.01,0.123-0.029c0.03-0.121,0.03-0.248,0-0.369
	c0.031-0.113,0.031-0.234,0-0.348c-0.042-0.021-0.087-0.033-0.134-0.033c-0.046,0-0.092,0.012-0.133,0.033L68.537,80.92z
	 M68.537,79.67c0,0.145,0,0.309,0,0.451c0,0.145,0,0.307,0,0.471c0.048,0.008,0.098-0.002,0.142-0.023
	c0.044-0.021,0.081-0.057,0.104-0.1c0.079-0.105,0.116-0.236,0.103-0.369c0.037-0.111,0.037-0.234,0-0.348
	c-0.037-0.023-0.079-0.037-0.123-0.037s-0.087,0.014-0.124,0.037L68.537,79.67z M68.271,81.699c0-0.328,0-0.635,0-0.965
	c0-0.326,0-0.635,0-0.939c0-0.311,0,0,0-0.125h-0.144c-0.009-0.109-0.009-0.219,0-0.328h0.82c0.094-0.016,0.19-0.01,0.282,0.016
	s0.177,0.068,0.251,0.127c0.063,0.072,0.11,0.156,0.135,0.25c0.024,0.092,0.027,0.189,0.008,0.283
	c-0.004,0.203-0.077,0.396-0.205,0.555l-0.287,0.162c0.113,0.006,0.222,0.051,0.308,0.125c0.067,0.068,0.118,0.154,0.15,0.244
	c0.032,0.094,0.043,0.191,0.034,0.289c0.017,0.205-0.041,0.408-0.165,0.574c-0.077,0.068-0.168,0.123-0.267,0.152
	c-0.099,0.033-0.203,0.043-0.306,0.031h-0.82v-0.451H68.271z M67.266,81.699c0-0.307,0-0.635,0-0.943c0-0.307,0-0.635,0-0.961
	h-0.144v-0.33h0.841v0.184h-0.164c0,0.309,0,0.637,0,0.943c0,0.309,0,0.637,0,0.965s0,0.102,0,0.102v0.33h-0.841V81.68
	c-0.003,0.037,0.01,0.074,0.035,0.104s0.06,0.047,0.099,0.049c0.038,0.002,0.076-0.008,0.104-0.033
	c0.029-0.025,0.047-0.061,0.049-0.1H67.266z M65.975,81.863c0.063,0.002,0.126-0.018,0.179-0.053c0.052-0.037,0.09-0.09,0.108-0.152
	c0.014-0.107,0.014-0.219,0-0.328c0.012-0.191,0.012-0.383,0-0.574c0-0.223,0-0.408,0-0.553c0.013-0.102,0.013-0.205,0-0.307
	c-0.005-0.033-0.017-0.066-0.034-0.092c-0.017-0.029-0.04-0.053-0.066-0.072c-0.027-0.02-0.058-0.033-0.089-0.039
	c-0.032-0.01-0.065-0.01-0.098-0.002c0,0.367,0,0.717,0,1.086V81.863z M65.482,81.699c0-0.307,0-0.596,0-0.902s0-0.615,0-0.922
	s0-0.145,0-0.164s0,0,0,0v-0.328h0.738c0.11-0.008,0.218,0.018,0.313,0.072c0.095,0.057,0.172,0.137,0.22,0.236
	c0.013,0.143,0.013,0.287,0,0.43c0.021,0.211,0.021,0.424,0,0.635l0,0c0.013,0.219,0.013,0.438,0,0.656
	c-0.014,0.156-0.055,0.311-0.123,0.451c-0.043,0.102-0.114,0.188-0.205,0.25c-0.091,0.063-0.198,0.096-0.307,0.098h-0.902v-0.326
	c0.027,0.027,0.063,0.047,0.102,0.051c0.039,0.004,0.078-0.008,0.111-0.029c0.032-0.023,0.055-0.057,0.064-0.094
	C65.503,81.775,65.5,81.734,65.482,81.699L65.482,81.699z M63.535,82.15v-0.328h0.165c0-0.307,0-0.635,0-0.941
	c0-0.309,0-0.637,0-0.945c0-0.307,0,0.002,0-0.121s0,0,0,0c-0.011-0.109-0.011-0.221,0-0.33h1.537c0.011,0.156,0.011,0.316,0,0.473
	c0.011,0.156,0.011,0.314,0,0.471h-0.225v-0.143c0.028-0.129,0.028-0.262,0-0.389c-0.038-0.037-0.083-0.066-0.133-0.082
	c-0.05-0.018-0.102-0.025-0.154-0.02h-0.288c0,0.141,0,0.285,0,0.428s0,0.289,0,0.432h0.144h0.103c0.015-0.055,0.015-0.111,0-0.164
	c-0.01-0.061-0.01-0.125,0-0.186h0.226c0,0.164,0,0.369,0,0.533v0.555h-0.226v-0.205c0.015-0.047,0.015-0.098,0-0.145l0,0H64.17
	v0.984h0.266c0.057,0.004,0.114-0.006,0.164-0.031c0.05-0.023,0.093-0.064,0.124-0.111c0.08-0.137,0.116-0.295,0.103-0.451v-0.145
	h0.225v1.047h-1.558L63.535,82.15z M62.243,80.592h0.123c0.046,0.004,0.093-0.002,0.136-0.02c0.043-0.02,0.081-0.047,0.11-0.082
	c0.073-0.111,0.109-0.238,0.103-0.369c0.035-0.121,0.035-0.25,0-0.369c-0.036-0.018-0.074-0.025-0.113-0.025
	c-0.039,0-0.078,0.008-0.113,0.025h-0.143c0,0.145,0,0.307,0,0.471C62.304,80.346,62.271,80.467,62.243,80.592L62.243,80.592z
	 M61.75,81.658c0-0.307,0-0.635,0-0.941c0-0.309,0-0.637,0-0.943c0-0.309,0-0.104,0-0.125h-0.143v-0.307h0.923
	c0.094-0.01,0.189,0,0.278,0.031c0.089,0.033,0.169,0.084,0.234,0.154c0.115,0.168,0.159,0.373,0.123,0.572
	c0.004,0.211-0.068,0.416-0.205,0.574c-0.095,0.074-0.208,0.127-0.328,0.145h0.144c0.069,0.057,0.126,0.129,0.165,0.209
	c0.039,0.082,0.06,0.172,0.061,0.262c0,0,0,0.184,0,0.287c-0.004,0.068-0.004,0.137,0,0.205l0,0v-0.287h0.185
	c0.041,0.162,0.041,0.33,0,0.494c-0.034,0.053-0.083,0.098-0.141,0.127c-0.058,0.029-0.122,0.041-0.188,0.035
	c-0.061,0.01-0.122,0.002-0.179-0.02s-0.109-0.057-0.148-0.104c-0.075-0.146-0.118-0.307-0.123-0.471v-0.268
	c0.029-0.107,0.029-0.221,0-0.328c0,0,0,0-0.164,0h-0.103v0.738h0.164v0.328h-0.84v-0.328h0.164c0.041,0.006,0.083,0.006,0.123,0
	V81.658z M61.362,80.92c0.012,0.184,0.012,0.369,0,0.553c-0.017,0.137-0.052,0.266-0.103,0.391
	c-0.043,0.092-0.114,0.166-0.202,0.215c-0.089,0.047-0.19,0.066-0.29,0.053c-0.113-0.004-0.223-0.033-0.32-0.092
	c-0.097-0.057-0.177-0.141-0.234-0.236c-0.07-0.135-0.112-0.281-0.123-0.432c-0.013-0.203-0.013-0.41,0-0.615
	c-0.024-0.23-0.024-0.465,0-0.697c0.046-0.143,0.108-0.279,0.185-0.41c0.043-0.105,0.117-0.197,0.211-0.262
	c0.095-0.066,0.207-0.104,0.322-0.107c0.083,0.008,0.162,0.039,0.227,0.09c0.066,0.051,0.115,0.119,0.143,0.199
	c0.008-0.076,0.008-0.15,0-0.227h0.185c0,0.186,0,0.369,0,0.555v0.531h-0.247c0.034-0.209,0.034-0.426,0-0.633
	c-0.014-0.055-0.043-0.102-0.083-0.137c-0.04-0.035-0.089-0.061-0.142-0.07c-0.059,0-0.116,0.02-0.161,0.057
	c-0.045,0.037-0.076,0.09-0.085,0.15c-0.007,0.107-0.007,0.215,0,0.326c-0.014,0.197-0.014,0.396,0,0.596
	c-0.011,0.189-0.011,0.381,0,0.572c-0.009,0.115-0.009,0.232,0,0.35c0,0.143,0.123,0.225,0.246,0.225c0.124,0,0.205,0,0.246-0.205
	c0.038-0.23,0.038-0.465,0-0.697L61.362,80.92z"/>
<path fill="#231F20" d="M94.124,80.428v-0.307v-1.846v-0.326l0.697,0.184l0.943,0.287v0.902h-0.246v-0.123
	c0.035-0.127,0.035-0.264,0-0.389c-0.08-0.096-0.188-0.16-0.308-0.186l-0.287-0.432v0.82h0.164c0,0,0,0,0-0.143v-0.184h0.246v1.043
	h-0.246v-0.082c0,0,0-0.121,0-0.143h-0.164v0.922h0.287c0.165,0,0.267,0,0.329,0c0.042-0.133,0.042-0.275,0-0.41v-0.121h0.246v0.984
	l-0.861-0.309l-0.697-0.145H94.124z M94,79.24c0.011,0.186,0.011,0.369,0,0.555c-0.016,0.117-0.051,0.236-0.102,0.348
	c-0.058,0.078-0.136,0.139-0.227,0.176s-0.19,0.047-0.287,0.029c-0.121-0.01-0.238-0.049-0.342-0.113
	c-0.104-0.063-0.19-0.152-0.252-0.256c-0.064-0.137-0.106-0.281-0.123-0.432c-0.022-0.205-0.022-0.41,0-0.615
	c-0.025-0.23-0.025-0.465,0-0.697c0.012-0.17,0.053-0.336,0.123-0.492c0.044-0.104,0.125-0.189,0.225-0.242
	c0.101-0.053,0.217-0.066,0.329-0.043c0.092,0.01,0.178,0.051,0.248,0.113c0.069,0.063,0.119,0.145,0.142,0.234l0,0
	c0.011-0.068,0.011-0.137,0-0.205h0.205v1.045h-0.246c0.031-0.203,0.031-0.412,0-0.615c-0.018-0.057-0.049-0.111-0.092-0.154
	s-0.096-0.072-0.154-0.092c-0.029-0.01-0.06-0.012-0.089-0.008c-0.03,0.004-0.059,0.016-0.083,0.035
	c-0.025,0.016-0.044,0.041-0.057,0.068c-0.013,0.029-0.019,0.059-0.017,0.09c-0.007,0.104-0.007,0.205,0,0.307v1.17
	c0,0.143,0,0.266,0,0.35c0.012,0.059,0.042,0.115,0.085,0.158c0.044,0.045,0.1,0.074,0.161,0.086c0.029,0.006,0.06,0.006,0.09-0.002
	c0.029-0.006,0.058-0.018,0.083-0.035c0.025-0.016,0.046-0.039,0.062-0.064c0.017-0.025,0.027-0.053,0.032-0.084
	c0.048-0.217,0.048-0.439,0-0.654L94,79.24z M90.925,79.648v0.33H90.27v-0.35h0.144V77.6v-0.328h0.696l0.308,0.963l0.308,0.965
	v-1.416v-0.326h0.328h0.348V77.6h-0.164c-0.013,0.031-0.013,0.068,0,0.104v2.377h-0.452c-0.123-0.328-0.226-0.676-0.348-1.004
	l-0.348-1.025v1.598H90.925z M89.347,77.906c-0.024,0.174-0.059,0.344-0.103,0.514c0.012,0.176,0.012,0.355,0,0.533h0.369
	c0-0.186,0-0.35,0-0.533c0-0.186-0.246-0.369-0.267-0.533V77.906z M88.773,79.648l0.246-1.229l0.247-1.23h0.492
	c0,0.391,0.144,0.801,0.226,1.209c0.082,0.412,0.144,0.801,0.225,1.211h0.165v0.326H89.49v-0.326V79.24h-0.472
	c-0.009,0.121-0.009,0.244,0,0.369h0.103v0.348h-0.656v-0.348c0.007,0.031,0.023,0.063,0.048,0.086
	c0.025,0.023,0.057,0.039,0.09,0.043c0.035,0.004,0.068-0.002,0.099-0.018S88.757,79.68,88.773,79.648z M86.948,77.846
	c0,0,0,0,0-0.104h-0.226v-0.328h0.451h0.43V77.6H87.44c0,0,0,0,0,0.104l0.123,0.859c0,0.268,0,0.553,0.143,0.842
	c0-0.289,0-0.594,0.164-0.883c0.164-0.287,0.103-0.572,0.144-0.861c0.041-0.287,0,0,0,0v-0.348h0.615V77.6l-0.246,1.25l-0.247,1.25
	h-0.492c0-0.389-0.144-0.799-0.205-1.188c-0.062-0.391-0.492-0.637-0.554-1.047L86.948,77.846z M84.898,80.572v-0.307
	c0.004-0.035,0.004-0.07,0-0.102v-1.93v-0.102h-0.164v-0.328l0.697-0.123l0.923-0.145v0.965h-0.246v-0.125
	c0.042-0.125,0.042-0.262,0-0.387c-0.048-0.023-0.101-0.037-0.154-0.037c-0.053,0-0.105,0.014-0.153,0.037h-0.287v0.881h0.144
	c0.011-0.057,0.011-0.111,0-0.164v-0.205h0.225v1.127h-0.225v-0.203c0.014-0.049,0.014-0.1,0-0.146h-0.144v1.006H85.8
	c0.062-0.006,0.122-0.025,0.175-0.057c0.053-0.033,0.099-0.076,0.132-0.129c0.041-0.154,0.041-0.316,0-0.471v-0.145h0.246v1.088
	l-0.923,0.123L84.898,80.572z M83.237,80.838v-0.326h0.103v-1.887v-0.307h0.471h0.452v0.326h-0.124c-0.013,0.033-0.013,0.07,0,0.102
	v2.051h0.185c0.104-0.012,0.199-0.064,0.266-0.143c0.04-0.127,0.04-0.264,0-0.389v-0.617h0.082v1.047l-0.778,0.123L83.237,80.838z
	 M81.392,81.104v-0.307V78.83v-0.104h-0.164V78.42l0.697-0.123l0.942-0.186v0.945h-0.246v-0.125c0.033-0.119,0.033-0.248,0-0.369
	c-0.047-0.021-0.101-0.035-0.154-0.035c-0.054,0-0.106,0.014-0.153,0.035h-0.308v0.842h0.164c0.034,0.008,0.069,0.008,0.103,0
	c0,0,0,0,0-0.145v-0.203h0.246v1.086h-0.246v-0.186c0,0,0-0.123,0-0.143h-0.266v0.963h0.287c0.164,0,0.267,0,0.307-0.186
	c0.04-0.146,0.04-0.303,0-0.449v-0.145h0.247v1.025l-0.944,0.143L81.392,81.104z M80.039,79.814h0.123
	c0.085-0.029,0.158-0.088,0.205-0.166c0.03-0.113,0.03-0.232,0-0.348c0.03-0.107,0.03-0.221,0-0.328
	c-0.085-0.037-0.181-0.037-0.266,0h-0.123v0.902L80.039,79.814z M79.526,80.9v-1.805c0.002-0.033,0.002-0.068,0-0.102h-0.164v-0.307
	h0.431h0.533c0.083-0.041,0.175-0.063,0.267-0.063c0.093,0,0.184,0.021,0.267,0.063c0.064,0.061,0.112,0.139,0.141,0.225
	s0.037,0.176,0.024,0.268c0.013,0.203-0.044,0.406-0.165,0.572c-0.091,0.104-0.213,0.174-0.349,0.205h0.164
	c0.068,0.045,0.124,0.107,0.163,0.178s0.061,0.15,0.063,0.23c0,0.104,0,0.186,0,0.27c0,0.082,0,0.162,0,0.203c0,0,0-0.121,0-0.266
	h0.185c0.047,0.16,0.047,0.33,0,0.492c-0.038,0.051-0.087,0.096-0.144,0.127c-0.057,0.033-0.119,0.053-0.184,0.059
	c-0.164,0-0.287,0-0.348,0c-0.081-0.123-0.124-0.266-0.123-0.412v-0.246c0.012-0.102,0.012-0.205,0-0.307
	c-0.059-0.023-0.126-0.023-0.185,0l0,0v0.818h0.185v0.309h-0.451h-0.431v-0.309c0.021,0,0.042-0.006,0.06-0.018
	c0.017-0.014,0.03-0.031,0.038-0.051c0.006-0.021,0.006-0.041,0-0.063c-0.007-0.021-0.02-0.039-0.037-0.053L79.526,80.9z"/>
<path fill="#231F20" d="M58.43,79.484l0.246,0.574l0.595-0.162l-0.308,0.553l0.513,0.348L58.86,80.9l0.041,0.635l-0.472-0.432
	l-0.471,0.432L58,80.9l-0.615-0.104l0.513-0.348l-0.308-0.553l0.615,0.162L58.43,79.484z"/>
<path fill="#231F20" d="M78.173,79.279l0.247,0.574l0.595-0.162l-0.308,0.531l0.513,0.369l-0.615,0.104l0.042,0.635l-0.472-0.43
	l-0.472,0.43l0.042-0.635l-0.615-0.104l0.512-0.369l-0.308-0.531l0.615,0.162L78.173,79.279z"/>
<path fill="#FFFFFF" d="M58.963,67.738c-1.141-1.086-1.867-2.537-2.05-4.1c-0.595-1.027,0.103-2.053-1.209-2.521
	c-0.103-0.412-0.205-0.965-0.595-1.211c0.017-0.158-0.005-0.32-0.062-0.471c-0.057-0.148-0.148-0.281-0.266-0.391
	c-0.003-0.654-0.21-1.293-0.595-1.826c0-0.635-0.164-1.188-0.185-1.742c-0.266,0-0.983-2.049-1.086-2.5
	c-0.234-0.281-0.407-0.609-0.506-0.965c-0.099-0.354-0.122-0.723-0.068-1.086l-0.246-0.307c0-2.051-0.472-3.959-0.554-5.945
	c0.287-0.246,0.103-0.473,0.124-0.738c0.363-0.402,0.58-0.915,0.615-1.457c-0.369-0.45-0.349-0.656-0.369-1.352
	c-0.533,0-0.861,0.411-1.107,0.861c-0.476,0.228-0.935,0.487-1.374,0.779c-1.004,0-2.05-0.104-2.05-1.292
	c-0.451-0.246-2.05-1.763-1.846-2.214c0.533,0,1.702,0,2.051-0.369c-0.048-0.077-0.12-0.135-0.205-0.165l-0.82,0.143
	c-0.718-0.615-1.681-0.574-1.845-1.804c-0.162-0.101-0.344-0.165-0.534-0.185c0-0.349,0-0.615,0-0.902c0.267,0,0.513-0.225,0.759,0
	c0.881-0.759,1.743-0.328,2.686-0.246l1.681-0.267c0.031-0.207,0.093-0.406,0.185-0.595c-0.144-0.573-0.308-1.065-0.471-1.557
	l-0.881-0.289c0-1.086,0.164-1.618-0.923-1.782c0-0.903,0.779-1.046,1.045-1.764c0.237-0.309,0.513-0.583,0.82-0.82
	c0.554,0,0.472,0,0.718,0.409c0.681-0.078,1.365-0.111,2.051-0.102c0.164-0.39,0.348-0.717,0.512-1.045
	c0.574-0.425,1.177-0.809,1.805-1.147c0.287-0.8,0.389-1.272,1.107-1.621c0.393-0.498,0.825-0.965,1.292-1.393
	c0.267-1.354,0.246-2.051,1.579-2.256v-0.492c-0.721-0.246-1.364-0.677-1.866-1.25l-0.799-0.287c0-0.964,0-1.906,0.103-2.87
	c0.238-0.201,0.509-0.359,0.799-0.472c0.012-0.209,0.053-0.417,0.123-0.615c-0.369-0.288-0.76-0.547-1.168-0.778
	c0-0.349-0.84-0.554-1.025-0.656c-0.185-0.103,0-0.472,0-0.677c0.349-0.246,1.353-1.456,1.845-0.861
	c0.14-0.155,0.291-0.299,0.451-0.431l1.415-0.123c0.185,0.204,0.164,0.349,0.512,0.389c0.056-0.16,0.164-0.297,0.308-0.389
	c0.615,0,0.882,0.84,1.251,1.271c0.305,0.036,0.597,0.15,0.847,0.33c0.251,0.179,0.453,0.418,0.587,0.694
	c0.39,0.247,0.841,0.493,1.292,0.8c0.574-0.291,1.205-0.456,1.85-0.48c0.644-0.024,1.286,0.091,1.882,0.337
	c0.105,0.52,0.243,1.033,0.41,1.538l-0.512,0.984c-0.574,0.429-0.841,0.964-1.538,1.045c0,0.533,0.164,0.636,0.554,0.943
	c0,0.328,0.246,1.804,0,2.05c-0.585,0.018-1.167,0.08-1.743,0.185c0.165,0.492,0.328,0.984,0.554,1.558
	c0.184,0.006,0.365,0.048,0.533,0.123c0,0.821,0.964,0.76,1.579,0.882c0.185,0.287,0.43,0.594,0.676,0.963l0.923,0.287l-0.267,0.8
	h-0.349c-0.508,0.569-0.817,1.289-0.881,2.05c0.348,0.076,0.685,0.193,1.004,0.348l1.251,1.292l1.927,0.779
	c0,0.411,1.148,0.247,1.292,0.185c0.689,0.069,1.374,0.179,2.05,0.329c-0.001,0.197,0.052,0.393,0.154,0.563
	c0.102,0.172,0.249,0.31,0.424,0.403c0.175,0.093,0.373,0.136,0.57,0.125c0.198-0.012,0.39-0.077,0.553-0.189
	c0.137,0.183,0.26,0.374,0.369,0.574c1.23,0,2.46,0,3.69,0.204c0.021-0.414,0.083-0.827,0.185-1.229
	c-0.105-0.054-0.197-0.131-0.267-0.226c0.087-0.637,0.358-1.236,0.779-1.722c0.294,0.043,0.583,0.12,0.861,0.226
	c-0.226,2.582,1.763,1.926,3.465,2.05c0.451-0.369,1.25-0.246,1.804-0.328c0.226-1.004-0.758-0.759-0.656-1.703l1.805-0.246
	c0-1.087,1.086-1.414,2.05-1.681c0.554-1.455,1.353-1.313,2.727-1.19c0.129-0.169,0.281-0.321,0.451-0.45
	c1.64,0.142,1.558,0.204,1.62,1.864c0.267,0,1.292,0.185,1.25,0.658c0.118,0.037,0.228,0.092,0.328,0.163
	c0,0.759-0.881,0.677-0.369,1.682c-0.043,0.03-0.078,0.071-0.102,0.117c-0.025,0.046-0.04,0.097-0.042,0.15
	c-0.553,0-0.594-0.329-1.005-0.431c-0.376,0.17-0.74,0.369-1.086,0.594c-0.309,0.25-0.603,0.517-0.881,0.8
	c-0.124,0.615-0.246,1.209-0.308,1.824c-0.737,0.636-0.205,1.641-0.799,2.051c-0.144,1.435-0.349,1.538-1.64,1.435
	c-0.033,0.652-0.208,1.289-0.513,1.866c0,0.615-0.123,1.23-0.164,1.845c-0.32-0.042-0.644-0.042-0.964,0
	c-0.103-0.521-0.171-1.048-0.205-1.578c-0.451-0.329-0.287-0.779-0.308-1.21h-0.676c-0.095,0.333-0.15,0.678-0.164,1.025h-1.23
	c-0.288-1.271-0.226-2.051,1.127-2.521c0.226-0.391,0.635-1.046,0.533-1.518c-1.292-0.123-3.199,0.472-4.367-0.266
	c-0.03-0.39-0.03-0.781,0-1.169c-0.351-0.081-0.708-0.134-1.066-0.163l-0.185-0.431c-0.472,0-1.661,0.142-1.374,0.923
	c0.495,0.077,0.953,0.305,1.312,0.656v0.553c-0.574,0-1.497,0.554-1.087,1.271c0.185,0.165,0.451,0.308,0.718,0.534
	c-0.032,0.457-0.032,0.916,0,1.373c0.571,0.94,0.762,2.062,0.533,3.137c-0.485,0.147-0.958,0.333-1.415,0.554
	c-0.025-0.086-0.025-0.179,0-0.266c-0.509,0.178-1.009,0.383-1.496,0.614c-0.077,0.219-0.118,0.447-0.123,0.676
	c0.089,0.1,0.193,0.182,0.308,0.248v0.533c-0.108,0.002-0.211,0.045-0.288,0.123c-0.033,0.412-0.19,0.807-0.451,1.127l0.472,0.246
	c-0.188,0.09-0.36,0.207-0.513,0.35c-0.067,0.557-0.279,1.086-0.615,1.537c-0.237-0.01-0.474,0.029-0.696,0.113
	c-0.222,0.084-0.425,0.213-0.596,0.377c-1.497-0.121-1.271,2.051-2.645,2.051c-0.042-0.105-0.104-0.203-0.185-0.285
	c-0.836-0.086-1.678,0.09-2.412,0.5c-0.733,0.412-1.323,1.037-1.688,1.795c-0.47,0.041-0.936,0.117-1.395,0.227
	c-0.254,0.162-0.494,0.348-0.717,0.553c-0.162,0.215-0.281,0.457-0.349,0.717c-0.31-0.072-0.625-0.121-0.943-0.143
	c-0.282,0.328-0.485,0.719-0.595,1.137c-0.11,0.42-0.124,0.857-0.041,1.281c0.089,0.498,0.206,0.992,0.349,1.477
	c0,0.678,0,1.436,0,2.174c-1.333,1.127-1.127,2.727-1.004,4.387l-1.107,0.102c-0.017,0.156-0.068,0.309-0.15,0.443
	c-0.082,0.135-0.19,0.248-0.321,0.338c-0.098,0.375-0.16,0.76-0.185,1.148h-1.517c-0.554,1.598-0.698,1.803-2.215,1.863"/>
<path fill="#1F1A18" d="M58.922,58.963c-0.205,0-0.164-0.43-0.164-0.574c0.243-0.131,0.506-0.221,0.779-0.268
	c-0.029,0.137-0.029,0.275,0,0.412c-0.232,0.121-0.452,0.266-0.656,0.43"/>
<path fill="#FFFFFF" d="M90.29,55.313c-0.336,0.557-0.624,1.139-0.861,1.744c-0.04-0.334-0.151-0.656-0.328-0.943
	c-0.106-0.172-0.254-0.313-0.431-0.41c-0.178-0.111-0.384-0.168-0.594-0.164c-0.27-0.004-0.532,0.092-0.738,0.266
	c-0.25,0.295-0.434,0.639-0.541,1.01c-0.106,0.373-0.131,0.762-0.074,1.143c-0.022,0.637,0.104,1.268,0.369,1.846
	c0.119,0.223,0.287,0.412,0.492,0.555c0.229,0.16,0.5,0.246,0.779,0.246c0.181,0.006,0.361-0.027,0.527-0.098
	c0.167-0.072,0.315-0.178,0.436-0.313c0.257-0.32,0.402-0.717,0.41-1.129c0-0.123,0-0.184,0.164-0.184s0.164,0,0.164,0.268
	c-0.014,0.256-0.062,0.514-0.144,0.758c-0.109,0.328-0.335,0.605-0.636,0.779c-0.322,0.191-0.692,0.283-1.066,0.266
	c-0.44,0.012-0.874-0.102-1.251-0.328c-0.443-0.273-0.777-0.695-0.942-1.189c-0.15-0.42-0.226-0.863-0.226-1.313
	c-0.011-0.607,0.138-1.207,0.43-1.74c0.185-0.381,0.479-0.699,0.843-0.914c0.365-0.217,0.785-0.318,1.208-0.297h0.492l0.574,0.184
	c0.165,0.086,0.347,0.137,0.533,0.145c0.08,0.025,0.166,0.025,0.246,0c0.11-0.039,0.214-0.096,0.308-0.164L90.29,55.313z
	 M82.622,56.195l-0.718,1.846c0.262,0.354,0.502,0.723,0.718,1.107c0.119-0.111,0.222-0.234,0.308-0.369
	c0.119-0.141,0.25-0.271,0.389-0.391L82.622,56.195z M83.873,55.313l-0.472,0.492l0.738,1.928c0.23-0.139,0.438-0.311,0.616-0.514
	l0.143,0.432l0.205,0.391h-0.247c-0.194-0.006-0.386,0.043-0.553,0.143l0.799,2.051l0.635,0.492h-2.05l0.575-0.492l-0.575-1.559
	l-0.307,0.287c-0.204,0.225-0.389,0.463-0.554,0.717c-0.266-0.475-0.589-0.916-0.964-1.311v0.102
	c-0.144,0.471-0.267,0.801-0.287,0.943c-0.019,0.135-0.019,0.273,0,0.41c-0.01,0.211,0.063,0.418,0.205,0.574l0.288,0.328h-2.05
	c0.236-0.115,0.457-0.26,0.656-0.432c0.178-0.205,0.33-0.432,0.451-0.676c0.123-0.188,0.225-0.387,0.308-0.594
	c0-0.166,0.164-0.451,0.287-0.861c-0.086-0.07-0.184-0.125-0.287-0.164c-0.123-0.02-0.247-0.02-0.369,0c0,0,0.144-0.227,0.226-0.35
	c0.054-0.105,0.102-0.215,0.144-0.328c0.066,0.115,0.157,0.213,0.267,0.287l0.205,0.186l0.759-2.051l-0.472-0.492L83.873,55.313z
	 M76.923,56.195l-0.718,1.846c0.246,0.285,0.533,0.615,0.841,1.045l0.287-0.369l0.39-0.391L76.923,56.195z M78.173,55.313
	l-0.451,0.492l0.717,1.928c0.23-0.139,0.438-0.311,0.615-0.514l0.144,0.432l0.205,0.391h-0.266
	c-0.195-0.006-0.387,0.043-0.554,0.143l0.8,2.051l0.635,0.492h-2.05l0.595-0.492l-0.595-1.559l-0.308,0.287
	c-0.204,0.219-0.383,0.459-0.533,0.717c-0.279-0.471-0.609-0.912-0.984-1.311v0.102c-0.165,0.471-0.267,0.801-0.308,0.943
	c-0.018,0.135-0.018,0.273,0,0.41c-0.01,0.211,0.063,0.418,0.205,0.574l0.288,0.328h-2.338c0.237-0.115,0.457-0.26,0.656-0.432
	c0.18-0.209,0.337-0.436,0.472-0.676c0.109-0.191,0.205-0.391,0.288-0.594c0-0.166,0.164-0.451,0.287-0.861
	c-0.083-0.074-0.181-0.129-0.287-0.164c-0.123-0.02-0.248-0.02-0.369,0c0,0,0.143-0.227,0.225-0.35
	c0.063-0.102,0.111-0.213,0.144-0.328c0.072,0.111,0.162,0.207,0.266,0.287l0.205,0.186l0.759-2.051l-0.472-0.492L78.173,55.313z
	 M73.068,59.762v-2.85c0.025-0.377-0.038-0.758-0.185-1.107c-0.077-0.125-0.178-0.232-0.298-0.316
	c-0.12-0.086-0.255-0.145-0.399-0.176h2.05c-0.287,0.07-0.537,0.246-0.697,0.492c-0.146,0.35-0.209,0.73-0.185,1.107v3.896h-0.697
	l-2.337-4.594v2.934c-0.023,0.371,0.039,0.742,0.185,1.086c0.077,0.125,0.178,0.232,0.299,0.316
	c0.119,0.084,0.255,0.145,0.398,0.176h-2.05c0.287-0.068,0.537-0.244,0.697-0.492c0.146-0.344,0.208-0.715,0.185-1.086v-3.344
	l-0.615-0.492h2.234l-0.615,0.492L73.068,59.762z"/>
<path fill="#231F20" d="M65.072,48.467L50.865,38.42l14.29-9.43l13.572,9.369L65.072,48.467z"/>
<path fill="none" stroke="#231F20" stroke-width="0.22" stroke-miterlimit="2.61" d="M65.072,48.467L50.865,38.42l14.29-9.43
	l13.572,9.369L65.072,48.467z"/>
<path fill="#D2AB67" d="M66.938,43.278c-0.584-0.791-1.433-1.348-2.393-1.565c-0.96-0.219-1.966-0.085-2.835,0.378
	c0.758,0,1.505,0.171,2.187,0.502c0.682,0.33,1.28,0.81,1.75,1.404c-0.311,0.099-0.636,0.148-0.964,0.142
	c-1.245-0.171-2.376-0.818-3.159-1.803s-1.156-2.233-1.044-3.485c-0.145-1.241,0.204-2.488,0.971-3.474
	c0.767-0.986,1.891-1.631,3.129-1.796c1.226,0.193,2.332,0.846,3.092,1.824c0.762,0.979,1.123,2.211,1.008,3.446
	c0.042,0.82-0.092,1.639-0.393,2.403C67.988,42.018,67.528,42.708,66.938,43.278z M64.683,32.597
	c1.396-0.016,2.758,0.432,3.87,1.275c1.113,0.843,1.915,2.031,2.278,3.378c0.364,1.347,0.27,2.777-0.268,4.065
	c-0.538,1.288-1.488,2.36-2.703,3.049l0.165,0.227c0.902,1.25,3.014,1.188,5.495,0c0.262-0.195,0.562-0.33,0.88-0.402
	c0.318-0.068,0.648-0.072,0.967-0.006c0.319,0.066,0.621,0.197,0.885,0.389c0.265,0.189,0.486,0.434,0.65,0.715
	c-1.499-0.057-2.964,0.455-4.1,1.436c-0.798,0.625-1.805,0.918-2.813,0.82c-1.008-0.1-1.939-0.584-2.6-1.354l-0.881-1.229
	c-0.566,0.164-1.153,0.248-1.743,0.246c-0.858,0.049-1.717-0.078-2.524-0.373s-1.546-0.752-2.171-1.341
	c-0.625-0.591-1.123-1.302-1.463-2.091c-0.34-0.789-0.515-1.641-0.515-2.5c0-0.86,0.175-1.71,0.515-2.5
	c0.34-0.79,0.838-1.501,1.463-2.091c0.625-0.59,1.364-1.046,2.171-1.341c0.808-0.294,1.667-0.421,2.524-0.373H64.683z"/>
<path fill="none" stroke="#D2AB67" stroke-width="0.5" stroke-miterlimit="2.61" d="M66.938,43.278
	c-0.584-0.791-1.433-1.348-2.393-1.565c-0.96-0.219-1.966-0.085-2.835,0.378c0.758,0,1.505,0.171,2.187,0.502
	c0.682,0.33,1.28,0.81,1.75,1.404c-0.311,0.099-0.636,0.148-0.964,0.142c-1.245-0.171-2.376-0.818-3.159-1.803
	s-1.156-2.233-1.044-3.485c-0.145-1.241,0.204-2.488,0.971-3.474c0.767-0.986,1.891-1.631,3.129-1.796
	c1.226,0.193,2.332,0.846,3.092,1.824c0.762,0.979,1.123,2.211,1.008,3.446c0.042,0.82-0.092,1.639-0.393,2.403
	C67.988,42.018,67.528,42.708,66.938,43.278z M64.683,32.597c1.396-0.016,2.758,0.432,3.87,1.275
	c1.113,0.843,1.915,2.031,2.278,3.378c0.364,1.347,0.27,2.777-0.268,4.065c-0.538,1.288-1.488,2.36-2.703,3.049l0.165,0.227
	c0.902,1.25,3.014,1.188,5.495,0c0.262-0.195,0.562-0.33,0.88-0.402c0.318-0.068,0.648-0.072,0.967-0.006
	c0.319,0.066,0.621,0.197,0.885,0.389c0.265,0.189,0.486,0.434,0.65,0.715c-1.499-0.057-2.964,0.455-4.1,1.436
	c-0.798,0.625-1.805,0.918-2.813,0.82c-1.008-0.1-1.939-0.584-2.6-1.354l-0.881-1.229c-0.566,0.164-1.153,0.248-1.743,0.246
	c-0.858,0.049-1.717-0.078-2.524-0.373s-1.546-0.752-2.171-1.341c-0.625-0.591-1.123-1.302-1.463-2.091
	c-0.34-0.789-0.515-1.641-0.515-2.5c0-0.86,0.175-1.71,0.515-2.5c0.34-0.79,0.838-1.501,1.463-2.091
	c0.625-0.59,1.364-1.046,2.171-1.341c0.808-0.294,1.667-0.421,2.524-0.373H64.683z"/>
<path fill="#FFFFFF" d="M52.874,64.047c0.123-0.307,0.472-0.367,0.39-0.902c-0.083-0.533-0.513-0.389-0.718-0.143
	C52.341,63.248,52.136,63.533,52.874,64.047z"/>
<path fill="none" stroke="#FFFFFF" stroke-width="0.22" stroke-miterlimit="2.61" d="M52.874,64.047
	c0.123-0.307,0.472-0.367,0.39-0.902c-0.083-0.533-0.513-0.389-0.718-0.143C52.341,63.248,52.136,63.533,52.874,64.047z"/>
<path fill="#FFFFFF" d="M88.916,48.098c0.283-0.443,0.44-0.953,0.451-1.477c-0.184-0.287-0.717-0.902-0.922-0.656
	C87.933,46.148,88.199,47.584,88.916,48.098z"/>
<path fill="none" stroke="#FFFFFF" stroke-width="0.22" stroke-miterlimit="2.61" d="M88.916,48.098
	c0.283-0.443,0.44-0.953,0.451-1.477c-0.184-0.287-0.717-0.902-0.922-0.656C87.933,46.148,88.199,47.584,88.916,48.098z"/>
<path fill="#FFFFFF" d="M89.06,50.455c0.253-0.43,0.388-0.916,0.39-1.416c-0.206-0.287-0.513-0.389-0.718-0.143
	C88.527,49.143,88.321,49.941,89.06,50.455z"/>
<path fill="none" stroke="#FFFFFF" stroke-width="0.22" stroke-miterlimit="2.61" d="M89.06,50.455
	c0.253-0.43,0.388-0.916,0.39-1.416c-0.206-0.287-0.513-0.389-0.718-0.143C88.527,49.143,88.321,49.941,89.06,50.455z"/>
<path fill="#FFFFFF" d="M89.121,52.342c0.123-0.287,0.8-1.168,0.717-1.701c-0.082-0.535-0.84,0.43-1.045,0.676
	C88.588,51.561,88.404,51.828,89.121,52.342z"/>
<path fill="none" stroke="#FFFFFF" stroke-width="0.22" stroke-miterlimit="2.61" d="M89.121,52.342
	c0.123-0.287,0.8-1.168,0.717-1.701c-0.082-0.535-0.84,0.43-1.045,0.676C88.588,51.561,88.404,51.828,89.121,52.342z"/>
<path fill="#FFFFFF" d="M89.819,53.898c0.123-0.309,0.779-1.168,0.696-1.701c-0.082-0.533-0.82,0.41-1.025,0.676
	C89.285,53.141,89.081,53.387,89.819,53.898z"/>
<path fill="none" stroke="#FFFFFF" stroke-width="0.22" stroke-miterlimit="2.61" d="M89.819,53.898
	c0.123-0.309,0.779-1.168,0.696-1.701c-0.082-0.533-0.82,0.41-1.025,0.676C89.285,53.141,89.081,53.387,89.819,53.898z"/>
<path fill="#ED1C24" d="M127.295,1.045h7.771l9.43,24.602h0.185V1.045h6.683v42.602h-6.806l-10.456-27.306h-0.123v27.306h-6.685
	V1.045z"/>
<path fill="#ED1C24" d="M164.097,0.984h10.251l8.201,42.663h-7.463l-2.05-10.25h-8.714l-1.906,10.25h-6.992L164.097,0.984z
	 M171.908,27.207l-3.034-17.673h-0.144l-3.157,17.673H171.908z"/>
<path fill="#ED1C24" d="M193.947,0.984h10.251l8.304,42.663h-7.585l-2.052-10.25h-8.673l-1.906,10.25h-6.991L193.947,0.984z
	 M201.777,27.207l-3.033-17.673h-0.184l-3.178,17.673H201.777z"/>
<path fill="#ED1C24" d="M215.577,33.541V10.989c0-6.807,5.146-10.703,11.829-10.703c6.273,0,10.928,3.711,10.928,9.923v4.716h-6.807
	v-3.896c-0.031-1.087-0.49-2.118-1.28-2.866c-0.791-0.748-1.846-1.151-2.934-1.121c-1.086,0.029-2.118,0.49-2.865,1.28
	c-0.748,0.79-1.151,1.846-1.121,2.933v21.876c-0.082,0.586-0.03,1.186,0.15,1.751c0.181,0.564,0.484,1.082,0.892,1.513
	s0.908,0.765,1.461,0.978c0.556,0.212,1.149,0.297,1.739,0.248c0.552,0.047,1.105-0.027,1.624-0.217c0.52-0.19,0.991-0.49,1.38-0.88
	c0.391-0.392,0.693-0.862,0.882-1.381c0.19-0.518,0.263-1.072,0.214-1.623v-3.916h6.767v4.428c0,6.376-4.592,10.25-10.988,10.25
	C220.477,44.244,215.577,40.696,215.577,33.541z"/>
<path fill="#58595B" d="M260.229,0.984h10.251l8.202,42.663h-7.443l-2.051-10.25h-8.794l-1.907,10.25h-6.931L260.229,0.984z
	 M268.063,27.207l-2.974-17.673h-0.185l-3.157,17.673H268.063z"/>
<path fill="#58595B" d="M290.512,27.103h-7.956v-4.858h7.956v-8.528h4.899v8.487h7.997v4.899h-7.936v8.365h-4.961V27.103z"/>
<path fill="#58595B" d="M316.14,27.103h-7.996v-4.858h7.955v-8.528h4.9v8.487h7.994v4.899h-7.933v8.365h-4.921V27.103z"/>
<path fill="#58595B" d="M133.365,50.619h5.495l7.114,35.652h-4.1l-2.05-10.621h-7.894l-2.05,10.621h-3.793L133.365,50.619z
	 M139.105,72.268l-3.178-16.914h-0.165l-3.136,16.914H139.105z"/>
<path fill="#58595B" d="M149.254,78.789V58.287c0-4.941,3.443-8.201,8.692-8.201s8.057,3.033,8.057,7.217v4.1h-3.689V58
	c0.049-0.588-0.032-1.18-0.239-1.732c-0.208-0.553-0.535-1.051-0.958-1.461c-0.425-0.41-0.934-0.723-1.494-0.91
	c-0.559-0.188-1.152-0.25-1.738-0.182c-0.628-0.068-1.264,0.008-1.856,0.227c-0.594,0.219-1.128,0.57-1.563,1.029
	c-0.434,0.457-0.756,1.01-0.943,1.613c-0.186,0.605-0.23,1.244-0.127,1.865v19.889c-0.087,0.631-0.029,1.275,0.169,1.883
	c0.197,0.607,0.529,1.16,0.97,1.621c0.441,0.463,0.98,0.818,1.579,1.041c0.597,0.223,1.238,0.309,1.874,0.252
	c0.57,0.033,1.14-0.057,1.673-0.256c0.534-0.201,1.02-0.512,1.427-0.91c0.407-0.4,0.726-0.881,0.937-1.41
	c0.211-0.531,0.31-1.1,0.289-1.668v-3.484h3.689v3.689c0.039,1.051-0.146,2.098-0.542,3.072s-0.996,1.852-1.758,2.576
	c-0.762,0.727-1.669,1.281-2.661,1.629c-0.993,0.348-2.048,0.48-3.096,0.391C152.76,86.764,149.254,83.934,149.254,78.789z"/>
<path fill="#58595B" d="M170.493,78.789V58.287c0-4.941,3.444-8.201,8.672-8.201c5.229,0,8.016,3.135,8.016,7.318v4.102h-3.69V58
	c0.029-0.584-0.067-1.164-0.28-1.707c-0.216-0.543-0.544-1.033-0.963-1.439c-0.418-0.404-0.918-0.717-1.468-0.914
	c-0.55-0.195-1.134-0.271-1.716-0.225c-0.627-0.068-1.263,0.008-1.855,0.227s-1.128,0.57-1.563,1.029
	c-0.435,0.457-0.757,1.01-0.943,1.613c-0.186,0.605-0.229,1.244-0.128,1.865v19.889c-0.085,0.631-0.027,1.275,0.17,1.883
	c0.197,0.607,0.529,1.16,0.97,1.621c0.441,0.463,0.981,0.818,1.579,1.041s1.238,0.309,1.873,0.252
	c0.57,0.033,1.14-0.057,1.673-0.256c0.534-0.201,1.02-0.512,1.427-0.91c0.408-0.4,0.725-0.881,0.937-1.41
	c0.211-0.531,0.31-1.1,0.288-1.668v-3.484h3.69v3.689c0.037,1.053-0.151,2.1-0.55,3.074c-0.399,0.973-0.999,1.852-1.764,2.576
	c-0.764,0.725-1.673,1.279-2.664,1.627c-0.994,0.348-2.049,0.48-3.099,0.391C173.979,86.764,170.493,83.934,170.493,78.789z"/>
<path fill="#58595B" d="M192.225,50.721h7.831c5.618,0,8.427,3.588,8.427,9.883c0,5.021-1.845,8.199-4.735,9.205l5.083,16.4h-4.1
	l-4.838-15.436h-3.525v15.498h-4.102L192.225,50.721z M199.954,67.574c2.931,0,4.388-2.338,4.388-6.623
	c0-3.484-1.045-6.725-4.552-6.725h-3.423v13.348H199.954z"/>
<path fill="#58595B" d="M213.711,50.721h14.105v3.506h-10.024v11.707h8.016v3.465h-8.016v13.223h10.066v3.588h-14.147V50.721z"/>
<path fill="#58595B" d="M232.594,50.721h8.426c4.675,0,8.202,2.398,8.202,7.484v19.988c0,5.475-3.59,8.078-8.365,8.078h-8.325
	L232.594,50.721z M240.609,82.684c0.61,0.063,1.227-0.012,1.804-0.221c0.578-0.207,1.101-0.543,1.534-0.98
	c0.43-0.436,0.756-0.963,0.956-1.543s0.268-1.197,0.196-1.807V58.594c0.035-0.592-0.057-1.184-0.272-1.736
	c-0.216-0.551-0.548-1.051-0.977-1.463c-0.425-0.408-0.937-0.725-1.495-0.918c-0.562-0.195-1.155-0.266-1.746-0.209h-3.936v28.416
	H240.609z"/>
<path fill="#58595B" d="M254.572,50.721h4.1v35.551h-4.1V50.721z"/>
<path fill="#58595B" d="M269.478,54.227h-6.788v-3.506h17.654v3.506h-6.788v32.045h-4.1L269.478,54.227z"/>
<path fill="#58595B" d="M284.32,50.721h14.104v3.506H288.42v11.707h8.018v3.465h-8.018v13.223h10.066v3.588H284.32V50.721z"/>
<path fill="#58595B" d="M303.202,50.721h8.426c4.696,0,8.202,2.398,8.202,7.484v19.988c0,5.475-3.588,8.078-8.387,8.078h-8.322
	L303.202,50.721z M311.238,82.684c0.607,0.043,1.217-0.043,1.786-0.258c0.566-0.215,1.082-0.551,1.508-0.982
	c0.43-0.434,0.756-0.951,0.964-1.525c0.206-0.57,0.286-1.18,0.234-1.785V58.594c0.034-0.592-0.06-1.184-0.275-1.736
	c-0.215-0.551-0.548-1.051-0.975-1.463c-0.426-0.408-0.938-0.725-1.497-0.918c-0.559-0.195-1.155-0.266-1.745-0.209h-3.935v28.416
	H311.238z"/>
</svg>
