<svg width="506" height="90" viewBox="0 0 506 90" fill="none" xmlns="http://www.w3.org/2000/svg">
<path d="M37.51 68.61C37.3957 68.4304 37.2722 68.2568 37.14 68.09C36.9746 67.8541 36.7638 67.6536 36.52 67.5C36.3191 67.3631 36.0831 67.2867 35.84 67.28C35.7332 67.2834 35.628 67.3072 35.53 67.35L35.88 68.09C35.9958 68.0499 36.1175 68.0296 36.24 68.03C36.3644 68.0303 36.4872 68.0576 36.6 68.11C36.7096 68.1503 36.8064 68.2194 36.88 68.31L37.7 69.39C37.93 69.39 37.86 69.13 37.51 68.61" fill="#B81F53"/>
<path d="M21.02 73.26L21.8 73.69V70.08H22.58L22.16 69.39H2.75001L3.18001 70.08H3.35001V71.69L2.48001 71.26C2.56602 71.1724 2.63099 71.0664 2.67001 70.95C2.71783 70.8291 2.7416 70.7 2.74001 70.57C2.72188 70.219 2.56762 69.889 2.31001 69.65C2.20458 69.5166 2.07305 69.4061 1.92346 69.3253C1.77387 69.2445 1.60937 69.195 1.44001 69.18C1.17982 69.1677 0.925082 69.2574 0.730009 69.43C0.639346 69.5059 0.566402 69.6007 0.516302 69.7078C0.466202 69.815 0.440163 69.9317 0.44001 70.05C0.462016 70.2771 0.556705 70.491 0.710009 70.66C0.915271 70.8814 1.16371 71.0583 1.44001 71.18C0.983485 71.4638 0.505343 71.7112 0.0100098 71.92L0.620008 72.44C1.19128 72.1716 1.72843 71.8359 2.22001 71.44L2.91001 71.79L0.910009 73.05L1.47001 73.53L3.38001 72.23V73.23L4.16001 73.66V70.11H8.81001V70.72H7.86001C7.71095 70.7156 7.56265 70.7428 7.4248 70.7996C7.28695 70.8565 7.16264 70.9418 7.06001 71.05C6.95514 71.1551 6.87202 71.2799 6.81539 71.4171C6.75877 71.5544 6.72975 71.7015 6.73001 71.85C6.76373 72.3135 6.97941 72.7449 7.33001 73.05C7.46786 73.2254 7.64006 73.3709 7.83608 73.4775C8.0321 73.5841 8.24781 73.6496 8.47001 73.67C8.47001 73.67 8.54001 73.67 8.62001 73.67H8.73001C8.65076 73.9724 8.50371 74.2528 8.30001 74.49C8.23427 74.581 8.14892 74.6562 8.05027 74.7098C7.95161 74.7635 7.84217 74.7943 7.73001 74.8C7.68515 74.8017 7.64046 74.7936 7.59902 74.7764C7.55758 74.7591 7.52039 74.733 7.49001 74.7C7.45796 74.6688 7.43257 74.6315 7.41538 74.5902C7.39819 74.549 7.38956 74.5047 7.39001 74.46C7.39212 74.406 7.4057 74.3532 7.42984 74.3049C7.45398 74.2566 7.48813 74.214 7.53001 74.18C7.64186 74.0883 7.77113 74.0203 7.91001 73.98L7.22001 73.55C7.1139 73.5738 7.01468 73.6217 6.93001 73.69C6.85704 73.7403 6.80398 73.8146 6.78001 73.9C6.55556 73.9164 6.33086 73.8715 6.13001 73.77C6.27546 73.7252 6.39978 73.6293 6.48001 73.5C6.56607 73.377 6.61153 73.2301 6.61001 73.08C6.61274 72.9835 6.5955 72.8875 6.55936 72.798C6.52322 72.7085 6.46897 72.6275 6.40001 72.56C6.34054 72.4884 6.26546 72.4313 6.18053 72.3931C6.09559 72.355 6.00306 72.3368 5.91001 72.34C5.68314 72.3334 5.46201 72.4119 5.29001 72.56C5.21021 72.6296 5.14652 72.7158 5.10335 72.8125C5.06018 72.9092 5.03857 73.0141 5.04001 73.12C5.05472 73.278 5.10684 73.4303 5.19204 73.5641C5.27725 73.698 5.39309 73.8097 5.53001 73.89C5.89182 74.1067 6.3085 74.2144 6.73001 74.2C6.67001 74.42 6.78001 74.63 7.07001 74.84C7.36181 75.0472 7.71217 75.1558 8.07001 75.15C8.30491 75.1476 8.53149 75.0627 8.71001 74.91C8.925 74.7295 9.09312 74.4996 9.20001 74.24L9.55001 74.98L10.03 74.76L9.38001 73.68C9.49224 73.6504 9.59102 73.5833 9.66001 73.49C9.73016 73.3941 9.76862 73.2788 9.77001 73.16C9.7597 72.9663 9.68186 72.7823 9.55001 72.64C9.51958 72.5504 9.46838 72.4692 9.4006 72.4032C9.33282 72.3372 9.25038 72.2881 9.16001 72.26C9.01711 72.2549 8.87651 72.2971 8.76001 72.38C8.70867 72.414 8.66638 72.46 8.63676 72.514C8.60715 72.568 8.5911 72.6284 8.59001 72.69C8.59769 72.8293 8.64258 72.9639 8.72001 73.08C8.56215 73.1787 8.37386 73.2169 8.19 73.1875C8.00615 73.1581 7.83917 73.0631 7.72001 72.92C7.54013 72.728 7.44312 72.4729 7.45001 72.21C7.44774 71.9976 7.52232 71.7917 7.66001 71.63C7.71797 71.5553 7.79226 71.4948 7.87719 71.4532C7.96212 71.4116 8.05544 71.39 8.15001 71.39H9.56001V70.09H10.79V73.26L11.57 73.78V70.13H15.16V71.26C14.9739 71.0302 14.7467 70.8369 14.49 70.69C14.271 70.5617 14.0236 70.4896 13.77 70.48C13.4567 70.4625 13.1487 70.5663 12.91 70.77C12.7984 70.8517 12.7077 70.9586 12.6451 71.082C12.5826 71.2053 12.55 71.3417 12.55 71.48C12.5662 71.6738 12.6216 71.8624 12.7126 72.0342C12.8037 72.2061 12.9287 72.3577 13.08 72.48C13.3367 72.7705 13.6941 72.9528 14.08 72.99C14.2698 72.9897 14.4573 72.9488 14.63 72.87C14.8176 72.7917 14.9851 72.6721 15.12 72.52V73.26L15.9 73.78V70.14H17.24V73.26L18.02 73.78V70.14H21.02V71.26H19.26C19.2151 71.2576 19.1702 71.2653 19.1286 71.2826C19.0871 71.2999 19.05 71.3264 19.02 71.36C18.988 71.3911 18.9626 71.4285 18.9454 71.4697C18.9282 71.511 18.9196 71.5553 18.92 71.6C18.9286 71.8398 19.0126 72.0707 19.16 72.26C19.3467 72.5 19.5167 72.62 19.67 72.62C19.6872 72.628 19.706 72.6322 19.725 72.6322C19.744 72.6322 19.7628 72.628 19.78 72.62C19.7993 72.6066 19.8148 72.5886 19.8253 72.5676C19.8358 72.5467 19.8409 72.5234 19.84 72.5V72.2C19.839 72.1722 19.8439 72.1445 19.8542 72.1187C19.8645 72.0928 19.8801 72.0694 19.9 72.05C19.9106 72.0297 19.9263 72.0125 19.9456 72.0002C19.9649 71.9879 19.9871 71.9809 20.01 71.98H20.96V73.26H21.02ZM2.02001 70.71C1.96512 70.8375 1.86555 70.9406 1.74001 71C1.58643 70.9553 1.45469 70.8557 1.37001 70.72C1.27421 70.6008 1.22137 70.4529 1.22001 70.3C1.22136 70.2377 1.23535 70.1763 1.26113 70.1196C1.28692 70.0629 1.32396 70.012 1.37001 69.97C1.46907 69.8737 1.60184 69.8198 1.74001 69.82C1.84391 69.8198 1.94399 69.8592 2.02001 69.93C2.07014 69.968 2.10944 70.0184 2.134 70.0763C2.15857 70.1342 2.16753 70.1975 2.16001 70.26C2.17371 70.4339 2.13542 70.6079 2.05001 70.76L2.02001 70.71ZM5.60001 73.26C5.52901 73.184 5.48951 73.084 5.48951 72.98C5.48951 72.876 5.52901 72.7759 5.60001 72.7C5.63638 72.6631 5.68009 72.6342 5.72832 72.6152C5.77656 72.5963 5.82824 72.5877 5.88001 72.59C5.98391 72.5899 6.08399 72.6292 6.16001 72.7C6.19693 72.7364 6.2258 72.7801 6.24475 72.8283C6.2637 72.8765 6.27231 72.9282 6.27001 72.98C6.27015 73.0839 6.23083 73.184 6.16001 73.26C6.12364 73.2969 6.07993 73.3258 6.03169 73.3447C5.98346 73.3637 5.93178 73.3723 5.88001 73.37C5.82838 73.3711 5.77704 73.362 5.72898 73.3431C5.68091 73.3242 5.63707 73.2959 5.60001 73.26V73.26ZM14.45 72.19C14.2232 72.3037 13.9737 72.3652 13.72 72.37C13.564 72.3693 13.4126 72.3165 13.29 72.22C13.2383 72.1817 13.196 72.132 13.1666 72.0748C13.1371 72.0176 13.1212 71.9543 13.12 71.89C13.12 71.7 13.24 71.52 13.48 71.35C13.7207 71.1924 14.0023 71.109 14.29 71.11C14.4524 71.1185 14.6103 71.1666 14.75 71.25C14.9204 71.3503 15.0726 71.4788 15.2 71.63C14.979 71.8526 14.7263 72.0413 14.45 72.19Z" fill="#B81F53"/>
<path d="M21.83 74.2C21.6684 74.0423 21.4626 73.9377 21.24 73.9C21.1272 73.8848 21.0128 73.8848 20.9 73.9C20.8 73.9342 20.7081 73.9887 20.63 74.06L20.93 74.54C20.9933 74.4893 21.0642 74.4489 21.14 74.42C21.2161 74.407 21.2939 74.407 21.37 74.42C21.57 74.42 21.96 74.74 22.55 75.42L23.02 75.91L23.28 75.69C22.93 75.31 22.45 74.83 21.83 74.25" fill="#B81F53"/>
<path d="M37.7 69.39H32.16L32.59 70.08H33.46V71.55H32.29V70.26C32.2809 70.1051 32.2408 69.9536 32.1721 69.8144C32.1034 69.6753 32.0074 69.5514 31.89 69.45C31.7876 69.3304 31.6623 69.2325 31.5214 69.1621C31.3806 69.0917 31.2271 69.0502 31.07 69.04C30.9636 69.0368 30.8576 69.0545 30.7581 69.0923C30.6586 69.13 30.5675 69.187 30.49 69.26C30.414 69.3321 30.3535 69.419 30.3122 69.5152C30.271 69.6115 30.2498 69.7152 30.25 69.82C30.245 69.8899 30.245 69.9601 30.25 70.03L29.86 69.34H24.86L25.25 70.03H28.42V70.59C28.2908 70.6033 28.1687 70.6556 28.07 70.74C27.9205 70.8605 27.7891 71.002 27.68 71.16C27.5419 70.981 27.3725 70.8285 27.18 70.71C27.0263 70.6138 26.8494 70.5612 26.6681 70.5578C26.4868 70.5545 26.308 70.6004 26.1509 70.6908C25.9937 70.7812 25.8641 70.9126 25.7759 71.071C25.6876 71.2294 25.6441 71.4088 25.65 71.59C25.6576 71.959 25.7958 72.3133 26.04 72.59C26.3477 72.9757 26.7118 73.3128 27.12 73.59L27.34 73.33C27.0755 73.1141 26.8432 72.8615 26.65 72.58C26.5103 72.379 26.4273 72.1441 26.41 71.9C26.4029 71.7119 26.4632 71.5275 26.58 71.38C26.6269 71.3121 26.6897 71.2565 26.7629 71.2182C26.836 71.1799 26.9174 71.1599 27 71.16C27.0987 71.162 27.1952 71.1895 27.28 71.24C27.3786 71.2946 27.4613 71.3738 27.52 71.47C27.4069 71.6941 27.3067 71.9244 27.22 72.16L27.91 72.46C27.9817 72.1002 28.1282 71.7595 28.34 71.46C28.4049 71.3542 28.4941 71.2655 28.6002 71.2012C28.7063 71.1368 28.8262 71.0987 28.95 71.09C29.0614 71.0893 29.17 71.1243 29.26 71.19C29.2972 71.2179 29.3275 71.2542 29.3483 71.2958C29.3691 71.3375 29.38 71.3834 29.38 71.43C29.3694 71.6687 29.2736 71.8958 29.11 72.07C28.8945 72.3449 28.6341 72.5816 28.34 72.77L28.99 73.38C29.2422 73.1207 29.4576 72.828 29.63 72.51C29.7694 72.2727 29.8484 72.0049 29.86 71.73C29.8645 71.4815 29.8024 71.2363 29.68 71.02C29.5838 70.8243 29.4152 70.6737 29.21 70.6V69.99H30.3C30.3568 70.2033 30.471 70.3969 30.63 70.55C30.8779 70.7853 31.192 70.9389 31.53 70.99V71.47H31.27C31.1938 71.4667 31.119 71.4916 31.06 71.54C31.0044 71.5888 30.9687 71.6565 30.96 71.73C31.052 71.9696 31.1983 72.1846 31.3874 72.3581C31.5766 72.5316 31.8034 72.6589 32.05 72.73C32.0872 72.7292 32.1238 72.7198 32.1568 72.7024C32.1898 72.6851 32.2183 72.6603 32.24 72.63C32.2912 72.5609 32.3161 72.4758 32.31 72.39V72.26H33.52V73.26L34.3 73.69V70.05H37.46V70.66H36.31C36.0498 70.6477 35.7951 70.7374 35.6 70.91C35.5093 70.9859 35.4364 71.0807 35.3863 71.1879C35.3362 71.295 35.3101 71.4117 35.31 71.53C35.3204 71.9014 35.4198 72.265 35.6 72.59C35.8055 73.0004 36.0757 73.3752 36.4 73.7L36.66 73.53C36.4454 73.3304 36.2691 73.0931 36.14 72.83C36.0277 72.5888 35.9697 72.326 35.97 72.06C35.975 71.8759 36.0504 71.7008 36.1806 71.5706C36.3108 71.4404 36.4859 71.365 36.67 71.36H37.45V73.18L38.23 73.7V70.06H39.01L38.62 69.37H37.7V69.39ZM31.5 70.78C31.3539 70.7421 31.2284 70.6489 31.15 70.52C31.058 70.3773 31.0126 70.2096 31.02 70.04C31.0245 69.9201 31.0588 69.8032 31.12 69.7C31.1402 69.6607 31.1701 69.6273 31.2069 69.6028C31.2436 69.5783 31.286 69.5636 31.33 69.56C31.3581 69.5614 31.385 69.5719 31.4067 69.59C31.4283 69.608 31.4435 69.6326 31.45 69.66C31.4896 69.7334 31.507 69.8168 31.5 69.9V70.78Z" fill="#B81F53"/>
<path d="M54.76 73.26L55.54 73.78V70.09H56.32L55.93 69.4H41.27L41.66 70.09H44.66V70.7H42.25L42.16 70.96C42.4904 71.0456 42.7933 71.2143 43.04 71.45C43.1424 71.5424 43.2245 71.6549 43.2813 71.7805C43.3381 71.9061 43.3683 72.0421 43.37 72.18C43.3685 72.239 43.3532 72.2968 43.3254 72.3489C43.2977 72.401 43.2582 72.4458 43.21 72.48C43.0922 72.576 42.9505 72.6382 42.8 72.66C42.7599 72.5695 42.6937 72.4929 42.61 72.44C42.5404 72.3874 42.4571 72.3561 42.37 72.35C42.3173 72.3476 42.2648 72.3572 42.2163 72.3779C42.1678 72.3987 42.1246 72.4302 42.09 72.47C42.0147 72.5552 41.9752 72.6663 41.98 72.78C41.9821 72.872 42.0081 72.9619 42.0554 73.0408C42.1028 73.1197 42.1698 73.1849 42.25 73.23C42.4361 73.3642 42.6607 73.4343 42.89 73.43L43.41 74.6L43.8 74.38L43.11 73.38C43.3421 73.3445 43.5581 73.2399 43.73 73.08C43.8052 73.0136 43.8654 72.9321 43.9068 72.8407C43.9482 72.7494 43.9697 72.6503 43.97 72.55C43.9677 72.3262 43.9018 72.1077 43.78 71.92C43.6576 71.7036 43.4864 71.5187 43.28 71.38H44.67V73.26L45.45 73.69V70.08H46.79V73.2L47.57 73.72V70.08H50.57V71.26H48.76C48.7153 71.2595 48.671 71.2682 48.6298 71.2854C48.5885 71.3026 48.5512 71.3279 48.52 71.36C48.488 71.3911 48.4626 71.4285 48.4454 71.4697C48.4282 71.511 48.4196 71.5553 48.42 71.6C48.4314 71.8505 48.5264 72.0899 48.69 72.28C48.87 72.52 49.04 72.64 49.2 72.64C49.2172 72.648 49.236 72.6522 49.255 72.6522C49.274 72.6522 49.2928 72.648 49.31 72.64C49.3293 72.6266 49.3448 72.6086 49.3553 72.5876C49.3658 72.5667 49.3709 72.5434 49.37 72.52V72.22C49.369 72.1922 49.3739 72.1645 49.3842 72.1387C49.3945 72.1128 49.4101 72.0894 49.43 72.07C49.4406 72.0497 49.4563 72.0325 49.4756 72.0202C49.4949 72.0079 49.5171 72.0009 49.54 72H50.54V73.26L51.32 73.69V70.08H52.72V71.55H52.46C52.4312 71.5488 52.4026 71.5545 52.3765 71.5667C52.3504 71.5789 52.3276 71.5972 52.31 71.62C52.2865 71.637 52.2678 71.6596 52.2555 71.6859C52.2433 71.7122 52.2379 71.7411 52.24 71.77C52.24 71.9 52.39 72.12 52.68 72.41C52.97 72.7 53.19 72.85 53.32 72.85C53.3432 72.8502 53.3658 72.8437 53.3854 72.8312C53.4049 72.8188 53.4204 72.801 53.43 72.78C53.4691 72.7244 53.4901 72.658 53.49 72.59V72.26H54.79V73.26H54.76ZM53.46 70.13H54.76V71.56H53.46V70.13Z" fill="#B81F53"/>
<path d="M55.57 74.2C55.4084 74.0423 55.2026 73.9377 54.98 73.9C54.8672 73.8848 54.7528 73.8848 54.64 73.9C54.54 73.9342 54.4481 73.9887 54.37 74.06L54.67 74.54C54.7333 74.4893 54.8042 74.4489 54.88 74.42C54.9561 74.407 55.0339 74.407 55.11 74.42C55.31 74.42 55.7 74.74 56.29 75.42L56.76 75.91L57.02 75.69C56.67 75.31 56.19 74.83 55.57 74.25" fill="#B81F53"/>
<path d="M35.02 39.82L34.17 40.1C34.5141 40.2945 34.9048 40.3913 35.3 40.38H35.39H35.6H47.66C47.79 40.05 47.91 39.71 48.03 39.38H36.03C35.7104 39.5561 35.3757 39.7034 35.03 39.82" fill="#B81F53"/>
<path d="M21.61 40.37H21.68C22.0855 40.3897 22.4881 40.2925 22.84 40.09L21.99 39.81C21.6436 39.6951 21.3088 39.5477 20.99 39.37H8.98999C9.09999 39.71 9.22999 40.05 9.35999 40.37H21.61Z" fill="#B81F53"/>
<path d="M35.67 41.26C34.9388 41.6546 34.1208 41.8609 33.29 41.86V41.86C33.2108 41.8759 33.1292 41.8759 33.05 41.86C32.555 42.0937 32.0243 42.2424 31.48 42.3H46.81C46.98 41.97 47.15 41.63 47.3 41.3H35.67" fill="#B81F53"/>
<path d="M23.98 41.86C23.9008 41.8759 23.8192 41.8759 23.74 41.86V41.86C22.9138 41.8586 22.1004 41.6561 21.37 41.27H9.64001C9.79001 41.61 9.96001 41.95 10.13 42.27H25.56C25.0127 42.2113 24.4789 42.0626 23.98 41.83" fill="#B81F53"/>
<path d="M5.53999 32.89C5.03226 33.0086 4.59091 33.3207 4.30999 33.76C3.30999 35.34 4.03999 38.53 4.64999 41.1C4.86999 42.02 5.06999 42.89 5.15999 43.53C5.15999 43.64 5.15999 43.76 5.20999 43.88C5.37302 44.6227 5.39338 45.3897 5.26999 46.14L5.21999 46.32H5.39999C6.10915 46.5939 6.76299 46.9936 7.32999 47.5L7.60999 47.72C8.12999 48.12 8.77999 48.72 9.45999 49.38C11.34 51.15 13.66 53.38 15.52 53.38H15.65C16.1797 53.3504 16.6777 53.1176 17.04 52.73C16.9583 52.9804 16.9268 53.2444 16.9474 53.507C16.968 53.7695 17.0402 54.0254 17.16 54.26C18.01 55.94 21.16 56.88 23.69 57.64C24.6 57.91 25.45 58.17 26.05 58.42L26.38 58.55C27.1094 58.7793 27.7882 59.1458 28.38 59.63L28.51 59.76L28.64 59.63C29.2354 59.1513 29.9132 58.7853 30.64 58.55L30.97 58.42C31.57 58.17 32.43 57.91 33.33 57.64C35.86 56.88 39.01 55.94 39.86 54.26C40.1024 53.7904 40.1492 53.2439 39.99 52.74C40.3506 53.1156 40.8401 53.3407 41.36 53.37H41.49C43.35 53.37 45.68 51.18 47.55 49.37C48.24 48.72 48.89 48.11 49.4 47.71L49.68 47.49C50.242 46.9819 50.8929 46.5819 51.6 46.31H51.78L51.73 46.14C51.6122 45.3893 51.6325 44.6234 51.79 43.88C51.79 43.76 51.79 43.64 51.84 43.52C51.93 42.87 52.13 42.01 52.35 41.09C52.96 38.52 53.72 35.32 52.68 33.75C52.3963 33.3027 51.9467 32.9862 51.43 32.87C51.9377 32.7514 52.3791 32.4392 52.66 32C53.66 30.42 52.93 27.23 52.32 24.66C52.1 23.74 51.9 22.87 51.81 22.23C51.81 22.12 51.81 22 51.76 21.88C51.597 21.1373 51.5766 20.3703 51.7 19.62V19.44H51.52C50.8129 19.1681 50.162 18.768 49.6 18.26L49.32 18.04C48.8 17.64 48.15 17.04 47.47 16.38C45.59 14.61 43.27 12.38 41.41 12.38H41.28C40.7502 12.4096 40.2523 12.6424 39.89 13.03C40.0406 12.5309 39.9904 11.9926 39.75 11.53C38.9 9.84999 35.75 8.90999 33.22 8.14999C32.32 7.87999 31.46 7.61999 30.86 7.36999L30.58 7.25999C29.8506 7.03071 29.1718 6.66413 28.58 6.17999L28.46 6.04999L28.33 6.17999C27.7346 6.65864 27.0568 7.02463 26.33 7.25999L26 7.38999C25.4 7.63999 24.54 7.89999 23.64 8.16999C21.11 8.92999 17.96 9.86999 17.11 11.55C16.8675 12.0196 16.8208 12.566 16.98 13.07C16.6194 12.6944 16.1299 12.4693 15.61 12.44C13.73 12.33 11.34 14.59 9.41999 16.44C8.72999 17.09 8.07999 17.7 7.56999 18.1L7.28999 18.32C6.72799 18.828 6.0771 19.2281 5.36999 19.5H5.18999L5.23999 19.68C5.34511 20.4155 5.31802 21.164 5.15999 21.89C5.15999 22.01 5.15999 22.13 5.10999 22.24C5.01999 22.88 4.81999 23.75 4.59999 24.67C3.98999 27.24 3.22999 30.44 4.25999 32.01C4.54135 32.4551 4.98692 32.7713 5.49999 32.89H5.53999ZM28.46 10.26C32.9308 10.2382 37.3075 11.5436 41.036 14.0108C44.7644 16.4779 47.677 19.996 49.4048 24.1195C51.1326 28.243 51.598 32.7864 50.7421 37.1746C49.8862 41.5627 47.7474 45.5982 44.5965 48.7701C41.4457 51.9419 37.4245 54.1075 33.0422 54.9926C28.6598 55.8777 24.1133 55.4425 19.9785 53.7422C15.8436 52.0418 12.3062 49.1527 9.81431 45.4407C7.32239 41.7288 5.98796 37.3608 5.97999 32.89C5.96139 26.9084 8.31906 21.1643 12.5346 16.9206C16.7501 12.677 22.4784 10.2812 28.46 10.26" fill="#B81F53"/>
<path d="M20.27 51.79H36.66C37.3465 51.498 38.0145 51.164 38.66 50.79H18.25C18.8966 51.1621 19.5644 51.496 20.25 51.79" fill="#B81F53"/>
<path d="M28.46 53.49C30.4049 53.4876 32.3401 53.215 34.21 52.68H22.72C24.5864 53.2154 26.5183 53.4881 28.46 53.49" fill="#B81F53"/>
<path d="M33.46 32.9C33.1349 32.7153 32.7633 32.6285 32.39 32.65C32.1676 32.6507 31.9461 32.6776 31.73 32.73C31.3925 32.8162 31.0843 32.9916 30.838 33.238C30.5916 33.4843 30.4162 33.7924 30.33 34.13C30.5814 34.4399 30.852 34.7338 31.14 35.01C31.7918 35.4922 32.2296 36.2098 32.36 37.01C32.3693 37.3768 32.3011 37.7414 32.16 38.08C32.0168 38.3998 31.81 38.6872 31.5521 38.9244C31.2942 39.1617 30.9907 39.3439 30.66 39.46C31.9914 39.5182 33.2988 39.0919 34.34 38.26C34.5613 38.0278 34.7288 37.7497 34.8307 37.4456C34.9327 37.1415 34.9666 36.8187 34.93 36.5C34.808 35.9652 34.5417 35.474 34.16 35.08C33.67 34.41 33.16 33.72 33.45 32.92" fill="#B81F53"/>
<path d="M35.83 33.35C35.4664 33.3468 35.1048 33.4042 34.76 33.52C34.4275 33.5957 34.1289 33.7784 33.91 34.04C34.0721 34.3334 34.2559 34.6141 34.46 34.88C34.8774 35.3406 35.1579 35.9086 35.27 36.52C35.3055 36.8834 35.2622 37.2501 35.1432 37.5953C35.0241 37.9404 34.832 38.2558 34.58 38.52C33.7449 39.2484 32.6871 39.6715 31.58 39.72H31.88C33.5476 39.8371 35.2045 39.3743 36.57 38.41C36.8515 38.185 37.0755 37.8963 37.2233 37.5677C37.3711 37.239 37.4385 36.8799 37.42 36.52C37.3532 36.0526 37.1517 35.6147 36.84 35.26C36.48 34.75 36.07 34.18 36.53 33.4C36.3035 33.3305 36.0668 33.3001 35.83 33.31" fill="#B81F53"/>
<path d="M31.86 37.95C31.9791 37.6552 32.0304 37.3373 32.01 37.02C31.8788 36.3129 31.4816 35.683 30.9 35.26C30.2779 34.6846 29.7573 34.0085 29.36 33.26L29.3 33.13C29.06 32.53 28.89 32.13 28.49 32.13C28.09 32.13 27.91 32.53 27.67 33.13C27.2216 33.9257 26.6702 34.6587 26.03 35.31C25.4934 35.7296 25.1361 36.3372 25.03 37.01C25.0096 37.3273 25.0609 37.6452 25.18 37.94C25.59 39 27.18 39.48 28.49 39.48H28.59C29.95 39.48 31.49 38.99 31.9 37.93" fill="#B81F53"/>
<path d="M22.08 36.54C22.0494 36.8522 22.0863 37.1674 22.1881 37.4641C22.2899 37.7609 22.4542 38.0323 22.67 38.26C23.7168 39.0776 25.0236 39.4895 26.35 39.42C26.0139 39.3074 25.7045 39.1268 25.4413 38.8894C25.178 38.6519 24.9666 38.3628 24.82 38.04C24.6891 37.6991 24.6312 37.3346 24.65 36.97C24.7804 36.1698 25.2182 35.4522 25.87 34.97C26.1583 34.694 26.4288 34.4001 26.68 34.09C26.5882 33.7552 26.4109 33.4501 26.1654 33.2046C25.9199 32.9591 25.6148 32.7818 25.28 32.69C25.0639 32.6376 24.8424 32.6107 24.62 32.61C24.2467 32.5885 23.8751 32.6753 23.55 32.86V32.86C23.85 33.66 23.34 34.35 22.85 35.02C22.4717 35.4293 22.2124 35.9341 22.1 36.48" fill="#B81F53"/>
<path d="M19.6 36.54C19.5815 36.8999 19.6489 37.259 19.7967 37.5877C19.9445 37.9163 20.1685 38.205 20.45 38.43C21.8188 39.4034 23.4852 39.8669 25.16 39.74H25.46C24.3529 39.6915 23.2951 39.2684 22.46 38.54C22.208 38.2758 22.0159 37.9604 21.8968 37.6153C21.7778 37.2701 21.7345 36.9034 21.77 36.54C21.8801 35.9279 22.1608 35.3594 22.58 34.9C22.7865 34.6359 22.9704 34.3549 23.13 34.06C22.9111 33.7984 22.6125 33.6157 22.28 33.54C21.9202 33.4144 21.541 33.3535 21.16 33.36C20.924 33.3533 20.6883 33.3803 20.46 33.44C20.6131 33.7351 20.6667 34.0718 20.6126 34.3999C20.5585 34.7279 20.3997 35.0297 20.16 35.26C19.8571 35.6103 19.6626 36.0411 19.6 36.5" fill="#B81F53"/>
<path d="M24.39 40.61L24.59 40.48C24.6952 40.4033 24.7923 40.3162 24.88 40.22L25.01 40.09C24.6191 40.0872 24.2285 40.0638 23.84 40.02V40.02H23.77L23.62 40.14C23.3643 40.3829 23.0629 40.5725 22.7333 40.6978C22.4037 40.8231 22.0525 40.8817 21.7 40.87C22.3456 41.1836 23.0524 41.3509 23.77 41.36V41.36C23.86 41.36 23.87 41.36 23.87 41.3C23.86 41.2505 23.86 41.1995 23.87 41.15C23.93 40.9 24.16 40.75 24.43 40.58" fill="#B81F53"/>
<path d="M25.71 41.83C25.9022 41.8309 26.0937 41.8074 26.28 41.76C26.3662 41.7433 26.4439 41.6974 26.5 41.63L26.4 41.5C26.2471 41.2862 26.1699 41.0274 26.1807 40.7647C26.1916 40.502 26.2899 40.2505 26.46 40.05V40.05H26.06C25.41 40.13 25.28 40.27 25.12 40.45C25.0205 40.5675 24.9062 40.6717 24.78 40.76L24.58 40.89C24.37 41.02 24.18 41.15 24.16 41.25C24.14 41.35 24.16 41.32 24.16 41.37C24.591 41.692 25.1234 41.8482 25.66 41.81" fill="#B81F53"/>
<path d="M28.5 39.86C27.5 39.86 26.99 39.99 26.73 40.28C26.6181 40.4226 26.5573 40.5987 26.5573 40.78C26.5573 40.9613 26.6181 41.1373 26.73 41.28C26.7711 41.341 26.818 41.3979 26.87 41.45C27.0184 41.5575 27.1841 41.6386 27.36 41.69C27.6151 41.7556 27.8512 41.8803 28.0492 42.054C28.2473 42.2278 28.4017 42.4456 28.5 42.69C28.5983 42.4456 28.7527 42.2278 28.9507 42.054C29.1488 41.8803 29.3849 41.7556 29.64 41.69C29.8142 41.6345 29.9793 41.5536 30.13 41.45C30.1871 41.4028 30.2346 41.3451 30.27 41.28C30.3772 41.1353 30.435 40.96 30.435 40.78C30.435 40.5999 30.3772 40.4247 30.27 40.28C30.01 40 29.45 39.86 28.5 39.86Z" fill="#B81F53"/>
<path d="M30.51 41.62C30.5676 41.6857 30.6447 41.7312 30.73 41.75C30.9153 41.8022 31.1076 41.8258 31.3 41.82C31.8402 41.8621 32.3763 41.6977 32.8 41.36C32.8102 41.3207 32.8102 41.2794 32.8 41.24C32.8 41.14 32.58 41.01 32.38 40.88L32.18 40.75C32.0538 40.6617 31.9395 40.5575 31.84 40.44C31.68 40.26 31.55 40.13 30.9 40.04H30.5C30.6701 40.2405 30.7684 40.492 30.7793 40.7547C30.7902 41.0174 30.713 41.2762 30.56 41.49C30.535 41.5451 30.5012 41.5957 30.46 41.64" fill="#B81F53"/>
<path d="M33.28 41.38C33.9982 41.3759 34.7061 41.2084 35.35 40.89V40.89C34.6407 40.9086 33.9521 40.6504 33.43 40.17L33.28 40.05C33.2689 40.0453 33.257 40.0429 33.245 40.0429C33.233 40.0429 33.2211 40.0453 33.21 40.05C32.83 40.05 32.43 40.11 32.04 40.12L32.16 40.26C32.2477 40.3562 32.3448 40.4433 32.45 40.52L32.65 40.65C32.92 40.82 33.16 40.97 33.21 41.22C33.2199 41.2695 33.2199 41.3205 33.21 41.37C33.21 41.37 33.21 41.37 33.31 41.37" fill="#B81F53"/>
<path d="M24.16 48C24.26 48 25.7 48.46 25.96 48.5C26.1829 48.5551 26.415 48.5622 26.6408 48.5209C26.8667 48.4795 27.0811 48.3906 27.27 48.26L27.35 48.19C27.4136 48.1173 27.4673 48.0366 27.51 47.95C27.7 47.47 27.24 46.88 25.8 46.53C23.6971 46.0587 21.5137 46.0792 19.42 46.59C18.35 46.9 17.9 47.35 17.91 47.8C17.9148 47.9262 17.9491 48.0494 18.01 48.16V48.16C18.1687 48.4077 18.3848 48.6136 18.64 48.76C18.792 48.8524 18.9528 48.9295 19.12 48.99V48.99C19.4589 49.1078 19.8067 49.1981 20.16 49.26C21.2997 49.4774 22.4616 49.5547 23.62 49.49C25.22 49.4 25.11 48.91 24.76 48.7C24.4975 48.5588 24.2437 48.4018 24 48.23C23.78 48.07 23.92 47.9 24.13 47.99" fill="#B81F53"/>
<path d="M25.35 48.78V48.88C25.37 48.9723 25.37 49.0677 25.35 49.16C25.22 49.68 24.52 49.84 23.89 49.9H40.09C40.56 49.58 41.01 49.24 41.45 48.9H25.74C25.6124 48.8554 25.4821 48.8187 25.35 48.79" fill="#B81F53"/>
<path d="M20.09 49.68C19.7115 49.6054 19.3401 49.4983 18.98 49.36C18.7999 49.2875 18.626 49.2006 18.46 49.1C18.3555 49.0415 18.2582 48.9711 18.17 48.89H15.48C15.92 49.25 16.37 49.59 16.84 49.89H21.69C21.1529 49.8474 20.6187 49.7739 20.09 49.67" fill="#B81F53"/>
<path d="M31.8 44.16C31.7672 44.0665 31.7556 43.9668 31.766 43.8683C31.7763 43.7697 31.8084 43.6747 31.86 43.59C31.9323 43.482 32.0325 43.3956 32.15 43.34C32.2766 43.2713 32.4109 43.2176 32.55 43.18H10.61C10.81 43.52 11.02 43.86 11.24 44.18H31.81" fill="#B81F53"/>
<path d="M39.5 43.51C40.1572 43.6571 40.7926 43.8891 41.39 44.2H45.69C45.91 43.87 46.12 43.53 46.32 43.2H37.82C38.3857 43.2742 38.9467 43.381 39.5 43.52" fill="#B81F53"/>
<path d="M42.16 45.26C42.1211 45.499 41.9967 45.7157 41.81 45.87L41.74 45.93L41.51 46.11H44.31C44.59 45.78 44.85 45.44 45.11 45.11H42.16C42.1563 45.1599 42.1563 45.2101 42.16 45.26" fill="#B81F53"/>
<path d="M19.55 46.09C20.5614 45.8453 21.5994 45.7277 22.64 45.74C23.7299 45.7306 24.8172 45.8481 25.88 46.09H29.82C29.7626 45.9112 29.7626 45.7188 29.82 45.54C29.8622 45.3626 29.9521 45.2 30.08 45.07H11.86C12.12 45.42 12.38 45.76 12.66 46.07L19.55 46.09Z" fill="#B81F53"/>
<path d="M17.49 47.78C17.4863 47.4833 17.5973 47.1967 17.8 46.98H13.44C13.77 47.33 14.11 47.67 14.44 47.98H17.49C17.4851 47.9101 17.4851 47.8399 17.49 47.77" fill="#B81F53"/>
<path d="M38.16 47.26H38.02C36.8022 47.508 35.5629 47.6353 34.32 47.64C33.0562 47.7036 31.7961 47.4564 30.65 46.92H27.65C27.7221 46.9999 27.7858 47.087 27.84 47.18C27.9663 47.4127 27.995 47.686 27.92 47.94H42.47C42.82 47.61 43.16 47.28 43.47 46.94H39.43C39.04 47.04 38.63 47.15 38.18 47.24" fill="#B81F53"/>
<path d="M33.89 45.14C33.6452 45.1295 33.4013 45.1028 33.16 45.06C32.8297 44.9994 32.4955 44.9626 32.16 44.95H31.9C31.53 44.9486 31.161 44.9888 30.8 45.07C30.38 45.17 29.73 45.72 30.47 46.34C31.21 46.96 32.47 47.34 34.33 47.34C35.5458 47.3332 36.758 47.2093 37.95 46.97H38.08C39.2731 46.7908 40.4128 46.3541 41.42 45.69H41.48C41.597 45.5926 41.678 45.4588 41.71 45.31C41.71 45.1 41.56 44.57 39.38 44.02C37.8892 43.6655 36.3624 43.4843 34.83 43.48H34.75C33.9291 43.4185 33.1045 43.531 32.33 43.81C32.2726 43.8397 32.2216 43.8805 32.18 43.93C32.1641 43.9627 32.1558 43.9986 32.1558 44.035C32.1558 44.0714 32.1641 44.1073 32.18 44.14C32.39 44.66 33.25 44.78 34.04 44.78C34.48 44.78 34.46 44.99 34.38 45.09C34.3158 45.1526 34.2387 45.2003 34.154 45.2297C34.0693 45.2591 33.9792 45.2694 33.89 45.26" fill="#B81F53"/>
<path d="M45.72 38.68L40.61 38.26C40.61 38.4 40.61 38.53 40.56 38.66L45.68 39.1C45.68 38.97 45.68 38.83 45.68 38.7" fill="#B81F53"/>
<path d="M45.55 34.17L40.48 35.07L40.54 35.47L45.61 34.57C45.5998 34.4354 45.5797 34.3017 45.55 34.17" fill="#B81F53"/>
<path d="M39.55 32.04C39.61 32.16 39.66 32.29 39.72 32.41L44.39 30.26C44.39 30.14 44.28 30.01 44.22 29.89L39.55 32.04Z" fill="#B81F53"/>
<path d="M42.07 26.34L41.82 26.02L37.82 29.35C37.9088 29.4523 37.9923 29.5591 38.07 29.67L42.07 26.34Z" fill="#B81F53"/>
<path d="M38.98 23.31L38.65 23.07L35.65 27.28C35.7609 27.3578 35.8677 27.4412 35.97 27.53L38.98 23.31Z" fill="#B81F53"/>
<path d="M33.38 25.97L35.25 21.14L34.87 20.99L33 25.81L33.38 25.97" fill="#B81F53"/>
<path d="M11.41 39.08L16.41 38.65C16.41 38.52 16.41 38.38 16.41 38.25L11.41 38.68C11.41 38.81 11.41 38.94 11.41 39.08Z" fill="#B81F53"/>
<path d="M16.53 35.06L11.53 34.17C11.53 34.3 11.48 34.44 11.47 34.57L16.47 35.46L16.53 35.06" fill="#B81F53"/>
<path d="M12.69 30.26L17.31 32.42C17.36 32.29 17.42 32.17 17.48 32.05L12.86 29.87C12.8 29.99 12.74 30.11 12.69 30.24" fill="#B81F53"/>
<path d="M19.16 29.34L15.24 26.04C15.1512 26.1423 15.0677 26.2491 14.99 26.36L18.9 29.66C18.99 29.55 19.07 29.44 19.16 29.34" fill="#B81F53"/>
<path d="M20.92 27.62L21.24 27.37L18.16 23.26L17.84 23.51L20.92 27.62Z" fill="#B81F53"/>
<path d="M23.51 26.03L21.42 21.33L21.05 21.5L23.16 26.2L23.53 26.03" fill="#B81F53"/>
<path d="M40.66 37.06L49.59 36.66C49.59 36.52 49.59 36.39 49.59 36.25L40.66 36.64C40.66 36.79 40.66 36.92 40.66 37.06" fill="#B81F53"/>
<path d="M40.23 33.91L48.77 31.26C48.77 31.13 48.69 31 48.66 30.87L40.16 33.52C40.16 33.65 40.24 33.78 40.27 33.91" fill="#B81F53"/>
<path d="M39.01 30.99L46.57 26.16C46.5024 26.043 46.429 25.9296 46.35 25.82L38.79 30.64L39.01 30.99Z" fill="#B81F53"/>
<path d="M43.16 21.87L42.87 21.59L36.77 28.26L37.06 28.54L43.16 21.87Z" fill="#B81F53"/>
<path d="M38.86 18.7L38.51 18.5L34.3 26.42L34.65 26.62L38.86 18.7Z" fill="#B81F53"/>
<path d="M16.37 36.65L7.51001 36.26C7.51001 36.39 7.51001 36.53 7.51001 36.67L16.37 37.06C16.37 36.92 16.37 36.78 16.37 36.65Z" fill="#B81F53"/>
<path d="M16.9 33.51L8.41999 30.83L8.29999 31.22L16.78 33.9L16.9 33.51Z" fill="#B81F53"/>
<path d="M18.23 30.63L10.72 25.84C10.65 25.96 10.57 26.07 10.5 26.18L18.01 30.97C18.09 30.86 18.16 30.74 18.23 30.63Z" fill="#B81F53"/>
<path d="M20.16 28.32L14.03 21.84L13.74 22.12L19.87 28.6L20.16 28.32Z" fill="#B81F53"/>
<path d="M17.49 19.12L21.99 26.84L22.34 26.63L17.84 18.91L17.49 19.12Z" fill="#B81F53"/>
<path d="M14.16 19.39L13.86 19.13L13.38 19.68C13.3314 19.7301 13.2939 19.7898 13.2698 19.8552C13.2457 19.9206 13.2355 19.9904 13.24 20.06C13.239 20.128 13.2528 20.1954 13.2804 20.2576C13.3081 20.3197 13.3488 20.3751 13.4 20.42C13.5624 20.5514 13.7548 20.6407 13.96 20.68C14.2354 20.7171 14.5146 20.7171 14.79 20.68V20.5C14.6079 20.4977 14.4267 20.4742 14.25 20.43C14.1147 20.3933 13.9886 20.3286 13.88 20.24C13.7996 20.1719 13.7493 20.0749 13.74 19.97C13.7295 19.8698 13.7582 19.7695 13.82 19.69L14.16 19.39Z" fill="#B81F53"/>
<path d="M16.46 14.84C16.5206 14.8021 16.589 14.7782 16.66 14.77C16.7258 14.7547 16.7942 14.7547 16.86 14.77L17.58 15.08C17.7 15.01 17.58 14.9 17.26 14.74L16.92 14.58C16.7683 14.512 16.6058 14.4714 16.44 14.46C16.3008 14.4506 16.1618 14.4819 16.04 14.55C15.9873 14.5823 15.94 14.6228 15.9 14.67L16.29 14.94C16.3443 14.8967 16.4011 14.8566 16.46 14.82" fill="#B81F53"/>
<path d="M18.49 14.07L18.67 13.98C18.7916 13.9356 18.9207 13.9152 19.05 13.92C19.2303 13.93 19.4085 13.9636 19.58 14.02L19.83 13.91L19.16 13.32C19.0732 13.221 18.958 13.1511 18.83 13.12C18.7159 13.0852 18.5941 13.0852 18.48 13.12C18.3854 13.1635 18.2978 13.2207 18.22 13.29L18.61 13.56C18.6045 13.5474 18.6017 13.5338 18.6017 13.52C18.6017 13.5062 18.6045 13.4926 18.61 13.48L18.74 13.4C18.7731 13.3854 18.8089 13.3778 18.845 13.3778C18.8812 13.3778 18.9169 13.3854 18.95 13.4C19.0473 13.4384 19.1358 13.4962 19.21 13.57L19.61 13.86C19.3195 13.7636 19.022 13.69 18.72 13.64C18.556 13.5977 18.384 13.5977 18.22 13.64C18.1727 13.6551 18.1286 13.6788 18.09 13.71C18.0585 13.7313 18.0314 13.7585 18.01 13.79L18.36 14.1L18.49 14.02" fill="#B81F53"/>
<path d="M14.05 18.52H14.16L14.25 18.58C14.2843 18.621 14.307 18.6705 14.3158 18.7232C14.3246 18.7759 14.3191 18.8301 14.3 18.88C14.254 19.0171 14.175 19.1407 14.07 19.24C14.3098 19.3989 14.584 19.4983 14.87 19.53C14.9802 19.546 15.0925 19.5382 15.1995 19.5072C15.3064 19.4761 15.4055 19.4225 15.49 19.35C15.5599 19.2863 15.6146 19.2077 15.65 19.12C15.6995 19.0234 15.7301 18.9181 15.74 18.81L16.05 19.14L16.57 19.03L15.15 17.53C15.36 17.34 15.58 17.16 15.8 16.98L16.89 18.37H17.43L16.15 16.74L16.87 16.2L17.21 16.72L17.02 16.84C17.0057 16.8482 16.9937 16.8598 16.9849 16.8737C16.9762 16.8877 16.9711 16.9036 16.97 16.92C16.9629 16.934 16.9593 16.9494 16.9593 16.965C16.9593 16.9806 16.9629 16.996 16.97 17.01C17.0809 17.1241 17.231 17.192 17.39 17.2C17.5417 17.2559 17.7083 17.2559 17.86 17.2C17.8936 17.1796 17.9185 17.1476 17.93 17.11C17.9437 17.0712 17.9437 17.0288 17.93 16.99L17.26 15.99L17.76 15.66L18.76 17.2H19.28L18.15 15.46C18.67 15.1533 19.2 14.8633 19.74 14.59L20.02 15.15L19.12 15.6C19.0954 15.6112 19.0736 15.6278 19.0563 15.6486C19.039 15.6694 19.0266 15.6938 19.02 15.72C19.0098 15.7437 19.0045 15.7692 19.0045 15.795C19.0045 15.8208 19.0098 15.8463 19.02 15.87C19.0903 15.9944 19.199 16.0927 19.33 16.15C19.3819 16.1858 19.4411 16.2097 19.5033 16.2201C19.5655 16.2305 19.6292 16.227 19.69 16.21C19.6965 16.2013 19.7 16.1908 19.7 16.18C19.7 16.1692 19.6965 16.1587 19.69 16.15C19.7 16.1243 19.7 16.0957 19.69 16.07L19.61 15.91C19.6029 15.896 19.5993 15.8806 19.5993 15.865C19.5993 15.8494 19.6029 15.834 19.61 15.82C19.6015 15.7974 19.6015 15.7726 19.61 15.75L20.1 15.5L20.46 16.22H20.98L20.06 14.26C20.63 14 21.22 13.76 21.81 13.55L22.07 14.26C21.9326 14.177 21.7846 14.1131 21.63 14.07C21.5262 14.0349 21.4138 14.0349 21.31 14.07C21.1496 14.1233 21.0144 14.2336 20.93 14.38C20.8982 14.4508 20.8818 14.5274 20.8818 14.605C20.8818 14.6826 20.8982 14.7592 20.93 14.83C21.0145 15.0174 21.1688 15.1645 21.36 15.24C21.4459 15.2926 21.5418 15.3269 21.6416 15.3407C21.7414 15.3545 21.843 15.3474 21.94 15.32C22.0232 15.2818 22.098 15.2274 22.16 15.16C22.2392 15.08 22.3065 14.9891 22.36 14.89L22.51 15.29L23.03 15.39L22.7 14.49C22.7361 14.3797 22.7939 14.2777 22.87 14.19C22.9343 14.114 23.0169 14.0555 23.11 14.02C23.1294 14.0075 23.1519 14.0009 23.175 14.0009C23.198 14.0009 23.2206 14.0075 23.24 14.02C23.2635 14.0302 23.2846 14.0452 23.3019 14.0642C23.3191 14.0832 23.3321 14.1056 23.34 14.13C23.3621 14.2389 23.3621 14.3511 23.34 14.46C23.3292 14.6002 23.2989 14.7382 23.25 14.87L23.72 14.99C23.7958 14.7321 23.7958 14.4579 23.72 14.2C23.6463 14.0174 23.5121 13.8656 23.34 13.77C23.2721 13.7155 23.1927 13.6772 23.1077 13.6581C23.0228 13.6391 22.9346 13.6397 22.85 13.66C22.786 13.6855 22.7255 13.7191 22.67 13.76C22.5994 13.8156 22.5356 13.8794 22.48 13.95L22.28 13.41C22.72 13.2567 23.17 13.1267 23.63 13.02L23.53 12.93L23.16 12.69C18.8106 13.8642 14.954 16.406 12.16 19.94L12.62 20.06C13.06 19.53 13.52 19.06 14.01 18.52H14.05ZM21.87 14.79C21.7952 14.8726 21.703 14.9375 21.6 14.98C21.545 14.9999 21.4849 14.9999 21.43 14.98C21.4052 14.9699 21.3827 14.955 21.3638 14.9361C21.3449 14.9172 21.33 14.8948 21.32 14.87C21.2999 14.8243 21.2895 14.7749 21.2895 14.725C21.2895 14.6751 21.2999 14.6257 21.32 14.58C21.3387 14.5336 21.3671 14.4917 21.4033 14.4572C21.4395 14.4227 21.4827 14.3964 21.53 14.38C21.6221 14.3587 21.7179 14.3587 21.81 14.38C21.9146 14.3914 22.0163 14.4219 22.11 14.47C22.0331 14.5936 21.9461 14.7107 21.85 14.82L21.87 14.79ZM14.69 17.88L15.25 18.47C15.2376 18.6239 15.2039 18.7753 15.15 18.92C15.1163 19.0284 15.0581 19.1277 14.98 19.21C14.9147 19.2691 14.8353 19.3102 14.7495 19.3295C14.6636 19.3488 14.5742 19.3455 14.49 19.32C14.5889 19.2002 14.6606 19.0603 14.7 18.91C14.7 18.77 14.7 18.68 14.7 18.63C14.6417 18.5701 14.5696 18.5255 14.49 18.5L14.16 18.35L14.72 17.85" fill="#B81F53"/>
<path d="M20.8 12.6C20.8725 12.5846 20.9475 12.5846 21.02 12.6C21.0862 12.6093 21.1505 12.6295 21.21 12.66L21.85 13.12C21.98 13.12 21.9 12.95 21.62 12.72L21.33 12.49C21.2011 12.3855 21.0509 12.3104 20.89 12.27C20.7555 12.2353 20.6145 12.2353 20.48 12.27L20.32 12.36L20.63 12.71C20.6816 12.6736 20.7391 12.6465 20.8 12.63" fill="#B81F53"/>
<path d="M29.59 14.85C29.6772 14.798 29.7805 14.7802 29.88 14.8H30.13L29.96 14.48H29.74C29.6091 14.4615 29.4758 14.4861 29.36 14.55C29.3105 14.5784 29.2679 14.6173 29.2351 14.6639C29.2022 14.7106 29.18 14.7638 29.17 14.82C29.1604 14.9191 29.1714 15.0192 29.2023 15.1139C29.2333 15.2086 29.2836 15.2958 29.35 15.37C29.4765 15.5286 29.6591 15.6324 29.86 15.66C29.9758 15.6806 30.0943 15.6806 30.21 15.66C30.3162 15.6376 30.4177 15.597 30.51 15.54L30.35 15.17C30.2428 15.2443 30.1247 15.3017 30 15.34C29.8908 15.3583 29.7793 15.3583 29.67 15.34C29.6361 15.337 29.6032 15.3264 29.5738 15.3092C29.5444 15.2919 29.5192 15.2682 29.5 15.24C29.4594 15.1817 29.4416 15.1105 29.45 15.04C29.4522 14.9969 29.4665 14.9553 29.4913 14.9199C29.5161 14.8845 29.5503 14.8568 29.59 14.84" fill="#B81F53"/>
<path d="M33.6 13.96C33.6415 13.9305 33.6891 13.9107 33.7393 13.902C33.7895 13.8933 33.841 13.8961 33.89 13.91L34.35 14.03L34.45 13.64L33.74 13.45C33.6079 13.4001 33.4621 13.4001 33.33 13.45C33.2689 13.4786 33.2148 13.5203 33.1716 13.5722C33.1284 13.624 33.0971 13.6847 33.08 13.75C33.03 13.9536 33.03 14.1664 33.08 14.37C33.153 14.6394 33.2606 14.8982 33.4 15.14L33.57 15.08C33.4925 14.9177 33.4354 14.7464 33.4 14.57C33.3698 14.435 33.3698 14.295 33.4 14.16C33.4367 14.0621 33.5031 13.9782 33.59 13.92" fill="#B81F53"/>
<path d="M42.34 17.73C42.18 17.73 42.09 17.88 42.05 18.12C42.0135 18.39 42.0444 18.6649 42.14 18.92C41.9616 18.9802 41.7684 18.9802 41.59 18.92C41.6011 18.8605 41.6011 18.7995 41.59 18.74C41.59 18.68 41.59 18.64 41.59 18.61C41.5634 18.5975 41.5344 18.5911 41.505 18.5911C41.4756 18.5911 41.4466 18.5975 41.42 18.61C41.3434 18.6247 41.2734 18.6632 41.22 18.72C41.19 18.7514 41.1687 18.79 41.1582 18.8321C41.1477 18.8741 41.1483 18.9182 41.16 18.96C41.1936 19.0651 41.2559 19.1586 41.34 19.23L41.19 19.94L41.44 20.01V19.32C41.7064 19.3954 41.9847 19.4192 42.26 19.39C42.4764 19.3761 42.6813 19.2877 42.84 19.14C42.9883 18.9793 43.0706 18.7687 43.0706 18.55C43.0706 18.3314 42.9883 18.1207 42.84 17.96C42.7664 17.8871 42.6754 17.8342 42.5757 17.8062C42.476 17.7782 42.3708 17.7761 42.27 17.8L42.34 17.73ZM42.68 18.45C42.6625 18.5524 42.6136 18.6467 42.54 18.72L42.36 18.88C42.3144 18.9119 42.2637 18.9355 42.21 18.95C42.1867 18.8143 42.1867 18.6757 42.21 18.54C42.2114 18.446 42.243 18.3548 42.3 18.28C42.3494 18.2233 42.4162 18.1847 42.49 18.17C42.5186 18.1615 42.5491 18.1617 42.5776 18.1706C42.6061 18.1795 42.6313 18.1967 42.65 18.22C42.6809 18.2488 42.7036 18.2852 42.7159 18.3256C42.7282 18.366 42.7296 18.4089 42.72 18.45" fill="#B81F53"/>
<path d="M41.73 21.04C41.5899 21.0187 41.4621 20.9478 41.37 20.84C41.2087 20.6638 41.074 20.4651 40.97 20.25C40.8836 20.0907 40.8421 19.911 40.85 19.73H40.67C40.6534 19.9711 40.6874 20.2129 40.77 20.44C40.8656 20.6951 41.0043 20.9319 41.18 21.14C41.2959 21.2862 41.4581 21.3885 41.64 21.43C41.7183 21.4493 41.8001 21.4494 41.8785 21.4303C41.9569 21.4111 42.0294 21.3733 42.09 21.32C42.2019 21.2044 42.2662 21.0509 42.27 20.89C42.2842 20.8115 42.2817 20.7309 42.2628 20.6533C42.2438 20.5758 42.2088 20.5031 42.16 20.44C42.1096 20.3802 42.044 20.3353 41.97 20.31C41.8819 20.2692 41.7869 20.2455 41.69 20.24V20.65C41.7625 20.6346 41.8375 20.6346 41.91 20.65C41.9722 20.6604 42.0288 20.6922 42.07 20.74C42.0988 20.7698 42.1165 20.8087 42.12 20.85C42.1299 20.8648 42.1352 20.8822 42.1352 20.9C42.1352 20.9178 42.1299 20.9352 42.12 20.95C42.072 20.9901 42.0157 21.019 41.9552 21.0346C41.8946 21.0502 41.8314 21.052 41.77 21.04" fill="#B81F53"/>
<path d="M25.68 14.26C25.8693 14.4028 26.1033 14.4737 26.34 14.46C26.4159 14.4547 26.4896 14.4321 26.5555 14.3939C26.6213 14.3558 26.6776 14.3032 26.72 14.24C26.8178 14.1114 26.8641 13.9509 26.85 13.79C26.8603 13.7271 26.8603 13.6629 26.85 13.6C26.8203 13.5422 26.7834 13.4884 26.74 13.44C26.8254 13.5011 26.9199 13.5483 27.02 13.58C27.1027 13.5944 27.1873 13.5944 27.27 13.58C27.3405 13.5694 27.4083 13.5456 27.47 13.51L27.54 14.21L28.01 14.42L27.81 12.42H28.62H28.74V13.25H28.59C28.5761 13.243 28.5607 13.2393 28.545 13.2393C28.5294 13.2393 28.514 13.243 28.5 13.25C28.4939 13.2624 28.4906 13.2761 28.4906 13.29C28.4906 13.3039 28.4939 13.3176 28.5 13.33C28.5 13.41 28.58 13.53 28.74 13.71C28.9 13.89 29.02 13.98 29.1 13.98C29.1229 13.9864 29.1471 13.9864 29.17 13.98C29.1798 13.944 29.1798 13.906 29.17 13.87V13.67H29.92V14.22L30.36 14.54L30.46 12.46C31.09 12.52 31.72 12.6 32.34 12.71L32.28 13.05L31.64 12.94C31.4917 12.9095 31.3374 12.9382 31.21 13.02C31.1513 13.053 31.101 13.0989 31.0628 13.1544C31.0247 13.2099 30.9998 13.2734 30.99 13.34C30.9617 13.5518 30.9822 13.7673 31.05 13.97C31.1276 14.224 31.2458 14.4638 31.4 14.68L31.56 14.61C31.46 14.4731 31.3824 14.3212 31.33 14.16C31.3006 14.0081 31.3006 13.8519 31.33 13.7C31.3371 13.6467 31.3561 13.5957 31.3855 13.5507C31.415 13.5057 31.4541 13.4679 31.5 13.44C31.5414 13.4062 31.5899 13.3824 31.6419 13.3702C31.6939 13.3581 31.748 13.358 31.8 13.37L32.24 13.44L32.07 14.44L32.47 14.81L32.81 12.75C33.9748 12.9786 35.1162 13.3134 36.22 13.75L35.99 14.37C35.935 14.2059 35.8503 14.0534 35.74 13.92C35.6462 13.8063 35.526 13.717 35.39 13.66C35.2227 13.5952 35.0373 13.5952 34.87 13.66C34.7937 13.6828 34.7235 13.7225 34.6646 13.7762C34.6058 13.8299 34.5598 13.8961 34.53 13.97C34.498 14.078 34.4886 14.1915 34.5023 14.3033C34.5161 14.4152 34.5527 14.523 34.61 14.62C34.6499 14.7284 34.7111 14.8276 34.7902 14.9118C34.8692 14.996 34.9644 15.0634 35.07 15.11C35.1752 15.1351 35.2848 15.1351 35.39 15.11C35.5081 15.1024 35.6236 15.0718 35.73 15.02L35.59 15.4L35.91 15.84L36.64 13.89L37.48 14.27L37.09 15.01L36.96 14.94C36.9468 14.931 36.9311 14.9261 36.915 14.9261C36.899 14.9261 36.8833 14.931 36.87 14.94C36.8522 14.941 36.8352 14.9472 36.8209 14.9579C36.8067 14.9685 36.7959 14.9832 36.79 15C36.79 15.07 36.79 15.22 36.79 15.45C36.79 15.68 36.93 15.81 37 15.85H37.08C37.1138 15.8316 37.1416 15.8038 37.16 15.77L37.24 15.6L37.91 15.95L37.65 16.44L37.91 16.92L38.91 15.08C39.15 15.22 39.39 15.36 39.62 15.51L38.62 17.01L38.83 17.51L39.98 15.76C40.47 16.09 40.98 16.44 41.41 16.81L41.02 17.31L40.16 16.81C40.1369 16.7977 40.1112 16.7913 40.085 16.7913C40.0589 16.7913 40.0331 16.7977 40.01 16.81C39.9848 16.8124 39.9603 16.8198 39.9379 16.8319C39.9156 16.8439 39.8959 16.8603 39.88 16.88C39.795 16.9954 39.7526 17.1368 39.76 17.28C39.7508 17.3421 39.7549 17.4055 39.7721 17.4658C39.7894 17.5262 39.8193 17.5822 39.86 17.63C39.8826 17.6384 39.9075 17.6384 39.93 17.63C39.9411 17.6347 39.953 17.6371 39.965 17.6371C39.977 17.6371 39.9889 17.6347 40 17.63L40.11 17.49C40.1225 17.4838 40.1361 17.4806 40.15 17.4806C40.1639 17.4806 40.1776 17.4838 40.19 17.49C40.2022 17.483 40.216 17.4793 40.23 17.4793C40.2441 17.4793 40.2579 17.483 40.27 17.49L40.71 17.83L40.21 18.46L40.41 18.94L41.67 17.26L42.23 17.74L42.53 17.42C38.6958 13.9464 33.7037 12.028 28.53 12.04C27.91 12.04 27.3 12.04 26.69 12.12L26.97 12.54H27.27L27.33 13.13C27.2904 13.1894 27.2394 13.2404 27.18 13.28C27.1244 13.3191 27.058 13.3401 26.99 13.34C26.8902 13.3492 26.7898 13.3492 26.69 13.34C26.6314 13.3584 26.5686 13.3584 26.51 13.34C26.5742 13.2813 26.6253 13.2098 26.66 13.13C26.6791 13.0511 26.6791 12.9689 26.66 12.89C26.6426 12.7962 26.6037 12.7077 26.5465 12.6314C26.4892 12.5551 26.4152 12.493 26.33 12.45C26.161 12.3227 25.9509 12.2621 25.74 12.28C25.6369 12.2905 25.5377 12.3247 25.45 12.38C25.3444 12.4319 25.2494 12.5031 25.17 12.59L25.43 12.89C25.521 12.7993 25.6216 12.7188 25.73 12.65C25.8219 12.596 25.9241 12.5619 26.03 12.55C26.107 12.5403 26.1848 12.558 26.25 12.6C26.2806 12.6175 26.3066 12.642 26.3257 12.6716C26.3449 12.7012 26.3566 12.7349 26.36 12.77C26.3695 12.8694 26.3522 12.9695 26.31 13.06C26.31 13.14 26.23 13.18 26.13 13.2C26.0608 13.1854 25.9893 13.1854 25.92 13.2C25.8293 13.2262 25.742 13.2631 25.66 13.31L25.87 13.67C26.0435 13.6305 26.2069 13.5556 26.35 13.45C26.3881 13.4792 26.4189 13.5169 26.44 13.56C26.4471 13.603 26.4471 13.647 26.44 13.69C26.4496 13.8103 26.4178 13.9302 26.35 14.03C26.3121 14.0774 26.2652 14.1168 26.212 14.146C26.1588 14.1752 26.1004 14.1935 26.04 14.2C25.873 14.2127 25.7068 14.1667 25.57 14.07C25.4008 13.9502 25.2579 13.7971 25.15 13.62L25.16 13.66C25.2844 13.9177 25.474 14.1383 25.71 14.3L25.68 14.26ZM35.31 14.86C35.1648 14.8749 35.018 14.8579 34.88 14.81C34.7953 14.7789 34.7244 14.7186 34.68 14.64C34.666 14.6068 34.6588 14.5711 34.6588 14.535C34.6588 14.4989 34.666 14.4632 34.68 14.43C34.7094 14.3705 34.7531 14.3192 34.8072 14.2808C34.8613 14.2424 34.9242 14.2181 34.99 14.21C35.1495 14.1601 35.3205 14.1601 35.48 14.21C35.5667 14.2469 35.6425 14.3054 35.7 14.38C35.7725 14.4702 35.8299 14.5715 35.87 14.68C35.7014 14.755 35.5229 14.8055 35.34 14.83L35.31 14.86ZM37.8 14.59L38.46 14.94L38.07 15.69L37.4 15.34L37.8 14.59ZM29.16 12.45H29.91V13.29L29.16 13.26V12.45Z" fill="#B81F53"/>
<path d="M42.22 20.26L42.36 20.76L43.83 19.31L44.16 19.68L44.29 19.15C44.03 18.85 43.76 18.56 43.49 18.28L43.16 18.59L43.52 18.97L42.22 20.26Z" fill="#B81F53"/>
<path d="M43.69 20.62H43.12V21.19H43.69V20.62Z" fill="#B81F53"/>
<path d="M44.33 19.99H43.76V20.56H44.33V19.99Z" fill="#B81F53"/>
<path d="M25.4124 28.67C25.4124 28.5276 25.4458 28.3872 25.51 28.26L25.57 28.24C25.152 27.9798 24.7921 27.6362 24.5129 27.2307C24.2337 26.8251 24.0411 26.3664 23.9473 25.883C23.8534 25.3997 23.8603 24.9022 23.9674 24.4216C24.0746 23.941 24.2797 23.4877 24.57 23.09C24.8627 22.5553 25.2149 22.0555 25.62 21.6C26.506 20.6968 27.1224 19.5644 27.4 18.33V17.98C27.3639 17.3948 27.3974 16.8073 27.5 16.23C27.69 15.5 28.15 15.39 28.4 15.39H28.51C28.6196 15.4065 28.7242 15.4474 28.816 15.5097C28.9077 15.572 28.9843 15.6541 29.04 15.75V16.06L29.15 16.11C29.4929 16.5046 29.7356 16.976 29.8574 17.4843C29.9793 17.9927 29.9767 18.5229 29.85 19.03C29.6503 20.3976 30.2778 20.968 31.1554 21.7658L31.16 21.77L31.35 22L31.6 22.23L31.79 22.41C32.0353 22.6667 32.244 22.9561 32.41 23.27L32.61 23.72C32.8039 24.261 32.8789 24.8374 32.83 25.41C32.8103 25.6187 32.7769 25.8258 32.73 26.03V26.17C32.4658 26.982 32.0015 27.7145 31.38 28.3C31.4262 28.3902 31.4534 28.4889 31.46 28.59C31.47 28.94 31.2 29.3 30.7 29.59C30.7049 29.6332 30.7049 29.6768 30.7 29.72C30.7 30.18 30.28 30.54 29.57 30.72C29.5447 30.904 29.4642 31.0761 29.3393 31.2135C29.2144 31.3509 29.0507 31.4473 28.87 31.49H28.53C28.2764 31.5254 28.0188 31.4622 27.8104 31.3134C27.6021 31.1645 27.4587 30.9414 27.41 30.69C26.69 30.49 26.27 30.13 26.27 29.69C25.9513 29.5851 25.6814 29.3684 25.51 29.08C25.4458 28.9529 25.4124 28.8124 25.4124 28.67Z" fill="#B81F53"/>
<path d="M39.87 40L39.35 39.87C39.5819 38.9547 39.6995 38.0142 39.7 37.07C39.7031 34.7137 38.9624 32.4166 37.5833 30.5061C36.2043 28.5956 34.2574 27.1691 32.02 26.43L32.19 25.93C34.5245 26.7114 36.5537 28.208 37.9897 30.2076C39.4256 32.2072 40.1955 34.6082 40.19 37.07C40.1835 38.0579 40.0593 39.0415 39.82 40" fill="#B81F53"/>
<path d="M17.16 40.01C16.4545 37.2493 16.7753 34.3264 18.0628 31.7845C19.3504 29.2426 21.517 27.2546 24.16 26.19L24.36 26.68C22.2875 27.5125 20.5125 28.9478 19.2645 30.8001C18.0166 32.6524 17.3531 34.8365 17.36 37.07C17.3612 38.0175 17.4787 38.9612 17.71 39.88L17.16 40.01Z" fill="#B81F53"/>
<path d="M25.63 63.69C25.5961 63.6898 25.5625 63.6969 25.5314 63.7107C25.5004 63.7245 25.4726 63.7447 25.45 63.77C25.3987 63.8249 25.3671 63.8952 25.36 63.97C25.356 64.0258 25.3647 64.0818 25.3855 64.1338C25.4063 64.1858 25.4386 64.2323 25.48 64.27C25.5694 64.3582 25.6854 64.4145 25.81 64.43C25.8411 64.3951 25.8649 64.3543 25.88 64.31C25.8867 64.2469 25.8867 64.1832 25.88 64.12C25.8905 64.0198 25.8618 63.9195 25.8 63.84C25.7803 63.7995 25.7508 63.7645 25.7141 63.7383C25.6774 63.7121 25.6348 63.6955 25.59 63.69" fill="#B81F53"/>
<path d="M27.58 64.48C27.4351 64.472 27.2914 64.5105 27.17 64.59C27.1181 64.6219 27.0747 64.6659 27.0434 64.7181C27.0121 64.7703 26.9938 64.8292 26.99 64.89C26.9892 64.9304 26.9978 64.9704 27.0152 65.0068C27.0325 65.0433 27.0581 65.0752 27.09 65.1C27.1562 65.1584 27.2416 65.1905 27.33 65.19C27.4715 65.1894 27.6112 65.1587 27.74 65.1C27.8989 65.0258 28.0497 64.9353 28.19 64.83C28.1033 64.7328 28.006 64.6456 27.9 64.57C27.8019 64.5151 27.6923 64.4843 27.58 64.48" fill="#B81F53"/>
<path d="M15.6544 61.5484L15.3931 62.3257L16.1514 62.5806L16.4127 61.8033L15.6544 61.5484Z" fill="#B81F53"/>
<path d="M23.24 64.14C23.0961 64.1155 22.9482 64.1402 22.82 64.21C22.7635 64.2341 22.7144 64.2727 22.6775 64.3219C22.6406 64.371 22.6174 64.429 22.61 64.49C22.6047 64.5296 22.6082 64.5698 22.6203 64.6079C22.6324 64.6459 22.6528 64.6808 22.68 64.71C22.7412 64.7745 22.8221 64.8167 22.91 64.83C23.0484 64.8597 23.1916 64.8597 23.33 64.83C23.495 64.7759 23.6528 64.7021 23.8 64.61C23.7239 64.5044 23.6367 64.4072 23.54 64.32C23.4584 64.2413 23.3528 64.192 23.24 64.18" fill="#B81F53"/>
<path d="M45.2513 59.9587L44.5216 60.2866L44.8577 61.0345L45.5874 60.7066L45.2513 59.9587Z" fill="#B81F53"/>
<path d="M42.56 62.5C42.5437 62.5361 42.5353 62.5753 42.5353 62.615C42.5353 62.6546 42.5437 62.6938 42.56 62.73C42.5813 62.7877 42.616 62.8395 42.6612 62.8812C42.7064 62.9229 42.7608 62.9533 42.82 62.97C42.9495 63.0149 43.0904 63.0149 43.22 62.97C43.4043 62.9058 43.5624 62.7828 43.67 62.62C43.7181 62.5527 43.7487 62.4746 43.7592 62.3926C43.7697 62.3105 43.7596 62.2272 43.73 62.15C43.7114 62.103 43.68 62.0621 43.6393 62.032C43.5987 62.002 43.5504 61.984 43.5 61.98C43.3729 61.9413 43.2371 61.9413 43.11 61.98C43.0198 62.0773 42.9192 62.1645 42.81 62.24C42.7226 62.2988 42.6506 62.3777 42.6 62.47" fill="#B81F53"/>
<path d="M38.86 62.31L39.16 63.48C39.1657 63.5013 39.1758 63.5211 39.1895 63.5383C39.2033 63.5556 39.2205 63.5697 39.24 63.58C39.2785 63.5956 39.3215 63.5956 39.36 63.58C39.4964 63.5386 39.6179 63.4588 39.71 63.35C39.8095 63.2305 39.8721 63.0845 39.89 62.93L39.64 62.06L38.86 62.31Z" fill="#B81F53"/>
<path d="M32.92 64.26C32.7755 64.2748 32.6392 64.3343 32.53 64.43C32.4828 64.4683 32.4454 64.5173 32.4211 64.573C32.3967 64.6286 32.3861 64.6894 32.39 64.75C32.3938 64.7888 32.4066 64.8263 32.4275 64.8593C32.4483 64.8922 32.4766 64.9199 32.51 64.94C32.5831 64.9901 32.6721 65.0115 32.76 65C32.901 64.979 33.0367 64.9315 33.16 64.86C33.3095 64.7669 33.4471 64.6561 33.57 64.53C33.4705 64.442 33.3595 64.368 33.24 64.31C33.1346 64.2867 33.0254 64.2867 32.92 64.31" fill="#B81F53"/>
<path d="M35.73 63.04L35.85 63.67L35.02 63.83C34.9658 63.8405 34.9166 63.8686 34.88 63.91C34.8707 63.9321 34.8658 63.9559 34.8658 63.98C34.8658 64.004 34.8707 64.0278 34.88 64.05C34.8931 64.1003 34.9209 64.1456 34.96 64.18C35.0083 64.2237 35.0667 64.2547 35.13 64.27C35.1838 64.2166 35.2487 64.1757 35.32 64.15C35.4128 64.1108 35.5103 64.084 35.61 64.07L35.88 64.37H35.62C35.5358 64.3881 35.457 64.4258 35.39 64.48C35.3672 64.5036 35.35 64.532 35.3396 64.5632C35.3292 64.5943 35.3259 64.6274 35.33 64.66C35.3362 64.6891 35.3495 64.7161 35.3687 64.7388C35.3879 64.7615 35.4124 64.7791 35.44 64.79C35.5112 64.8151 35.5888 64.8151 35.66 64.79C35.8616 64.7459 36.0479 64.6493 36.2 64.51C36.3627 64.3545 36.4861 64.1625 36.56 63.95L36.35 62.86L35.73 63.04Z" fill="#B81F53"/>
<path d="M53.83 58.52C53.64 58.15 53.44 57.76 53.28 57.37C53.6467 57.1033 54.0067 56.8133 54.36 56.5C55.51 55.5 54.83 54.08 54.28 52.97L54.16 52.75C53.9419 52.2324 53.8794 51.6625 53.98 51.11C54.0332 50.9034 54.042 50.6878 54.0058 50.4775C53.9696 50.2672 53.8892 50.067 53.77 49.89C53.51 49.62 53.04 49.52 52.24 49.56C50.54 49.67 49.49 51.07 49.24 53.5L48.81 53.71C47.6826 54.1998 46.5149 54.5912 45.32 54.88L44.7 55.04C44.5564 55.0783 44.4186 55.1355 44.29 55.21C43.62 55.64 44.08 57.4 44.29 58.06C41.29 60.23 35.54 61.6 29.2 61.6H27.82C21.48 61.6 15.76 60.24 12.73 58.06C12.93 57.4 13.4 55.65 12.73 55.21C12.6015 55.1355 12.4636 55.0783 12.32 55.04V55.04L11.7 54.88C10.4895 54.5893 9.30536 54.198 8.16002 53.71L7.73002 53.5C7.51002 51.07 6.46002 49.67 4.73002 49.56C3.93002 49.56 3.46002 49.62 3.20002 49.89C3.08022 50.0667 2.99951 50.2669 2.9633 50.4773C2.92708 50.6877 2.93619 50.9034 2.99002 51.11C3.09065 51.6625 3.0281 52.2324 2.81002 52.75L2.70002 52.97C2.15002 54.08 1.47002 55.46 2.62002 56.5C2.96106 56.8128 3.3218 57.1034 3.70002 57.37C3.54002 57.76 3.34002 58.14 3.15002 58.52C2.78005 59.1676 2.4944 59.8599 2.30002 60.58C2.23002 60.86 2.08002 63.15 2.55002 63.32C2.63002 63.32 2.79002 63.32 2.93002 63.09C3.41002 62.09 4.22002 61.09 4.74002 61.09C4.81901 61.0725 4.90143 61.0795 4.97641 61.1098C5.05139 61.1402 5.11541 61.1925 5.16002 61.26C5.28983 61.4869 5.40022 61.7245 5.49002 61.97C5.64002 62.34 5.70002 62.5 5.90002 62.47C6.10002 62.44 6.09002 62.22 6.09002 62.05C6.13408 60.9749 6.35365 59.9142 6.74002 58.91C7.52002 59.2 8.30002 59.43 9.06002 59.64H9.12002L9.07002 59.7L8.51002 60.27C8.39713 60.3834 8.31009 60.5198 8.25485 60.67C8.19962 60.8202 8.17751 60.9805 8.19002 61.14C8.20788 61.2908 8.25826 61.436 8.33768 61.5655C8.41709 61.695 8.52366 61.8057 8.65002 61.89C13.02 65 20.19 66.89 27.84 66.89H29.22C36.87 66.89 44.04 65.03 48.41 61.89C48.5364 61.8057 48.643 61.695 48.7224 61.5655C48.8018 61.436 48.8522 61.2908 48.87 61.14C48.8825 60.9805 48.8604 60.8202 48.8052 60.67C48.75 60.5198 48.6629 60.3834 48.55 60.27C48.55 60.27 48.21 59.94 47.99 59.7V59.64H48.05C48.82 59.43 49.6 59.2 50.37 58.91C50.7612 59.9128 50.9809 60.9743 51.02 62.05C51.02 62.22 51.02 62.44 51.21 62.47C51.4 62.5 51.47 62.34 51.62 61.97C51.7098 61.7245 51.8202 61.4869 51.95 61.26C52.09 61.04 52.23 61.02 52.32 61.03C52.83 61.03 53.64 62.03 54.13 63.03C54.26 63.3 54.43 63.29 54.51 63.26C54.98 63.09 54.83 60.8 54.76 60.52C54.548 59.803 54.2561 59.112 53.89 58.46L53.83 58.52ZM5.71002 61.58C5.64419 61.4133 5.56388 61.2527 5.47002 61.1C5.40064 60.9709 5.2963 60.864 5.16896 60.7915C5.04162 60.719 4.89643 60.6838 4.75002 60.69C3.98002 60.69 3.14002 61.95 2.75002 62.76C2.66493 62.0626 2.66493 61.3574 2.75002 60.66C2.93935 59.9619 3.2148 59.2901 3.57002 58.66C3.75002 58.3 3.94002 57.94 4.10002 57.56C4.82497 58.044 5.59932 58.4497 6.41002 58.77C6.07009 59.664 5.84822 60.5986 5.75002 61.55L5.71002 61.58ZM4.33002 50.16C4.33002 50.16 4.33002 49.94 4.77002 49.94C6.56002 50.06 7.17002 51.74 7.35002 53.28C5.35002 52.15 4.21002 50.72 4.35002 50.16H4.33002ZM12.49 57.26C12.49 57.4 12.4 57.54 12.37 57.68L12.27 57.6C11.88 57.28 11.64 57.07 11.74 56.8C11.7614 56.7161 11.813 56.6431 11.8851 56.5951C11.9571 56.5471 12.0444 56.5274 12.13 56.54H12.4H12.63L12.49 57.26ZM14.63 62.65C14.54 62.4852 14.5117 62.2938 14.55 62.11C14.55 62.11 14.55 62.11 14.62 62.06C14.6656 62.0455 14.7145 62.0455 14.76 62.06L14.99 62.14L15.25 61.36L14.82 61.26L14.4 61.09L13.5 63.26L13.21 62.85L13.52 62.11C13.4739 62.12 13.4262 62.12 13.38 62.11C13.3414 62.1246 13.2987 62.1246 13.26 62.11C13.2201 62.0929 13.1855 62.0652 13.16 62.03C13.1157 61.9883 13.0815 61.937 13.06 61.88C13.076 61.9525 13.076 62.0275 13.06 62.1C13.0319 62.1699 12.9899 62.2333 12.9366 62.2866C12.8834 62.3399 12.8199 62.3818 12.75 62.41C12.6829 62.442 12.6094 62.4586 12.535 62.4586C12.4606 62.4586 12.3872 62.442 12.32 62.41C12.2055 62.3515 12.1045 62.2697 12.0235 62.1698C11.9426 62.0699 11.8835 61.9542 11.85 61.83C11.7332 61.4895 11.6856 61.1291 11.71 60.77H11.86C11.8443 61.0267 11.8888 61.2836 11.99 61.52C12.0655 61.7112 12.2126 61.8655 12.4 61.95C12.4969 61.9851 12.6031 61.9851 12.7 61.95C12.7465 61.9374 12.7891 61.9135 12.8241 61.8803C12.859 61.8471 12.8851 61.8058 12.9 61.76C12.9114 61.7005 12.9114 61.6395 12.9 61.58C12.9134 61.5207 12.9134 61.4593 12.9 61.4C12.7341 61.4226 12.5659 61.4226 12.4 61.4V60.95C12.558 61.0157 12.7301 61.0398 12.9 61.02C12.9665 61.0138 13.0301 60.9902 13.0845 60.9516C13.1389 60.9129 13.1822 60.8607 13.21 60.8C13.2251 60.7761 13.2331 60.7483 13.2331 60.72C13.2331 60.6917 13.2251 60.6639 13.21 60.64C13.19 60.5874 13.1507 60.5445 13.1 60.52C12.976 60.4696 12.8438 60.4425 12.71 60.44C12.5843 60.4389 12.4604 60.4699 12.35 60.53L12.25 60.08C12.3653 60.0381 12.4874 60.0177 12.61 60.02C12.7481 60.0221 12.8843 60.0527 13.01 60.11C13.0947 60.1598 13.1685 60.2263 13.227 60.3053C13.2854 60.3844 13.3272 60.4744 13.35 60.57C13.4346 60.7475 13.4558 60.9487 13.41 61.14C13.3437 61.2085 13.255 61.2511 13.16 61.26C13.0963 61.3051 13.0252 61.339 12.95 61.36C12.9979 61.443 13.0286 61.5349 13.04 61.63C13.0895 61.6767 13.1471 61.714 13.21 61.74C13.2915 61.7648 13.3785 61.7648 13.46 61.74C13.5442 61.7276 13.6236 61.6931 13.69 61.64L14.02 60.86L13.68 60.72L13.56 60.32L14.73 60.81L17.12 61.61L19.49 62.24L19.64 62.61L19.2 62.49L18.6 64.75L18.26 64.38L18.58 63.26L17.78 63.05C17.7508 63.0342 17.7182 63.026 17.685 63.026C17.6519 63.026 17.6192 63.0342 17.59 63.05C17.5263 63.1092 17.4812 63.1856 17.46 63.27C17.42 63.441 17.42 63.619 17.46 63.79C17.5042 63.9808 17.5857 64.161 17.7 64.32L17.51 64.41C17.3604 64.1458 17.2365 63.8679 17.14 63.58C17.0754 63.3974 17.0549 63.2021 17.08 63.01C17.0955 62.9403 17.1248 62.8743 17.166 62.816C17.2072 62.7576 17.2595 62.708 17.32 62.67C17.372 62.6303 17.4325 62.6034 17.4967 62.5912C17.561 62.5791 17.6272 62.5821 17.69 62.6L18.69 62.86L18.81 62.4L17.26 61.99H17.19L16.86 61.88L16.2 63.88L16.33 64.22L15.95 64.11C15.9043 64.0962 15.8559 64.0936 15.809 64.1023C15.762 64.111 15.7178 64.1308 15.68 64.16C15.5905 64.2175 15.5262 64.3069 15.5 64.41C15.4856 64.4414 15.4782 64.4755 15.4782 64.51C15.4782 64.5445 15.4856 64.5786 15.5 64.61C15.5325 64.6702 15.5858 64.7164 15.65 64.74C15.7591 64.7606 15.871 64.7606 15.98 64.74C16.0999 64.7278 16.2158 64.6903 16.32 64.63L16.46 65.01C16.3503 65.0601 16.2305 65.084 16.11 65.08C15.9745 65.0789 15.8399 65.0587 15.71 65.02C15.6277 64.9874 15.5542 64.9361 15.4952 64.8701C15.4361 64.8042 15.3933 64.7254 15.37 64.64C15.2858 64.4661 15.2612 64.2693 15.3 64.08C15.3163 64.0209 15.3454 63.9662 15.3851 63.9195C15.4249 63.8729 15.4743 63.8355 15.53 63.81C15.6079 63.7841 15.6921 63.7841 15.77 63.81L15.71 63.74L15.99 62.91L15.23 62.66L15.14 62.91C15.1249 62.9619 15.0933 63.0075 15.05 63.04C15.0303 63.0514 15.0078 63.0574 14.985 63.0574C14.9622 63.0574 14.9398 63.0514 14.92 63.04L14.63 62.65ZM28.6 63.69V66.03L28.16 65.79V65.26C28.0617 65.3364 27.9542 65.4002 27.84 65.45C27.7396 65.496 27.6305 65.5199 27.52 65.52C27.4073 65.5133 27.2971 65.4841 27.1958 65.4343C27.0945 65.3846 27.0042 65.3151 26.93 65.23C26.8461 65.1635 26.777 65.0803 26.727 64.9856C26.6771 64.8909 26.6475 64.7868 26.64 64.68C26.6416 64.6041 26.6604 64.5295 26.695 64.4619C26.7297 64.3943 26.7793 64.3355 26.84 64.29C26.9758 64.1811 27.1461 64.1244 27.32 64.13C27.4882 64.1318 27.6519 64.1841 27.79 64.28C27.9463 64.3759 28.0822 64.5017 28.19 64.65V63.72H26.46H25.9C26.0205 63.8121 26.1166 63.9322 26.18 64.07C26.2477 64.1992 26.2789 64.3444 26.27 64.49C26.2559 64.6732 26.1862 64.8477 26.07 64.99C25.9396 65.1501 25.7757 65.2797 25.59 65.37L26.1 66.05L25.87 66.22L25.42 65.44H25.34H25.23C25.1225 65.4117 25.0275 65.3483 24.96 65.26C24.8798 65.1804 24.8332 65.073 24.83 64.96C24.8378 64.8962 24.8658 64.8366 24.91 64.79C24.9295 64.7701 24.9529 64.7545 24.9787 64.7442C25.0045 64.7338 25.0322 64.729 25.06 64.73C25.1255 64.7354 25.1881 64.7598 25.24 64.8C25.3002 64.8468 25.3511 64.9045 25.39 64.97C25.4703 64.9398 25.5448 64.8958 25.61 64.84C25.6854 64.7728 25.7466 64.6912 25.79 64.6C25.5492 64.5566 25.3285 64.4375 25.16 64.26C25.0896 64.2062 25.0329 64.1365 24.9946 64.0565C24.9564 63.9765 24.9377 63.8886 24.94 63.8C24.9269 63.7577 24.9269 63.7123 24.94 63.67C24.9673 63.6283 25.0011 63.5911 25.04 63.56H24.76L24.31 63.5L24.01 65.82L23.62 65.5L23.69 64.97C23.5857 65.0383 23.4708 65.0889 23.35 65.12C23.2413 65.1442 23.1287 65.1442 23.02 65.12C22.7961 65.0776 22.5963 64.9527 22.46 64.77C22.3828 64.6951 22.3224 64.6047 22.2828 64.5047C22.2431 64.4047 22.2251 64.2974 22.23 64.19C22.2411 64.1147 22.2683 64.0427 22.3097 63.9788C22.3511 63.915 22.4058 63.8608 22.47 63.82C22.6155 63.7275 22.7899 63.6919 22.96 63.72C23.1256 63.744 23.2813 63.8132 23.41 63.92C23.5549 64.0338 23.6742 64.1769 23.76 64.34L23.88 63.42L22.22 63.26H21.92L21.51 65.56L21.16 65.13L21.52 63.13L21.1 63.06L20.92 62.71L21.7 62.85C21.66 62.73 21.63 62.63 21.61 62.55C21.5957 62.4841 21.5957 62.4159 21.61 62.35C21.6263 62.2454 21.6652 62.1456 21.7239 62.0576C21.7826 61.9695 21.8598 61.8953 21.95 61.84C22.1357 61.7178 22.3611 61.6713 22.58 61.71C22.8134 61.7788 23.0173 61.923 23.16 62.12C23.4081 62.4239 23.6134 62.7603 23.77 63.12L23.65 63.18C23.5373 62.9164 23.3819 62.6731 23.19 62.46C23.049 62.2981 22.8597 62.1859 22.65 62.14C22.5636 62.1235 22.4747 62.1248 22.3887 62.1437C22.3028 62.1626 22.2216 62.1988 22.15 62.25C22.0795 62.2964 22.0191 62.3566 21.9727 62.4271C21.9263 62.4976 21.8947 62.5769 21.88 62.66C21.867 62.7495 21.867 62.8405 21.88 62.93L22.22 62.99L24.65 63.3L26.41 63.43L28.87 63.48L29.1 63.8L28.6 63.69ZM44.6 56.53H44.87C44.9557 56.5174 45.0429 56.5371 45.115 56.5851C45.187 56.6331 45.2387 56.7061 45.26 56.79C45.36 57.06 45.13 57.27 44.73 57.59L44.63 57.67C44.5993 57.5275 44.5592 57.3872 44.51 57.25C44.4375 57.0283 44.384 56.8008 44.35 56.57H44.6V56.53ZM45.11 61.57C45.1237 61.6191 45.1237 61.6709 45.11 61.72C45.0978 61.7653 45.0693 61.8045 45.03 61.83C44.9454 61.8552 44.8565 61.8628 44.7688 61.8525C44.6812 61.8422 44.5965 61.8141 44.52 61.77C44.3444 61.7096 44.1957 61.5892 44.1 61.43C44.0918 61.4183 44.0875 61.4043 44.0875 61.39C44.0875 61.3757 44.0918 61.3617 44.1 61.35C44.1268 61.3096 44.1651 61.2782 44.21 61.26L44.43 61.16L44.16 60.46L43.76 60.64H43.67L42.94 60.92C43.0377 60.9709 43.1257 61.0386 43.2 61.12C43.2628 61.1799 43.3137 61.2512 43.35 61.33C43.3703 61.3985 43.3703 61.4715 43.35 61.54C43.3241 61.6232 43.2834 61.7011 43.23 61.77C43.4222 61.7107 43.6278 61.7107 43.82 61.77C43.8996 61.7949 43.9724 61.8375 44.033 61.8947C44.0936 61.9519 44.1405 62.0221 44.17 62.1C44.2078 62.1982 44.2212 62.3041 44.209 62.4086C44.1968 62.5131 44.1594 62.6131 44.1 62.7C43.9733 62.9083 43.7793 63.067 43.55 63.15C43.4227 63.1862 43.2892 63.1951 43.1583 63.1761C43.0273 63.1572 42.9018 63.1108 42.79 63.04C42.5303 62.927 42.3231 62.7197 42.21 62.46C42.1917 62.4016 42.1867 62.3399 42.1954 62.2793C42.204 62.2188 42.2261 62.1609 42.26 62.11C42.3469 61.973 42.463 61.8569 42.6 61.77C42.7139 61.7041 42.81 61.6114 42.88 61.5C42.9006 61.4562 42.9112 61.4084 42.9112 61.36C42.9112 61.3116 42.9006 61.2638 42.88 61.22C42.8549 61.1558 42.8213 61.0953 42.78 61.04C42.7502 60.9936 42.7088 60.9557 42.66 60.93L41.53 61.36L41.22 61.47L41.97 63.68L41.48 63.56L40.82 61.56L40.53 61.66L40.1 61.79L40.75 64.03L40.25 63.93L40.09 63.37C40.0623 63.4343 40.0173 63.4897 39.96 63.53C39.9047 63.5767 39.8399 63.6108 39.77 63.63C39.5565 63.6885 39.329 63.6672 39.13 63.57C39.0376 63.5484 38.9515 63.5054 38.8786 63.4447C38.8057 63.3839 38.748 63.307 38.71 63.22L38.44 62.3L38.18 62.37L37.86 62.45L38.41 64.72L37.93 64.56L37.44 62.56L37.13 62.64L36.69 62.72L37.12 65.02L36.65 64.84L36.58 64.47C36.5131 64.5924 36.4124 64.693 36.29 64.76C36.1478 64.8431 35.9921 64.9006 35.83 64.93C35.6278 64.9577 35.4219 64.9228 35.24 64.83C35.0334 64.7167 34.9134 64.5967 34.88 64.47C34.8661 64.4347 34.8661 64.3953 34.88 64.36C34.8956 64.3159 34.9193 64.2752 34.95 64.24C34.8226 64.2038 34.7036 64.1426 34.6 64.06C34.5177 63.9931 34.4583 63.9022 34.43 63.8C34.4203 63.7503 34.4224 63.699 34.4363 63.6504C34.4502 63.6017 34.4755 63.557 34.51 63.52C34.579 63.4373 34.6743 63.3808 34.78 63.36L35.3 63.26V63L34.16 63.34H33.85L34.16 65.68L33.71 65.47L33.65 64.94C33.5656 65.031 33.4678 65.1085 33.36 65.17C33.2658 65.2286 33.1601 65.2661 33.05 65.28C32.8212 65.2909 32.5966 65.216 32.42 65.07C32.3277 65.0148 32.248 64.941 32.186 64.8531C32.124 64.7653 32.0811 64.6654 32.06 64.56C32.0511 64.4855 32.0591 64.41 32.0833 64.339C32.1075 64.2681 32.1474 64.2035 32.2 64.15C32.3199 64.0266 32.479 63.9488 32.65 63.93C32.8143 63.9126 32.9803 63.9403 33.13 64.01C33.3006 64.0792 33.4516 64.1891 33.57 64.33L33.46 63.41L31.74 63.61H31.43L31.59 65.94L31.15 65.7L31.01 63.63H30.59L30.33 63.33L31.12 63.27L30.96 63C30.9261 62.9419 30.9056 62.877 30.9 62.81C30.8785 62.6127 30.936 62.4149 31.06 62.26C31.2104 62.0959 31.418 61.9957 31.64 61.98C31.8832 61.9891 32.116 62.0808 32.3 62.24C32.605 62.4645 32.8805 62.7266 33.12 63.02L33.02 63.11C32.8495 62.8814 32.6395 62.6849 32.4 62.53C32.2222 62.412 32.0134 62.3494 31.8 62.35C31.6242 62.3619 31.4596 62.4406 31.34 62.57C31.2821 62.6309 31.2379 62.7034 31.2103 62.7827C31.1827 62.862 31.1724 62.9464 31.18 63.03C31.1696 63.1164 31.1696 63.2036 31.18 63.29H31.52L33.96 63L36.65 62.49L37.91 62.18L39.97 61.58L40.75 61.32C40.6266 61.1211 40.4589 60.9534 40.26 60.83C40.1858 60.7806 40.1014 60.7486 40.0131 60.7364C39.9247 60.7243 39.8348 60.7324 39.75 60.76C39.6955 60.7783 39.6458 60.8084 39.6043 60.8482C39.5628 60.8879 39.5306 60.9364 39.51 60.99C39.4643 61.1057 39.4643 61.2343 39.51 61.35C39.5344 61.4063 39.5646 61.4599 39.6 61.51C39.6417 61.5584 39.6887 61.602 39.74 61.64H39.59C39.4941 61.5862 39.4119 61.5109 39.35 61.42C39.3166 61.3687 39.2865 61.3152 39.26 61.26C39.2007 61.1055 39.2007 60.9345 39.26 60.78C39.2925 60.705 39.3405 60.6377 39.4008 60.5826C39.4611 60.5274 39.5324 60.4857 39.61 60.46C39.7287 60.4281 39.8532 60.4252 39.9732 60.4512C40.0933 60.4773 40.2053 60.5318 40.3 60.61C40.5708 60.8033 40.7932 61.0566 40.95 61.35L41.25 61.25L43.33 60.46L45.62 59.46L45.97 59.65L45.56 59.84L46.56 61.97L46.06 61.9L45.7 61.1L44.97 61.43L45.11 61.57ZM47.44 62.37L46.72 62.13C46.6672 62.1195 46.6128 62.1195 46.56 62.13C46.5277 62.1186 46.4924 62.1186 46.46 62.13C46.4266 62.1442 46.3985 62.1687 46.38 62.2L46.28 62.34L46.03 62.26L46.16 62.1L46.26 62.02C46.2925 62.0093 46.3275 62.0093 46.36 62.02C46.3927 62.0106 46.4274 62.0106 46.46 62.02L47.53 62.31L47.44 62.37ZM49.66 53.26C49.84 51.72 50.45 50.04 52.24 49.92C52.63 49.92 52.66 50.09 52.68 50.14C52.8 50.7 51.68 52.14 49.68 53.26H49.66ZM54.33 62.74C53.9 61.92 53.06 60.74 52.33 60.67C52.1838 60.665 52.0391 60.7006 51.912 60.773C51.7848 60.8454 51.6803 60.9517 51.61 61.08C51.5162 61.2327 51.4359 61.3933 51.37 61.56C51.2674 60.6126 51.0456 59.6819 50.71 58.79C51.5207 58.4697 52.2951 58.064 53.02 57.58C53.18 57.96 53.37 58.32 53.55 58.68C53.907 59.3092 54.1825 59.9813 54.37 60.68C54.4552 61.3741 54.4552 62.0759 54.37 62.77" fill="#B81F53"/>
<path d="M67.16 68.86L71.27 59.86C71.69 58.95 72.1 58.01 73.63 58.01C73.265 58.609 72.9312 59.2265 72.63 59.86L66.46 73.26L60.34 59.84C60.0458 59.203 59.7118 58.5851 59.34 57.99C62.14 57.99 62.58 58.99 63 59.84L67.16 68.86Z" fill="#B81F53"/>
<path d="M78.22 72.26H75.8V60.26C75.8 59.26 75.8 58.05 78.42 58.05C78.3028 58.7812 78.236 59.5196 78.22 60.26V72.26Z" fill="#B81F53"/>
<path d="M86.25 59.18C84.32 59.18 83.39 60.18 83.39 61.33C83.3837 61.611 83.4587 61.8879 83.6059 62.1274C83.7531 62.3669 83.9664 62.5588 84.22 62.68L89.22 65.14C89.8575 65.4037 90.4053 65.846 90.7974 66.4137C91.1895 66.9814 91.4091 67.6504 91.43 68.34C91.43 70.34 89.56 72.34 86.2 72.34C84.59 72.34 83.2 72.26 81.31 72.24L82.38 70.73C83.6269 71.0168 84.9007 71.1709 86.18 71.19C88.41 71.19 89.46 70.06 89.46 69.02C89.4561 68.7063 89.3589 68.4009 89.1808 68.1427C89.0027 67.8845 88.7518 67.6851 88.46 67.57L83.53 65.13C82.9147 64.8365 82.3954 64.3743 82.0324 63.7971C81.6695 63.22 81.478 62.5517 81.48 61.87C81.48 59.96 82.99 58.05 86.19 58.05C87.62 58.05 89.07 58.13 90.72 58.15C90.7255 58.3392 90.6903 58.5274 90.6167 58.7018C90.5431 58.8762 90.4328 59.0328 90.2934 59.1608C90.154 59.2889 89.9886 59.3854 89.8086 59.4439C89.6286 59.5025 89.4381 59.5216 89.25 59.5C88.2421 59.2913 87.2185 59.1675 86.19 59.13" fill="#B81F53"/>
<path d="M96.39 64.63H102.93V60.2C102.93 59.2 102.93 57.99 105.55 57.99C105.433 58.7212 105.366 59.4596 105.35 60.2V70.26C105.365 70.9938 105.432 71.7256 105.55 72.45C102.93 72.45 102.93 71.24 102.93 70.24V65.83H96.39V70.26C96.39 71.26 96.39 72.47 93.77 72.47C93.8878 71.7456 93.9546 71.0138 93.97 70.28V60.26C93.9546 59.5196 93.8878 58.7811 93.77 58.05C96.39 58.05 96.39 59.26 96.39 60.26V64.63Z" fill="#B81F53"/>
<path d="M118.37 57.19L123.76 68.46L126.76 59.92C127.08 58.97 127.48 57.99 128.89 57.99C128.89 57.99 128.41 58.99 128.06 59.92L123.39 73.26L117.77 61.4L112.44 73.26L107.77 59.89C107.531 59.2311 107.254 58.5866 106.94 57.96C109.62 57.96 109.94 58.96 110.28 59.89L113.28 68.45L118.37 57.19Z" fill="#B81F53"/>
<path d="M136.79 67.05H131.84L130.21 70.63C129.79 71.53 129.39 72.48 127.86 72.48C128.225 71.881 128.559 71.2635 128.86 70.63L134.98 57.18L141.16 70.63C141.457 71.2657 141.791 71.8835 142.16 72.48C139.36 72.48 138.92 71.48 138.5 70.63L136.79 67.05ZM132.38 65.84H136.24L134.31 61.61L132.38 65.84Z" fill="#B81F53"/>
<path d="M156.94 68.86L161.05 59.86C161.47 58.95 161.88 58.01 163.41 58.01C163.045 58.609 162.711 59.2265 162.41 59.86L156.28 73.26L150.16 59.84C149.866 59.203 149.532 58.5851 149.16 57.99C151.96 57.99 152.4 58.99 152.82 59.84L156.94 68.86Z" fill="#B81F53"/>
<path d="M168.03 72.26H165.61V60.26C165.61 59.26 165.61 58.05 168.23 58.05C168.113 58.7812 168.046 59.5196 168.03 60.26V72.26Z" fill="#B81F53"/>
<path d="M176.65 58.09C178.546 58.09 180.365 58.8433 181.706 60.1842C183.047 61.5251 183.8 63.3437 183.8 65.24C183.8 67.1363 183.047 68.9549 181.706 70.2958C180.365 71.6367 178.546 72.39 176.65 72.39C174.76 72.39 173.21 72.29 171.65 72.29C171.767 71.6294 171.834 70.9608 171.85 70.29V60.26C171.841 59.5888 171.774 58.9197 171.65 58.26C173.31 58.26 174.97 58.15 176.65 58.15V58.09ZM174.27 59.26V71.26C175.14 71.26 175.9 71.32 176.67 71.32C179.77 71.32 181.1 68.7 181.1 65.26C181.1 61.82 179.53 59.2 176.67 59.2C175.8 59.2 175.04 59.26 174.27 59.26Z" fill="#B81F53"/>
<path d="M192.27 64.26C191.89 64.9548 191.704 65.7387 191.73 66.53V72.26H189.31V66.54C189.346 65.833 189.157 65.1329 188.77 64.54L185.49 60.26C184.832 59.4715 184.131 58.7204 183.39 58.01C186.71 58.01 187.39 58.9 188.04 59.78L191.04 63.78L194.04 59.72C194.364 59.1599 194.841 58.7036 195.415 58.4044C195.988 58.1051 196.635 57.9753 197.28 58.03C196.642 58.634 196.044 59.2787 195.49 59.96L192.27 64.26Z" fill="#B81F53"/>
<path d="M205.27 67.05H200.27L198.64 70.63C198.22 71.53 197.81 72.48 196.29 72.48C196.655 71.881 196.989 71.2635 197.29 70.63L203.41 57.18L209.53 70.63C209.827 71.2657 210.161 71.8835 210.53 72.48C207.73 72.48 207.29 71.48 206.87 70.63L205.27 67.05ZM200.86 65.84H204.72L202.79 61.61L200.86 65.84Z" fill="#B81F53"/>
<path d="M221.98 62C221.98 64.4 219.81 66 217.23 66C216.37 66 215.48 65.94 214.61 65.94V70.26C214.61 71.26 214.61 72.47 211.99 72.47C212.097 71.7381 212.154 70.9997 212.16 70.26V60.26C212.151 59.5888 212.084 58.9197 211.96 58.26H214.88C215.32 58.26 215.67 58.26 216.03 58.26H217.2C219.77 58.26 221.95 59.68 221.95 62.1L221.98 62ZM214.58 59.3V65.08C215.37 65.08 216.23 65.14 216.79 65.14C217.169 65.1362 217.544 65.0536 217.89 64.8975C218.236 64.7414 218.545 64.5151 218.799 64.2331C219.053 63.9511 219.245 63.6194 219.364 63.2591C219.483 62.8988 219.526 62.5177 219.49 62.14C219.525 61.7704 219.48 61.3976 219.358 61.0468C219.237 60.696 219.041 60.3752 218.786 60.1062C218.53 59.8371 218.219 59.6259 217.875 59.4869C217.531 59.3478 217.161 59.2841 216.79 59.3C216.07 59.3 215.34 59.3 214.58 59.3Z" fill="#B81F53"/>
<path d="M226.71 71.08H232.16C232.33 71.0607 232.503 71.0763 232.667 71.1259C232.831 71.1755 232.983 71.2581 233.114 71.3685C233.245 71.479 233.352 71.615 233.429 71.7683C233.506 71.9216 233.55 72.0889 233.56 72.26H224.1C224.225 71.6005 224.292 70.9312 224.3 70.26V60.26C224.291 59.5888 224.224 58.9197 224.1 58.26H233.56C233.546 58.4285 233.499 58.5925 233.421 58.7423C233.342 58.8921 233.234 59.0246 233.104 59.1319C232.973 59.2392 232.822 59.3191 232.66 59.3669C232.498 59.4147 232.328 59.4293 232.16 59.41H226.72V64.64H231.72V65.85H226.72L226.71 71.08Z" fill="#B81F53"/>
<path d="M238.58 71.08H244.02C244.191 71.0592 244.365 71.0737 244.53 71.1227C244.695 71.1716 244.848 71.2539 244.981 71.3645C245.113 71.4751 245.221 71.6117 245.298 71.7657C245.375 71.9197 245.42 72.088 245.43 72.26H235.97C236.095 71.6005 236.162 70.9312 236.17 70.26V60.26C236.161 59.5888 236.094 58.9197 235.97 58.26H245.43C245.424 58.4346 245.382 58.6062 245.307 58.7638C245.231 58.9213 245.124 59.0614 244.991 59.1752C244.859 59.289 244.704 59.374 244.537 59.4247C244.369 59.4755 244.193 59.4909 244.02 59.47H238.58V64.7H243.58V65.91H238.58V71.14V71.08Z" fill="#B81F53"/>
<path d="M246.43 58.19H259.92C259.92 58.27 259.92 59.44 258.92 59.44C257.65 59.44 256.99 59.36 255.52 59.36H254.52V72.26H251.86V59.36H250.86C249.39 59.36 248.73 59.42 247.46 59.44C246.46 59.44 246.46 58.27 246.46 58.19" fill="#B81F53"/>
<path d="M263.95 64.63H270.49V60.2C270.49 59.2 270.49 57.99 273.11 57.99C272.993 58.7212 272.926 59.4596 272.91 60.2V70.26C272.925 70.9938 272.992 71.7256 273.11 72.45C270.49 72.45 270.49 71.24 270.49 70.24V65.83H263.95V70.26C263.95 71.26 263.95 72.47 261.33 72.47C261.448 71.7456 261.515 71.0138 261.53 70.28V60.26C261.515 59.5196 261.448 58.7811 261.33 58.05C263.95 58.05 263.95 59.26 263.95 60.26V64.63Z" fill="#B81F53"/>
<path d="M283.45 67.05H278.45L276.82 70.63C276.4 71.53 275.99 72.48 274.46 72.48C274.825 71.881 275.159 71.2635 275.46 70.63L281.58 57.18L287.7 70.63C287.997 71.2657 288.331 71.8835 288.7 72.48C285.9 72.48 285.46 71.48 285.04 70.63L283.45 67.05ZM279.04 65.84H282.9L280.97 61.61L279.04 65.84Z" fill="#B81F53"/>
<path d="M299.69 73.26L294.3 61.99L291.3 70.53C290.98 71.53 290.58 72.46 289.17 72.46C289.17 72.46 289.65 71.46 290 70.53L294.67 57.16L300.29 69.02L305.62 57.16L310.29 70.53C310.529 71.1889 310.806 71.8334 311.12 72.46C308.44 72.46 308.12 71.46 307.78 70.53L304.78 61.97L299.69 73.26Z" fill="#B81F53"/>
<path d="M81.03 6L62.79 46.07C61.95 47.91 60.33 50.67 59.33 52.31H59.79C61.1367 52.4023 62.4807 52.0947 63.6531 51.4257C64.8256 50.7568 65.7743 49.7563 66.38 48.55C66.75 47.9 67.07 47.23 67.38 46.55L67.48 46.35L72 36.43H86.16L90.7 46.36C92 49.14 93.47 52.29 102.27 52.29H102.74C101.468 50.2778 100.313 48.1944 99.28 46.05L81.03 6ZM73.55 33L79.05 20.92L84.58 33H73.55Z" fill="#B81F53"/>
<path d="M155.24 6L139.34 41.33L122.6 6L108.68 45.83C107.68 48.71 105.87 52.31 105.87 52.31H106.22C111.13 52.31 112.41 48.55 113.22 46.07L121.61 22.26L137.61 55.69L152.61 22.26L160.99 46.17C161.99 49.04 163.2 52.3 171.59 52.3H171.93C171.93 52.3 170.15 48.7 169.13 45.82L155.24 6Z" fill="#B81F53"/>
<path d="M217.68 14.49V52.18H226.31V14.49C226.356 12.3189 226.553 10.1536 226.9 8.00999L227.04 7.17999H226.16C217.65 7.17999 217.65 11.4 217.65 14.49" fill="#B81F53"/>
<path d="M270.48 11.61C273.41 11.61 274.19 8.82001 274.19 7.17001H232.56C232.56 8.82001 233.34 11.61 236.29 11.61C237.84 11.61 239.11 11.54 240.29 11.5C242.1 11.43 243.8 11.37 246.38 11.37H248.72V52.14H257.95V11.37H260.29C262.86 11.37 264.57 11.43 266.38 11.5C267.61 11.5 268.87 11.59 270.44 11.61" fill="#B81F53"/>
<path d="M207.16 47.46L195.72 32.12C202.72 30.92 208.24 25.86 207.83 18.45C207.44 11.45 201.12 7.17999 193.44 7.17999C187.74 7.17999 182.44 7.41999 177.24 7.41999C177.612 9.39906 177.813 11.4065 177.84 13.42L177.6 45.72C177.553 47.9312 177.352 50.1365 177 52.32C184.8 52.32 184.8 48.72 184.8 45.72L185.04 10.6C188.22 10.6 190.2 10.47 192.24 10.48C194.44 10.4709 196.559 11.304 198.164 12.8084C199.769 14.3128 200.737 16.3743 200.87 18.57C201.44 23.91 199.58 27.87 195.7 29.63C192.85 30.79 186.7 30.63 186.7 30.63L199.36 47.63C201.16 50.03 203.61 52.32 211.46 52.32C209.907 50.8099 208.47 49.1853 207.16 47.46" fill="#B81F53"/>
<path d="M307.59 46.07L289.35 6L271.16 46.07C270.32 47.91 268.7 50.67 267.7 52.31H268.16C269.507 52.4023 270.851 52.0947 272.023 51.4257C273.196 50.7568 274.144 49.7563 274.75 48.55C275.12 47.9 275.44 47.23 275.75 46.55L275.85 46.35L280.37 36.43H294.54L299.08 46.36C300.38 49.14 301.85 52.29 310.65 52.29H311.12C309.851 50.2711 308.693 48.1847 307.65 46.04L307.59 46.07ZM281.88 33L287.38 20.92L292.91 33H281.88Z" fill="#B81F53"/>
<path d="M77.38 82.76H77.79C78.18 82.76 78.24 82.58 78.24 82.3V78.62C78.24 78.34 78.18 78.21 77.79 78.16L77.38 78.11V78.01H79.51C79.8416 77.9887 80.174 78.0356 80.4867 78.1478C80.7994 78.2601 81.0857 78.4352 81.3281 78.6625C81.5704 78.8898 81.7636 79.1643 81.8956 79.4692C82.0277 79.7741 82.0958 80.1028 82.0958 80.435C82.0958 80.7672 82.0277 81.0959 81.8956 81.4008C81.7636 81.7057 81.5704 81.9802 81.3281 82.2075C81.0857 82.4348 80.7994 82.6099 80.4867 82.7222C80.174 82.8344 79.8416 82.8813 79.51 82.86H77.38V82.76ZM79.51 82.76C80.77 82.76 81.39 81.97 81.39 80.46C81.39 78.95 80.75 78.17 79.51 78.17H78.78V82.26C78.78 82.58 78.91 82.72 79.26 82.72H79.51V82.76Z" fill="#B81F53"/>
<path d="M87.47 80.26C87.95 80.26 88.07 80.02 88.24 79.2H88.35C88.35 79.57 88.35 79.95 88.35 80.33C88.35 80.71 88.35 81.08 88.35 81.46H88.24C88.06 80.63 87.95 80.4 87.47 80.4H86.81V82.26C86.81 82.58 86.94 82.72 87.29 82.72H88.05C88.86 82.72 89.05 82.51 89.35 81.16H89.48L89.38 82.85H85.38V82.75L85.79 82.7C86.18 82.7 86.24 82.52 86.24 82.24V78.63C86.24 78.35 86.18 78.22 85.79 78.17H85.38V78.07H89.16L89.25 79.62H89.16C88.84 78.4 88.72 78.2 87.98 78.2H86.86V80.36H87.51L87.47 80.26Z" fill="#B81F53"/>
<path d="M94.97 80.26C95.45 80.26 95.57 80.02 95.74 79.2H95.85C95.85 79.57 95.85 79.95 95.85 80.33C95.85 80.71 95.85 81.08 95.85 81.46H95.74C95.56 80.63 95.45 80.4 94.97 80.4H94.31V82.26C94.31 82.58 94.44 82.72 94.79 82.72H95.55C96.36 82.72 96.55 82.51 96.85 81.16H96.98L96.88 82.85H92.88V82.75L93.29 82.7C93.68 82.7 93.74 82.52 93.74 82.24V78.63C93.74 78.35 93.68 78.22 93.29 78.17H92.88V78.07H96.63L96.72 79.62H96.59C96.27 78.4 96.15 78.2 95.41 78.2H94.29V80.36H94.94L94.97 80.26Z" fill="#B81F53"/>
<path d="M101.42 78.31V81.85C101.42 82.5 101.53 82.64 101.98 82.71H102.27V82.81H100.4V82.71H100.68C101.14 82.64 101.25 82.5 101.25 81.85V78.62C101.25 78.34 101.19 78.21 100.8 78.16L100.39 78.11V78.01H101.89L103.59 82.21L105.3 78.01H106.78V78.11L106.37 78.16C105.98 78.16 105.93 78.34 105.93 78.62V82.26C105.93 82.54 105.99 82.67 106.37 82.72L106.78 82.77V82.87H104.52V82.77L104.93 82.72C105.32 82.72 105.37 82.54 105.37 82.26V78.26L103.49 82.87H103.29L101.42 78.31Z" fill="#B81F53"/>
<path d="M112.16 80.26C112.64 80.26 112.76 80.02 112.93 79.2H113.04C113.04 79.57 113.04 79.95 113.04 80.33C113.04 80.71 113.04 81.08 113.04 81.46H112.93C112.75 80.63 112.64 80.4 112.16 80.4H111.5V82.26C111.5 82.58 111.63 82.72 111.98 82.72H112.74C113.55 82.72 113.74 82.51 114.04 81.16H114.16L114.06 82.85H110.06V82.75L110.47 82.7C110.86 82.7 110.92 82.52 110.92 82.24V78.63C110.92 78.35 110.85 78.22 110.47 78.17H110.06V78.07H113.81L113.9 79.62H113.77C113.45 78.4 113.33 78.2 112.59 78.2H111.47V80.36H112.16V80.26Z" fill="#B81F53"/>
<path d="M117.57 82.76H117.98C118.37 82.76 118.43 82.58 118.43 82.3V78.62C118.43 78.34 118.37 78.21 117.98 78.16L117.57 78.11V78.01H119.7C120.032 77.9887 120.364 78.0356 120.677 78.1478C120.989 78.2601 121.276 78.4352 121.518 78.6625C121.76 78.8898 121.954 79.1643 122.086 79.4692C122.218 79.7741 122.286 80.1028 122.286 80.435C122.286 80.7672 122.218 81.0959 122.086 81.4008C121.954 81.7057 121.76 81.9802 121.518 82.2075C121.276 82.4348 120.989 82.6099 120.677 82.7222C120.364 82.8344 120.032 82.8813 119.7 82.86H117.57V82.76ZM119.7 82.76C120.96 82.76 121.58 81.97 121.58 80.46C121.58 78.95 120.94 78.17 119.7 78.17H118.97V82.26C118.97 82.58 119.1 82.72 119.45 82.72H119.7V82.76Z" fill="#B81F53"/>
<path d="M131.32 82.86H128.98V82.76H129.41C129.82 82.76 129.87 82.57 129.87 82.28V78.14H129.23C128.53 78.14 128.4 78.34 128.1 79.65H127.99L128.05 78.02H132.25L132.31 79.65H132.16C131.85 78.34 131.72 78.14 131.02 78.14H130.39V82.26C130.39 82.55 130.45 82.69 130.85 82.74H131.28V82.84L131.32 82.86Z" fill="#B81F53"/>
<path d="M138.16 82.97C137.651 83.0062 137.143 82.8882 136.702 82.6316C136.261 82.3749 135.908 81.9914 135.688 81.531C135.468 81.0706 135.392 80.5547 135.47 80.0504C135.547 79.5461 135.775 79.0769 136.123 78.7038C136.471 78.3307 136.923 78.0711 137.421 77.9588C137.918 77.8464 138.438 77.8865 138.913 78.0739C139.387 78.2612 139.794 78.5872 140.081 79.0092C140.368 79.4312 140.521 79.9298 140.52 80.44C140.543 80.7639 140.5 81.0892 140.392 81.3954C140.284 81.7017 140.113 81.9823 139.892 82.2198C139.67 82.4573 139.402 82.6465 139.104 82.7756C138.806 82.9047 138.485 82.9709 138.16 82.97V82.97ZM138.16 82.86C139.3 82.86 139.87 81.86 139.87 80.43C139.87 79 139.29 78.01 138.16 78.01C137.03 78.01 136.45 79.07 136.45 80.43C136.45 81.79 137.02 82.86 138.16 82.86Z" fill="#B81F53"/>
<path d="M146.96 82.76H147.37C147.76 82.76 147.82 82.58 147.82 82.3V78.62C147.82 78.34 147.76 78.21 147.37 78.16L146.96 78.11V78.01H148.96C149.96 78.01 150.8 78.26 150.8 79.12C150.8 79.81 150.17 80.21 149.34 80.3C150.34 80.3 151.05 80.66 151.05 81.49C151.05 82.32 150.26 82.84 149.05 82.84H146.96V82.76ZM148.96 80.26C149.87 80.26 150.23 79.85 150.23 79.13C150.23 78.41 149.77 78.13 148.97 78.13H148.36V80.26H148.96ZM148.37 82.26C148.37 82.58 148.5 82.72 148.85 82.72H149.16C150.05 82.72 150.5 82.36 150.5 81.49C150.5 80.62 149.97 80.37 149.01 80.37H148.42V82.26H148.37Z" fill="#B81F53"/>
<path d="M156.59 80.26C157.07 80.26 157.19 80.02 157.36 79.2H157.47C157.47 79.57 157.47 79.95 157.47 80.33C157.47 80.71 157.47 81.08 157.47 81.46H157.36C157.18 80.63 157.07 80.4 156.59 80.4H155.93V82.26C155.93 82.58 156.06 82.72 156.41 82.72H157.16C157.97 82.72 158.11 82.51 158.46 81.16H158.59L158.49 82.85H154.49V82.75L154.9 82.7C155.29 82.7 155.35 82.52 155.35 82.24V78.63C155.35 78.35 155.29 78.22 154.9 78.17H154.49V78.07H158.24L158.33 79.62H158.2C157.88 78.4 157.76 78.2 157.01 78.2H155.89V80.36H156.56L156.59 80.26Z" fill="#B81F53"/>
<path d="M167.85 82.96C167.606 82.9974 167.357 82.9769 167.123 82.9002C166.889 82.8234 166.676 82.6926 166.502 82.5183C166.327 82.344 166.197 82.1312 166.12 81.8969C166.043 81.6627 166.023 81.4137 166.06 81.17V78.62C166.06 78.34 165.99 78.21 165.61 78.16L165.2 78.11V78.01H167.47V78.11L167.06 78.16C166.68 78.16 166.61 78.34 166.61 78.62V81.17C166.61 82.41 167.22 82.73 168.04 82.73C168.246 82.7491 168.453 82.7211 168.646 82.648C168.84 82.575 169.014 82.4589 169.155 82.3085C169.297 82.1581 169.403 81.9775 169.464 81.7802C169.526 81.5829 169.541 81.3742 169.51 81.17V79.02C169.51 78.37 169.4 78.23 168.95 78.16L168.66 78.11V78.01H170.54V78.11L170.25 78.16C169.79 78.23 169.68 78.37 169.68 79.02V81.17C169.708 81.4154 169.68 81.664 169.597 81.8968C169.515 82.1296 169.38 82.3405 169.203 82.5132C169.027 82.6859 168.813 82.816 168.578 82.8934C168.344 82.9709 168.095 82.9936 167.85 82.96" fill="#B81F53"/>
<path d="M174.79 78.47V81.85C174.79 82.5 174.9 82.64 175.35 82.71H175.64V82.81H173.77V82.71H174.06C174.52 82.64 174.63 82.49 174.63 81.85V78.62C174.63 78.34 174.57 78.21 174.18 78.16L173.77 78.11V78.01H175.16L177.97 82.14V79.03C177.97 78.38 177.86 78.24 177.41 78.17H177.12V78.07H179V78.17H178.71C178.25 78.24 178.15 78.38 178.15 79.03V82.88H177.81L174.79 78.47Z" fill="#B81F53"/>
<path d="M182.24 82.76H182.65C183.04 82.76 183.1 82.58 183.1 82.3V78.62C183.1 78.34 183.04 78.21 182.65 78.16L182.24 78.11V78.01H184.51V78.11L184.09 78.16C183.71 78.16 183.65 78.34 183.65 78.62V82.26C183.65 82.54 183.72 82.67 184.09 82.72L184.51 82.77V82.87H182.24V82.76Z" fill="#B81F53"/>
<path d="M188.49 78.82C188.3 78.34 188.18 78.21 187.86 78.16H187.58V78.06H189.78V78.16H189.4C189.02 78.16 188.93 78.38 189.05 78.71L190.37 82.3L191.54 79.15C191.81 78.42 191.74 78.22 191.24 78.15H190.93V78.05H192.77V78.15H192.56C192.13 78.24 191.99 78.4 191.69 79.15L190.54 82.15L190.31 82.81H190.03L188.49 78.82Z" fill="#B81F53"/>
<path d="M197.92 80.26C198.4 80.26 198.52 80.02 198.69 79.2H198.8C198.8 79.57 198.8 79.95 198.8 80.33C198.8 80.71 198.8 81.08 198.8 81.46H198.69C198.51 80.63 198.4 80.4 197.92 80.4H197.26V82.26C197.26 82.58 197.39 82.72 197.74 82.72H198.5C199.31 82.72 199.45 82.51 199.8 81.16H199.93L199.83 82.85H195.83V82.75L196.24 82.7C196.63 82.7 196.69 82.52 196.69 82.24V78.63C196.69 78.35 196.63 78.22 196.24 78.17H195.83V78.07H199.58L199.67 79.62H199.54C199.22 78.4 199.1 78.2 198.35 78.2H197.26V80.36H197.92V80.26Z" fill="#B81F53"/>
<path d="M207.16 82.86C206.83 82.86 206.77 82.79 206.65 82.55L205.65 80.55H205.29H204.71V82.26C204.71 82.55 204.77 82.68 205.17 82.73H205.59V82.83H203.31V82.73H203.72C204.1 82.73 204.17 82.55 204.17 82.27V78.62C204.17 78.34 204.11 78.21 203.72 78.16L203.31 78.11V78.01H205.31C206.54 78.01 207.31 78.37 207.31 79.29C207.31 79.96 206.73 80.29 206.15 80.45C206.257 80.5878 206.35 80.7351 206.43 80.89L207.07 82.12C207.29 82.55 207.38 82.65 207.77 82.72H208.03V82.82L207.16 82.86ZM204.72 80.44H205.31C206.24 80.44 206.68 80.06 206.68 79.27C206.68 78.48 206.23 78.11 205.29 78.11H204.72V80.41V80.44Z" fill="#B81F53"/>
<path d="M213.06 82.97C212.801 82.984 212.542 82.9422 212.3 82.8473C212.059 82.7524 211.84 82.6067 211.66 82.42L211.45 82.95H211.38V80.95H211.52C211.78 82.37 212.3 82.83 213.07 82.83C213.209 82.8425 213.348 82.826 213.48 82.7814C213.612 82.7367 213.733 82.6651 213.836 82.5709C213.939 82.4768 214.02 82.3623 214.076 82.2347C214.132 82.1071 214.161 81.9692 214.16 81.83C214.16 81.14 213.62 80.89 212.9 80.63C212.18 80.37 211.49 79.94 211.49 79.19C211.493 79.0064 211.535 78.8254 211.611 78.6585C211.688 78.4916 211.798 78.3424 211.935 78.2203C212.073 78.0982 212.233 78.0058 212.408 77.9489C212.583 77.8921 212.767 77.872 212.95 77.89C213.177 77.8784 213.404 77.9183 213.613 78.0066C213.823 78.0949 214.01 78.2294 214.16 78.4L214.36 77.91H214.43V79.8H214.29C214.03 78.51 213.65 78 212.95 78C212.822 77.9918 212.693 78.01 212.572 78.0536C212.451 78.0971 212.34 78.1651 212.246 78.2532C212.152 78.3413 212.078 78.4477 212.027 78.5659C211.976 78.684 211.95 78.8113 211.95 78.94C211.95 79.6 212.49 79.88 213.25 80.15C214.01 80.42 214.64 80.75 214.64 81.61C214.63 81.7998 214.582 81.9856 214.498 82.1563C214.415 82.327 214.297 82.4791 214.154 82.6033C214.01 82.7275 213.842 82.8214 213.661 82.8793C213.48 82.9371 213.289 82.9578 213.1 82.94" fill="#B81F53"/>
<path d="M218.16 82.76H218.57C218.95 82.76 219.02 82.58 219.02 82.3V78.62C219.02 78.34 218.96 78.21 218.57 78.16L218.16 78.11V78.01H220.43V78.11L220.01 78.16C219.63 78.16 219.57 78.34 219.57 78.62V82.26C219.57 82.54 219.63 82.67 220.01 82.72L220.43 82.77V82.87H218.16V82.76Z" fill="#B81F53"/>
<path d="M227.16 82.86H224.82V82.76H225.25C225.66 82.76 225.71 82.57 225.71 82.28V78.14H225.07C224.37 78.14 224.24 78.34 223.94 79.65H223.83L223.89 78.02H228.09L228.15 79.65H228.04C227.73 78.34 227.6 78.14 226.9 78.14H226.27V82.26C226.27 82.55 226.33 82.69 226.73 82.74H227.16V82.84V82.86Z" fill="#B81F53"/>
<path d="M233.7 82.86H232.52V82.76L232.95 82.71C233.36 82.71 233.42 82.52 233.42 82.23V80.98L232.16 78.73C231.92 78.3 231.78 78.2 231.47 78.16H231.24V78.06H233.44V78.16H233.03C232.65 78.16 232.62 78.39 232.77 78.67L233.93 80.76L234.83 79.18C234.978 78.9677 235.077 78.7252 235.12 78.47C235.12 78.29 234.99 78.21 234.66 78.16H234.41V78.06H236.23V78.16H236.04C235.64 78.24 235.44 78.42 234.96 79.25L233.96 80.92V82.26C233.96 82.55 234.02 82.69 234.43 82.74H234.86V82.84C234.46 82.84 234.08 82.84 233.69 82.84" fill="#B81F53"/>
<path d="M75.04 80.38H0V80.63H75.04V80.38Z" fill="#B81F53"/>
<path d="M311.1 80.38H237.63V80.63H311.1V80.38Z" fill="#B81F53"/>
<path d="M361.388 35.1054C361.388 37.538 360.506 39.435 358.741 40.7962C356.976 42.1575 354.582 42.8381 351.557 42.8381C348.279 42.8381 345.759 42.4158 343.994 41.5714V38.4707C345.128 38.9497 346.364 39.3278 347.7 39.6051C349.036 39.8824 350.359 40.0211 351.67 40.0211C353.813 40.0211 355.426 39.6177 356.51 38.8111C357.594 37.9918 358.136 36.8574 358.136 35.4079C358.136 34.45 357.941 33.6686 357.55 33.0636C357.172 32.446 356.529 31.8788 355.621 31.362C354.727 30.8452 353.359 30.2591 351.519 29.6037C348.947 28.6836 347.107 27.5933 345.998 26.3329C344.902 25.0725 344.353 23.4277 344.353 21.3984C344.353 19.2683 345.154 17.573 346.754 16.3126C348.355 15.0522 350.473 14.422 353.107 14.422C355.855 14.422 358.382 14.9262 360.688 15.9345L359.686 18.7326C357.405 17.7747 355.187 17.2957 353.031 17.2957C351.33 17.2957 350 17.6613 349.042 18.3923C348.084 19.1233 347.605 20.138 347.605 21.4362C347.605 22.3941 347.782 23.1819 348.135 23.7995C348.487 24.4045 349.08 24.9654 349.912 25.4821C350.756 25.9863 352.042 26.5472 353.769 27.1648C356.668 28.1983 358.659 29.3075 359.743 30.4923C360.84 31.6771 361.388 33.2148 361.388 35.1054Z" fill="#B81F53"/>
<path d="M373.598 42.8381C370.599 42.8381 368.273 41.918 366.622 40.0778C364.983 38.225 364.164 35.6096 364.164 32.2317C364.164 28.7655 364.996 26.0871 366.66 24.1965C368.336 22.3059 370.718 21.3606 373.806 21.3606C374.802 21.3606 375.798 21.4677 376.794 21.682C377.789 21.8963 378.571 22.1483 379.138 22.4382L378.174 25.104C377.481 24.8267 376.724 24.5999 375.905 24.4234C375.086 24.2343 374.361 24.1398 373.731 24.1398C369.521 24.1398 367.416 26.8245 367.416 32.1939C367.416 34.7399 367.927 36.6936 368.947 38.0548C369.981 39.4161 371.506 40.0967 373.523 40.0967C375.25 40.0967 377.02 39.7249 378.835 38.9812V41.7604C377.449 42.4789 375.703 42.8381 373.598 42.8381Z" fill="#B81F53"/>
<path d="M396.497 42.46V29.0554C396.497 27.3665 396.113 26.1061 395.344 25.2742C394.575 24.4423 393.371 24.0264 391.733 24.0264C389.552 24.0264 387.958 24.6188 386.95 25.8036C385.954 26.9883 385.456 28.9294 385.456 31.6267V42.46H382.317V13.0418H385.456V21.9467C385.456 23.018 385.406 23.9066 385.305 24.6125H385.494C386.111 23.6167 386.987 22.8353 388.122 22.2681C389.269 21.6883 390.573 21.3984 392.035 21.3984C394.569 21.3984 396.466 22.0034 397.726 23.2134C398.999 24.4108 399.636 26.3203 399.636 28.942V42.46H396.497ZM423.987 32.0804C423.987 35.4583 423.136 38.0989 421.435 40.0021C419.733 41.8928 417.382 42.8381 414.382 42.8381C412.53 42.8381 410.885 42.4032 409.448 41.5336C408.011 40.6639 406.902 39.4161 406.12 37.7901C405.339 36.1642 404.948 34.261 404.948 32.0804C404.948 28.7025 405.793 26.0745 407.482 24.1965C409.171 22.3059 411.515 21.3606 414.515 21.3606C417.414 21.3606 419.714 22.3248 421.416 24.2532C423.13 26.1817 423.987 28.7907 423.987 32.0804ZM408.2 32.0804C408.2 34.7273 408.73 36.744 409.788 38.1304C410.847 39.5169 412.404 40.2101 414.458 40.2101C416.513 40.2101 418.069 39.5232 419.128 38.1493C420.199 36.7629 420.735 34.7399 420.735 32.0804C420.735 29.4462 420.199 27.4484 419.128 26.0871C418.069 24.7133 416.5 24.0264 414.42 24.0264C412.366 24.0264 410.816 24.7007 409.769 26.0493C408.723 27.398 408.2 29.4083 408.2 32.0804ZM447.393 32.0804C447.393 35.4583 446.542 38.0989 444.84 40.0021C443.139 41.8928 440.788 42.8381 437.788 42.8381C435.936 42.8381 434.291 42.4032 432.854 41.5336C431.417 40.6639 430.308 39.4161 429.526 37.7901C428.745 36.1642 428.354 34.261 428.354 32.0804C428.354 28.7025 429.199 26.0745 430.888 24.1965C432.577 22.3059 434.921 21.3606 437.921 21.3606C440.82 21.3606 443.12 22.3248 444.822 24.2532C446.536 26.1817 447.393 28.7907 447.393 32.0804ZM431.606 32.0804C431.606 34.7273 432.135 36.744 433.194 38.1304C434.253 39.5169 435.81 40.2101 437.864 40.2101C439.919 40.2101 441.475 39.5232 442.534 38.1493C443.605 36.7629 444.141 34.7399 444.141 32.0804C444.141 29.4462 443.605 27.4484 442.534 26.0871C441.475 24.7133 439.906 24.0264 437.826 24.0264C435.772 24.0264 434.221 24.7007 433.175 26.0493C432.129 27.398 431.606 29.4083 431.606 32.0804ZM456.052 42.46H452.913V13.0418H456.052V42.46ZM490.65 32.0804C490.65 35.4583 489.8 38.0989 488.098 40.0021C486.396 41.8928 484.046 42.8381 481.046 42.8381C479.193 42.8381 477.548 42.4032 476.111 41.5336C474.675 40.6639 473.565 39.4161 472.784 37.7901C472.002 36.1642 471.612 34.261 471.612 32.0804C471.612 28.7025 472.456 26.0745 474.145 24.1965C475.834 22.3059 478.178 21.3606 481.178 21.3606C484.077 21.3606 486.377 22.3248 488.079 24.2532C489.793 26.1817 490.65 28.7907 490.65 32.0804ZM474.864 32.0804C474.864 34.7273 475.393 36.744 476.452 38.1304C477.51 39.5169 479.067 40.2101 481.122 40.2101C483.176 40.2101 484.733 39.5232 485.791 38.1493C486.863 36.7629 487.398 34.7399 487.398 32.0804C487.398 29.4462 486.863 27.4484 485.791 26.0871C484.733 24.7133 483.163 24.0264 481.084 24.0264C479.029 24.0264 477.479 24.7007 476.433 26.0493C475.387 27.398 474.864 29.4083 474.864 32.0804Z" fill="#B81F53"/>
<path d="M503.657 24.1776H498.382V42.46H495.244V24.1776H491.538V22.7596L495.244 21.6253V20.472C495.244 15.3799 497.469 12.8339 501.918 12.8339C503.014 12.8339 504.3 13.0544 505.775 13.4956L504.962 16.0101C503.752 15.6194 502.718 15.424 501.861 15.424C500.676 15.424 499.8 15.8211 499.233 16.6151C498.666 17.3966 498.382 18.657 498.382 20.3964V21.7387H503.657V24.1776Z" fill="#B81F53"/>
<path d="M345.79 51.1791H353.598C357.266 51.1791 359.919 51.7274 361.558 52.8239C363.197 53.9205 364.016 55.6535 364.016 58.0231C364.016 59.6617 363.556 61.0166 362.636 62.088C361.728 63.1467 360.398 63.8337 358.646 64.1488V64.3378C362.844 65.0563 364.942 67.262 364.942 70.955C364.942 73.4254 364.104 75.3539 362.428 76.7403C360.764 78.1268 358.432 78.82 355.432 78.82H345.79V51.1791ZM349.004 63.0144H354.298C356.567 63.0144 358.199 62.6615 359.195 61.9556C360.19 61.2372 360.688 60.0335 360.688 58.3445C360.688 56.7942 360.134 55.6788 359.025 54.9981C357.915 54.3049 356.151 53.9583 353.731 53.9583H349.004V63.0144ZM349.004 65.7369V76.0786H354.771C357.002 76.0786 358.678 75.6501 359.8 74.793C360.934 73.9233 361.501 72.5683 361.501 70.7281C361.501 69.014 360.921 67.7535 359.762 66.9469C358.615 66.1402 356.863 65.7369 354.506 65.7369H349.004ZM373.374 58.0988V71.5411C373.374 73.2301 373.759 74.4905 374.528 75.3224C375.297 76.1542 376.5 76.5702 378.139 76.5702C380.307 76.5702 381.888 75.9778 382.884 74.793C383.893 73.6082 384.397 71.6734 384.397 68.9888V58.0988H387.535V78.82H384.945L384.491 76.0408H384.321C383.678 77.0617 382.783 77.8432 381.636 78.3852C380.502 78.9271 379.204 79.1981 377.742 79.1981C375.221 79.1981 373.33 78.5994 372.07 77.402C370.822 76.2046 370.198 74.2888 370.198 71.6545V58.0988H373.374ZM407.576 73.167C407.576 75.0955 406.857 76.5828 405.42 77.6289C403.984 78.6751 401.967 79.1981 399.37 79.1981C396.623 79.1981 394.48 78.7633 392.942 77.8936V74.982C393.938 75.4862 395.003 75.8832 396.137 76.1731C397.284 76.463 398.387 76.608 399.446 76.608C401.085 76.608 402.345 76.3496 403.227 75.8328C404.11 75.3034 404.551 74.5031 404.551 73.4317C404.551 72.6251 404.198 71.9381 403.492 71.3709C402.799 70.7912 401.438 70.1105 399.408 69.3291C397.48 68.6106 396.106 67.9867 395.287 67.4574C394.48 66.9154 393.875 66.3041 393.472 65.6234C393.081 64.9428 392.886 64.1299 392.886 63.1845C392.886 61.4956 393.573 60.1658 394.946 59.1953C396.32 58.2122 398.205 57.7206 400.599 57.7206C402.83 57.7206 405.011 58.1744 407.141 59.0819L406.025 61.6342C403.946 60.7771 402.061 60.3486 400.372 60.3486C398.885 60.3486 397.763 60.5818 397.007 61.0481C396.251 61.5145 395.873 62.1573 395.873 62.9766C395.873 63.5312 396.011 64.0038 396.289 64.3945C396.579 64.7853 397.039 65.1571 397.669 65.51C398.299 65.8629 399.509 66.3734 401.299 67.0414C403.757 67.9363 405.414 68.8375 406.271 69.745C407.141 70.6525 407.576 71.7932 407.576 73.167ZM415.838 78.82H412.699V58.0988H415.838V78.82ZM412.435 52.4836C412.435 51.7652 412.611 51.2421 412.964 50.9144C413.317 50.5741 413.758 50.4039 414.287 50.4039C414.792 50.4039 415.226 50.5741 415.592 50.9144C415.958 51.2547 416.14 51.7778 416.14 52.4836C416.14 53.1894 415.958 53.7188 415.592 54.0717C415.226 54.412 414.792 54.5822 414.287 54.5822C413.758 54.5822 413.317 54.412 412.964 54.0717C412.611 53.7188 412.435 53.1894 412.435 52.4836ZM436.672 78.82V65.4155C436.672 63.7265 436.288 62.4661 435.519 61.6342C434.75 60.8024 433.547 60.3864 431.908 60.3864C429.74 60.3864 428.152 60.9725 427.144 62.1447C426.135 63.3169 425.631 65.2516 425.631 67.9489V78.82H422.493V58.0988H425.045L425.556 60.9347H425.707C426.35 59.9138 427.251 59.126 428.41 58.5714C429.57 58.0042 430.862 57.7206 432.286 57.7206C434.782 57.7206 436.66 58.3256 437.92 59.5356C439.181 60.733 439.811 62.6552 439.811 65.302V78.82H436.672ZM455.03 79.1981C451.968 79.1981 449.548 78.2654 447.77 76.4C446.006 74.5346 445.124 71.9444 445.124 68.6295C445.124 65.2894 445.943 62.6363 447.581 60.67C449.233 58.7038 451.445 57.7206 454.217 57.7206C456.814 57.7206 458.868 58.5777 460.381 60.2919C461.893 61.9934 462.65 64.2433 462.65 67.0414V69.0266H448.375C448.438 71.4592 449.05 73.3057 450.209 74.5661C451.382 75.8265 453.026 76.4567 455.144 76.4567C457.375 76.4567 459.581 75.9904 461.761 75.0577V77.8558C460.652 78.3347 459.599 78.6751 458.604 78.8767C457.621 79.091 456.43 79.1981 455.03 79.1981ZM454.18 60.3486C452.516 60.3486 451.186 60.8906 450.19 61.9745C449.207 63.0585 448.628 64.5584 448.451 66.4742H459.284C459.284 64.4954 458.843 62.9829 457.961 61.9367C457.079 60.878 455.818 60.3486 454.18 60.3486ZM481.386 73.167C481.386 75.0955 480.667 76.5828 479.23 77.6289C477.794 78.6751 475.777 79.1981 473.18 79.1981C470.433 79.1981 468.29 78.7633 466.752 77.8936V74.982C467.748 75.4862 468.813 75.8832 469.947 76.1731C471.094 76.463 472.197 76.608 473.256 76.608C474.895 76.608 476.155 76.3496 477.037 75.8328C477.92 75.3034 478.361 74.5031 478.361 73.4317C478.361 72.6251 478.008 71.9381 477.302 71.3709C476.609 70.7912 475.248 70.1105 473.218 69.3291C471.29 68.6106 469.916 67.9867 469.097 67.4574C468.29 66.9154 467.685 66.3041 467.282 65.6234C466.891 64.9428 466.696 64.1299 466.696 63.1845C466.696 61.4956 467.383 60.1658 468.756 59.1953C470.13 58.2122 472.015 57.7206 474.409 57.7206C476.64 57.7206 478.821 58.1744 480.951 59.0819L479.835 61.6342C477.756 60.7771 475.871 60.3486 474.182 60.3486C472.695 60.3486 471.573 60.5818 470.817 61.0481C470.061 61.5145 469.683 62.1573 469.683 62.9766C469.683 63.5312 469.821 64.0038 470.099 64.3945C470.389 64.7853 470.849 65.1571 471.479 65.51C472.109 65.8629 473.319 66.3734 475.109 67.0414C477.567 67.9363 479.224 68.8375 480.081 69.745C480.951 70.6525 481.386 71.7932 481.386 73.167ZM499.876 73.167C499.876 75.0955 499.158 76.5828 497.721 77.6289C496.284 78.6751 494.267 79.1981 491.671 79.1981C488.923 79.1981 486.78 78.7633 485.243 77.8936V74.982C486.238 75.4862 487.303 75.8832 488.438 76.1731C489.585 76.463 490.688 76.608 491.746 76.608C493.385 76.608 494.645 76.3496 495.528 75.8328C496.41 75.3034 496.851 74.5031 496.851 73.4317C496.851 72.6251 496.498 71.9381 495.792 71.3709C495.099 70.7912 493.738 70.1105 491.709 69.3291C489.78 68.6106 488.406 67.9867 487.587 67.4574C486.78 66.9154 486.175 66.3041 485.772 65.6234C485.381 64.9428 485.186 64.1299 485.186 63.1845C485.186 61.4956 485.873 60.1658 487.247 59.1953C488.621 58.2122 490.505 57.7206 492.9 57.7206C495.131 57.7206 497.311 58.1744 499.441 59.0819L498.326 61.6342C496.246 60.7771 494.362 60.3486 492.673 60.3486C491.186 60.3486 490.064 60.5818 489.307 61.0481C488.551 61.5145 488.173 62.1573 488.173 62.9766C488.173 63.5312 488.312 64.0038 488.589 64.3945C488.879 64.7853 489.339 65.1571 489.969 65.51C490.599 65.8629 491.809 66.3734 493.599 67.0414C496.057 67.9363 497.714 68.8375 498.572 69.745C499.441 70.6525 499.876 71.7932 499.876 73.167Z" fill="#B81F53"/>
<path d="M329.35 6.70001H328.78V80.15H329.35V6.70001Z" fill="#B81F53"/>
</svg>
