<svg id="Layer_1" data-name="Layer 1" xmlns="http://www.w3.org/2000/svg" viewBox="0 0 501.22 80.03"><defs><style>.cls-1,.cls-3,.cls-4,.cls-5{fill:#b81f53;}.cls-2,.cls-3,.cls-4,.cls-5{isolation:isolate;}.cls-3,.cls-4,.cls-5{font-size:38.72px;font-family:OpenSans-Regular, Open Sans;}.cls-3{letter-spacing:-0.02em;}.cls-4{letter-spacing:-0.03em;}</style></defs><title>school-of-business-logo</title><path class="cls-1" d="M54.35,73.35a6.18,6.18,0,0,0-.37-.52,2.17,2.17,0,0,0-.62-.59,1.27,1.27,0,0,0-.68-.22.84.84,0,0,0-.31.07l.35.74a1.09,1.09,0,0,1,.36-.06.86.86,0,0,1,.36.08.65.65,0,0,1,.28.2l.82,1.08c.23,0,.16-.26-.19-.78" transform="translate(-16.84 -10.74)"/><path class="cls-1" d="M37.86,78l.78.43V74.82h.78L39,74.13H19.59l.43.69h.17v1.61L19.32,76a.81.81,0,0,0,.19-.31,1,1,0,0,0,.07-.38,1.35,1.35,0,0,0-.43-.92,1.25,1.25,0,0,0-.87-.47,1,1,0,0,0-.71.25.81.81,0,0,0-.29.62,1.06,1.06,0,0,0,.27.61,2.21,2.21,0,0,0,.73.52,10.25,10.25,0,0,1-1.43.74l.61.52a7.92,7.92,0,0,0,1.6-1l.69.35-2,1.26.56.48,1.91-1.3v1l.78.43V74.85h4.65v.61H24.7a1.06,1.06,0,0,0-.8.33,1.13,1.13,0,0,0-.33.8,1.76,1.76,0,0,0,.6,1.2,1.64,1.64,0,0,0,1.14.62s.07,0,.15,0l.11,0a2.06,2.06,0,0,1-.43.82.75.75,0,0,1-.57.31.31.31,0,0,1-.24-.1.33.33,0,0,1-.1-.24.38.38,0,0,1,.14-.28,1.07,1.07,0,0,1,.38-.2l-.69-.43a.71.71,0,0,0-.29.14.38.38,0,0,0-.15.21,1.24,1.24,0,0,1-.65-.13.63.63,0,0,0,.35-.27.72.72,0,0,0,.13-.42.7.7,0,0,0-.21-.52.61.61,0,0,0-.49-.22.91.91,0,0,0-.62.22.73.73,0,0,0-.25.56,1,1,0,0,0,.49.77,2.19,2.19,0,0,0,1.2.31c-.06.22.05.43.34.64a1.68,1.68,0,0,0,1,.31,1,1,0,0,0,.64-.24,1.74,1.74,0,0,0,.49-.67l.35.74.48-.22-.65-1.08a.51.51,0,0,0,.28-.19.57.57,0,0,0,.11-.33.83.83,0,0,0-.22-.52A.6.6,0,0,0,26,77a.65.65,0,0,0-.4.12.38.38,0,0,0-.17.31.78.78,0,0,0,.13.39.77.77,0,0,1-1-.16,1,1,0,0,1-.27-.71.88.88,0,0,1,.21-.58.62.62,0,0,1,.49-.24H26.4v-1.3h1.23V78l.78.52V74.87H32V76a2.39,2.39,0,0,0-.67-.57,1.54,1.54,0,0,0-.72-.21,1.22,1.22,0,0,0-.86.29.88.88,0,0,0-.36.71,1.44,1.44,0,0,0,.53,1,1.53,1.53,0,0,0,1,.51,1.33,1.33,0,0,0,.55-.12,1.35,1.35,0,0,0,.49-.35V78l.78.52V74.88h1.34V78l.78.52V74.88h3V76H36.1a.3.3,0,0,0-.24.1.33.33,0,0,0-.1.24A1.14,1.14,0,0,0,36,77q.28.36.51.36a.13.13,0,0,0,.11,0,.14.14,0,0,0,.06-.12v-.3a.2.2,0,0,1,.06-.15.13.13,0,0,1,.11-.07h.95V78Zm-19-2.55a.57.57,0,0,1-.28.29.65.65,0,0,1-.37-.28.68.68,0,0,1-.15-.42.46.46,0,0,1,.15-.33.53.53,0,0,1,.37-.15.41.41,0,0,1,.28.11A.36.36,0,0,1,19,75a.88.88,0,0,1-.11.5M22.44,78a.41.41,0,0,1,0-.56.37.37,0,0,1,.28-.11.41.41,0,0,1,.28.11.37.37,0,0,1,.11.28A.41.41,0,0,1,23,78a.37.37,0,0,1-.28.11.39.39,0,0,1-.28-.11m8.85-1.07a1.7,1.7,0,0,1-.73.18.7.7,0,0,1-.43-.15.42.42,0,0,1-.17-.33c0-.19.12-.37.36-.54a1.47,1.47,0,0,1,.81-.24,1,1,0,0,1,.46.14,1.75,1.75,0,0,1,.45.38,3.18,3.18,0,0,1-.75.56" transform="translate(-16.84 -10.74)"/><path class="cls-1" d="M38.67,78.94a1.11,1.11,0,0,0-.59-.3,1.27,1.27,0,0,0-.34,0,.77.77,0,0,0-.27.16l.3.48a.78.78,0,0,1,.21-.12.68.68,0,0,1,.23,0c.2,0,.59.32,1.18,1l.47.49.26-.22c-.35-.38-.83-.86-1.45-1.44" transform="translate(-16.84 -10.74)"/><path class="cls-1" d="M54.54,74.13H49l.43.69h.87v1.47H49.13V75a1.16,1.16,0,0,0-.4-.81,1.18,1.18,0,0,0-.82-.41.81.81,0,0,0-.58.22.77.77,0,0,0-.24.56,1.49,1.49,0,0,0,0,.21l-.39-.69h-5l.39.69h3.17v.56a.64.64,0,0,0-.35.15,2,2,0,0,0-.39.42,1.87,1.87,0,0,0-.5-.45,1,1,0,0,0-1.53.88,1.56,1.56,0,0,0,.39,1,4.91,4.91,0,0,0,1.08,1l.22-.26a3.59,3.59,0,0,1-.69-.75,1.36,1.36,0,0,1-.24-.68.79.79,0,0,1,.17-.52.51.51,0,0,1,.42-.22.57.57,0,0,1,.28.08.65.65,0,0,1,.24.23,6.56,6.56,0,0,0-.3.69l.69.3a2.62,2.62,0,0,1,.43-1,.78.78,0,0,1,.61-.37.52.52,0,0,1,.31.1.3.3,0,0,1,.12.24,1,1,0,0,1-.27.64,3.11,3.11,0,0,1-.77.7l.65.61a3.94,3.94,0,0,0,.64-.87,1.68,1.68,0,0,0,.23-.78,1.39,1.39,0,0,0-.18-.71.84.84,0,0,0-.47-.42v-.61h1.09a1.21,1.21,0,0,0,.33.56,1.67,1.67,0,0,0,.9.44v.48h-.26a.31.31,0,0,0-.21.07.3.3,0,0,0-.1.19,1.66,1.66,0,0,0,1.09,1,.24.24,0,0,0,.19-.1.36.36,0,0,0,.07-.24V77h1.21v1l.78.43V74.79h3.16v.61H53.15a1,1,0,0,0-.71.25.81.81,0,0,0-.29.62,2.32,2.32,0,0,0,.29,1.06,4.29,4.29,0,0,0,.8,1.11l.26-.17a2.4,2.4,0,0,1-.52-.7,1.82,1.82,0,0,1-.17-.77.72.72,0,0,1,.7-.7h.78v1.82l.78.52V74.8h.78l-.39-.69h-.92Zm-6.2,1.39a.58.58,0,0,1-.35-.26.82.82,0,0,1-.13-.48.72.72,0,0,1,.1-.34.26.26,0,0,1,.21-.14.13.13,0,0,1,.12.1.43.43,0,0,1,.05.24Z" transform="translate(-16.84 -10.74)"/><path class="cls-1" d="M71.6,78l.78.52V74.83h.78l-.39-.69H58.11l.39.69h3v.61H59.09L59,75.7a2,2,0,0,1,.88.49,1,1,0,0,1,.33.73.38.38,0,0,1-.16.3.84.84,0,0,1-.41.18.5.5,0,0,0-.19-.22.45.45,0,0,0-.24-.09.35.35,0,0,0-.28.12.44.44,0,0,0-.11.31.53.53,0,0,0,.27.45,1.06,1.06,0,0,0,.64.2l.52,1.17.39-.22-.69-1a1.17,1.17,0,0,0,.62-.3.71.71,0,0,0,.24-.53,1.18,1.18,0,0,0-.19-.63,1.6,1.6,0,0,0-.5-.54h1.39V78l.78.43V74.82h1.34v3.12l.78.52V74.82h3V76H65.6a.33.33,0,0,0-.24.1.33.33,0,0,0-.1.24,1.12,1.12,0,0,0,.27.68q.27.36.51.36a.13.13,0,0,0,.11,0,.14.14,0,0,0,.06-.12v-.3a.2.2,0,0,1,.06-.15.13.13,0,0,1,.11-.07h1V78l.78.43V74.82h1.4v1.47h-.26a.18.18,0,0,0-.15.07.17.17,0,0,0-.07.15c0,.13.15.35.44.64s.51.44.64.44a.12.12,0,0,0,.11-.07.33.33,0,0,0,.06-.19V77h1.3v1Zm-1.3-3.13h1.3V76.3H70.3Z" transform="translate(-16.84 -10.74)"/><path class="cls-1" d="M72.41,78.94a1.11,1.11,0,0,0-.59-.3,1.27,1.27,0,0,0-.34,0,.77.77,0,0,0-.27.16l.3.48a.78.78,0,0,1,.21-.12.68.68,0,0,1,.23,0c.2,0,.59.32,1.18,1l.47.49.26-.22c-.35-.38-.83-.86-1.45-1.44" transform="translate(-16.84 -10.74)"/><path class="cls-1" d="M51.86,44.56l-.85.28a2.17,2.17,0,0,0,1.13.28h.09l.21,0H64.5c.13-.33.25-.67.37-1h-12a6.13,6.13,0,0,1-1,.44" transform="translate(-16.84 -10.74)"/><path class="cls-1" d="M38.45,45.11h.07a2.12,2.12,0,0,0,1.16-.28l-.85-.28a5.81,5.81,0,0,1-1-.44h-12c.11.34.24.68.37,1H38.45" transform="translate(-16.84 -10.74)"/><path class="cls-1" d="M52.51,46a5,5,0,0,1-2.38.6h0a.61.61,0,0,1-.24,0,4.88,4.88,0,0,1-1.57.44H63.65c.17-.33.34-.67.49-1H52.51" transform="translate(-16.84 -10.74)"/><path class="cls-1" d="M40.82,46.6a.61.61,0,0,1-.24,0h0a5.09,5.09,0,0,1-2.37-.59l0,0H26.48c.15.34.32.68.49,1H42.4a5,5,0,0,1-1.58-.44" transform="translate(-16.84 -10.74)"/><path class="cls-1" d="M22.38,37.63a2,2,0,0,0-1.23.87c-1,1.58-.27,4.77.34,7.34.22.92.42,1.79.51,2.43,0,.11,0,.23.05.35a6,6,0,0,1,.06,2.26l-.05.18.18,0a6.31,6.31,0,0,1,1.93,1.18l.28.22c.52.4,1.17,1,1.85,1.66,1.88,1.77,4.2,4,6.06,4h.13a2.06,2.06,0,0,0,1.39-.65A2,2,0,0,0,34,59c.85,1.68,4,2.62,6.53,3.38.91.27,1.76.53,2.36.78l.33.13a6,6,0,0,1,2,1.08l.13.13.13-.13a6.28,6.28,0,0,1,2-1.08l.33-.13c.6-.25,1.46-.51,2.36-.78,2.53-.76,5.68-1.7,6.53-3.38a2,2,0,0,0,.13-1.52,2.06,2.06,0,0,0,1.37.63h.13c1.86,0,4.19-2.19,6.06-4,.69-.65,1.34-1.26,1.85-1.66l.28-.22a6.16,6.16,0,0,1,1.92-1.18l.18,0-.05-.17a6.24,6.24,0,0,1,.06-2.26c0-.12,0-.24.05-.36.09-.65.29-1.51.51-2.43.61-2.57,1.37-5.77.33-7.34a2,2,0,0,0-1.25-.88,2,2,0,0,0,1.23-.87c1-1.58.27-4.77-.34-7.34-.22-.92-.42-1.79-.51-2.43,0-.11,0-.23-.05-.35a6,6,0,0,1-.06-2.26l0-.18-.18,0a6.16,6.16,0,0,1-1.92-1.18l-.28-.22c-.52-.4-1.17-1-1.85-1.66-1.88-1.77-4.2-4-6.06-4h-.13a2.06,2.06,0,0,0-1.39.65,2,2,0,0,0-.14-1.5c-.85-1.68-4-2.62-6.53-3.38-.9-.27-1.76-.53-2.36-.78L47.42,12a6,6,0,0,1-2-1.08l-.12-.13-.13.13a6.28,6.28,0,0,1-2,1.08l-.33.13c-.6.25-1.46.51-2.36.78-2.53.76-5.68,1.7-6.53,3.38a2,2,0,0,0-.13,1.52,2.06,2.06,0,0,0-1.37-.63c-1.88-.11-4.27,2.15-6.19,4-.69.65-1.34,1.26-1.85,1.66l-.28.22a6.16,6.16,0,0,1-1.92,1.18l-.18,0,.05.18A6.24,6.24,0,0,1,22,26.63c0,.12,0,.24-.05.35-.09.64-.29,1.51-.51,2.43-.61,2.57-1.37,5.77-.34,7.34a2,2,0,0,0,1.24.88M45.3,15A22.59,22.59,0,1,1,22.82,37.63,22.56,22.56,0,0,1,45.3,15" transform="translate(-16.84 -10.74)"/><path class="cls-1" d="M37.11,56.53H53.5a18.19,18.19,0,0,0,2-1H35.09a19.1,19.1,0,0,0,2,1" transform="translate(-16.84 -10.74)"/><path class="cls-1" d="M45.3,58.23a21,21,0,0,0,5.75-.81H39.56a20.89,20.89,0,0,0,5.74.81" transform="translate(-16.84 -10.74)"/><path class="cls-1" d="M50.3,37.64a1.94,1.94,0,0,0-1.07-.25,2.84,2.84,0,0,0-.66.08,1.94,1.94,0,0,0-1.4,1.4,9.59,9.59,0,0,0,.81.88,3.11,3.11,0,0,1,1.22,2A2.61,2.61,0,0,1,49,42.82,2.58,2.58,0,0,1,47.5,44.2,5.51,5.51,0,0,0,51.18,43a2.19,2.19,0,0,0,.59-1.76A3,3,0,0,0,51,39.82c-.49-.67-1-1.36-.71-2.16v0" transform="translate(-16.84 -10.74)"/><path class="cls-1" d="M52.67,38.09a3.27,3.27,0,0,0-1.07.17,1.56,1.56,0,0,0-.85.52,6.7,6.7,0,0,0,.55.84,3.34,3.34,0,0,1,.81,1.64,2.54,2.54,0,0,1-.69,2,4.89,4.89,0,0,1-3,1.2h.3a7.25,7.25,0,0,0,4.69-1.31,2.27,2.27,0,0,0,.85-1.89A2.43,2.43,0,0,0,53.68,40c-.36-.51-.77-1.08-.31-1.86a2.09,2.09,0,0,0-.7-.09" transform="translate(-16.84 -10.74)"/><path class="cls-1" d="M48.7,42.69a2.12,2.12,0,0,0,.15-.93A2.81,2.81,0,0,0,47.74,40a7.54,7.54,0,0,1-1.54-2l-.06-.13c-.24-.6-.41-1-.81-1s-.58.4-.82,1a10.38,10.38,0,0,1-1.64,2.18,2.69,2.69,0,0,0-1,1.7,2.12,2.12,0,0,0,.15.93c.41,1.06,2,1.54,3.31,1.54h.1c1.36,0,2.9-.49,3.31-1.55" transform="translate(-16.84 -10.74)"/><path class="cls-1" d="M38.92,41.28A2.19,2.19,0,0,0,39.51,43a5.51,5.51,0,0,0,3.68,1.16,2.58,2.58,0,0,1-1.53-1.38,2.61,2.61,0,0,1-.17-1.07,3.11,3.11,0,0,1,1.22-2,9.48,9.48,0,0,0,.81-.88,2,2,0,0,0-1.4-1.4,2.84,2.84,0,0,0-.66-.08,1.94,1.94,0,0,0-1.07.25l0,0c.3.8-.21,1.49-.7,2.16a3.06,3.06,0,0,0-.75,1.46" transform="translate(-16.84 -10.74)"/><path class="cls-1" d="M36.44,41.28a2.27,2.27,0,0,0,.85,1.89A7.19,7.19,0,0,0,42,44.48h.3a4.89,4.89,0,0,1-3-1.2,2.54,2.54,0,0,1-.69-2,3.3,3.3,0,0,1,.81-1.64,6,6,0,0,0,.55-.84,1.56,1.56,0,0,0-.85-.52A3.23,3.23,0,0,0,38,38.1a2.49,2.49,0,0,0-.7.08A1.54,1.54,0,0,1,37,40a2.39,2.39,0,0,0-.56,1.24" transform="translate(-16.84 -10.74)"/><path class="cls-1" d="M41.23,45.35l.2-.13a1.94,1.94,0,0,0,.29-.26l.13-.13a11.14,11.14,0,0,1-1.17-.07h0l-.07,0-.15.12a2.66,2.66,0,0,1-1.92.73h0a4.88,4.88,0,0,0,2.07.49h0c.09,0,.1,0,.1-.06a.38.38,0,0,1,0-.15c.06-.25.29-.4.56-.57" transform="translate(-16.84 -10.74)"/><path class="cls-1" d="M42.55,46.57a2.27,2.27,0,0,0,.57-.07.38.38,0,0,0,.22-.13l-.1-.13a1.18,1.18,0,0,1,.06-1.45h0l-.4,0c-.65.08-.78.22-.94.4a1.79,1.79,0,0,1-.34.31l-.2.13c-.21.13-.4.26-.42.36s0,.07,0,.12a2.24,2.24,0,0,0,1.5.44" transform="translate(-16.84 -10.74)"/><path class="cls-1" d="M45.34,44.6h0c-1,0-1.51.13-1.77.42a.81.81,0,0,0,0,1,1.15,1.15,0,0,0,.14.17l0,0a1.6,1.6,0,0,0,.49.24,1.68,1.68,0,0,1,1.14,1,1.68,1.68,0,0,1,1.14-1,1.86,1.86,0,0,0,.49-.24l0,0a.58.58,0,0,0,.14-.17.84.84,0,0,0,0-1c-.26-.28-.82-.42-1.77-.42Z" transform="translate(-16.84 -10.74)"/><path class="cls-1" d="M47.35,46.36a.41.41,0,0,0,.22.13,1.89,1.89,0,0,0,.57.07,2.14,2.14,0,0,0,1.5-.46.24.24,0,0,0,0-.12c0-.1-.22-.23-.42-.36l-.2-.13a1.79,1.79,0,0,1-.34-.31c-.16-.18-.29-.31-.94-.4l-.4,0h0a1.18,1.18,0,0,1,.06,1.45.56.56,0,0,1-.1.15" transform="translate(-16.84 -10.74)"/><path class="cls-1" d="M50.12,46.12h0a4.73,4.73,0,0,0,2.07-.49h0a2.73,2.73,0,0,1-1.92-.72l-.15-.12a.09.09,0,0,0-.07,0h0c-.38,0-.78.06-1.17.07L49,45a1.94,1.94,0,0,0,.29.26l.2.13c.27.17.51.32.56.57a.38.38,0,0,1,0,.15s0,0,.1,0" transform="translate(-16.84 -10.74)"/><path class="cls-1" d="M41,52.74c.1,0,1.54.46,1.8.5A1.62,1.62,0,0,0,44.11,53l.08-.07a1.11,1.11,0,0,0,.16-.24c.19-.48-.27-1.07-1.71-1.42a14,14,0,0,0-6.38.06c-1.07.31-1.52.76-1.51,1.21a.81.81,0,0,0,.1.36h0a1.83,1.83,0,0,0,.63.6,2.68,2.68,0,0,0,.48.23h0A6.68,6.68,0,0,0,37,54a14.23,14.23,0,0,0,3.46.23c1.6-.09,1.49-.58,1.14-.79a7.41,7.41,0,0,1-.76-.47c-.22-.16-.08-.33.13-.24" transform="translate(-16.84 -10.74)"/><path class="cls-1" d="M42.19,53.52l0,.1a.66.66,0,0,1,0,.28c-.13.52-.83.68-1.46.74H56.93c.47-.32.92-.66,1.36-1H42.58a3.33,3.33,0,0,0-.39-.11" transform="translate(-16.84 -10.74)"/><path class="cls-1" d="M36.93,54.42a6.72,6.72,0,0,1-1.11-.32h0a3.6,3.6,0,0,1-.52-.26,1.54,1.54,0,0,1-.29-.21H32.32c.44.36.89.7,1.36,1h4.85a14.06,14.06,0,0,1-1.6-.22" transform="translate(-16.84 -10.74)"/><path class="cls-1" d="M48.64,48.9a.67.67,0,0,1,.06-.57.72.72,0,0,1,.29-.25,1.85,1.85,0,0,1,.4-.16H27.45c.2.34.41.68.63,1H48.65v0" transform="translate(-16.84 -10.74)"/><path class="cls-1" d="M56.34,48.25a7.77,7.77,0,0,1,1.89.69h4.3c.22-.33.43-.67.63-1h-8.5a14.78,14.78,0,0,1,1.68.32" transform="translate(-16.84 -10.74)"/><path class="cls-1" d="M59,50a1,1,0,0,1-.35.61l-.07.06-.23.18h2.8c.28-.33.54-.67.8-1H59A1,1,0,0,0,59,50" transform="translate(-16.84 -10.74)"/><path class="cls-1" d="M36.39,50.83a12.51,12.51,0,0,1,3.09-.35,14.05,14.05,0,0,1,3.24.35h3.94a.9.9,0,0,1,0-.55,1,1,0,0,1,.26-.47H28.7c.26.35.52.69.8,1Z" transform="translate(-16.84 -10.74)"/><path class="cls-1" d="M34.33,52.52a1.15,1.15,0,0,1,.31-.8H30.28c.33.35.67.69,1,1h3.05a1.49,1.49,0,0,1,0-.21" transform="translate(-16.84 -10.74)"/><path class="cls-1" d="M55,52l-.14,0a18.9,18.9,0,0,1-3.7.38,7.74,7.74,0,0,1-3.67-.72h-3a1.57,1.57,0,0,1,.19.26,1,1,0,0,1,.08.76H59.31c.35-.33.69-.66,1-1H56.27c-.39.1-.8.21-1.25.3" transform="translate(-16.84 -10.74)"/><path class="cls-1" d="M50.73,49.88A5.53,5.53,0,0,1,50,49.8a7,7,0,0,0-1-.11h-.26a4.93,4.93,0,0,0-1.1.12c-.42.1-1.07.65-.33,1.27s2,1,3.86,1a18.93,18.93,0,0,0,3.62-.37l.13,0a8.31,8.31,0,0,0,3.34-1.28l.06,0a.68.68,0,0,0,.23-.38c0-.21-.15-.74-2.33-1.29a19.91,19.91,0,0,0-4.55-.54h-.08a5.85,5.85,0,0,0-2.42.33.49.49,0,0,0-.15.12.24.24,0,0,0,0,.21c.21.52,1.07.64,1.86.64.44,0,.42.21.34.31a.61.61,0,0,1-.49.17" transform="translate(-16.84 -10.74)"/><path class="cls-1" d="M62.56,43.42,57.45,43c0,.14,0,.27-.05.4l5.12.44c0-.13,0-.27,0-.4" transform="translate(-16.84 -10.74)"/><path class="cls-1" d="M62.39,38.91l-5.07.9.06.4,5.07-.9a2.76,2.76,0,0,0-.06-.4" transform="translate(-16.84 -10.74)"/><path class="cls-1" d="M56.39,36.78c.06.12.11.25.17.37L61.23,35c0-.12-.11-.25-.17-.37Z" transform="translate(-16.84 -10.74)"/><path class="cls-1" d="M58.91,31.08l-.25-.32-4,3.33a3.92,3.92,0,0,1,.25.32Z" transform="translate(-16.84 -10.74)"/><path class="cls-1" d="M55.82,28.05l-.33-.24-3,4.21a3.92,3.92,0,0,1,.32.25Z" transform="translate(-16.84 -10.74)"/><path class="cls-1" d="M50.22,30.71l1.87-4.83-.38-.15-1.87,4.82.38.16" transform="translate(-16.84 -10.74)"/><path class="cls-1" d="M28.25,43.82l5-.43c0-.13,0-.27,0-.4l-5,.43c0,.13,0,.26,0,.4" transform="translate(-16.84 -10.74)"/><path class="cls-1" d="M33.37,39.8l-5-.89c0,.13-.05.27-.06.4l5,.89.06-.4" transform="translate(-16.84 -10.74)"/><path class="cls-1" d="M29.53,35l4.62,2.16c.05-.13.11-.25.17-.37L29.7,34.61c-.06.12-.12.24-.17.37" transform="translate(-16.84 -10.74)"/><path class="cls-1" d="M36,34.08l-3.92-3.3a3.92,3.92,0,0,0-.25.32l3.91,3.3c.09-.11.17-.22.26-.32" transform="translate(-16.84 -10.74)"/><path class="cls-1" d="M37.76,32.36l.32-.25L35,28l-.32.25Z" transform="translate(-16.84 -10.74)"/><path class="cls-1" d="M40.35,30.77l-2.09-4.7-.37.17L40,30.94l.37-.17" transform="translate(-16.84 -10.74)"/><path class="cls-1" d="M57.5,41.8l8.93-.4c0-.14,0-.27,0-.41l-8.93.39c0,.15,0,.28,0,.42" transform="translate(-16.84 -10.74)"/><path class="cls-1" d="M57.07,38.65,65.61,36c0-.13-.08-.26-.11-.39L57,38.26c0,.13.08.26.11.39" transform="translate(-16.84 -10.74)"/><path class="cls-1" d="M55.85,35.73l7.56-4.83a4,4,0,0,0-.22-.34l-7.56,4.82.22.35" transform="translate(-16.84 -10.74)"/><path class="cls-1" d="M60,26.61l-.29-.28L53.61,33l.29.28Z" transform="translate(-16.84 -10.74)"/><path class="cls-1" d="M55.7,23.44l-.35-.2-4.21,7.92.35.2Z" transform="translate(-16.84 -10.74)"/><path class="cls-1" d="M33.21,41.39,24.35,41c0,.13,0,.27,0,.41l8.86.39c0-.14,0-.28,0-.41" transform="translate(-16.84 -10.74)"/><path class="cls-1" d="M33.74,38.25l-8.48-2.68-.12.39,8.48,2.68.12-.39" transform="translate(-16.84 -10.74)"/><path class="cls-1" d="M35.07,35.37l-7.51-4.79c-.07.12-.15.23-.22.34l7.51,4.79c.08-.11.15-.23.22-.34" transform="translate(-16.84 -10.74)"/><path class="cls-1" d="M37,33.06l-6.13-6.48-.29.28,6.13,6.48.29-.28" transform="translate(-16.84 -10.74)"/><path class="cls-1" d="M34.33,23.86l4.5,7.72.35-.21-4.5-7.72-.35.21" transform="translate(-16.84 -10.74)"/><path class="cls-1" d="M31,24.13l-.3-.26-.48.55a.5.5,0,0,0-.14.38.47.47,0,0,0,.16.36,1.27,1.27,0,0,0,.56.26,3.11,3.11,0,0,0,.83,0l0-.18a2.35,2.35,0,0,1-.54-.07,1,1,0,0,1-.37-.19.4.4,0,0,1-.14-.27.39.39,0,0,1,.08-.28Z" transform="translate(-16.84 -10.74)"/><path class="cls-1" d="M33.3,19.58a.48.48,0,0,1,.2-.07.44.44,0,0,1,.2,0l.72.31c.12-.07,0-.18-.32-.34l-.34-.16a1.41,1.41,0,0,0-.48-.12.72.72,0,0,0-.4.09.58.58,0,0,0-.14.12l.39.27a1.77,1.77,0,0,1,.17-.12" transform="translate(-16.84 -10.74)"/><path class="cls-1" d="M35.33,18.81l.18-.09a1,1,0,0,1,.38-.06,2.06,2.06,0,0,1,.53.1l.25-.11L36,18.06a.64.64,0,0,0-.33-.2.6.6,0,0,0-.35,0,1.05,1.05,0,0,0-.26.17l.39.27a.1.1,0,0,1,0-.08l.13-.08a.26.26,0,0,1,.21,0,.77.77,0,0,1,.26.17l.4.29,0,0a5.88,5.88,0,0,0-.89-.22,1,1,0,0,0-.5,0,.4.4,0,0,0-.13.07.3.3,0,0,0-.08.08l.35.31.13-.08" transform="translate(-16.84 -10.74)"/><path class="cls-1" d="M30.89,23.26H31l.09.06a.3.3,0,0,1,.05.3.88.88,0,0,1-.23.36,1.81,1.81,0,0,0,.8.29.78.78,0,0,0,.62-.18.63.63,0,0,0,.16-.23.85.85,0,0,0,.09-.31l.31.33.52-.11-1.42-1.5c.21-.19.43-.37.65-.55l1.09,1.39.54,0-1.28-1.63.72-.54.34.52-.19.12a.1.1,0,0,0-.05.08.1.1,0,0,0,0,.09.63.63,0,0,0,.42.19.68.68,0,0,0,.47,0,.16.16,0,0,0,.07-.09.18.18,0,0,0,0-.12l-.67-1,.5-.33,1,1.54.52,0-1.13-1.74q.78-.46,1.59-.87l.28.56-.9.45a.18.18,0,0,0-.1.12.19.19,0,0,0,0,.15.66.66,0,0,0,.31.28.43.43,0,0,0,.36.06.05.05,0,0,0,0-.06.11.11,0,0,0,0-.08l-.08-.16a.1.1,0,0,1,0-.09.1.1,0,0,1,0-.07l.49-.25.36.72.52,0L36.9,19c.57-.26,1.16-.5,1.75-.71l.26.71a1.77,1.77,0,0,0-.44-.19.5.5,0,0,0-.32,0,.69.69,0,0,0-.38.31.55.55,0,0,0,0,.45.79.79,0,0,0,.43.41.73.73,0,0,0,.58.08A.69.69,0,0,0,39,19.9a1.18,1.18,0,0,0,.2-.27l.15.4.52.1-.33-.9a.87.87,0,0,1,.17-.3.59.59,0,0,1,.24-.17.12.12,0,0,1,.13,0,.18.18,0,0,1,.1.11.83.83,0,0,1,0,.33,1.51,1.51,0,0,1-.09.41l.47.12a1.4,1.4,0,0,0,0-.79.86.86,0,0,0-.38-.43.57.57,0,0,0-.49-.11.81.81,0,0,0-.18.1,1.14,1.14,0,0,0-.19.19l-.2-.54q.66-.23,1.35-.39l-.1-.09h0L40,17.43a21,21,0,0,0-11,7.25l.46.12c.44-.53.9-1,1.39-1.54m7.86-3.73a.75.75,0,0,1-.27.19.25.25,0,0,1-.17,0,.2.2,0,0,1-.11-.11.36.36,0,0,1,0-.29.35.35,0,0,1,.21-.2.62.62,0,0,1,.28,0,.86.86,0,0,1,.3.09,2.65,2.65,0,0,1-.26.35m-7.16,3.06.56.59a1.67,1.67,0,0,1-.1.45.74.74,0,0,1-.17.29.51.51,0,0,1-.49.11l0,0v0a1.07,1.07,0,0,0,.21-.41c0-.14,0-.23,0-.28a.51.51,0,0,0-.21-.13L31,23.09l.56-.5" transform="translate(-16.84 -10.74)"/><path class="cls-1" d="M37.64,17.34a.53.53,0,0,1,.22,0,.6.6,0,0,1,.19.06l.64.46c.13,0,.05-.17-.23-.4l-.29-.23a1.14,1.14,0,0,0-.44-.22.82.82,0,0,0-.41,0l-.16.09.31.35a.54.54,0,0,1,.17-.08" transform="translate(-16.84 -10.74)"/><path class="cls-1" d="M46.43,19.59a.41.41,0,0,1,.29-.05l.25,0-.17-.32-.22,0a.61.61,0,0,0-.38.07.39.39,0,0,0-.19.27.72.72,0,0,0,.18.55.79.79,0,0,0,.51.29,1,1,0,0,0,.35,0,.94.94,0,0,0,.3-.12l-.16-.37a1.27,1.27,0,0,1-.35.17,1,1,0,0,1-.33,0,.23.23,0,0,1-.17-.1.29.29,0,0,1-.05-.2.23.23,0,0,1,.14-.2" transform="translate(-16.84 -10.74)"/><path class="cls-1" d="M50.44,18.7a.34.34,0,0,1,.29-.05l.46.12.1-.39-.71-.19a.58.58,0,0,0-.41,0,.46.46,0,0,0-.25.3,1.3,1.3,0,0,0,0,.62,3.24,3.24,0,0,0,.32.77l.17-.06a2.18,2.18,0,0,1-.17-.51.94.94,0,0,1,0-.41.5.5,0,0,1,.19-.24" transform="translate(-16.84 -10.74)"/><path class="cls-1" d="M59.18,22.47c-.16,0-.25.15-.29.39a1.65,1.65,0,0,0,.09.8.86.86,0,0,1-.55,0,.49.49,0,0,0,0-.18c0-.06,0-.1,0-.13a.2.2,0,0,0-.17,0,.37.37,0,0,0-.2.11.25.25,0,0,0-.06.24.59.59,0,0,0,.18.27l-.15.71.25.07,0-.69a2.17,2.17,0,0,0,.82.07.94.94,0,0,0,.58-.25.87.87,0,0,0,0-1.18.61.61,0,0,0-.57-.16m.41.65a.5.5,0,0,1-.14.27l-.18.16a.48.48,0,0,1-.15.07,1.21,1.21,0,0,1,0-.41.44.44,0,0,1,.09-.26.34.34,0,0,1,.19-.11.15.15,0,0,1,.16.05.24.24,0,0,1,.07.23" transform="translate(-16.84 -10.74)"/><path class="cls-1" d="M58.57,25.78a.59.59,0,0,1-.36-.2,2.46,2.46,0,0,1-.4-.59,1,1,0,0,1-.12-.52h-.18a1.73,1.73,0,0,0,.1.71,2.38,2.38,0,0,0,.41.7.82.82,0,0,0,.46.29.5.5,0,0,0,.45-.11.64.64,0,0,0,.18-.43.57.57,0,0,0-.11-.45.43.43,0,0,0-.19-.13.77.77,0,0,0-.28-.07v.41a.53.53,0,0,1,.22,0,.27.27,0,0,1,.16.09.18.18,0,0,1,.05.11.09.09,0,0,1,0,.1.42.42,0,0,1-.35.09" transform="translate(-16.84 -10.74)"/><path class="cls-1" d="M42.52,19a1,1,0,0,0,.66.2.5.5,0,0,0,.38-.22.65.65,0,0,0,.13-.45.59.59,0,0,0,0-.19.76.76,0,0,0-.11-.16,1,1,0,0,0,.28.14.73.73,0,0,0,.25,0,.57.57,0,0,0,.2-.07l.07.7.47.21-.2-2,.81,0h.12l0,.83h-.15a.1.1,0,0,0-.09,0,.09.09,0,0,0,0,.08c0,.08.08.2.24.38s.28.27.36.27a.13.13,0,0,0,.07,0,.21.21,0,0,0,0-.11v-.2l.75,0,0,.55.44.32.1-2.08c.63.06,1.26.14,1.88.25l-.06.34-.64-.11a.58.58,0,0,0-.43.08.44.44,0,0,0-.22.32,1.4,1.4,0,0,0,.06.63,2.46,2.46,0,0,0,.35.71l.16-.07a1.6,1.6,0,0,1-.23-.45,1.21,1.21,0,0,1,0-.46.36.36,0,0,1,.17-.26.35.35,0,0,1,.3-.07l.44.07-.17,1,.4.37.34-2.06a19.46,19.46,0,0,1,3.41,1l-.23.62a1.41,1.41,0,0,0-.25-.45.91.91,0,0,0-.35-.26.72.72,0,0,0-.52,0,.53.53,0,0,0-.34.31.82.82,0,0,0,.08.65.86.86,0,0,0,.46.49.69.69,0,0,0,.32,0,.91.91,0,0,0,.34-.09l-.14.38.32.44.73-1.95.84.38-.39.74-.13-.07a.08.08,0,0,0-.09,0,.09.09,0,0,0-.08.06c0,.07,0,.22,0,.45s.14.36.21.4h.08a.2.2,0,0,0,.08-.08l.08-.17.67.35-.26.49.26.48,1-1.84c.24.14.48.28.71.43l-1,1.5.21.5,1.15-1.75c.49.33,1,.68,1.43,1.05l-.39.5L57,21.55a.16.16,0,0,0-.15,0,.19.19,0,0,0-.13.07.62.62,0,0,0-.12.4.44.44,0,0,0,.1.35.1.1,0,0,0,.07,0,.09.09,0,0,0,.07,0l.11-.14a.09.09,0,0,1,.08,0,.08.08,0,0,1,.08,0l.44.34-.5.63.2.48L58.51,22l.56.48.3-.32a20.78,20.78,0,0,0-14-5.38c-.62,0-1.23,0-1.84.08l.28.42.3,0,.06.59a.54.54,0,0,1-.15.15.33.33,0,0,1-.19.06,1.63,1.63,0,0,1-.3,0,.3.3,0,0,1-.18,0,.62.62,0,0,0,.15-.21.51.51,0,0,0,0-.24.62.62,0,0,0-.33-.44.86.86,0,0,0-.59-.17.67.67,0,0,0-.29.1.94.94,0,0,0-.28.21l.26.3a1.76,1.76,0,0,1,.3-.24.76.76,0,0,1,.3-.1.33.33,0,0,1,.22.05.22.22,0,0,1,.11.17.56.56,0,0,1-.05.29c0,.08-.08.12-.18.14a.51.51,0,0,0-.21,0,1.19,1.19,0,0,0-.26.11l.21.36a1.29,1.29,0,0,0,.48-.22.31.31,0,0,1,.09.11.4.4,0,0,1,0,.13.53.53,0,0,1-.09.34.46.46,0,0,1-.31.17.72.72,0,0,1-.47-.13,1.52,1.52,0,0,1-.42-.45L42,18.4a1.64,1.64,0,0,0,.55.64m9.6.56a1,1,0,0,1-.43-.05.38.38,0,0,1-.2-.17.27.27,0,0,1,0-.21.4.4,0,0,1,.31-.22.82.82,0,0,1,.49,0,.55.55,0,0,1,.22.17,1.07,1.07,0,0,1,.17.3,1.94,1.94,0,0,1-.53.15m2.46-.24.66.35-.39.75-.67-.35ZM46,17.19l.75,0,0,.84L46,18Z" transform="translate(-16.84 -10.74)"/><path class="cls-1" d="M59.06,25l.14.5,1.47-1.45.33.37.13-.53c-.26-.3-.53-.59-.8-.87l-.33.31.36.38Z" transform="translate(-16.84 -10.74)"/><rect class="cls-1" x="43.12" y="14.62" width="0.57" height="0.57"/><rect class="cls-1" x="43.76" y="13.99" width="0.57" height="0.57"/><path class="cls-1" d="M42.35,33h0a.91.91,0,0,0,0,.82,1.39,1.39,0,0,0,.76.61v0c0,.44.42.8,1.14,1a1,1,0,0,0,1.12.8l.34,0a.92.92,0,0,0,.7-.77c.71-.18,1.13-.54,1.13-1a.57.57,0,0,0,0-.13c.5-.29.77-.65.76-1a.74.74,0,0,0-.08-.29,5.09,5.09,0,0,0,1.35-2.13c0-.05,0-.09,0-.14a4.76,4.76,0,0,0,.1-.62,4,4,0,0,0-.22-1.69l-.2-.45a3.85,3.85,0,0,0-.62-.86l-.19-.18h0l-.25-.23L48,26.51c-.88-.8-1.51-1.37-1.31-2.74a3.25,3.25,0,0,0-.7-2.92l-.11-.05c0-.2,0-.31,0-.31a.74.74,0,0,0-.53-.36h-.11c-.25,0-.71.11-.9.84a7.4,7.4,0,0,0-.1,1.75c0,.13,0,.25,0,.35a6.8,6.8,0,0,1-1.78,3.27,8.08,8.08,0,0,0-1.05,1.49,3.58,3.58,0,0,0,1,5.15m3,2.67c-.29,0-.55-.16-.55-.34a.29.29,0,0,1,0-.09l.26,0h.27a4.41,4.41,0,0,0,.52,0,.29.29,0,0,1,0,.09c0,.18-.24.34-.54.34m.58-.74a2,2,0,0,1-.34,0h-.24a3.56,3.56,0,0,1-.57,0c-.69-.1-1.11-.35-1.11-.54a.06.06,0,0,1,0,0,7.47,7.47,0,0,0,1.48.13A6,6,0,0,0,47,34.24a.18.18,0,0,1,0,.13c0,.19-.41.45-1.1.54m-3.28-8,0,0c.94-1.11,2-2.55,2.08-3.83v-.38a6.45,6.45,0,0,1,.09-1.59c.09-.36.23-.4.33-.4h0c.08,0,.13.11.14.28s0,.43,0,.77a10.86,10.86,0,0,0,0,2.24A8.69,8.69,0,0,0,46,25.49a5,5,0,0,1,.6,1.82c0,1-.46,1.1-.82,1.16-.16,0-.37.06-.37.26a.16.16,0,0,0,.17.16l.16,0a2,2,0,0,1,.48-.07,1.27,1.27,0,0,1,.34.05,1,1,0,0,1,.65.6,1.42,1.42,0,0,1-.38,1.32,1.22,1.22,0,0,1-.79.39c-.14,0-.16.11-.15.16a.15.15,0,0,0,.17.13h.14a2.17,2.17,0,0,1,1.53.43.57.57,0,0,1,.17.44c0,.32-.45.44-.75.52s-.34.09-.35.23v.07l.1.09h.06l.17,0a2.22,2.22,0,0,1,.49-.08.25.25,0,0,1,.13,0c.1,0,.11.08.11.11s-.25.45-.82.69h0a4.93,4.93,0,0,1-1.58.19c-1,0-2.28-.2-2.49-.63A.41.41,0,0,1,43,33.1a.21.21,0,0,0,.1.08,4.82,4.82,0,0,0,2.12.43,4.1,4.1,0,0,0,.69,0c.13,0,.34-.07.32-.24s-.09-.15-.24-.15h-.08l-.44,0a5.87,5.87,0,0,1-2.06-.4,5.39,5.39,0,0,1-1.24-.67,2.56,2.56,0,0,1-.85-2,4.78,4.78,0,0,1,1.39-3.14" transform="translate(-16.84 -10.74)"/><path class="cls-1" d="M56.71,44.74l-.52-.13a11.43,11.43,0,0,0,.35-2.8,11.19,11.19,0,0,0-7.68-10.64l.17-.5a11.72,11.72,0,0,1,8,11.14,12.44,12.44,0,0,1-.37,2.93" transform="translate(-16.84 -10.74)"/><path class="cls-1" d="M34,44.75a11.76,11.76,0,0,1,7-13.82l.2.49a11.16,11.16,0,0,0-7,10.39,11.57,11.57,0,0,0,.35,2.81Z" transform="translate(-16.84 -10.74)"/><path class="cls-1" d="M42.47,68.43a.24.24,0,0,0-.18.08.34.34,0,0,0-.09.2.37.37,0,0,0,.12.3.57.57,0,0,0,.33.16.35.35,0,0,0,.07-.12.9.9,0,0,0,0-.19.39.39,0,0,0-.08-.28.27.27,0,0,0-.21-.15" transform="translate(-16.84 -10.74)"/><path class="cls-1" d="M44.42,69.22a.68.68,0,0,0-.41.11.38.38,0,0,0-.18.3.26.26,0,0,0,.1.21.36.36,0,0,0,.24.09,1,1,0,0,0,.41-.09,2.54,2.54,0,0,0,.45-.27,1.75,1.75,0,0,0-.29-.26.71.71,0,0,0-.32-.09" transform="translate(-16.84 -10.74)"/><rect class="cls-1" x="32.34" y="66.41" width="0.82" height="0.8" transform="translate(-57.86 65.82) rotate(-71.42)"/><path class="cls-1" d="M40.08,68.88a.65.65,0,0,0-.42.07.35.35,0,0,0-.21.28.27.27,0,0,0,.07.22.4.4,0,0,0,.23.12,1,1,0,0,0,.42,0,2.15,2.15,0,0,0,.47-.22,1.84,1.84,0,0,0-.26-.29.51.51,0,0,0-.3-.14" transform="translate(-16.84 -10.74)"/><rect class="cls-1" x="61.49" y="64.83" width="0.8" height="0.82" transform="translate(-38.14 20.36) rotate(-24.2)"/><path class="cls-1" d="M59.4,67.24a.28.28,0,0,0,0,.23.39.39,0,0,0,.26.24.61.61,0,0,0,.4,0,.89.89,0,0,0,.45-.35.5.5,0,0,0,.06-.47.27.27,0,0,0-.23-.17.67.67,0,0,0-.39,0,1.82,1.82,0,0,1-.3.26.66.66,0,0,0-.21.23" transform="translate(-16.84 -10.74)"/><path class="cls-1" d="M55.7,67.05,56,68.22a.16.16,0,0,0,.08.1.16.16,0,0,0,.12,0,.74.74,0,0,0,.35-.23.8.8,0,0,0,.18-.42l-.25-.87Z" transform="translate(-16.84 -10.74)"/><path class="cls-1" d="M49.76,69a.7.7,0,0,0-.39.17.38.38,0,0,0-.14.32.25.25,0,0,0,.12.19.36.36,0,0,0,.25.06,1.13,1.13,0,0,0,.4-.14,2.19,2.19,0,0,0,.41-.33,1.46,1.46,0,0,0-.33-.22.74.74,0,0,0-.32,0" transform="translate(-16.84 -10.74)"/><path class="cls-1" d="M52.57,67.78l.12.63-.83.16a.25.25,0,0,0-.14.08.18.18,0,0,0,0,.14.26.26,0,0,0,.08.13.39.39,0,0,0,.17.09.52.52,0,0,1,.19-.12,1.16,1.16,0,0,1,.29-.08l.27.3-.26,0a.55.55,0,0,0-.23.11.22.22,0,0,0-.06.18.18.18,0,0,0,.11.13.33.33,0,0,0,.22,0,1.17,1.17,0,0,0,.54-.28,1.42,1.42,0,0,0,.36-.56l-.21-1.09Z" transform="translate(-16.84 -10.74)"/><path class="cls-1" d="M70.67,63.26c-.19-.37-.39-.76-.55-1.15q.55-.4,1.08-.87c1.15-1,.47-2.42-.08-3.53L71,57.49a2.89,2.89,0,0,1-.18-1.64,1.51,1.51,0,0,0-.21-1.22c-.26-.27-.73-.37-1.53-.33h0c-1.7.11-2.75,1.51-3,3.94l-.43.21a21.34,21.34,0,0,1-3.49,1.17h0l-.62.16h0a1.68,1.68,0,0,0-.41.17c-.67.43-.21,2.19,0,2.85-3,2.17-8.75,3.54-15.09,3.54H44.66c-6.34,0-12.06-1.36-15.09-3.54.2-.66.67-2.41,0-2.85a1.68,1.68,0,0,0-.41-.17h0l-.62-.16A22.34,22.34,0,0,1,25,58.45l-.43-.21c-.22-2.43-1.27-3.83-3-3.94h0c-.8,0-1.27.06-1.53.33a1.5,1.5,0,0,0-.21,1.22,2.89,2.89,0,0,1-.18,1.64l-.11.22c-.55,1.11-1.23,2.49-.08,3.53a10.83,10.83,0,0,0,1.08.87c-.16.39-.36.77-.55,1.15a8.75,8.75,0,0,0-.85,2.06c-.07.28-.22,2.57.25,2.74.08,0,.24,0,.38-.23.48-1,1.29-2,1.81-2A.4.4,0,0,1,22,66a4.64,4.64,0,0,1,.33.71c.15.37.21.53.41.5s.19-.25.19-.42a9.87,9.87,0,0,1,.65-3.14c.78.29,1.56.52,2.32.73l.06,0-.05.06-.56.57a1.11,1.11,0,0,0-.32.87,1.05,1.05,0,0,0,.46.75c4.37,3.11,11.54,5,19.19,5h1.38c7.65,0,14.82-1.86,19.19-5a1.05,1.05,0,0,0,.46-.75,1.11,1.11,0,0,0-.32-.87s-.34-.33-.56-.57l0-.06.06,0c.77-.21,1.55-.44,2.32-.73a9.6,9.6,0,0,1,.65,3.14c0,.17,0,.39.19.42s.26-.13.41-.5a4.64,4.64,0,0,1,.33-.71c.14-.22.28-.24.37-.23.51,0,1.32,1,1.81,2,.13.27.3.26.38.23.47-.17.32-2.46.25-2.74a10,10,0,0,0-.87-2.06M22.55,66.32a3.07,3.07,0,0,0-.24-.48.78.78,0,0,0-.72-.41c-.77,0-1.61,1.26-2,2.07a8.67,8.67,0,0,1,0-2.1,8.72,8.72,0,0,1,.82-2c.18-.36.37-.72.53-1.1a12.3,12.3,0,0,0,2.31,1.21,11,11,0,0,0-.66,2.78M21.17,54.9s0-.22.44-.22c1.79.12,2.4,1.8,2.58,3.34-2-1.13-3.14-2.56-3-3.12M29.33,62c0,.14-.09.28-.12.42l-.1-.08c-.39-.32-.63-.53-.53-.8a.35.35,0,0,1,.39-.26l.27,0,.23,0m2,6.11a.79.79,0,0,1-.08-.54s0,0,.07-.05a.23.23,0,0,1,.14,0l.23.08.26-.78L31.66,66v0l-.42-.17L30.34,68l-.29-.41.31-.74a.33.33,0,0,1-.14,0,.17.17,0,0,1-.12,0,.24.24,0,0,1-.1-.08.4.4,0,0,1-.1-.15.51.51,0,0,1,0,.22.56.56,0,0,1-.31.31.5.5,0,0,1-.43,0,.92.92,0,0,1-.47-.58,2.7,2.7,0,0,1-.14-1.06l.15,0a1.65,1.65,0,0,0,.13.75.79.79,0,0,0,.41.43.44.44,0,0,0,.3,0,.29.29,0,0,0,.2-.19.48.48,0,0,0,0-.18.41.41,0,0,0,0-.18,1.85,1.85,0,0,1-.5,0l0-.45a1,1,0,0,0,.5.07.38.38,0,0,0,.31-.22.15.15,0,0,0,0-.16.22.22,0,0,0-.11-.12,1.09,1.09,0,0,0-.39-.08.74.74,0,0,0-.36.09l-.1-.45a1,1,0,0,1,.36-.06,1,1,0,0,1,.4.09.73.73,0,0,1,.34.46.86.86,0,0,1,.06.57A.4.4,0,0,1,30,66a.68.68,0,0,1-.21.1.71.71,0,0,1,.09.27.56.56,0,0,0,.17.11.43.43,0,0,0,.25,0,.48.48,0,0,0,.23-.1l.33-.78-.34-.14-.12-.4,1.17.49,2.39.8h0l2.37.63.15.37-.44-.12-.6,2.26-.34-.37L35.42,68l-.8-.21a.2.2,0,0,0-.19,0,.45.45,0,0,0-.13.22,1.14,1.14,0,0,0,0,.52,1.48,1.48,0,0,0,.24.53l-.19.09a4.75,4.75,0,0,1-.37-.83,1.23,1.23,0,0,1-.06-.57.54.54,0,0,1,.24-.34.42.42,0,0,1,.37-.07l1,.26.12-.46-1.55-.41h0l-.07,0h0l-.33-.11-.66,2,0,0,.13.34-.38-.11a.3.3,0,0,0-.27.05.42.42,0,0,0-.18.25.24.24,0,0,0,0,.2.28.28,0,0,0,.15.13.89.89,0,0,0,.33,0,.85.85,0,0,0,.34-.11l.14.38a.78.78,0,0,1-.35.07,1.44,1.44,0,0,1-.4-.06.57.57,0,0,1-.34-.38.88.88,0,0,1-.07-.56.42.42,0,0,1,.23-.27.38.38,0,0,1,.24,0l-.06-.07.28-.83-.76-.25-.09.25a.25.25,0,0,1-.09.13.13.13,0,0,1-.13,0m13.68.65,0,2.34L45,70.53V70a1.5,1.5,0,0,1-.32.19.77.77,0,0,1-.32.07.85.85,0,0,1-.59-.29.77.77,0,0,1-.29-.55.5.5,0,0,1,.2-.39.73.73,0,0,1,.48-.16.84.84,0,0,1,.47.15,1.4,1.4,0,0,1,.4.37l0-.93-1.73,0h0l-.56,0a.93.93,0,0,1,.28.35.8.8,0,0,1,.09.42.9.9,0,0,1-.2.5,1.42,1.42,0,0,1-.48.38l.51.68-.23.17-.45-.78-.08,0h-.11A.5.5,0,0,1,41.8,70a.44.44,0,0,1-.13-.3.3.3,0,0,1,.08-.17.2.2,0,0,1,.15-.06.34.34,0,0,1,.18.07.61.61,0,0,1,.15.17.74.74,0,0,0,.22-.13.76.76,0,0,0,.18-.24A1.15,1.15,0,0,1,42,69a.56.56,0,0,1-.22-.46.22.22,0,0,1,0-.13.47.47,0,0,1,.1-.11l-.28,0h0l-.45-.06-.3,2.32-.39-.32.07-.53a1.14,1.14,0,0,1-.34.15.76.76,0,0,1-.33,0,.91.91,0,0,1-.56-.35.76.76,0,0,1-.23-.58.53.53,0,0,1,.24-.37.7.7,0,0,1,.49-.1.91.91,0,0,1,.45.2,1.31,1.31,0,0,1,.35.42l.12-.92L39.06,68v0l-.3,0-.41,2.3L38,69.87l.36-2-.42-.07-.18-.35.78.14q-.06-.18-.09-.3a.47.47,0,0,1,0-.2.73.73,0,0,1,.34-.51.87.87,0,0,1,.63-.13,1.1,1.1,0,0,1,.58.41,4.29,4.29,0,0,1,.61,1l-.12.06a2.61,2.61,0,0,0-.46-.72,1,1,0,0,0-.54-.32.65.65,0,0,0-.5.11.62.62,0,0,0-.27.41.94.94,0,0,0,0,.27l.34.06v0l2.43.31h0l1.76.13v0l2.46.05.23.32Zm16-7.16.27,0a.35.35,0,0,1,.39.26c.1.27-.13.48-.53.8l-.1.08a3.31,3.31,0,0,0-.12-.42,4.11,4.11,0,0,1-.16-.68l.25,0m.51,5a.28.28,0,0,1,0,.15.19.19,0,0,1-.08.11.65.65,0,0,1-.51-.06.79.79,0,0,1-.42-.34.07.07,0,0,1,0-.08.24.24,0,0,1,.11-.09l.22-.1L61,65.2l-.4.18h0l-.09,0h0l-.73.28a.94.94,0,0,1,.26.2.69.69,0,0,1,.15.21.37.37,0,0,1,0,.21.73.73,0,0,1-.12.23,1,1,0,0,1,.59,0,.55.55,0,0,1,.35.33.65.65,0,0,1-.07.6,1.07,1.07,0,0,1-.55.45.94.94,0,0,1-.76-.11,1.12,1.12,0,0,1-.58-.58.41.41,0,0,1,.05-.35,1.1,1.1,0,0,1,.34-.34.81.81,0,0,0,.28-.27.33.33,0,0,0,0-.28.77.77,0,0,0-.1-.18.32.32,0,0,0-.12-.11l-1.13.43h0l-.31.11.75,2.21-.49-.12-.66-2-.29.1h0l-.43.13.65,2.24-.5-.1-.16-.56a.38.38,0,0,1-.13.16.5.5,0,0,1-.19.1.91.91,0,0,1-.64-.06.61.61,0,0,1-.42-.35l-.27-.92-.26.07h0l-.32.08.55,2.27-.48-.16-.49-2-.31.08,0,0-.44.08.43,2.3-.47-.18-.07-.37a.73.73,0,0,1-.29.29,1.41,1.41,0,0,1-.46.17,1,1,0,0,1-.59-.1q-.31-.17-.36-.36a.15.15,0,0,1,0-.11.37.37,0,0,1,.07-.12,1,1,0,0,1-.35-.18.51.51,0,0,1-.17-.26.32.32,0,0,1,.08-.28.47.47,0,0,1,.27-.16l.52-.1,0-.26L51,68.08h0l-.31,0L51,70.42l-.45-.21-.06-.53a1.22,1.22,0,0,1-.29.23.77.77,0,0,1-.31.11.92.92,0,0,1-.63-.21.77.77,0,0,1-.36-.51.5.5,0,0,1,.14-.41.74.74,0,0,1,.45-.22.91.91,0,0,1,.48.08,1.13,1.13,0,0,1,.44.32l-.11-.92-1.72.2,0,0-.31,0,.16,2.33-.44-.24-.14-2.07-.42,0-.26-.3.79-.06-.16-.27a.45.45,0,0,1-.06-.19A.75.75,0,0,1,47.9,67a.87.87,0,0,1,.58-.28,1.07,1.07,0,0,1,.66.26,4.51,4.51,0,0,1,.82.78l-.1.09a2.4,2.4,0,0,0-.62-.58,1.08,1.08,0,0,0-.6-.18.69.69,0,0,0-.46.22.59.59,0,0,0-.16.46,1.09,1.09,0,0,0,0,.26l.34,0,0,0,2.44-.29h0l2.69-.51h0l1.26-.31,0,0,2.06-.6.78-.26a1.52,1.52,0,0,0-.49-.49.59.59,0,0,0-.51-.07.39.39,0,0,0-.24.23.49.49,0,0,0,0,.36.89.89,0,0,0,.09.16.86.86,0,0,0,.14.13l-.15,0a.71.71,0,0,1-.24-.22A1.4,1.4,0,0,1,56.1,66a.67.67,0,0,1,0-.48.58.58,0,0,1,.35-.32.77.77,0,0,1,.69.15,2.16,2.16,0,0,1,.65.74l.3-.1h0l2.08-.79h0l2.29-1,.35.19-.41.19,1,2.13-.5-.07-.36-.8-.73.33Zm2.33.8-.72-.24a.41.41,0,0,0-.16,0,.15.15,0,0,0-.1,0,.17.17,0,0,0-.08.07l-.1.14L62.87,67l.13-.16.1-.08a.16.16,0,0,1,.1,0,.18.18,0,0,1,.1,0l1.07.29ZM66.5,58c.18-1.54.79-3.22,2.58-3.34.39,0,.42.17.44.22.12.56-1,2-3,3.12m4.65,9.48c-.43-.82-1.27-2-2-2.07a.79.79,0,0,0-.72.41,3.07,3.07,0,0,0-.24.48,11.33,11.33,0,0,0-.66-2.77,12.3,12.3,0,0,0,2.31-1.21c.16.38.35.74.53,1.1a8.54,8.54,0,0,1,.82,2,8.58,8.58,0,0,1,0,2.09" transform="translate(-16.84 -10.74)"/><path class="cls-1" d="M84,73.6l4.11-9c.42-.91.83-1.85,2.36-1.85a20.32,20.32,0,0,0-1,1.85L83.3,78,77.18,64.58a16.73,16.73,0,0,0-1-1.85c2.8,0,3.24,1,3.66,1.85Z" transform="translate(-16.84 -10.74)"/><path class="cls-1" d="M95.06,77H92.64V65c0-1,0-2.21,2.62-2.21a16.17,16.17,0,0,0-.2,2.21Z" transform="translate(-16.84 -10.74)"/><path class="cls-1" d="M103.09,63.92c-1.93,0-2.86,1-2.86,2.15a1.46,1.46,0,0,0,.83,1.35l5,2.46a3.58,3.58,0,0,1,2.21,3.2c0,2-1.87,4-5.23,4-1.61,0-3-.08-4.89-.1l1.07-1.51a18.16,18.16,0,0,0,3.8.46c2.23,0,3.28-1.13,3.28-2.17a1.58,1.58,0,0,0-1-1.45l-4.93-2.44a3.6,3.6,0,0,1-2.05-3.26c0-1.91,1.51-3.82,4.71-3.82,1.43,0,2.88.08,4.53.1a1.32,1.32,0,0,1-1.47,1.35,18.4,18.4,0,0,0-3.06-.37" transform="translate(-16.84 -10.74)"/><path class="cls-1" d="M113.23,69.37h6.54V64.94c0-1,0-2.21,2.62-2.21a16.17,16.17,0,0,0-.2,2.21V75a15.51,15.51,0,0,0,.2,2.19c-2.62,0-2.62-1.21-2.62-2.21V70.57h-6.54V75c0,1,0,2.21-2.62,2.21a15.7,15.7,0,0,0,.2-2.19V65a16,16,0,0,0-.2-2.21c2.62,0,2.62,1.21,2.62,2.21Z" transform="translate(-16.84 -10.74)"/><path class="cls-1" d="M135.21,61.93,140.6,73.2l3-8.54c.32-.95.72-1.93,2.13-1.93,0,0-.48,1-.83,1.93L140.23,78l-5.62-11.86L129.28,78l-4.67-13.37a18,18,0,0,0-.83-1.93c2.68,0,3,1,3.34,1.93l3,8.56Z" transform="translate(-16.84 -10.74)"/><path class="cls-1" d="M153.63,71.79h-4.95l-1.63,3.58c-.42.9-.82,1.85-2.35,1.85a20.32,20.32,0,0,0,1-1.85l6.12-13.45L158,75.37a17.88,17.88,0,0,0,1,1.85c-2.8,0-3.24-1-3.66-1.85Zm-4.41-1.21h3.86l-1.93-4.23Z" transform="translate(-16.84 -10.74)"/><path class="cls-1" d="M173.78,73.6l4.11-9c.42-.91.83-1.85,2.36-1.85a20.32,20.32,0,0,0-1,1.85L173.12,78,167,64.58a16.73,16.73,0,0,0-1-1.85c2.8,0,3.24,1,3.66,1.85Z" transform="translate(-16.84 -10.74)"/><path class="cls-1" d="M184.87,77h-2.42V65c0-1,0-2.21,2.62-2.21a16.17,16.17,0,0,0-.2,2.21Z" transform="translate(-16.84 -10.74)"/><path class="cls-1" d="M193.49,62.83a7.15,7.15,0,0,1,0,14.3c-1.89,0-3.44-.1-5-.1a13.23,13.23,0,0,0,.2-2V65a11.73,11.73,0,0,0-.2-2c1.66,0,3.32-.11,5-.11M191.11,64V76c.87,0,1.63.06,2.4.06,3.1,0,4.43-2.62,4.43-6.06s-1.57-6.06-4.43-6.06c-.87,0-1.63.06-2.4.06" transform="translate(-16.84 -10.74)"/><path class="cls-1" d="M209.11,69a4.43,4.43,0,0,0-.54,2.27V77h-2.42V71.28a3.35,3.35,0,0,0-.54-2L202.33,65a27.59,27.59,0,0,0-2.1-2.25c3.32,0,4,.89,4.65,1.77l3,4,3-4.06a3.41,3.41,0,0,1,3.24-1.69,20.32,20.32,0,0,0-1.79,1.93Z" transform="translate(-16.84 -10.74)"/><path class="cls-1" d="M222.11,71.79h-5l-1.63,3.58c-.42.9-.83,1.85-2.35,1.85a20.32,20.32,0,0,0,1-1.85l6.12-13.45,6.12,13.45a17.88,17.88,0,0,0,1,1.85c-2.8,0-3.24-1-3.66-1.85Zm-4.41-1.21h3.86l-1.93-4.23Z" transform="translate(-16.84 -10.74)"/><path class="cls-1" d="M238.82,66.74c0,2.4-2.17,4-4.75,4-.86,0-1.75-.06-2.62-.06V75c0,1,0,2.21-2.62,2.21A16.17,16.17,0,0,0,229,75V65a11.73,11.73,0,0,0-.2-2h2.92c.44,0,.79,0,1.15,0l1.17,0c2.57,0,4.75,1.42,4.75,3.84m-7.37-2.8v5.78c.79,0,1.65.06,2.21.06a2.74,2.74,0,0,0,2.7-3,2.6,2.6,0,0,0-2.7-2.84c-.72,0-1.45,0-2.21,0" transform="translate(-16.84 -10.74)"/><path class="cls-1" d="M243.55,75.82H249A1.26,1.26,0,0,1,250.4,77h-9.46a11.5,11.5,0,0,0,.2-2V65a11.73,11.73,0,0,0-.2-2h9.46A1.26,1.26,0,0,1,249,64.15h-5.44v5.23h5v1.21h-5Z" transform="translate(-16.84 -10.74)"/><path class="cls-1" d="M255.42,75.82h5.44A1.26,1.26,0,0,1,262.27,77h-9.46a11.5,11.5,0,0,0,.2-2V65a11.73,11.73,0,0,0-.2-2h9.46a1.26,1.26,0,0,1-1.41,1.21h-5.44v5.23h5v1.21h-5v5.23Z" transform="translate(-16.84 -10.74)"/><path class="cls-1" d="M263.27,62.93h13.49c0,.08,0,1.25-1,1.25-1.27,0-1.93-.08-3.4-.08h-1V77H268.7V64.1h-1c-1.47,0-2.13.06-3.4.08-1,0-1-1.17-1-1.25" transform="translate(-16.84 -10.74)"/><path class="cls-1" d="M280.79,69.37h6.54V64.94c0-1,0-2.21,2.62-2.21a16.17,16.17,0,0,0-.2,2.21V75a15.51,15.51,0,0,0,.2,2.19c-2.62,0-2.62-1.21-2.62-2.21V70.57h-6.54V75c0,1,0,2.21-2.62,2.21a15.7,15.7,0,0,0,.2-2.19V65a16,16,0,0,0-.2-2.21c2.62,0,2.62,1.21,2.62,2.21Z" transform="translate(-16.84 -10.74)"/><path class="cls-1" d="M300.29,71.79h-5l-1.63,3.58c-.42.9-.83,1.85-2.36,1.85a20.32,20.32,0,0,0,1-1.85l6.12-13.45,6.12,13.45a17.88,17.88,0,0,0,1,1.85c-2.8,0-3.24-1-3.66-1.85Zm-4.41-1.21h3.86l-1.93-4.23Z" transform="translate(-16.84 -10.74)"/><path class="cls-1" d="M316.53,78l-5.39-11.27-3,8.54c-.32,1-.72,1.93-2.13,1.93,0,0,.48-1,.83-1.93l4.67-13.37,5.62,11.86,5.33-11.86,4.67,13.37a18,18,0,0,0,.83,1.93c-2.68,0-3-1-3.34-1.93l-3-8.56Z" transform="translate(-16.84 -10.74)"/><path class="cls-1" d="M97.87,10.74,79.63,50.81c-.84,1.84-2.46,4.6-3.46,6.24h.46a6.85,6.85,0,0,0,6.59-3.76c.37-.65.69-1.32,1-2l.1-.2,4.52-9.92H103l4.54,9.93c1.3,2.78,2.77,5.93,11.57,5.93h.47a62.29,62.29,0,0,1-3.46-6.24Zm-7.48,27,5.5-12.08,5.53,12.08Z" transform="translate(-16.84 -10.74)"/><path class="cls-1" d="M172.08,10.74l-15.9,35.33L139.44,10.74,125.52,50.57c-1,2.88-2.81,6.48-2.81,6.48h.35c4.91,0,6.19-3.76,7-6.24L138.45,27l16,33.43,15-33.43,8.38,23.91c1,2.87,2.21,6.13,10.6,6.13h.34s-1.78-3.6-2.8-6.48Z" transform="translate(-16.84 -10.74)"/><path class="cls-1" d="M234.52,19.23V56.92h8.63V19.23a46.63,46.63,0,0,1,.59-6.48l.14-.83H243c-8.51,0-8.51,4.22-8.51,7.31" transform="translate(-16.84 -10.74)"/><path class="cls-1" d="M287.32,16.35c2.93,0,3.71-2.79,3.71-4.44H249.4c0,1.65.78,4.44,3.73,4.44,1.55,0,2.82-.07,4-.11,1.81-.07,3.51-.13,6.09-.13h2.34V56.88h9.23V16.11h2.34c2.57,0,4.28.06,6.09.13,1.23,0,2.49.09,4.06.11" transform="translate(-16.84 -10.74)"/><path class="cls-1" d="M224,52.2,212.56,36.86c7-1.2,12.52-6.26,12.11-13.67-.39-7-6.71-11.27-14.39-11.27-5.7,0-11,.24-16.2.24a35.08,35.08,0,0,1,.6,6l-.24,32.3a47.8,47.8,0,0,1-.6,6.6c7.8,0,7.8-3.6,7.8-6.6l.24-35.12c3.18,0,5.16-.13,7.2-.12a8.61,8.61,0,0,1,8.63,8.09c.57,5.34-1.29,9.3-5.17,11.06-2.85,1.16-9,1-9,1l12.66,17c1.8,2.4,4.25,4.69,12.1,4.69A43.28,43.28,0,0,1,224,52.2" transform="translate(-16.84 -10.74)"/><path class="cls-1" d="M324.43,50.81,306.19,10.74,288,50.81c-.84,1.84-2.46,4.6-3.46,6.24H285a6.85,6.85,0,0,0,6.59-3.76c.37-.65.69-1.32,1-2l.1-.2,4.52-9.92h14.17l4.54,9.93c1.3,2.78,2.77,5.93,11.57,5.93h.47a65.77,65.77,0,0,1-3.47-6.25M298.72,37.74l5.5-12.08,5.53,12.08Z" transform="translate(-16.84 -10.74)"/><path class="cls-1" d="M94.22,87.5l.41,0c.39,0,.45-.18.45-.46V83.36c0-.28-.06-.41-.45-.46l-.41-.05v-.1h2.13a2.43,2.43,0,1,1,0,4.85H94.22Zm2.13,0c1.26,0,1.88-.79,1.88-2.3s-.64-2.29-1.88-2.29h-.73V87c0,.32.13.46.48.46h.25Z" transform="translate(-16.84 -10.74)"/><path class="cls-1" d="M104.31,85c.48,0,.6-.24.77-1.06h.11c0,.37,0,.75,0,1.13s0,.75,0,1.13h-.11c-.18-.83-.29-1.06-.77-1.06h-.66V87c0,.32.13.46.48.46h.76c.81,0,1-.21,1.3-1.56h.13l-.1,1.69h-4v-.1l.41-.05c.39,0,.45-.18.45-.46V83.37c0-.28-.06-.41-.45-.46l-.41,0v-.1H106l.09,1.55H106c-.32-1.22-.44-1.42-1.18-1.42h-1.12v2.16h.65Z" transform="translate(-16.84 -10.74)"/><path class="cls-1" d="M111.81,85c.48,0,.6-.24.77-1.06h.11c0,.37,0,.75,0,1.13s0,.75,0,1.13h-.11c-.18-.83-.29-1.06-.77-1.06h-.66V87c0,.32.13.46.48.46h.76c.81,0,1-.21,1.3-1.56h.13l-.1,1.69h-4v-.1l.41-.05c.39,0,.45-.18.45-.46V83.37c0-.28-.06-.41-.45-.46l-.41,0v-.1h3.75l.09,1.55h-.13c-.32-1.22-.44-1.42-1.18-1.42h-1.12v2.16h.65Z" transform="translate(-16.84 -10.74)"/><path class="cls-1" d="M118.26,83.05v3.54c0,.65.11.79.56.86l.29,0v.1h-1.87v-.1l.28,0c.46-.07.57-.21.57-.86V83.36c0-.28-.06-.41-.45-.46l-.41-.05v-.1h1.5l1.7,4.2,1.71-4.2h1.48v.1l-.41.05c-.39,0-.44.18-.44.46V87c0,.28.06.41.44.46l.41.05v.1h-2.26v-.1l.41-.05c.39,0,.44-.18.44-.46V83l-1.88,4.61h-.2Z" transform="translate(-16.84 -10.74)"/><path class="cls-1" d="M129,85c.48,0,.6-.24.77-1.06h.11c0,.37,0,.75,0,1.13s0,.75,0,1.13h-.11c-.18-.83-.29-1.06-.77-1.06h-.66V87c0,.32.13.46.48.46h.76c.81,0,1-.21,1.3-1.56H131l-.1,1.69h-4v-.1l.41-.05c.39,0,.45-.18.45-.46V83.37c0-.28-.07-.41-.45-.46l-.41,0v-.1h3.75l.09,1.55h-.13c-.32-1.22-.44-1.42-1.18-1.42h-1.12v2.16H129Z" transform="translate(-16.84 -10.74)"/><path class="cls-1" d="M134.41,87.5l.41,0c.39,0,.45-.18.45-.46V83.36c0-.28-.06-.41-.45-.46l-.41-.05v-.1h2.13a2.43,2.43,0,1,1,0,4.85h-2.13Zm2.13,0c1.26,0,1.88-.79,1.88-2.3s-.64-2.29-1.88-2.29h-.73V87c0,.32.13.46.48.46h.25Z" transform="translate(-16.84 -10.74)"/><path class="cls-1" d="M148.16,87.6h-2.34v-.1l.43,0c.41,0,.46-.19.46-.48V82.88h-.64c-.7,0-.83.2-1.13,1.51h-.11l.06-1.63h4.2l.06,1.63H149c-.31-1.31-.44-1.51-1.14-1.51h-.63V87c0,.29.06.43.46.48l.43,0v.1Z" transform="translate(-16.84 -10.74)"/><path class="cls-1" d="M155,87.71a2.54,2.54,0,1,1,2.36-2.53A2.36,2.36,0,0,1,155,87.71m0-.11c1.14,0,1.71-1,1.71-2.43s-.58-2.42-1.71-2.42-1.71,1.06-1.71,2.42.57,2.43,1.71,2.43" transform="translate(-16.84 -10.74)"/><path class="cls-1" d="M163.8,87.5l.41,0c.39,0,.45-.18.45-.46V83.36c0-.28-.06-.41-.45-.46l-.41-.05v-.1h2c1,0,1.84.25,1.84,1.11,0,.69-.63,1.09-1.46,1.18v0c1,0,1.71.36,1.71,1.19s-.79,1.35-2,1.35H163.8Zm2-2.5c.91,0,1.27-.41,1.27-1.13s-.46-1-1.26-1h-.61V85Zm-.59,2c0,.32.13.46.48.46H166c.89,0,1.34-.36,1.34-1.23s-.53-1.12-1.49-1.12h-.59V87Z" transform="translate(-16.84 -10.74)"/><path class="cls-1" d="M173.43,85c.48,0,.6-.24.77-1.06h.11c0,.37,0,.75,0,1.13s0,.75,0,1.13h-.11c-.18-.83-.29-1.06-.77-1.06h-.66V87c0,.32.13.46.48.46H174c.81,0,.95-.21,1.3-1.56h.13l-.1,1.69h-4v-.1l.41-.05c.39,0,.45-.18.45-.46V83.37c0-.28-.06-.41-.45-.46l-.41,0v-.1h3.75l.09,1.55h-.13c-.32-1.22-.44-1.42-1.19-1.42h-1.12v2.16h.67Z" transform="translate(-16.84 -10.74)"/><path class="cls-1" d="M184.69,87.7a1.57,1.57,0,0,1-1.79-1.79V83.36c0-.28-.07-.41-.45-.46l-.41-.05v-.1h2.27v.1l-.41.05c-.38,0-.45.18-.45.46v2.55c0,1.24.61,1.56,1.43,1.56a1.36,1.36,0,0,0,1.47-1.56V83.76c0-.65-.11-.79-.56-.86l-.29-.05v-.1h1.88v.1l-.29.05c-.46.07-.57.21-.57.86v2.15a1.62,1.62,0,0,1-1.83,1.79" transform="translate(-16.84 -10.74)"/><path class="cls-1" d="M191.63,83.21v3.38c0,.65.11.79.56.86l.29,0v.1h-1.87v-.1l.29,0c.46-.07.57-.22.57-.86V83.36c0-.28-.06-.41-.45-.46l-.41-.05v-.1H192l2.81,4.13V83.77c0-.65-.11-.79-.56-.86l-.29,0v-.1h1.88v.1l-.29,0c-.46.07-.56.21-.56.86v3.85h-.34Z" transform="translate(-16.84 -10.74)"/><path class="cls-1" d="M199.08,87.5l.41,0c.39,0,.45-.18.45-.46V83.36c0-.28-.06-.41-.45-.46l-.41-.05v-.1h2.27v.1l-.42.05c-.38,0-.44.18-.44.46V87c0,.28.07.41.44.46l.42.05v.1h-2.27Z" transform="translate(-16.84 -10.74)"/><path class="cls-1" d="M205.33,83.56c-.19-.48-.31-.61-.63-.66l-.28,0v-.1h2.2v.1l-.38,0c-.38,0-.47.22-.35.55l1.32,3.59,1.17-3.15c.27-.73.2-.93-.3-1l-.31,0v-.1h1.84v.1l-.21,0c-.43.09-.57.25-.87,1l-1.15,3-.23.66h-.28Z" transform="translate(-16.84 -10.74)"/><path class="cls-1" d="M214.76,85c.48,0,.6-.24.77-1.06h.11c0,.37,0,.75,0,1.13s0,.75,0,1.13h-.11c-.18-.83-.29-1.06-.77-1.06h-.66V87c0,.32.13.46.48.46h.76c.81,0,.95-.21,1.3-1.56h.13l-.1,1.69h-4v-.1l.41-.05c.39,0,.45-.18.45-.46V83.37c0-.28-.06-.41-.45-.46l-.41,0v-.1h3.75l.09,1.55h-.13c-.32-1.22-.44-1.42-1.19-1.42H214.1v2.16h.66Z" transform="translate(-16.84 -10.74)"/><path class="cls-1" d="M224,87.6c-.33,0-.39-.07-.51-.31l-1-2-.36,0-.58,0V87c0,.29.06.42.46.47l.42,0v.1h-2.28v-.1l.41,0c.38,0,.45-.18.45-.46V83.36c0-.28-.06-.41-.45-.46l-.41-.05v-.1h2c1.23,0,2,.36,2,1.28,0,.67-.58,1-1.16,1.16a2.84,2.84,0,0,1,.28.44l.64,1.23c.22.43.31.53.7.6l.26,0v.1Zm-2.44-2.42.59,0c.93,0,1.37-.38,1.37-1.17s-.45-1.16-1.39-1.16h-.57v2.3Z" transform="translate(-16.84 -10.74)"/><path class="cls-1" d="M229.9,87.71a1.81,1.81,0,0,1-1.4-.55l-.21.53h-.07v-2h.14c.26,1.42.78,1.88,1.55,1.88a1,1,0,0,0,1.09-1c0-.69-.54-.94-1.26-1.2s-1.41-.69-1.41-1.44a1.33,1.33,0,0,1,1.46-1.3,1.51,1.51,0,0,1,1.21.51l.2-.49h.07v1.89h-.14c-.26-1.29-.64-1.8-1.34-1.8a.94.94,0,0,0-1,.94c0,.66.54.94,1.3,1.21s1.39.6,1.39,1.46a1.41,1.41,0,0,1-1.54,1.33" transform="translate(-16.84 -10.74)"/><path class="cls-1" d="M235,87.5l.41,0c.38,0,.45-.18.45-.46V83.36c0-.28-.06-.41-.45-.46l-.41-.05v-.1h2.27v.1l-.42.05c-.38,0-.44.18-.44.46V87c0,.28.06.41.44.46l.42.05v.1H235Z" transform="translate(-16.84 -10.74)"/><path class="cls-1" d="M244,87.6h-2.34v-.1l.43,0c.41,0,.46-.19.46-.48V82.88h-.64c-.7,0-.83.2-1.13,1.51h-.11l.06-1.63h4.2l.06,1.63h-.11c-.31-1.31-.44-1.51-1.14-1.51h-.63V87c0,.29.06.43.46.48l.43,0v.1Z" transform="translate(-16.84 -10.74)"/><path class="cls-1" d="M250.54,87.6h-1.18v-.1l.43-.05c.41,0,.47-.19.47-.48V85.72L249,83.47c-.24-.43-.38-.53-.69-.57l-.23,0v-.1h2.2v.1l-.41,0c-.38,0-.41.23-.26.51l1.16,2.09.9-1.58a1.75,1.75,0,0,0,.29-.71c0-.18-.13-.26-.46-.31l-.25,0v-.1h1.82v.1l-.19,0c-.4.08-.6.26-1.08,1.09l-1,1.67V87c0,.29.06.43.47.48l.43,0v.1c-.4,0-.78,0-1.17,0" transform="translate(-16.84 -10.74)"/><rect class="cls-1" y="74.38" width="75.04" height="0.25"/><rect class="cls-1" x="237.63" y="74.38" width="73.47" height="0.25"/><g class="cls-2"><text class="cls-3" transform="translate(341.99 33.18)">S</text><text class="cls-4" transform="translate(362.12 33.18)">c</text><text class="cls-3" transform="translate(379.39 33.18)">hool o</text><text class="cls-5" transform="translate(486.43 33.18)">f</text></g><text class="cls-3" transform="translate(341.99 69.54)">Business</text><rect class="cls-1" x="328.78" y="0.7" width="0.57" height="73.45"/></svg>