<svg width="229" height="118" viewBox="0 0 229 118" fill="none" xmlns="http://www.w3.org/2000/svg">
<rect width="229" height="118" fill="white"/>
<path d="M115.401 55.3541H119.335V48.3214H122.126V45.4789H112.61V48.3214H115.401V55.3541Z" fill="#007DC5"/>
<path d="M125.027 55.3541L127.032 49.4486L129.035 55.3541H132.883L129.111 45.4789H124.951L121.182 55.3541H125.027Z" fill="#007DC5"/>
<path d="M134.729 55.3541H138.664V48.3214H141.454V45.4789H131.939V48.3214H134.729V55.3541Z" fill="#007DC5"/>
<path d="M144.355 55.3541L146.361 49.4486L148.363 55.3541H152.211L148.442 45.4789H144.279L140.51 55.3541H144.355Z" fill="#007DC5"/>
<path d="M182.11 62.4145C182.596 63.5325 183.238 64.7424 183.877 65.8206L186.451 70.164H188.315V60.2887H186.649V63.7346C186.649 65.2447 186.683 66.5159 186.811 67.8269L186.778 67.836C186.322 66.764 185.751 65.6153 185.1 64.528L182.553 60.2887H180.496V70.164H182.159V66.6323C182.159 65.0119 182.135 63.7071 182.064 62.4236L182.11 62.4145Z" fill="#007DC5"/>
<path d="M173.175 67.3735H176.305L177.198 70.164H179.13L175.929 60.2887H173.64L170.476 70.164H172.337L173.175 67.3735ZM174.23 63.5723C174.404 62.9842 174.554 62.3011 174.697 61.7222H174.728C174.878 62.295 175.04 62.9689 175.226 63.5784L176.003 66.0135H173.462L174.23 63.5723Z" fill="#007DC5"/>
<path d="M143.836 68.8254C142.919 68.8254 142.035 68.5314 141.454 68.1944L141.054 69.6892C141.592 70.02 142.674 70.3202 143.716 70.3202C146.26 70.3202 147.455 68.9418 147.455 67.3521C147.455 65.9339 146.633 65.0701 144.921 64.4177C143.606 63.9153 143.035 63.557 143.035 62.8004C143.035 62.2184 143.521 61.6119 144.664 61.6119C145.59 61.6119 146.278 61.8937 146.633 62.0806L147.064 60.6256C146.55 60.3653 145.768 60.1386 144.701 60.1386C142.564 60.1386 141.213 61.3577 141.213 62.975C141.213 64.3901 142.252 65.2661 143.882 65.8451C145.126 66.2984 145.627 66.7395 145.627 67.4838C145.627 68.2863 144.982 68.8254 143.836 68.8254Z" fill="#007DC5"/>
<path d="M117.963 61.6242C118.767 61.6242 119.424 61.8019 119.882 62.0101L120.274 60.5736C119.907 60.3745 119.072 60.1356 117.886 60.1356C114.875 60.1356 112.61 62.0959 112.61 65.3427C112.61 68.3476 114.515 70.3202 117.642 70.3202C118.834 70.3202 119.772 70.0843 120.197 69.8699L119.901 68.4487C119.427 68.6631 118.666 68.807 117.935 68.807C115.768 68.807 114.505 67.4287 114.505 65.2508C114.505 62.8801 115.951 61.6242 117.963 61.6242Z" fill="#007DC5"/>
<path d="M168.281 70.164V61.8049H171.121V60.2887H163.665V61.8049H166.481V70.164H168.281Z" fill="#007DC5"/>
<path d="M204.26 60.2887L203.074 62.8188C202.738 63.5355 202.465 64.1481 202.221 64.7791H202.19C201.921 64.1114 201.665 63.5478 201.331 62.8218L200.158 60.2887H198.097L201.215 66.0533V70.164H203.016V66.0043L206.29 60.2918H204.26V60.2887Z" fill="#007DC5"/>
<path d="M125.492 60.1294C122.71 60.1294 120.799 62.2705 120.799 65.3029C120.799 68.1944 122.56 70.3294 125.348 70.3294H125.363C128.062 70.3294 130.065 68.4364 130.065 65.1283C130.059 62.3042 128.365 60.1294 125.492 60.1294ZM125.421 68.8836H125.406C123.685 68.8836 122.679 67.2234 122.685 65.26C122.682 63.2905 123.63 61.5721 125.427 61.5721C127.225 61.5721 128.148 63.3334 128.148 65.1957C128.145 67.2602 127.161 68.8836 125.421 68.8836Z" fill="#007DC5"/>
<path d="M195.218 61.6242C196.022 61.6242 196.679 61.8019 197.138 62.0101L197.529 60.5736C197.162 60.3745 196.327 60.1356 195.141 60.1356C192.13 60.1356 189.865 62.0959 189.865 65.3427C189.865 68.3476 191.77 70.3202 194.897 70.3202C196.089 70.3202 197.027 70.0874 197.452 69.8699L197.156 68.4487C196.682 68.6631 195.921 68.807 195.19 68.807C193.023 68.807 191.761 67.4287 191.761 65.2508C191.761 62.8801 193.206 61.6242 195.218 61.6242Z" fill="#007DC5"/>
<path d="M160.611 60.2887H158.811V70.164H164.665V68.6508H160.611V60.2887Z" fill="#007DC5"/>
<path d="M156.763 65.9308V60.2918H154.963V66.0503C154.963 67.9861 154.183 68.8775 152.887 68.8775C151.667 68.8775 150.866 67.98 150.866 66.0503V60.2918H149.066V65.9431C149.066 69.049 150.548 70.3324 152.82 70.3324C155.201 70.3294 156.763 68.9724 156.763 65.9308Z" fill="#007DC5"/>
<path d="M139.422 60.2887H137.756V63.7346C137.756 65.2447 137.789 66.5159 137.918 67.8268L137.884 67.836C137.429 66.764 136.857 65.6153 136.206 64.528L133.66 60.2887H131.602V70.1639H133.268V66.6323C133.268 65.0119 133.244 63.7071 133.174 62.4267L133.219 62.4175C133.705 63.5355 134.347 64.7454 134.986 65.8236L137.56 70.167H139.425V60.2887H139.422Z" fill="#007DC5"/>
<path d="M147.125 75.1016H145.324V84.9768H147.125V75.1016Z" fill="#007DC5"/>
<path d="M132.947 80.3455V80.3057C133.867 79.9779 134.723 79.1203 134.723 77.8583C134.723 77.019 134.418 76.339 133.883 75.8918C133.222 75.3405 132.085 75.1016 130.866 75.1016C129.646 75.1016 128.839 75.1873 128.157 75.3129V84.9768H129.93V80.9489H130.829C131.844 80.9734 132.308 81.3869 132.59 82.6642C132.862 83.8833 133.097 84.692 133.247 84.9768H135.081C134.885 84.594 134.619 83.4698 134.311 82.2446C134.066 81.292 133.656 80.6151 132.947 80.3455ZM130.988 79.6349H129.93V76.5381C130.111 76.4922 130.474 76.4493 131.04 76.4493C132.195 76.4524 132.944 76.9516 132.944 78.0206C132.944 78.9947 132.198 79.6349 130.988 79.6349Z" fill="#007DC5"/>
<path d="M140.91 79.6165C140.528 80.8142 140.171 82.021 139.908 83.1849H139.877C139.62 81.9904 139.284 80.8356 138.911 79.5889L137.566 75.0985H135.604L138.792 84.9738H140.855L144.261 75.0985H142.344L140.91 79.6165Z" fill="#007DC5"/>
<path d="M159.581 80.5936H163.295V79.1233H159.581V76.5841H163.515V75.1016H157.781V84.9738H163.733V83.4913H159.581V80.5936Z" fill="#007DC5"/>
<path d="M154.024 76.434C154.828 76.434 155.485 76.6117 155.944 76.82L156.335 75.3834C155.968 75.1843 155.134 74.9454 153.948 74.9454C150.937 74.9454 148.672 76.9057 148.672 80.1525C148.672 83.1574 150.576 85.13 153.703 85.13C154.895 85.13 155.834 84.8972 156.259 84.6797L155.962 83.2585C155.485 83.4729 154.727 83.6169 153.997 83.6169C151.829 83.6169 150.567 82.2385 150.567 80.0607C150.567 77.6899 152.013 76.434 154.024 76.434Z" fill="#007DC5"/>
<path d="M116.477 79.2275C115.16 78.7252 114.591 78.3668 114.591 77.6102C114.591 77.0282 115.077 76.4217 116.217 76.4217C117.144 76.4217 117.831 76.7036 118.186 76.8904L118.617 75.4355C118.103 75.1751 117.321 74.9484 116.254 74.9484C114.117 74.9484 112.766 76.1675 112.766 77.7848C112.766 79.1999 113.805 80.076 115.435 80.6549C116.679 81.1082 117.18 81.5493 117.18 82.2936C117.18 83.1023 116.538 83.6413 115.389 83.6413C114.472 83.6413 113.588 83.3473 113.008 83.0104L112.607 84.5051C113.145 84.8359 114.227 85.1361 115.27 85.1361C117.813 85.1361 119.008 83.7577 119.008 82.168C119.011 80.7437 118.189 79.8799 116.477 79.2275Z" fill="#007DC5"/>
<path d="M122.429 80.5936H126.143V79.1233H122.429V76.5841H126.366V75.1016H120.628V84.9738H126.583V83.4913H122.429V80.5936Z" fill="#007DC5"/>
<path d="M168.746 79.2275C167.431 78.7252 166.86 78.3668 166.86 77.6102C166.86 77.0282 167.346 76.4217 168.486 76.4217C169.412 76.4217 170.1 76.7036 170.455 76.8904L170.886 75.4355C170.372 75.1751 169.589 74.9484 168.523 74.9484C166.386 74.9484 165.035 76.1675 165.035 77.7848C165.035 79.1999 166.074 80.076 167.703 80.6549C168.948 81.1082 169.449 81.5493 169.449 82.2936C169.449 83.1023 168.807 83.6413 167.658 83.6413C166.741 83.6413 165.857 83.3473 165.276 83.0104L164.876 84.5051C165.414 84.8359 166.496 85.1361 167.538 85.1361C170.082 85.1361 171.277 83.7577 171.277 82.168C171.28 80.7437 170.458 79.8799 168.746 79.2275Z" fill="#007DC5"/>
<path d="M19.7991 52.2329C19.7991 47.7609 22.7 45.0776 26.9398 45.0776V37.4752C26.9398 35.2391 25.4511 33.7474 23.3694 33.7474C21.2877 33.7474 19.7991 35.2391 19.7991 37.4752V52.2329V52.2329Z" fill="url(#paint0_linear_20_998)"/>
<path d="M32.4451 85.2495C34.2303 85.2495 35.8657 84.9524 37.3544 84.4286C29.8407 85.6967 26.9398 80.5538 26.9398 74.7402V50.8913H35.6426C37.6509 50.8913 38.9898 49.6998 38.9898 47.9845C38.9898 46.2692 37.6509 45.0776 35.6426 45.0776H26.9398C22.7 45.0776 19.7991 47.7609 19.7991 52.2329V72.7277C19.7991 80.9275 24.4852 85.2495 32.4451 85.2495Z" fill="url(#paint1_linear_20_998)"/>
<path d="M37.3544 84.4286C40.3287 83.3106 42.6366 81.2246 44.1222 78.1677L40.775 72.1305C39.2863 76.6025 36.685 78.9886 33.1146 78.9886C29.3944 78.9886 26.9398 76.8261 26.9398 71.9069V74.7402C26.9398 80.5538 29.8407 85.6967 37.3544 84.4286Z" fill="url(#paint2_linear_20_998)"/>
<path d="M67.9226 83.237C50.9633 85.7702 45.6078 76.6791 45.6078 64.9782C45.6078 56.4813 50.8135 50.6677 58.3272 50.6677C61.0784 50.6677 63.3863 51.265 65.468 52.2329C66.4339 52.6801 67.2531 52.8302 67.9959 52.8302C69.7811 52.8302 70.9702 51.6387 70.9702 49.8498C70.9702 48.7318 70.3008 47.6138 68.7388 46.8695C65.9112 45.4544 62.2675 44.6335 58.3242 44.6335C46.5707 44.6335 38.464 52.9803 38.464 65.1283C38.464 77.0527 46.2742 85.326 58.8438 85.326C62.2705 85.323 65.2448 84.6522 67.9226 83.237Z" fill="url(#paint3_linear_20_998)"/>
<path d="M38.4701 65.1253C38.4701 52.9772 46.5768 44.6304 58.3303 44.6304C62.2736 44.6304 65.9173 45.4513 68.7449 46.8665C70.3069 47.6108 70.9763 48.7288 70.9763 49.8468C70.9763 51.6356 69.7872 52.8271 68.002 52.8271C67.2592 52.8271 66.44 52.6771 65.4741 52.2299C62.9461 51.0383 60.4914 50.6646 58.3333 50.6646C47.989 50.6677 38.4701 57.2257 38.4701 65.1253Z" fill="url(#paint4_linear_20_998)"/>
<path d="M82.8736 47.0165C82.2041 47.6873 81.8312 48.5082 81.8312 49.4762C81.8312 51.9358 84.1361 55.5869 89.4916 59.3147L95.59 63.5631C100.053 66.6935 101.838 69.6739 101.838 74.1459C101.838 77.3499 100.573 80.1097 98.4909 82.0455C99.2337 81.3747 99.68 80.4803 99.68 79.2888C99.68 76.6791 97.0756 72.5807 91.4969 68.706L85.9182 64.8312C81.2321 61.5507 79.3735 58.4968 79.3735 54.3219C79.3735 51.8623 80.2661 49.6263 81.7548 47.9875C82.1308 47.6108 82.5007 47.3137 82.8736 47.0165Z" fill="url(#paint5_linear_20_998)"/>
<path d="M78.0406 80.4803C78.0406 81.6718 78.6367 82.6428 80.1988 83.3871C82.3569 84.4316 85.8508 85.326 88.9749 85.326C92.9182 85.326 96.189 84.1345 98.4969 82.0455C99.2397 81.3747 99.686 80.4803 99.686 79.2888C99.686 76.6791 97.0816 72.5807 91.5029 68.706C94.0309 70.4948 95.0732 71.9865 95.0732 74.1459C95.0732 77.3499 92.5453 79.5124 88.8985 79.5124C85.4015 79.5124 82.4272 77.7236 80.7918 77.7236C79.1564 77.7236 78.0406 78.8416 78.0406 80.4803Z" fill="url(#paint6_linear_20_998)"/>
<path d="M89.4946 59.3147C87.1134 57.5994 86.074 56.0341 86.074 54.1718C86.074 51.7857 88.009 50.2971 90.7602 50.2971C94.2572 50.2971 95.8926 51.9358 97.9743 51.9358C99.6097 51.9358 100.725 50.8178 100.725 49.179C100.725 47.9875 100.129 47.0165 98.5673 46.2722C96.1127 45.0807 93.4349 44.6335 90.534 44.6335C87.4832 44.6335 84.8055 45.5279 82.8735 47.0196C82.2041 47.6904 81.8312 48.5113 81.8312 49.4792C81.8312 51.9358 84.1391 55.5869 89.4946 59.3147Z" fill="url(#paint7_linear_20_998)"/>
<path d="M45.6108 64.9782C45.6108 76.6791 50.9664 85.7732 67.9256 83.237C73.3546 80.4037 77.2245 74.6667 79.8992 65.8727L81.4612 60.7298C79.9726 58.7909 79.3795 56.6314 79.3795 54.3188C79.3795 51.8592 80.2721 49.6232 81.7608 47.9845C79.5293 50.3706 77.6708 53.8716 76.1821 58.7909L74.4703 64.4545C71.4196 74.443 66.5867 79.2122 59.0731 79.2122C50.8166 79.2122 45.6108 73.4751 45.6108 64.9782Z" fill="url(#paint8_linear_20_998)"/>
<defs>
<linearGradient id="paint0_linear_20_998" x1="23.3704" y1="35.716" x2="23.3704" y2="50.4731" gradientUnits="userSpaceOnUse">
<stop stop-color="#FFC708"/>
<stop offset="0.9997" stop-color="#F05731"/>
<stop offset="1" stop-color="#F05731"/>
</linearGradient>
<linearGradient id="paint1_linear_20_998" x1="31.4655" y1="47.0558" x2="27.5988" y2="74.9753" gradientUnits="userSpaceOnUse">
<stop stop-color="#F80000"/>
<stop offset="1" stop-color="#EE3984"/>
</linearGradient>
<linearGradient id="paint2_linear_20_998" x1="26.1182" y1="80.0864" x2="46.2888" y2="73.6991" gradientUnits="userSpaceOnUse">
<stop stop-color="#EE3984"/>
<stop offset="0.9997" stop-color="#7800DA"/>
<stop offset="1" stop-color="#7800DA"/>
</linearGradient>
<linearGradient id="paint3_linear_20_998" x1="53.5266" y1="54.8032" x2="60.9217" y2="80.8276" gradientUnits="userSpaceOnUse">
<stop stop-color="#FF0000"/>
<stop offset="0.9994" stop-color="#EE3984"/>
<stop offset="1" stop-color="#EE3984"/>
</linearGradient>
<linearGradient id="paint4_linear_20_998" x1="38.4694" y1="54.8786" x2="70.9732" y2="54.8786" gradientUnits="userSpaceOnUse">
<stop stop-color="#FFC708"/>
<stop offset="1" stop-color="#FA3B00"/>
</linearGradient>
<linearGradient id="paint5_linear_20_998" x1="79.3782" y1="64.5304" x2="101.841" y2="64.5304" gradientUnits="userSpaceOnUse">
<stop stop-color="#FF0000"/>
<stop offset="1" stop-color="#EE3984"/>
</linearGradient>
<linearGradient id="paint6_linear_20_998" x1="97.4975" y1="75.3942" x2="77.717" y2="80.6196" gradientUnits="userSpaceOnUse">
<stop stop-color="#EE3984"/>
<stop offset="1" stop-color="#7800DA"/>
</linearGradient>
<linearGradient id="paint7_linear_20_998" x1="81.8327" y1="51.9719" x2="100.725" y2="51.9719" gradientUnits="userSpaceOnUse">
<stop stop-color="#FFC708"/>
<stop offset="1" stop-color="#F05731"/>
</linearGradient>
<linearGradient id="paint8_linear_20_998" x1="57.0676" y1="76.1735" x2="70.8736" y2="53.6631" gradientUnits="userSpaceOnUse">
<stop stop-color="#EE3984"/>
<stop offset="1" stop-color="#7800DA"/>
</linearGradient>
</defs>
</svg>
