<svg xmlns="http://www.w3.org/2000/svg" version="1.1" xmlns:xlink="http://www.w3.org/1999/xlink" xmlns:svgjs="http://svgjs.com/svgjs" width="512" height="512" x="0" y="0" viewBox="0 0 462 462" style="enable-background:new 0 0 512 512" xml:space="preserve" class=""><g><path xmlns="http://www.w3.org/2000/svg" d="m231 412c-96.37 0-174.78-78.42-174.78-174.8s78.41-174.78 174.78-174.78a172.92 172.92 0 0 1 79.48 19.08 10 10 0 0 1 -9.11 17.81 153.1 153.1 0 0 0 -70.37-16.89c-85.35 0-154.78 69.43-154.78 154.78s69.43 154.8 154.78 154.8 154.78-69.45 154.78-154.8a155.26 155.26 0 0 0 -5.07-39.43 10 10 0 0 1 19.34-5.08 175.31 175.31 0 0 1 5.72 44.52c.01 96.37-78.39 174.79-174.77 174.79z" fill="#af0c3e" data-original="#000000" class=""></path><path xmlns="http://www.w3.org/2000/svg" d="m225.62 279.36a10 10 0 0 1 -7.07-2.93l-50.65-50.65a10 10 0 0 1 14.1-14.14l43.58 43.58 157.95-157.91a10 10 0 0 1 14.14 14.14l-165 165a10 10 0 0 1 -7.05 2.91z" fill="#af0c3e" data-original="#000000" class=""></path></g></svg>