<svg width="229" height="118" viewBox="0 0 229 118" fill="none" xmlns="http://www.w3.org/2000/svg">
<rect width="229" height="118" fill="white"/>
<g clip-path="url(#clip0_14_462)">
<path d="M86.809 65.7588C87.0782 65.7166 87.345 65.6709 87.6042 65.6048C88.1687 65.4607 88.7047 65.247 89.2033 64.9743C91.3149 63.8179 92.7476 61.5924 92.7476 59.0358C92.7476 54.8431 89.1406 52.2535 85.3562 52.2535H69.5099V45.514C69.5099 44.4184 69.9551 43.7872 71.0833 43.7872H76.0406V39.8909H55.256V43.7872H60.2414C61.3703 43.7872 61.8141 44.4184 61.8141 45.514V52.2603H35.9595V56.1694L40.6843 56.1715C41.7861 56.1715 42.475 56.7732 42.475 57.91V64.1114C32.7445 64.1114 31.2714 59.8692 31.2714 55.8584V45.5141C31.2714 44.4185 31.7153 43.7873 32.8441 43.7873H37.8205V39.891H11.8245V43.7873H16.8102C17.9387 43.7873 18.3829 44.4185 18.3829 45.5141V55.6872C18.3829 64.325 27.5993 67.9643 42.4753 67.9643V74.7212C42.4753 75.8577 41.7864 76.4593 40.6846 76.4593H35.9403V80.3591H85.3481C89.3823 80.3591 93.1914 77.5498 93.1914 73.1277C93.1914 70.3156 91.5692 67.8784 89.2012 66.6835C88.6998 66.4293 88.1652 66.2324 87.6049 66.0983C87.3457 66.0362 87.0783 65.9954 86.8097 65.9546C86.6884 65.9364 86.6853 65.7776 86.8097 65.7587L86.809 65.7588ZM69.5099 57.8037V56.161L78.314 56.1568C80.5201 56.1568 82.308 57.9275 82.308 60.1108C82.308 62.2945 80.5201 64.0652 78.314 64.0652L66.2359 64.0678C68.5131 62.3706 69.5099 59.8662 69.5099 57.8034V57.8037ZM55.2556 56.161H61.8138V58.2974C61.8138 60.7434 60.2425 64.1112 55.2556 64.1112V56.161V56.161ZM78.0264 76.4446L55.2556 76.458V67.9643L78.0264 67.9647C80.3936 67.9647 82.3129 69.8588 82.3129 72.2017C82.3129 74.5449 80.394 76.4448 78.0267 76.4448" fill="#005BBB"/>
<path d="M209.919 44.1931V46.5397C210.141 46.6128 210.66 46.6862 211.179 46.7349L209.944 50.2067C209.672 50.9401 209.302 51.8933 209.153 52.6264H209.104C208.981 51.9177 208.635 50.9401 208.363 50.1817L207.105 46.7349C207.548 46.6862 208.018 46.6128 208.24 46.5397V44.1931H202.042V46.5397C202.288 46.6128 202.734 46.6862 203.276 46.7349L206.98 56.1951L206.659 57.0262C206.053 58.5911 205.433 58.9884 203.128 58.9077L204.306 61.9157C207.749 61.96 209.054 60.3018 210.24 57.3202L214.486 46.76C215.055 46.711 215.523 46.6132 215.82 46.5401V44.1935H209.918" fill="#005BBB"/>
<path d="M100.748 49.8126V42.4294C100.13 42.4294 99.4388 42.3083 99.093 42.2099V39.8876H106.476V42.2099C106.131 42.3083 105.34 42.4294 104.723 42.4294V49.7156C104.723 52.3065 105.662 53.48 108.106 53.48C110.378 53.48 111.316 52.1596 111.316 49.8864V42.4296C110.699 42.4296 109.908 42.3085 109.587 42.2101V39.8878H116.279V42.2101C115.934 42.3085 115.242 42.4296 114.649 42.4296V49.422C114.649 53.9925 112.477 56.4611 107.809 56.4611C102.97 56.4611 100.748 54.1148 100.748 49.8127" fill="#005BBB"/>
<path d="M115.688 53.8469C116.058 53.7251 116.874 53.6026 117.441 53.6026V46.6849C116.774 46.6116 116.132 46.5879 115.688 46.5879V44.2402C116.602 44.1431 118.701 44.0447 121.194 44.0447L121.095 45.7807H121.145C121.886 44.8024 123.046 43.8982 124.923 43.8982C127.59 43.8982 128.577 45.6096 128.577 47.8337V53.6026C129.096 53.6026 129.837 53.7494 130.182 53.8469V56.1691H124.824V48.4939C124.824 47.3942 124.405 46.88 123.367 46.88C122.38 46.88 121.589 47.6384 121.194 48.1519V53.6027C121.787 53.6521 122.429 53.7495 122.701 53.8469V56.1693H115.688V53.8469" fill="#005BBB"/>
<path d="M131.089 53.8469C131.459 53.7251 132.274 53.6026 132.842 53.6026V46.6849C132.175 46.6116 131.533 46.5879 131.089 46.5879V44.2402C132.002 44.1431 134.126 44.0447 136.768 44.0447L136.644 46.0006V53.6027C137.163 53.6027 137.928 53.7495 138.249 53.8469V56.1693H131.089V53.8469L131.089 53.8469ZM132.521 40.5983C132.521 39.4496 133.434 38.4959 134.743 38.4959C136.051 38.4959 136.965 39.4496 136.965 40.5983C136.965 41.7471 136.051 42.7498 134.743 42.7498C133.434 42.7498 132.521 41.7471 132.521 40.5983Z" fill="#005BBB"/>
<path d="M138.918 46.7325C138.375 46.6837 137.93 46.6104 137.683 46.5373V44.1906H143.881V46.5373C143.659 46.6104 143.19 46.6837 142.745 46.7325L144.004 50.2036C144.277 50.9376 144.622 51.9152 144.745 52.5996H144.795C144.918 51.9152 145.289 50.9376 145.561 50.2036L146.819 46.7325C146.301 46.6837 145.783 46.6104 145.561 46.5373V44.1906H151.462V46.5373C151.166 46.6104 150.697 46.7081 150.128 46.7579L146.35 56.1682H142.597L138.918 46.7324" fill="#005BBB"/>
<path d="M151.384 50.3745C151.384 46.2678 153.927 43.8968 157.729 43.8968C161.26 43.8968 162.989 46.1707 162.989 49.4945C162.989 49.8859 162.964 50.668 162.915 51.108H155.408C155.507 52.77 156.545 53.8454 158.346 53.8454C159.877 53.8454 160.767 53.4303 161.383 53.0636L162.52 55.2882C161.656 55.8017 160.272 56.461 157.803 56.461C153.755 56.461 151.384 54.2121 151.384 50.3745L151.384 50.3745ZM159.335 48.8099C159.31 47.3929 158.815 46.3165 157.532 46.3165C156.174 46.3165 155.459 47.2711 155.335 48.8099H159.335Z" fill="#005BBB"/>
<path d="M163.936 53.8469C164.306 53.7251 165.121 53.6026 165.689 53.6026V46.6849C165.023 46.6116 164.38 46.5879 163.936 46.5879V44.2402C164.849 44.1431 166.998 44.0447 169.491 44.0447L169.344 46.0744H169.393C169.887 45.0954 171.023 43.8982 172.455 43.8982C173.394 43.8982 173.912 44.0941 174.209 44.2653L173.344 47.4434C173.122 47.2959 172.677 47.1007 171.985 47.1007C170.653 47.1007 169.789 48.078 169.443 48.6406V53.6028C170.035 53.6028 171.072 53.7252 171.418 53.847V56.1693H163.936V53.847" fill="#005BBB"/>
<path d="M174.748 55.5804V52.3052H177.341C177.366 52.3785 177.465 53.4049 177.465 53.6004C178.081 53.7472 178.773 53.8697 179.464 53.8697C180.749 53.8697 181.391 53.527 181.391 52.8671C181.391 52.0359 180.205 51.8407 178.846 51.4987C176.996 51.0586 174.847 50.3736 174.847 47.6119C174.847 45.1922 176.674 43.8959 179.884 43.8959C182.007 43.8959 183.859 44.3603 184.452 44.7023V47.9295H181.835C181.785 47.6853 181.736 47.1471 181.687 46.6826C181.144 46.5601 180.55 46.4628 180.007 46.4628C178.773 46.4628 178.18 46.7567 178.18 47.4411C178.18 48.2722 179.514 48.443 180.996 48.8091C182.822 49.2495 184.847 49.9338 184.847 52.476C184.847 55.0919 182.699 56.4602 179.465 56.4602C177.439 56.4602 175.539 56.0452 174.748 55.5804" fill="#005BBB"/>
<path d="M185.982 53.8469C186.353 53.7251 187.168 53.6026 187.735 53.6026V46.6849C187.068 46.6116 186.426 46.5879 185.982 46.5879V44.2402C186.896 44.1431 189.019 44.0447 191.662 44.0447L191.538 46.0006V53.6027C192.056 53.6027 192.821 53.7495 193.143 53.8469V56.1693H185.982V53.8469L185.982 53.8469ZM187.415 40.5983C187.415 39.4496 188.328 38.4959 189.637 38.4959C190.945 38.4959 191.86 39.4496 191.86 40.5983C191.86 41.7471 190.945 42.7498 189.637 42.7498C188.328 42.7498 187.415 41.7471 187.415 40.5983Z" fill="#005BBB"/>
<path d="M200.901 53.216C200.605 53.3522 200.14 53.5281 199.584 53.5281C198.745 53.5281 198.349 53.064 198.349 51.8909V46.9286H201.313V44.1906H198.349V40.7439H194.62V44.1906H192.793V46.9286H194.62V52.5507C194.62 54.9223 195.608 56.4615 198.72 56.4615C200.274 56.4615 201.361 56.0711 201.904 55.7779L200.901 53.2162" fill="#005BBB"/>
<path d="M105.433 77.2253C105.433 74.2186 108.372 73.0215 111.903 73.0215H112.298V72.2874C112.298 71.3345 111.828 70.8941 110.446 70.8941C109.088 70.8941 107.927 71.5297 107.334 71.9945L105.828 69.8433C106.717 69.0362 108.446 68.0833 110.89 68.0833C114.421 68.0833 116.051 69.3796 116.051 72.6538V76.7125C116.051 77.1525 116.051 77.5432 116.076 77.9103C116.693 77.9586 117.236 77.983 117.557 77.983V80.3544C116.718 80.4278 114.965 80.5018 112.718 80.5018C112.619 80.2079 112.545 79.5723 112.52 79.1081H112.471C111.927 79.8165 110.791 80.6473 109.162 80.6473C107.112 80.6473 105.433 79.4251 105.433 77.2253H105.433ZM112.298 77.2503V75.1229H111.903C110.125 75.1229 108.989 75.612 108.989 76.8589C108.989 77.7144 109.631 78.0811 110.372 78.0811C111.311 78.0811 111.903 77.6897 112.298 77.2503" fill="#005BBB"/>
<path d="M118.917 76.7376V71.1155H117.09V68.3771H118.917V64.9311H122.645V68.3771H125.609V71.1155H122.645V76.0774C122.645 77.2512 123.041 77.7153 123.88 77.7153C124.596 77.7153 125.164 77.4221 125.411 77.3003L126.201 79.9646C125.658 80.2575 124.571 80.6482 123.016 80.6482C119.905 80.6482 118.917 79.109 118.917 76.7377" fill="#005BBB"/>
<path d="M131.892 78.0311C132.311 77.9096 133.274 77.7868 133.867 77.7868V66.6402C133.274 66.6402 132.287 66.5178 131.892 66.3953V64.073H139.991C143.028 64.073 145.769 65.0016 145.769 68.1067C145.769 70.3559 144.461 71.4556 142.683 71.8951V71.9438C144.609 72.2377 146.436 73.4356 146.436 75.8306C146.436 79.1312 143.67 80.3534 139.917 80.3534H131.892V78.0308L131.892 78.0311ZM137.793 70.7715H139.448C141.127 70.7715 141.843 70.1118 141.843 68.7671C141.843 67.4712 141.077 66.8359 139.546 66.8359H137.793V70.7715V70.7715ZM137.793 77.5672H139.719C141.497 77.5672 142.386 76.9563 142.386 75.4651C142.386 74.0474 141.596 73.338 139.867 73.338H137.793V77.5672Z" fill="#005BBB"/>
<path d="M148.112 76.7376V70.8706C147.47 70.7972 147.026 70.7725 146.581 70.7725V68.4255C147.495 68.3284 149.47 68.23 152.014 68.23L151.891 70.1856V76.0531C151.891 77.1531 152.285 77.6667 153.322 77.6667C154.31 77.6667 155.1 76.9082 155.496 76.3947V70.8707C154.828 70.7973 154.285 70.7726 153.841 70.7726V68.4256C154.755 68.3286 156.854 68.2301 159.372 68.2301L159.248 70.1857V76.7864C159.248 77.2022 159.248 77.5682 159.272 77.9108C159.89 77.9592 160.507 77.9836 160.853 77.9836V80.3549C160.014 80.4283 158.212 80.5024 155.915 80.5024C155.791 80.135 155.668 79.1571 155.643 78.693H155.594C154.828 79.6706 153.742 80.6479 151.766 80.6479C149.1 80.6479 148.112 78.9612 148.112 76.7373" fill="#005BBB"/>
<path d="M178.068 77.2253C178.068 74.2186 181.006 73.0215 184.537 73.0215H184.933V72.2874C184.933 71.3345 184.464 70.8941 183.08 70.8941C181.723 70.8941 180.562 71.5297 179.969 71.9945L178.464 69.8433C179.352 69.0362 181.081 68.0833 183.526 68.0833C187.057 68.0833 188.686 69.3796 188.686 72.6538V76.7125C188.686 77.1525 188.686 77.5432 188.711 77.9103C189.329 77.9586 189.842 77.983 189.842 77.983V80.3544C189.002 80.4278 187.6 80.5018 185.352 80.5018C185.254 80.2079 185.181 79.5723 185.154 79.1081H185.106C184.563 79.8165 183.426 80.6473 181.797 80.6473C179.747 80.6473 178.068 79.4251 178.068 77.2253H178.068ZM184.933 77.2503V75.1229H184.537C182.76 75.1229 181.624 75.612 181.624 76.8589C181.624 77.7144 182.266 78.0811 183.007 78.0811C183.946 78.0811 184.537 77.6897 184.933 77.2503" fill="#005BBB"/>
<path d="M190.459 78.0311C190.856 77.9233 191.494 77.7868 192.004 77.7868V65.3202C191.337 65.2468 190.721 65.1981 190.276 65.1981V62.8762C191.19 62.7777 193.313 62.6803 195.906 62.6803L195.757 64.6359V77.7868C196.275 77.7868 197.041 77.9333 197.362 78.0311V80.3537H190.459V78.0311" fill="#005BBB"/>
<path d="M197.195 74.4368C197.195 71.284 199.171 68.0816 203.394 68.0816C207.641 68.0816 209.615 71.0635 209.615 74.2905C209.615 77.3709 207.641 80.6457 203.394 80.6457C199.121 80.6457 197.195 77.6394 197.195 74.4368ZM205.616 74.4131C205.616 72.2857 205.048 70.7702 203.345 70.7702C201.665 70.7702 201.171 72.1879 201.171 74.2903C201.171 76.4167 201.764 77.9322 203.443 77.9322C205.121 77.9322 205.616 76.5392 205.616 74.4131Z" fill="#005BBB"/>
<path d="M176.799 65.3928C177.712 65.3928 178.256 65.637 178.502 65.7344L179.342 63.0945C178.996 62.8996 178.058 62.4595 176.107 62.4595C172.971 62.4595 171.268 64.4395 171.268 67.324V68.3746H167.168V67.5192C167.168 66.1264 167.687 65.3928 168.848 65.3928C169.26 65.3928 169.605 65.4576 169.869 65.5395C170.093 64.5578 170.51 63.7057 171.091 63.007L171.094 62.997C170.626 62.7521 169.589 62.4595 168.131 62.4595C165.119 62.4595 163.415 64.4395 163.415 67.324V68.3746H161.662V71.113H163.415V77.7858C162.847 77.7858 162.032 77.9086 161.662 78.0301V80.3527H168.847V78.0301C168.526 77.9323 167.687 77.7858 167.168 77.7858V70.8925H171.267V77.7858C170.674 77.7858 170.057 77.9086 169.686 78.0301V80.3527H177.07V78.0301C176.749 77.9323 175.514 77.7858 174.996 77.7858V71.113H177.836V68.3746H174.996V67.5192C174.996 66.1264 175.514 65.3928 176.798 65.3928" fill="#005BBB"/>
</g>
<defs>
<clipPath id="clip0_14_462">
<rect width="204" height="43" fill="white" transform="translate(12 38)"/>
</clipPath>
</defs>
</svg>
