<svg width="229" height="118" viewBox="0 0 229 118" fill="none" xmlns="http://www.w3.org/2000/svg">
<rect width="229" height="118" fill="white"/>
<path d="M73.721 99.3696C78.1317 92.2265 85.0049 92.0432 94.7725 82.2003C108.597 68.2671 108.259 48.1724 106.476 29.2091C97.1363 30.9608 79.8917 21.9741 73.721 18C67.5503 21.9741 50.3061 31.0785 40.9669 29.3345C39.1811 48.2979 38.41 68.3507 52.2338 82.284C62.0014 92.1264 69.3112 92.2265 73.721 99.3696Z" fill="#F1C350"/>
<path fill-rule="evenodd" clip-rule="evenodd" d="M73.721 99.3696C69.3112 92.2265 62.0014 92.1264 52.2338 82.284C38.41 68.3507 39.1811 48.2979 40.9669 29.3345C50.3061 31.0785 67.5503 21.9741 73.721 18C79.8917 21.9741 97.1363 30.9608 106.476 29.2091C108.259 48.1724 108.597 68.2671 94.7725 82.2003C85.0049 92.0432 78.1565 92.1867 73.7463 99.3293L73.721 99.3696Z" stroke="black" stroke-width="0.00525422"/>
<path d="M59.6132 74.1554C51.3509 72.6798 43.4897 67.4741 42.3413 49.8415L44.4961 52.8428C44.9653 51.6443 45.4267 50.5966 45.8881 49.3976C47.3447 67.5091 56.417 70.806 64.2811 71.089L65.7008 71.1084C68.8732 71.0836 71.8423 70.6742 73.7793 70.7161C75.6793 70.6742 78.5318 71.0856 81.6998 71.1084L83.1204 71.0909C90.9734 70.825 100.126 67.5621 101.587 49.3976C102.048 50.5966 102.509 51.6443 102.971 52.8428L105.124 49.8415C103.98 67.5889 96.0259 72.741 87.7383 74.1836L81.1441 74.765C78.6368 74.8846 77.1544 74.2628 73.7793 74.2628C70.2145 74.2706 68.7506 74.8355 66.099 74.7475L59.6132 74.1554Z" fill="white" stroke="black" stroke-width="0.0017729"/>
<path fill-rule="evenodd" clip-rule="evenodd" d="M45.6446 56.9253C45.6869 56.9335 45.7282 56.9253 45.771 56.9165C46.0642 56.8582 46.1225 56.6404 46.0559 56.3054L45.9801 55.9276L45.6446 55.9952V55.7341L46.1225 55.6427L46.2319 56.196C46.2567 56.2961 46.265 56.389 46.265 56.4644V56.5898C46.2485 57.0001 46.0049 57.1261 45.8124 57.1684C45.754 57.1766 45.6952 57.1766 45.6446 57.1766V56.9253ZM45.2007 56.0866L45.2678 56.4138C45.3422 56.7916 45.4944 56.9092 45.6446 56.9253V57.1766C45.4603 57.1518 45.2921 57.0259 45.192 56.8329L44.3037 57.479L44.2449 57.2019L45.1083 56.5898L45.0165 56.1211L44.0694 56.3132L44.0183 56.0618L45.6446 55.7341V55.9952L45.2007 56.0866Z" fill="black"/>
<path fill-rule="evenodd" clip-rule="evenodd" d="M46.6174 58.6945L46.3578 57.6886L45.6533 57.8646L45.8381 58.5856L45.6446 58.6362L45.4603 57.9147L44.6557 58.1247L44.9323 59.1885L44.7393 59.2391L44.4038 57.9239L46.4837 57.3954L46.8012 58.6527L46.6174 58.6945Z" fill="black"/>
<path fill-rule="evenodd" clip-rule="evenodd" d="M44.957 59.9601L44.8821 59.717L46.9192 59.0553L47.0369 59.4331L45.7276 60.8659L47.3383 60.3461L47.4142 60.58L45.3756 61.2514L45.3007 61.0088L46.8098 59.3567L44.957 59.9601Z" fill="black"/>
<path fill-rule="evenodd" clip-rule="evenodd" d="M46.8687 62.7435C46.9441 62.7182 47.0282 62.693 47.1118 62.6604C47.7069 62.4085 47.8581 62.039 47.7322 61.7293C47.6145 61.4687 47.3301 61.319 46.8687 61.4439V61.1926C47.3637 61.0924 47.7405 61.284 47.9004 61.6622C48.0925 62.1149 47.8581 62.6176 47.2042 62.8947C47.0865 62.9361 46.9772 62.9784 46.8687 62.9949V62.7435ZM46.6334 61.5276C46.0301 61.7799 45.8793 62.1479 46.0135 62.4586C46.1229 62.7182 46.4078 62.8704 46.8687 62.7435V62.9949C46.3821 63.0873 45.9965 62.903 45.8458 62.5252C45.6445 62.0648 45.8881 61.5699 46.5333 61.2932C46.6504 61.2431 46.7598 61.2091 46.8687 61.1926V61.4439C46.7934 61.461 46.7175 61.4945 46.6334 61.5276Z" fill="black"/>
<path fill-rule="evenodd" clip-rule="evenodd" d="M46.7681 64.3703L46.6597 64.169L48.2349 62.568L48.3613 62.7941L47.0705 64.0859L48.8811 63.7752L48.9982 63.9925L46.7681 64.3703Z" fill="black"/>
<path fill-rule="evenodd" clip-rule="evenodd" d="M49.2836 64.7058L48.7299 64.8735V64.6465L49.3084 64.4787L49.5005 64.7811L48.7299 65.7287V65.3587L49.2836 64.7058ZM48.7299 64.8735L48.1688 65.0495L48.5208 65.6028L48.7299 65.3587V65.7287L48.0764 66.5256L47.9423 66.3058L48.3944 65.7545L47.9753 65.1001L47.2878 65.3014L47.1454 65.0826L48.7299 64.6465V64.8735Z" fill="black"/>
<path fill-rule="evenodd" clip-rule="evenodd" d="M49.5349 66.3982C49.7274 66.6335 49.9715 66.9442 50.2559 66.7089C50.5486 66.4668 50.3065 66.1892 50.1125 65.9461L49.9535 65.7613L49.5349 66.1051V65.7788L49.9457 65.4429L50.3639 65.9558C50.5321 66.1726 50.5997 66.3496 50.6079 66.4994V66.5246C50.5997 66.6924 50.5156 66.8193 50.4232 66.9019C50.2389 67.0439 50.0123 67.0439 49.8111 66.8859C49.9282 67.1528 49.8947 67.3973 49.6851 67.5724C49.6351 67.6059 49.5937 67.6404 49.5349 67.6652V67.3628C49.6939 67.2204 49.7537 67.0366 49.5349 66.7089V66.3982ZM49.5349 66.3982V66.7089C49.5096 66.6754 49.4756 66.6335 49.4425 66.5912L49.2417 66.3404L48.5873 66.8693L48.7803 67.1027C49.1411 67.5481 49.3331 67.5306 49.5096 67.3803C49.5174 67.3803 49.5266 67.3711 49.5349 67.3628V67.6652C49.3331 67.7489 49.0492 67.7401 48.722 67.3293L48.2854 66.793L49.5349 65.7788V66.1051L49.392 66.2222L49.5349 66.3982Z" fill="black"/>
<path fill-rule="evenodd" clip-rule="evenodd" d="M49.7358 68.4781L49.5598 68.3021L51.1103 66.8183L51.2863 66.9928L49.7358 68.4781Z" fill="black"/>
<path fill-rule="evenodd" clip-rule="evenodd" d="M52.4526 68.3352L51.9747 67.9074L50.6751 69.3659L50.4816 69.1987L51.7812 67.7396L51.3032 67.321L51.4296 67.1698L52.578 68.1927L52.4526 68.3352Z" fill="black"/>
<path fill-rule="evenodd" clip-rule="evenodd" d="M53.089 70.3466C52.7541 70.8167 52.335 70.6913 52.0505 70.4987C51.7734 70.3052 51.5143 69.9532 51.84 69.4841L52.6782 68.2681L52.8887 68.411L52.1342 69.4918C51.9489 69.7694 51.7817 70.0544 52.1755 70.3227C52.5698 70.5994 52.7793 70.3466 52.9724 70.0704L53.7187 68.9896L53.9277 69.1325L53.089 70.3466Z" fill="black"/>
<path fill-rule="evenodd" clip-rule="evenodd" d="M54.4383 70.507C54.7154 70.5916 54.8413 70.4822 54.9162 70.3397C55.0504 70.0791 54.9245 69.8949 54.623 69.7354L54.4383 69.6353V69.417L54.6478 69.5263C55.0767 69.7519 55.2021 69.9873 55.2099 70.189V70.2148C55.2021 70.3057 55.1768 70.3981 55.1345 70.4647C55.0173 70.6917 54.7572 70.7924 54.4806 70.7336L54.4383 71.4711V70.507ZM53.9103 70.2561L54.2044 70.4151C54.2968 70.4564 54.3717 70.4895 54.4383 70.507V71.4711L54.4222 71.8323L54.1704 71.7059L54.238 70.6494L53.8184 70.4239L53.3653 71.2776L53.147 71.1614L54.1451 69.2667L54.4383 69.417V69.6353L54.2793 69.5502L53.9103 70.2561Z" fill="black"/>
<path fill-rule="evenodd" clip-rule="evenodd" d="M57.4482 72.25C57.2644 72.7955 56.8195 72.7955 56.5011 72.6953C56.1826 72.5864 55.8214 72.3171 56.0062 71.7735L56.4675 70.3723L56.7029 70.4569L56.2915 71.7069C56.1909 72.0239 56.1151 72.3351 56.5687 72.4853C57.0208 72.6355 57.1555 72.3351 57.2561 72.0239L57.6665 70.7754L57.9096 70.8507L57.4482 72.25Z" fill="black"/>
<path fill-rule="evenodd" clip-rule="evenodd" d="M59.5363 71.4288L58.9154 71.2859L58.4711 73.1898L58.228 73.131L58.6641 71.2368L58.0432 71.0841L58.086 70.9013L59.5781 71.245L59.5363 71.4288Z" fill="black"/>
<path fill-rule="evenodd" clip-rule="evenodd" d="M67.8527 72.9044L68.1789 72.8869L67.8527 71.9573V71.6296H67.9694L68.758 73.7348L68.4979 73.7509L68.246 73.0809L67.8527 73.0969V72.9044ZM67.7939 71.7804H67.7851L67.525 72.9205L67.8527 72.9044V73.0969L67.4754 73.114L67.2989 73.8102L67.0393 73.8184L67.6096 71.6467L67.8527 71.6296V71.9573L67.7939 71.7804Z" fill="black"/>
<path fill-rule="evenodd" clip-rule="evenodd" d="M70.1485 73.5077H70.2083C70.535 73.4825 70.8034 73.1893 70.7611 72.5358C70.7198 71.9232 70.4514 71.6563 70.1485 71.6476V71.4619C70.6104 71.4711 70.9711 71.8479 71.0125 72.5193C71.0382 72.9379 70.9288 73.5418 70.3337 73.6677C70.3926 73.9278 70.5934 73.9278 70.7441 73.9186L70.9123 73.9098L70.9288 74.1038L70.7611 74.1116C70.4927 74.1286 70.2671 74.1116 70.1485 73.8607V73.5077ZM69.5374 72.6117C69.5714 73.2228 69.8398 73.4917 70.1485 73.5077V73.8607C70.1242 73.8102 70.1077 73.7508 70.0907 73.6847C69.4951 73.6342 69.3113 73.0463 69.2855 72.6273V72.4094C69.3113 71.8406 69.6375 71.4871 70.0736 71.4619H70.1485V71.6476H70.0907C69.7557 71.6641 69.4951 71.9651 69.5374 72.6117Z" fill="black"/>
<path fill-rule="evenodd" clip-rule="evenodd" d="M73.3437 72.8125C73.3602 73.3901 72.9494 73.5501 72.6144 73.5583C72.2707 73.5656 71.8516 73.4412 71.8258 72.8714L71.7753 71.3948L72.0281 71.3865L72.0772 72.7027C72.0859 73.0386 72.1278 73.3571 72.6052 73.3401C73.0836 73.324 73.1001 72.9963 73.0836 72.6696L73.0413 71.3535L73.2936 71.3447L73.3437 72.8125Z" fill="black"/>
<path fill-rule="evenodd" clip-rule="evenodd" d="M74.1819 73.4971L74.2062 71.3535L74.4575 71.3564L74.4332 73.4995L74.1819 73.4971Z" fill="black"/>
<path fill-rule="evenodd" clip-rule="evenodd" d="M75.5403 73.34L76.554 73.3989L76.5457 73.5924L75.2802 73.5248L75.3881 71.3787L75.6404 71.3953L75.5403 73.34Z" fill="black"/>
<path fill-rule="evenodd" clip-rule="evenodd" d="M78.0724 71.6807L78.0131 71.8479V71.5382L78.2649 71.5548L78.8177 73.7348L78.5591 73.7178L78.3831 73.0216L78.0131 72.9973V72.8038L78.3408 72.8295L78.0724 71.6807ZM78.0131 71.8479L77.6868 72.7872L78.0131 72.8038V72.9973L77.611 72.9715L77.3587 73.6425L77.1078 73.6254L77.9129 71.5295L78.0131 71.5382V71.8479Z" fill="black"/>
<path fill-rule="evenodd" clip-rule="evenodd" d="M80.8471 71.8732L79.7979 71.8319L79.7731 72.5617L80.5199 72.5947L80.5116 72.7873L79.7649 72.7542L79.7318 73.5924L80.8471 73.6347L80.8379 73.8267L79.4717 73.7679L79.5558 71.6296L80.8554 71.6807L80.8471 71.8732Z" fill="black"/>
<path fill-rule="evenodd" clip-rule="evenodd" d="M90.2028 72.2933C90.3365 72.7877 90.0512 72.9798 89.8003 73.0464C89.5825 73.1062 89.3476 73.0464 89.2295 72.8714L89.423 72.7114C89.4736 72.8208 89.6077 72.8786 89.7419 72.8456C89.9345 72.795 90.0259 72.603 89.9597 72.3599L89.5484 70.8508L89.792 70.7841L90.2028 72.2933Z" fill="black"/>
<path fill-rule="evenodd" clip-rule="evenodd" d="M92.2895 71.4546C92.4908 71.9909 92.147 72.2767 91.8378 72.3929C91.5194 72.5101 91.075 72.5369 90.8732 71.9991L90.3447 70.6247L90.5791 70.5328L91.0487 71.757C91.1664 72.0662 91.3084 72.3681 91.7625 72.1917C92.2054 72.0244 92.1135 71.7069 91.9963 71.3953L91.5267 70.1725L91.7625 70.0792L92.2895 71.4546Z" fill="black"/>
<path fill-rule="evenodd" clip-rule="evenodd" d="M93.8911 71.404L93.6898 71.5129L92.0723 69.9372L92.2979 69.8186L93.5979 71.1021H93.6062L93.2873 69.2915L93.4973 69.1739L93.8911 71.404Z" fill="black"/>
<path fill-rule="evenodd" clip-rule="evenodd" d="M94.9563 68.394L94.1001 68.9979L94.5289 69.594L95.1323 69.1583L95.2499 69.3178L94.6368 69.7525L95.1245 70.4312L96.0293 69.7865L96.146 69.9372L95.0321 70.7346L93.7821 68.9896L94.8386 68.236L94.9563 68.394Z" fill="black"/>
<path fill-rule="evenodd" clip-rule="evenodd" d="M96.9254 69.275L96.7513 69.451L95.267 67.8996L95.5504 67.6234L97.412 68.1859L96.2476 66.9602L96.4231 66.7857L97.9075 68.3357L97.7305 68.5117L95.5844 67.8665L96.9254 69.275Z" fill="black"/>
<path fill-rule="evenodd" clip-rule="evenodd" d="M97.7893 65.4166L97.3877 65.9213L98.9124 67.1367L98.7622 67.338L97.2278 66.122L96.8335 66.6243L96.6827 66.4993L97.6381 65.3014L97.7893 65.4166Z" fill="black"/>
<path fill-rule="evenodd" clip-rule="evenodd" d="M99.91 64.4544C100.404 64.7559 100.304 65.1828 100.129 65.4759C99.9436 65.7613 99.6086 66.0477 99.1141 65.7443L97.8651 64.9737L97.9983 64.7559L99.1141 65.4424C99.399 65.6189 99.6927 65.7706 99.9436 65.3592C100.196 64.9567 99.9285 64.7559 99.6514 64.5882L98.5268 63.8929L98.661 63.6833L99.91 64.4544Z" fill="black"/>
<path fill-rule="evenodd" clip-rule="evenodd" d="M99.9772 62.3167C99.7254 62.2821 99.4998 62.2992 99.3661 62.5768C99.2737 62.7688 99.3316 63.0197 99.5163 63.1121C100.003 63.3396 100.314 62.1985 100.992 62.5257C101.327 62.6852 101.402 63.063 101.235 63.4227C101.05 63.8083 100.707 63.9843 100.337 63.8992L100.389 63.6576C100.648 63.7159 100.933 63.6153 101.067 63.3479C101.168 63.1213 101.109 62.8612 100.9 62.7606C100.364 62.5082 100.087 63.6658 99.4414 63.3552C99.123 63.2044 99.0467 62.8281 99.2061 62.4834C99.3661 62.1397 99.7006 62.0308 100.02 62.0814L99.9772 62.3167Z" fill="black"/>
<path fill-rule="evenodd" clip-rule="evenodd" d="M100.798 58.9041L100.606 59.5162L102.466 60.103L102.392 60.3383L100.53 59.75L100.337 60.3631L100.153 60.3043L100.615 58.8448L100.798 58.9041Z" fill="black"/>
<path fill-rule="evenodd" clip-rule="evenodd" d="M102.534 57.2272C103.096 57.3609 103.138 57.8063 103.055 58.133C102.978 58.4597 102.744 58.8282 102.182 58.7023L100.749 58.3591L100.808 58.1155L102.091 58.4266C102.418 58.5015 102.735 58.5516 102.845 58.0824C102.962 57.622 102.653 57.5126 102.325 57.4368L101.05 57.1266L101.109 56.8835L102.534 57.2272Z" fill="black"/>
<path fill-rule="evenodd" clip-rule="evenodd" d="M102.081 55.8951L102.551 56.1211L102.66 55.4755L102.081 55.5421V55.3078L103.616 55.0987L103.573 55.3583L102.861 55.4507L102.727 56.213L103.364 56.5398L103.322 56.7916L102.081 56.1459V55.8951ZM101.495 55.6092L102.081 55.8951V56.1459L101.327 55.7516L101.386 55.4001L102.081 55.3078V55.5421L101.495 55.6092Z" fill="black"/>
<path d="M52.8533 82.8971C61.1953 91.384 69.5967 92.4959 73.7215 99.3691C78.0082 92.3617 84.9782 91.9791 94.4614 82.4955C89.0793 79.6892 86.0834 74.7466 85.9171 74.4412C85.5738 74.2604 85.0755 74.079 84.7522 74.0027C84.7522 74.3479 85.2777 75.0942 85.7751 75.5541C85.0969 76.422 86.2555 77.0001 85.1299 77.8592C85.321 76.9874 84.4624 75.9854 84.1075 76.2406C83.491 75.2352 83.3583 73.4125 82.8745 73.6838C82.4846 75.5707 81.589 75.2955 80.8461 76.1823C80.5991 76.4298 79.7089 77.461 79.2534 77.9185C78.8586 76.5708 78.5353 75.5925 78.1842 74.608C74.7119 74.1019 71.7748 74.1879 68.9977 74.6163C68.7867 75.1506 68.1289 77.0093 67.8945 78.0439C67.0826 77.653 66.0645 76.1779 65.7251 75.6105C64.7362 75.0388 64.5904 74.5239 64.391 73.6838C63.8951 73.4212 63.7935 75.2352 63.159 76.2406C62.897 76.0068 61.9601 76.8469 62.1356 77.8592C61.0106 77.0078 62.1779 76.3734 61.4987 75.5541C61.8356 75.2172 62.4735 74.4976 62.5212 74.0061C62.2144 74.0727 61.6762 74.2643 61.3626 74.4393C61.2843 74.4588 61.2459 74.4753 61.2094 74.5113C61.0125 74.6785 60.8073 75.243 60.5428 75.3344C59.9584 76.4385 56.6524 81.0991 52.8533 82.8971Z" fill="#9C9650" stroke="black" stroke-width="0.00351356"/>
<path d="M70.6467 70.8571C70.6467 70.8571 72.4709 67.0444 73.6601 67.0444C74.8498 67.0444 76.5802 70.8372 76.5802 70.8372C74.7516 70.667 72.3533 70.6928 70.6467 70.8571Z" fill="#9C9650" stroke="black" stroke-width="0.00351356"/>
<path d="M69.1674 94.5325C69.9973 95.1194 71.1457 96.118 71.7412 96.7705C74.0798 90.3742 87.4325 88.7406 88.7652 78.1115C86.15 84.624 71.3557 88.1615 69.1674 94.5325Z" fill="white" stroke="black" stroke-width="0.0017729"/>
<path fill-rule="evenodd" clip-rule="evenodd" d="M71.414 93.3414C71.2044 93.266 71.0027 93.233 70.8524 93.442C70.7513 93.585 70.7596 93.8028 70.9117 93.9112C71.2963 94.1966 71.7164 93.3166 72.2599 93.7104C72.5293 93.9112 72.5458 94.2389 72.3441 94.5068C72.1345 94.7932 71.8156 94.8671 71.5059 94.7251L71.5905 94.5403C71.8 94.6327 72.0684 94.6074 72.2104 94.4066C72.3363 94.2467 72.3193 94.0123 72.152 93.8952C71.7237 93.5767 71.3299 94.481 70.8101 94.0955C70.5597 93.9112 70.5417 93.585 70.7265 93.3336C70.9117 93.0827 71.2117 93.0477 71.4811 93.1566L71.414 93.3414Z" fill="black"/>
<path fill-rule="evenodd" clip-rule="evenodd" d="M72.9309 91.892C72.7384 91.7656 72.5118 91.6655 72.3106 91.8493C72.1088 92.034 72.1015 92.3782 72.5036 92.8056C72.8979 93.2334 73.2324 93.2577 73.4346 93.074C73.6189 92.898 73.5601 92.6476 73.4424 92.4531L73.6106 92.3529C73.7857 92.6296 73.8032 92.9558 73.5518 93.1994C73.2494 93.4765 72.7719 93.4094 72.3441 92.9476C71.9172 92.4794 71.8924 92.0009 72.1934 91.7243C72.454 91.4895 72.7719 91.5391 73.0403 91.7326L72.9309 91.892Z" fill="black"/>
<path fill-rule="evenodd" clip-rule="evenodd" d="M73.2411 90.9012L73.4234 90.765L74.566 92.2936L74.3841 92.4298L73.2411 90.9012Z" fill="black"/>
<path fill-rule="evenodd" clip-rule="evenodd" d="M74.9179 89.905L74.2051 90.3912L74.5742 90.9357L75.0856 90.5842L75.1863 90.7277L74.6748 91.0782L75.0939 91.6913L75.8567 91.1701L75.9574 91.314L75.0278 91.9499L73.9368 90.3654L74.8173 89.7621L74.9179 89.905Z" fill="black"/>
<path fill-rule="evenodd" clip-rule="evenodd" d="M76.5778 90.9104L76.4013 91.0203L75.3871 89.3925L75.6647 89.2185L77.1306 90.0892L77.1393 90.0805L76.3347 88.7984L76.5116 88.689L77.5346 90.3158L77.3576 90.4242L75.6555 89.4266V89.4358L76.5778 90.9104Z" fill="black"/>
<path fill-rule="evenodd" clip-rule="evenodd" d="M78.087 87.934L77.6339 88.2116L78.5484 89.6944L78.3729 89.8038L77.4584 88.319L77.0052 88.5879L76.9138 88.4459L78.0034 87.7837L78.087 87.934Z" fill="black"/>
<path fill-rule="evenodd" clip-rule="evenodd" d="M79.5631 89.0741L79.3784 89.184L78.3724 87.5572L78.5489 87.4483L79.5631 89.0741Z" fill="black"/>
<path fill-rule="evenodd" clip-rule="evenodd" d="M79.9068 87.9272L80.3006 87.6739L79.9068 87.3223V87.072L81.096 88.0852L80.9215 88.2028L80.4348 87.792L79.9068 88.1275V87.9272ZM79.9068 88.8568L80.0911 88.7469L79.9068 88.1776V88.8568ZM79.5208 86.9791L79.848 87.968L79.9068 87.9272V88.1275L79.8981 88.1357L79.9068 88.1776V88.8568L79.3278 86.9446L79.5801 86.7861L79.9068 87.072V87.3223L79.5208 86.9791Z" fill="black"/>
<path fill-rule="evenodd" clip-rule="evenodd" d="M81.2978 85.8059L80.5938 86.3077L80.9794 86.8444L81.4738 86.4847L81.5749 86.6261L81.08 86.9884L81.5156 87.5912L82.2614 87.0545L82.3631 87.1969L81.4393 87.8509L80.3254 86.2926L81.1977 85.6708L81.2978 85.8059Z" fill="black"/>
<path d="M62.5289 90.3751C63.636 91.0368 64.9351 91.8084 65.9828 92.4293C66.8546 87.9184 78.44 82.9486 79.2529 77.918C78.5571 79.5613 66.679 82.2849 62.5289 90.3751Z" fill="white" stroke="black" stroke-width="0.0017729"/>
<path fill-rule="evenodd" clip-rule="evenodd" d="M65.9405 90.5847L66.4019 89.8807L66.5438 89.9813L65.9658 90.8535L64.3647 89.7976L64.4814 89.6216L65.9405 90.5847Z" fill="black"/>
<path fill-rule="evenodd" clip-rule="evenodd" d="M65.4213 88.3555L65.5375 88.2179L67.0058 89.4524L66.8896 89.59L65.4213 88.3555Z" fill="black"/>
<path fill-rule="evenodd" clip-rule="evenodd" d="M66.9805 86.9801L66.6032 87.3486L67.8279 88.5976L67.685 88.7401L66.452 87.5008L66.0752 87.8693L65.9575 87.7517L66.8638 86.8546L66.9805 86.9801Z" fill="black"/>
<path fill-rule="evenodd" clip-rule="evenodd" d="M68.2718 85.8487L67.8687 86.1925L69.0176 87.5081L68.8586 87.651L67.7107 86.3262L67.3159 86.6786L67.1987 86.544L68.1541 85.7141L68.2718 85.8487Z" fill="black"/>
<path fill-rule="evenodd" clip-rule="evenodd" d="M69.4961 84.8433L68.8251 85.3878L69.236 85.8998L69.7144 85.505L69.8233 85.6392L69.3449 86.032L69.8136 86.612L70.5346 86.032L70.6445 86.1672L69.7635 86.8799L68.5577 85.3878L69.3867 84.7091L69.4961 84.8433Z" fill="black"/>
<path fill-rule="evenodd" clip-rule="evenodd" d="M70.5938 84.8768L70.8034 84.7169C71.1223 84.4572 71.0795 84.273 70.9624 84.13C70.8539 83.9958 70.7275 83.9613 70.5938 84.0133V83.8369C70.8617 83.7527 71.029 83.8864 71.1306 84.0133C71.2725 84.1889 71.2725 84.4227 71.1471 84.624L71.9936 85.0849L71.818 85.2274L70.9969 84.7757L70.6862 85.0178L71.2225 85.6985L71.0625 85.8322L70.5938 85.2371V84.8768ZM70.5851 84.8846L70.5938 84.8768V85.2371L69.8723 84.324L70.2331 84.0386C70.3673 83.9287 70.4927 83.8617 70.5938 83.8369V84.0133C70.5262 84.0386 70.4591 84.0804 70.393 84.13L70.1407 84.3318L70.5851 84.8846Z" fill="black"/>
<path fill-rule="evenodd" clip-rule="evenodd" d="M72.1191 83.9793V83.9885L72.5391 83.6516L72.1191 83.3424V83.1071L73.3778 83.9885L73.2096 84.1222L72.6899 83.7532L72.1867 84.1553L72.4385 84.7421L72.2708 84.8768L72.1191 84.5078V83.9793ZM71.7009 83.04H71.6917L72.1191 83.9793V84.5078L71.5074 83.0235L71.734 82.8387L72.1191 83.1071V83.3424L71.7009 83.04Z" fill="black"/>
<path fill-rule="evenodd" clip-rule="evenodd" d="M73.3937 81.6913L72.7393 82.2524L73.1584 82.7458L73.6285 82.353L73.7374 82.4872L73.2683 82.8805L73.7374 83.4503L74.4502 82.8645L74.5591 82.9894L73.7029 83.7187L72.4631 82.2524L73.2843 81.5649L73.3937 81.6913Z" fill="black"/>
<path d="M56.1813 85.8959C60.2473 79.4155 66.2692 80.1005 67.8707 78.0959C66.9139 83.3867 60.1209 85.1491 59.4587 88.3526C57.9335 87.2713 57.0195 86.6169 56.1813 85.8959Z" fill="white" stroke="black" stroke-width="0.0017729"/>
<path fill-rule="evenodd" clip-rule="evenodd" d="M59.5277 85.8409C59.8962 86.1001 59.8291 86.3762 59.7119 86.5532C59.603 86.7039 59.4183 86.7866 59.2423 86.736L59.2758 86.5279C59.3687 86.578 59.4859 86.544 59.5525 86.4526C59.6453 86.3086 59.586 86.1341 59.4022 86.0165L58.2451 85.2274L58.3618 85.0523L59.5277 85.8409Z" fill="black"/>
<path fill-rule="evenodd" clip-rule="evenodd" d="M60.8102 84.4149C61.1539 84.7927 60.9862 85.1189 60.7854 85.311C60.5758 85.505 60.2394 85.6474 59.8874 85.2702L58.9913 84.3051L59.1416 84.1621L59.9467 85.0266C60.148 85.2444 60.3658 85.4379 60.6512 85.1695C60.9439 84.9011 60.7596 84.6741 60.5588 84.4572L59.7619 83.5928L59.9131 83.4503L60.8102 84.4149Z" fill="black"/>
<path fill-rule="evenodd" clip-rule="evenodd" d="M61.6567 82.7804C61.4729 82.6462 61.2969 82.5621 61.0873 82.7133C60.9444 82.8139 60.8938 83.0322 61.0032 83.182C61.2881 83.5675 61.9503 82.8382 62.3529 83.3842C62.5537 83.6511 62.47 83.9696 62.2022 84.1723C61.9168 84.3814 61.59 84.3566 61.3392 84.13L61.4729 83.9788C61.6406 84.13 61.9007 84.1796 62.1015 84.0294C62.2688 83.9112 62.3193 83.6857 62.1934 83.5257C61.8832 83.0983 61.238 83.8441 60.852 83.3259C60.6677 83.0735 60.7509 82.7551 61.0032 82.5708C61.2551 82.3856 61.5482 82.4454 61.7753 82.6204L61.6567 82.7804Z" fill="black"/>
<path fill-rule="evenodd" clip-rule="evenodd" d="M73.636 26.6785C74.6249 26.6867 75.6065 26.7952 76.5526 26.9887C76.6212 26.518 77.6096 24.6997 78.8921 24.0205C76.9386 24.1041 76.1846 24.9846 76.1846 24.9846L75.7489 23.1483L74.5072 24.9506L73.6272 22.822H73.636L72.7637 24.9598L71.5312 23.157L71.0873 24.9846C71.0873 24.9846 70.3333 24.1041 68.3793 24.0205C69.6623 24.6997 70.6512 26.518 70.7183 26.9887C71.6659 26.7952 72.6466 26.6945 73.6272 26.6785" fill="black"/>
<path d="M73.636 26.6785C74.6249 26.6867 75.6065 26.7952 76.5526 26.9887C76.6212 26.518 77.6096 24.6997 78.8921 24.0205C76.9386 24.1041 76.1846 24.9846 76.1846 24.9846L75.7489 23.1483L74.5072 24.9506L73.6272 22.822H73.636L72.7637 24.9598L71.5312 23.157L71.0873 24.9846C71.0873 24.9846 70.3333 24.1041 68.3793 24.0205C69.6623 24.6997 70.6512 26.518 70.7183 26.9887C71.6659 26.7952 72.6466 26.6945 73.6272 26.6785" stroke="black" stroke-width="0.00161172" stroke-linecap="round" stroke-linejoin="round"/>
<path fill-rule="evenodd" clip-rule="evenodd" d="M73.6359 58.7281C74.0297 58.4179 74.3234 58.0664 74.5655 57.6546C73.5688 59.1812 74.7089 61.285 73.8119 62.5009C74.1975 62.7017 75.0702 62.7693 75.5223 62.3658C74.5743 64.3791 75.7902 64.5551 74.7751 66.2903C75.254 66.5334 75.8661 66.1731 75.8661 66.1731C75.8661 66.1731 76.0158 68.2015 75.6065 68.8471C77.5084 68.8977 78.2547 67.0371 78.3646 66.7935C78.8163 67.5894 77.3246 70.8347 77.3246 70.8347C77.3246 70.8347 79.1085 70.7851 79.9729 67.8928C80.5121 68.7893 82.0188 71.7069 82.2629 73.2569C82.4053 73.516 80.7114 75.3528 80.1757 75.5707C79.2276 76.0077 79.7639 77.1712 79.7639 77.1712C79.7639 77.1712 80.217 75.9654 80.8451 76.1823C81.5744 75.3276 82.5133 75.5454 82.8828 73.6852C83.3777 73.4236 83.5109 75.3105 84.1153 76.2406C84.3666 76.0077 85.322 76.8454 85.1382 77.8592C86.2623 77.0044 85.0959 76.4006 85.7751 75.5536C84.7351 74.5137 84.7522 74.0032 84.7522 74.0032C84.7522 74.0032 85.4066 74.1631 85.9088 74.4393C86.3123 74.4714 86.4465 75.613 87.0582 75.3105C88.0548 75.6212 88.0796 76.6179 88.0796 76.6179C88.0796 76.6179 88.7934 75.2182 87.8458 75.1768C88.7754 73.7183 85.355 73.7353 86.5467 73.7518C86.1266 73.2899 85.5651 73.324 84.9457 73.1314C84.3243 72.9384 83.8299 72.9793 83.1507 71.4463C82.4724 69.9114 81.6323 67.7148 81.6323 67.7148L81.5934 66.9695C81.5934 66.9695 82.9751 69.1248 86.1266 68.3279C84.7351 67.8748 84.2417 66.7264 84.2417 66.7264C84.2417 66.7264 85.1382 66.8188 85.5228 66.3574C83.2853 64.295 83.6461 63.7242 83.6461 63.7242C83.6461 63.7242 84.3418 63.6235 84.8193 63.1874C83.3364 62.8942 82.295 60.7399 82.295 60.7399C82.295 60.7399 83.0247 60.8581 83.5362 60.6981C81.7091 59.5167 80.9803 57.5126 80.9803 57.5126C80.9803 57.5126 87.803 60.9582 93.0101 57.286C84.5514 58.7786 82.8244 56.3642 82.8244 56.3642C82.8244 56.3642 83.0242 56.2383 83.1497 56.1124C85.2379 57.1358 87.9795 57.3113 89.723 56.917C90.7294 56.6914 85.7333 57.3006 83.4113 55.8333C83.5381 55.6734 83.6787 55.4667 83.7205 55.3656C84.8523 56.6652 94.3092 56.7916 96.8408 53.5803C92.1709 55.9024 85.1999 54.7491 85.1071 54.3305C85.2913 54.1715 85.2447 54.2226 85.4625 54.0048C86.9633 54.7335 91.0896 54.4443 92.2638 54.0923C93.1433 53.8322 87.6766 54.6344 85.7143 53.7291C85.8398 53.5871 85.921 53.4534 86.0129 53.328C91.5126 54.3339 100.622 51.0988 100.622 48.9445C95.1979 52.1553 88.1424 52.8068 86.5 52.2195C86.5914 51.7299 86.5948 51.6628 86.6094 51.4795C87.557 51.5884 92.4062 51.7615 95.2646 50.2864C96.9332 49.6908 91.923 51.7697 86.7431 51.284C86.8763 51.0405 87.0173 50.8815 87.1515 50.5708C90.1352 51.3759 102.474 48.5507 102.601 43.8565C96.7401 49.3475 87.0693 49.1871 87.0693 49.1871C87.0693 49.1871 87.2196 48.8978 87.3708 48.5789C89.651 48.3523 96.5894 47.2764 97.8467 45.968C97.8214 45.7425 95.6958 47.4028 87.4632 48.2993C87.5541 48.1039 87.645 47.6614 87.645 47.6614C87.645 47.6614 103.153 45.5329 102.86 40.1255C98.9795 45.1221 87.7199 45.9928 87.7199 45.9928C87.7199 45.9928 87.662 45.6175 87.6265 45.4634C90.5432 45.0448 95.3987 44.2338 98.3169 42.4728C98.7437 41.9949 94.035 44.5858 87.6883 45.1221C87.7296 44.7793 87.734 44.6242 87.7272 44.4521C87.7242 44.6096 102.474 42.7665 103.498 35.8417C99.9597 41.1397 87.4933 43.0597 87.4933 43.0597C87.4933 43.0597 87.3333 42.6367 87.24 42.4223C87.382 42.3911 95.0886 41.6006 98.8283 38.7588C93.3704 41.4581 87.1053 42.1184 87.064 42.0508C86.9964 41.9409 86.9702 41.8889 86.8977 41.7683C86.6648 41.0391 102.408 39.9412 103.372 31.4572C99.0208 37.7033 90.0001 37.8876 89.4886 37.8283C82.6392 36.8306 84.1823 40.9389 84.0482 41.2486C84.1823 46.2792 81.0824 46.1095 80.0502 44.7778C80.1917 44.7618 80.2082 44.7866 80.5938 44.6694C79.3117 43.3781 78.2046 41.0391 78.2046 41.0391C78.2046 41.0391 78.6826 41.0974 78.8921 41.1397C77.7384 39.7302 77.2741 37.3255 77.2741 37.3255C77.2741 37.3255 77.6854 37.5511 78.2221 37.6362C75.8325 33.0412 75.5549 30.9623 75.5219 30.2418C75.5549 29.6622 76.1845 29.8975 77.1068 28.6067C75.9069 29.0593 73.8411 28.8877 73.6281 28.8819C73.6281 28.8819 72.1623 28.773 71.5404 28.6227C70.8778 28.4725 70.1568 28.7832 70.2574 29.2524C70.3498 29.3778 70.1232 29.6044 70.1232 29.6044C70.1232 29.6044 68.9068 29.1595 67.5498 29.5538C67.2309 29.7804 67.5498 30.4766 67.1886 31.0542C67.2309 30.7445 68.0943 30.1737 68.4546 30.6521C68.8567 31.2219 70.3075 30.9205 70.4835 31.6668C70.4412 32.2784 71.2045 33.595 69.0414 37.644C69.5782 37.5604 69.989 37.3255 69.989 37.3255C69.989 37.3255 69.533 39.7302 68.3792 41.1397C68.5893 41.0974 69.0677 41.0391 69.0677 41.0391C69.0677 41.0391 67.9602 43.3781 66.6776 44.6694C67.0631 44.7866 67.0801 44.7618 67.2221 44.7778C66.189 46.1095 63.0895 46.2792 63.2242 41.2486C63.0895 40.9389 64.6317 36.8306 57.7823 37.8283C57.2718 37.8876 48.251 37.7033 43.9001 31.4572C44.8637 39.9412 60.608 41.0391 60.3737 41.7683C60.3017 41.8889 60.275 41.9409 60.2079 42.0508C60.1665 42.1184 53.9015 41.4581 48.4435 38.7588C52.1828 41.6006 59.8884 42.3911 60.0319 42.4223C59.9385 42.6367 59.779 43.0597 59.779 43.0597C59.779 43.0597 47.3117 41.1397 43.7742 35.8417C44.7966 42.7665 59.5476 44.6096 59.5442 44.4521C59.5379 44.6242 59.5413 44.7793 59.5831 45.1221C53.2369 44.5858 48.5276 41.9949 48.955 42.4728C51.8731 44.2338 56.7272 45.0448 59.6453 45.4634C59.6098 45.6175 59.5515 45.9928 59.5515 45.9928C59.5515 45.9928 48.2923 45.1221 44.4116 40.1255C44.1179 45.5329 59.6264 47.6614 59.6264 47.6614C59.6264 47.6614 59.7178 48.1039 59.8082 48.2993C51.5756 47.4028 49.4504 45.7425 49.4247 45.968C50.6824 47.2764 57.6204 48.3523 59.9006 48.5789C60.0513 48.8978 60.202 49.1871 60.202 49.1871C60.202 49.1871 50.5307 49.3475 44.6712 43.8565C44.7966 48.5507 57.1361 51.3759 60.1203 50.5708C60.255 50.8815 60.395 51.0405 60.5287 51.284C55.3484 51.7697 50.3382 49.6908 52.0068 50.2864C54.8651 51.7615 59.7139 51.5884 60.6615 51.4795C60.6765 51.6628 60.6809 51.7299 60.7718 52.2195C59.1285 52.8068 52.0739 52.1553 46.65 48.9445C46.65 51.0988 55.7592 54.3339 61.2585 53.328C61.3499 53.4534 61.4316 53.5871 61.5575 53.7291C59.5953 54.6344 54.1281 53.8322 55.0076 54.0923C56.1817 54.4443 60.308 54.7335 61.8089 54.0048C62.0262 54.2226 61.98 54.1715 62.1643 54.3305C62.0719 54.7491 55.1004 55.9024 50.4306 53.5803C52.9627 56.7916 62.4195 56.6652 63.5509 55.3656C63.5927 55.4667 63.7327 55.6734 63.8606 55.8333C61.5376 57.3006 56.5415 56.6914 57.5484 56.917C59.2919 57.3113 62.034 57.1358 64.1222 56.1124C64.2486 56.2383 64.4474 56.3642 64.4474 56.3642C64.4474 56.3642 62.7205 58.7786 54.2618 57.286C59.4679 60.9582 66.2915 57.5126 66.2915 57.5126C66.2915 57.5126 65.5623 59.5167 63.7352 60.6981C64.2466 60.8581 64.9764 60.7399 64.9764 60.7399C64.9764 60.7399 63.9355 62.8942 62.4526 63.1874C62.93 63.6235 63.6258 63.7242 63.6258 63.7242C63.6258 63.7242 63.986 64.295 61.7486 66.3574C62.1337 66.8188 63.0307 66.7264 63.0307 66.7264C63.0307 66.7264 62.5357 67.8748 61.1443 68.3279C64.2967 69.1248 65.678 66.9695 65.678 66.9695L65.6401 67.7148C65.6401 67.7148 64.7994 69.9114 64.1202 71.4463C63.442 72.9793 62.9466 72.9384 62.3257 73.1314C61.7058 73.324 61.1443 73.2899 60.7257 73.7518C61.9158 73.7353 58.4955 73.7183 59.4261 75.1768C58.4785 75.2182 59.1912 76.6179 59.1912 76.6179C59.1912 76.6179 59.2165 75.6212 60.2147 75.3105C60.8253 75.613 60.9595 74.4714 61.363 74.4393C61.8653 74.1631 62.5197 74.0032 62.5197 74.0032C62.5197 74.0032 62.5357 74.5137 61.4967 75.5536C62.176 76.4006 61.0106 77.0044 62.1337 77.8592C61.9494 76.8454 62.9052 76.0077 63.1566 76.2406C63.7604 75.3105 63.8941 73.4236 64.3886 73.6852C64.7581 75.5454 65.6965 75.3276 66.4262 76.1823C67.0544 75.9654 67.5075 77.1712 67.5075 77.1712C67.5075 77.1712 68.0443 76.0077 67.0967 75.5707C66.5599 75.3528 64.8665 73.516 65.009 73.2569C65.2521 71.7069 66.7593 68.7893 67.2994 67.8928C68.1624 70.7851 69.9472 70.8347 69.9472 70.8347C69.9472 70.8347 68.4546 67.5894 68.9068 66.7935C69.0166 67.0371 69.7625 68.8977 71.6659 68.8471C71.2546 68.2015 71.4063 66.1731 71.4063 66.1731C71.4063 66.1731 72.0184 66.5334 72.4958 66.2903C71.4816 64.5551 72.6971 64.3791 71.75 62.3658C72.2022 62.7693 73.0744 62.7017 73.4594 62.5009C72.5629 61.285 73.7025 59.1812 72.7054 57.6546C72.948 58.0664 73.2416 58.4179 73.6359 58.7281Z" fill="black" stroke="black" stroke-width="0.00161172"/>
<path d="M68.5804 30.7946C68.8741 30.2418 70.8952 31.323 72.135 31.1553M71.9342 55.7934C72.1943 56.6992 72.5127 57.3279 72.7058 57.6546L71.9342 55.7934ZM68.6558 65.0617C68.5722 65.6991 68.7905 66.4575 68.9072 66.7935L68.6558 65.0617ZM72.6382 30.2578C72.5035 31.0041 73.6358 31.1718 73.6358 31.1718L72.6382 30.2578ZM70.3915 29.353C71.0376 29.353 72.3285 29.0093 72.4034 29.864C72.4034 30.2077 72.0178 30.409 71.6245 30.1246C71.2297 29.8387 71.3887 29.353 70.3915 29.353Z" stroke="white" stroke-width="0.00161172" stroke-linecap="round" stroke-linejoin="round"/>
<path d="M67.9266 56.5733C67.1886 56.8504 64.5048 57.4796 63.4396 55.1493" stroke="white" stroke-width="0.00161172"/>
<path d="M69.9891 37.3251C70.3163 37.1578 71.4894 36.4358 72.0097 34.6335C72.6553 37.5929 73.636 37.3183 73.636 37.5511C73.636 39.934 70.4582 40.8708 69.0668 41.0386M66.7214 62.9399C65.9236 64.592 67.2227 66.3909 67.2227 66.3909C67.2227 66.3909 69.3774 65.0826 69.5369 62.9365L66.7214 62.9399ZM66.2916 57.5121C66.9625 56.2714 68.6486 57.0167 69.7717 56.5806L66.2916 57.5121ZM71.7496 62.3653C71.4506 62.1115 70.7436 61.177 70.6187 60.4886L71.7496 62.3653ZM71.4058 66.1731C70.6099 65.7953 69.2685 64.521 69.553 61.6034L71.4058 66.1731ZM63.0302 66.7259C65.2667 66.5625 66.3417 65.1006 66.5527 64.89L63.0302 66.7259ZM63.6258 63.7285C64.2063 63.8117 67.2158 63.96 68.1484 60.7477L63.6258 63.7285ZM64.9755 60.7399C65.8059 60.6471 67.5747 59.9859 68.3039 58.7786L64.9755 60.7399ZM68.2534 59.0047C68.6146 57.3196 69.6784 56.0871 70.853 56.5227C72.5625 57.1519 71.4729 60.6981 68.497 62.2826C68.0774 61.2008 68.0438 60.0189 68.2534 59.0047ZM68.0531 56.1036C66.4764 56.356 60.8589 55.3427 60.662 51.4795L68.0531 56.1036ZM60.2021 49.1866C59.0872 49.8653 61.6354 53.5487 64.1003 54.0179L60.2021 49.1866ZM59.6488 45.4794C58.5354 49.9412 64.3887 54.3431 67.8416 53.5215L59.6488 45.4794ZM68.0531 56.1036C65.6552 55.5168 64.1125 54.6781 63.9861 54.3013C63.7936 53.5186 67.3816 53.7339 67.8416 53.5215C66.2692 53.591 62.8231 51.903 63.0891 51.0988C63.2116 50.7293 66.2741 51.3968 66.9533 51.0896C66.2794 50.8815 63.3176 49.9558 63.232 48.8857C63.1873 48.3129 65.3309 48.7267 66.7321 48.2157C62.6282 49.2031 59.4626 45.072 60.3737 41.7679C56.7404 48.0946 66.1574 50.8718 66.9533 51.0896L68.0531 56.1036ZM66.7321 48.2157C66.2201 52.0138 69.0079 53.6484 67.9267 56.5733C69.5865 56.3219 69.2768 52.6663 69.2768 52.6663L66.7321 48.2157ZM67.5912 47.8642C67.5912 52.7095 69.2768 52.6663 69.2768 52.6663C69.2768 52.6663 70.6848 52.3313 71.0373 49.0539C71.0373 49.0539 71.6494 52.5496 73.636 53.0523C73.3093 54.4861 71.9849 56.0117 70.853 56.5227C69.5782 55.5256 69.2768 52.6663 69.2768 52.6663L67.5912 47.8642ZM69.1674 44.4516C69.1694 44.616 69.3599 47.9512 66.1997 48.3129C66.0996 46.8456 67.2227 44.7774 67.2227 44.7774C67.5416 44.8114 71.3805 44.9879 71.3888 40.3769L69.1674 44.4516ZM69.1674 44.4516C69.1762 47.5696 71.0961 49.0539 71.0961 49.0539C71.0961 49.0539 73.636 47.6867 73.636 44.5683C73.4434 44.4929 71.3888 44.6689 71.3888 40.3769L69.1674 44.4516Z" stroke="white" stroke-width="0.00161172" stroke-linecap="round" stroke-linejoin="round"/>
<path d="M66.5522 64.8896C65.4281 66.0968 65.538 68.1855 65.856 69.1491C66.9878 68.5039 68.497 66.7366 68.6564 65.0753" stroke="white" stroke-width="0.00161172"/>
<path d="M78.6155 65.0617C78.6996 65.6991 78.4818 66.4575 78.3646 66.793M75.3381 55.7944C75.0775 56.6987 74.7586 57.3278 74.5656 57.6546L75.3381 55.7944Z" stroke="white" stroke-width="0.00161172" stroke-linecap="round" stroke-linejoin="round"/>
<path d="M79.3447 56.5733C80.0828 56.8504 82.7665 57.4796 83.8313 55.1493" stroke="white" stroke-width="0.00161172"/>
<path d="M77.2823 37.3251C76.9551 37.1578 75.7824 36.4358 75.2627 34.6335C74.616 37.5929 73.6359 37.3183 73.6359 37.5511C73.6359 39.934 76.8131 40.8708 78.2046 41.0386M80.5505 62.9399C81.3483 64.592 80.0492 66.3909 80.0492 66.3909C80.0492 66.3909 77.8939 65.0826 77.7344 62.9365L80.5505 62.9399ZM80.9798 57.5121C80.3098 56.2714 78.6222 57.0167 77.4991 56.5806L80.9798 57.5121ZM75.5218 62.3653C75.8213 62.1115 76.5277 61.177 76.6532 60.4886L75.5218 62.3653ZM75.8655 66.1731C76.6619 65.7953 78.0028 64.521 77.7184 61.6034L75.8655 66.1731ZM84.2406 66.7259C82.0046 66.5625 80.9292 65.1006 80.7192 64.89L84.2406 66.7259ZM83.646 63.7285C83.065 63.8117 80.056 63.96 79.1225 60.7477L83.646 63.7285ZM82.2954 60.7399C81.4655 60.6471 79.6967 59.9859 78.9669 58.7786L82.2954 60.7399ZM79.0175 59.0047C78.6577 57.3196 77.5925 56.0871 76.4183 56.5227C74.7089 57.1519 75.7994 60.6981 78.7749 62.2826C79.1935 61.2008 79.2275 60.0189 79.0175 59.0047ZM79.2188 56.1036C80.7945 56.356 86.4129 55.3427 86.6093 51.4795L79.2188 56.1036ZM87.0693 49.1866C88.1846 49.8653 85.636 53.5487 83.171 54.0179L87.0693 49.1866ZM87.6216 45.4794C88.7364 49.9412 82.8827 54.3431 79.4303 53.5215L87.6216 45.4794ZM79.2188 56.1036C81.6167 55.5168 83.1593 54.6781 83.2848 54.3013C83.4783 53.5186 79.8902 53.7339 79.4303 53.5215C81.0021 53.591 84.4487 51.903 84.1823 51.0988C84.0607 50.7293 80.9977 51.3968 80.3185 51.0896C80.9919 50.8815 83.9543 49.9558 84.0393 48.8857C84.0846 48.3129 81.941 48.7267 80.5393 48.2157C84.6422 49.2031 87.8088 45.072 86.8981 41.7679C90.5319 48.0946 81.1149 50.8718 80.3185 51.0896L79.2188 56.1036ZM80.5393 48.2157C81.0512 52.0138 78.2639 53.6484 79.3447 56.5733C77.6853 56.3219 77.9955 52.6663 77.9955 52.6663L80.5393 48.2157ZM79.6802 47.8642C79.6802 52.7095 77.9955 52.6663 77.9955 52.6663C77.9955 52.6663 76.587 52.3313 76.2341 49.0539C76.2341 49.0539 75.6224 52.5496 73.6359 53.0523C73.9626 54.4861 75.2865 56.0117 76.4183 56.5227C77.6926 55.5256 77.9955 52.6663 77.9955 52.6663L79.6802 47.8642ZM78.1035 44.4516C78.1025 44.616 77.9119 47.9512 81.0716 48.3129C81.1723 46.8456 80.0492 44.7774 80.0492 44.7774C79.7303 44.8114 75.8903 44.9879 75.8825 40.3769L78.1035 44.4516ZM78.1035 44.4516C78.0962 47.5696 76.1757 49.0539 76.1757 49.0539C76.1757 49.0539 73.6359 47.6867 73.6359 44.5683C73.8279 44.4929 75.8825 44.6689 75.8825 40.3769L78.1035 44.4516Z" stroke="white" stroke-width="0.00161172" stroke-linecap="round" stroke-linejoin="round"/>
<path d="M80.7192 64.8896C81.8438 66.0968 81.7339 68.1855 81.415 69.1491C80.2841 68.5039 78.7749 66.7366 78.6155 65.0753" stroke="white" stroke-width="0.00161172"/>
<path fill-rule="evenodd" clip-rule="evenodd" d="M116.778 44.5208V44.7352C116.333 44.7658 116.046 44.8401 115.914 44.9586C115.782 45.077 115.716 45.3486 115.716 45.7738V49.4698C115.716 50.0757 115.799 50.5475 115.964 50.8869C116.273 51.5033 116.858 51.812 117.719 51.812C118.664 51.812 119.298 51.4958 119.621 50.8643C119.802 50.5104 119.892 49.9647 119.892 49.2268V46.2195C119.892 45.591 119.817 45.1975 119.666 45.0374C119.516 44.8772 119.23 44.7768 118.809 44.7352V44.5208H121.484V44.7352C121.036 44.7839 120.744 44.8923 120.607 45.06C120.469 45.2276 120.4 45.6136 120.4 46.2195V49.2268C120.4 50.025 120.278 50.6474 120.034 51.0952C119.582 51.9194 118.724 52.331 117.46 52.331C116.211 52.331 115.361 51.9244 114.909 51.1122C114.664 50.6755 114.542 50.1003 114.542 49.3855V45.7738C114.542 45.3521 114.478 45.0825 114.348 44.9641C114.218 44.8451 113.935 44.7693 113.499 44.7352V44.5208H116.778Z" fill="black"/>
<path fill-rule="evenodd" clip-rule="evenodd" d="M122.417 51.953C122.896 51.9039 123.202 51.7959 123.337 51.6293C123.472 51.4616 123.541 51.0736 123.541 50.4642V45.3727L123.383 45.1865C123.213 44.9872 123.069 44.8642 122.951 44.817C122.832 44.7703 122.654 44.7432 122.417 44.7357V44.5208H124.39L128.851 50.0506V46.21C128.851 45.578 128.757 45.1669 128.568 44.9761C128.444 44.8531 128.17 44.7728 127.744 44.7357V44.5208H130.459V44.7357C130.019 44.7804 129.725 44.8878 129.579 45.0569C129.432 45.2261 129.359 45.6136 129.359 46.2195V52.3029H129.161L124.049 45.9655V50.4642C124.049 51.0962 124.14 51.5073 124.325 51.699C124.446 51.8235 124.714 51.9079 125.131 51.953V52.1674H122.417V51.953Z" fill="black"/>
<path fill-rule="evenodd" clip-rule="evenodd" d="M131.421 51.9531C131.891 51.9194 132.196 51.8491 132.335 51.7427C132.475 51.6358 132.545 51.3602 132.545 50.9145V45.7738C132.545 45.3486 132.475 45.075 132.335 44.9525C132.196 44.8306 131.891 44.7578 131.421 44.7357V44.5208H134.841V44.7357C134.37 44.7578 134.066 44.8306 133.926 44.9525C133.788 45.075 133.718 45.3486 133.718 45.7738V50.9145C133.718 51.3602 133.788 51.6358 133.926 51.7427C134.066 51.8491 134.37 51.9194 134.841 51.9531V52.1674H131.421V51.9531Z" fill="black"/>
<path fill-rule="evenodd" clip-rule="evenodd" d="M138.947 44.5208V44.7181C138.658 44.7226 138.461 44.7412 138.355 44.7758C138.172 44.8366 138.079 44.9611 138.079 45.1483C138.079 45.2437 138.112 45.3777 138.178 45.5499C138.243 45.7221 138.366 46.0072 138.546 46.4057L140.355 50.4291L141.997 46.0739C142.069 45.8812 142.124 45.718 142.162 45.5845C142.199 45.4505 142.219 45.3416 142.219 45.2572C142.219 45.0318 142.123 44.8787 141.931 44.7989C141.818 44.7527 141.633 44.7261 141.373 44.7181V44.5208H143.737V44.7181C143.493 44.7522 143.313 44.8185 143.196 44.9159C143.019 45.0625 142.844 45.3581 142.671 45.8019L140.111 52.3029H139.938L137.081 45.9505C136.84 45.4118 136.648 45.0765 136.503 44.9445C136.358 44.8125 136.146 44.7372 135.868 44.7181V44.5208H138.947Z" fill="black"/>
<path fill-rule="evenodd" clip-rule="evenodd" d="M144.761 51.9531C145.187 51.9084 145.463 51.8326 145.588 51.7262C145.715 51.6192 145.777 51.3487 145.777 50.9145V45.7738C145.777 45.3637 145.715 45.0956 145.592 44.9696C145.467 44.8436 145.191 44.7658 144.761 44.7357V44.5208H150.902L150.941 46.1748H150.648C150.549 45.6648 150.403 45.3355 150.207 45.186C150.012 45.0364 149.575 44.9611 148.898 44.9611H147.325C147.155 44.9611 147.05 44.9882 147.01 45.0429C146.971 45.0971 146.952 45.2 146.952 45.3506V47.9297H148.735C149.228 47.9297 149.542 47.8565 149.677 47.7104C149.812 47.5648 149.921 47.2686 150.005 46.8234H150.275V49.4929H150.005C149.918 49.0446 149.806 48.7485 149.671 48.6034C149.536 48.4588 149.224 48.3865 148.735 48.3865H146.952V51.2478C146.952 51.4777 147.024 51.6127 147.169 51.6539C147.314 51.6955 147.748 51.7161 148.472 51.7161C149.255 51.7161 149.833 51.6308 150.207 51.4591C150.579 51.2879 150.914 50.8733 151.212 50.2147H151.534L151.009 52.1674H144.761V51.9531Z" fill="black"/>
<path fill-rule="evenodd" clip-rule="evenodd" d="M152.434 51.9531C152.878 51.9119 153.155 51.8256 153.264 51.695C153.373 51.564 153.428 51.2583 153.428 50.7794V45.7738C153.428 45.3677 153.366 45.1016 153.244 44.9751C153.122 44.8491 152.852 44.7693 152.434 44.7357V44.5208H155.634C156.299 44.5208 156.855 44.6057 157.299 44.7743C158.141 45.0941 158.562 45.6819 158.562 46.5383C158.562 47.113 158.376 47.5548 158.001 47.863C157.627 48.1707 157.118 48.3735 156.475 48.4714L158.856 51.4044C159.003 51.5831 159.15 51.7146 159.296 51.7964C159.443 51.8783 159.631 51.931 159.86 51.9531V52.1674H157.999L155.108 48.6069L154.601 48.6345V50.9125C154.601 51.3401 154.666 51.6112 154.795 51.7257C154.925 51.8396 155.209 51.9154 155.645 51.9531V52.1674H152.434V51.9531ZM156.385 47.9463C156.998 47.6948 157.304 47.2215 157.304 46.5267C157.304 45.8586 157.03 45.4023 156.481 45.1583C156.187 45.0268 155.797 44.9611 155.312 44.9611C154.985 44.9611 154.784 44.9847 154.711 45.0313C154.638 45.0785 154.601 45.1885 154.601 45.3611V48.2058C155.432 48.1762 156.027 48.0894 156.385 47.9463Z" fill="black"/>
<path fill-rule="evenodd" clip-rule="evenodd" d="M161.37 49.8427C161.566 50.3618 161.795 50.7754 162.058 51.0841C162.516 51.6222 163.086 51.8908 163.765 51.8908C164.133 51.8908 164.452 51.7743 164.721 51.5414C164.989 51.308 165.123 50.9827 165.123 50.5651C165.123 50.1886 164.989 49.8613 164.718 49.5827C164.541 49.406 164.17 49.1405 163.603 48.7876L162.617 48.1722C162.321 47.9839 162.084 47.7942 161.906 47.6019C161.58 47.237 161.416 46.8349 161.416 46.3947C161.416 45.8114 161.61 45.3265 161.997 44.939C162.384 44.5514 162.898 44.3577 163.537 44.3577C163.8 44.3577 164.118 44.4224 164.489 44.5519C164.859 44.6819 165.07 44.7467 165.123 44.7467C165.266 44.7467 165.365 44.7131 165.42 44.6448C165.474 44.577 165.516 44.4812 165.547 44.3577H165.784L166.037 46.8173H165.762C165.573 46.0769 165.271 45.5589 164.855 45.2657C164.439 44.9726 164.029 44.8255 163.622 44.8255C163.306 44.8255 163.031 44.9189 162.795 45.1051C162.561 45.2908 162.443 45.5504 162.443 45.8807C162.443 46.1783 162.533 46.4323 162.713 46.6426C162.893 46.8575 163.173 47.0814 163.553 47.3148L164.568 47.9407C165.203 48.3318 165.651 48.6917 165.912 49.0185C166.169 49.3498 166.297 49.7408 166.297 50.1921C166.297 50.798 166.068 51.3045 165.612 51.7106C165.154 52.1167 164.57 52.32 163.859 52.32C163.502 52.32 163.129 52.2522 162.739 52.1167C162.35 51.9811 162.127 51.9134 162.071 51.9134C161.935 51.9134 161.844 51.955 161.797 52.0378C161.749 52.1202 161.719 52.209 161.703 52.3029H161.45L161.105 49.8427H161.37Z" fill="black"/>
<path fill-rule="evenodd" clip-rule="evenodd" d="M167.84 51.9531C168.311 51.9194 168.615 51.8491 168.754 51.7427C168.894 51.6358 168.963 51.3602 168.963 50.9145V45.7738C168.963 45.3486 168.894 45.075 168.754 44.9525C168.615 44.8306 168.311 44.7578 167.84 44.7357V44.5208H171.26V44.7357C170.789 44.7578 170.485 44.8306 170.346 44.9525C170.207 45.075 170.137 45.3486 170.137 45.7738V50.9145C170.137 51.3602 170.207 51.6358 170.346 51.7427C170.485 51.8491 170.789 51.9194 171.26 51.9531V52.1674H167.84V51.9531Z" fill="black"/>
<path fill-rule="evenodd" clip-rule="evenodd" d="M172.329 44.5208H178.865L178.927 46.4846H178.65C178.514 45.8676 178.342 45.4661 178.134 45.2798C177.924 45.0936 177.486 45.0002 176.816 45.0002H176.173V50.9145C176.173 51.3602 176.242 51.6358 176.381 51.7422C176.52 51.8491 176.825 51.9194 177.296 51.9531V52.1674H173.927V51.9531C174.416 51.9154 174.72 51.8351 174.841 51.7111C174.961 51.5881 175.022 51.2774 175.022 50.7794V45.0002H174.373C173.733 45.0002 173.297 45.0926 173.066 45.2768C172.834 45.461 172.661 45.8641 172.544 46.4846H172.262L172.329 44.5208Z" fill="black"/>
<path fill-rule="evenodd" clip-rule="evenodd" d="M179.946 52.1674V51.9531C180.243 51.9194 180.466 51.8075 180.615 51.6177C180.763 51.4275 181.018 50.9074 181.379 50.0571L183.786 44.3853H184.017L186.897 50.9371C187.088 51.3713 187.241 51.6398 187.356 51.7422C187.471 51.8456 187.664 51.9154 187.935 51.9531V52.1674H184.996V51.9531C185.333 51.9229 185.551 51.8868 185.649 51.8436C185.747 51.8005 185.795 51.6945 185.795 51.5259C185.795 51.4702 185.776 51.3708 185.739 51.2282C185.701 51.0862 185.649 50.9361 185.581 50.7794L185.118 49.6671H182.073C181.772 50.4235 181.593 50.8854 181.535 51.0515C181.477 51.2177 181.447 51.3502 181.447 51.4476C181.447 51.6423 181.527 51.7764 181.684 51.8517C181.782 51.8968 181.966 51.9305 182.236 51.9531V52.1674H179.946ZM184.815 43.8211H184.347L182.569 42.6977C182.445 42.6189 182.355 42.5421 182.301 42.4668C182.246 42.3915 182.219 42.3051 182.219 42.2073C182.219 42.0983 182.258 42.0085 182.338 41.9387C182.417 41.8694 182.507 41.8343 182.609 41.8343C182.706 41.8343 182.797 41.8619 182.879 41.9166C182.962 41.9708 183.041 42.0361 183.116 42.1114L184.815 43.8211ZM184.923 49.1992L183.599 46.0162L182.268 49.1992H184.923Z" fill="black"/>
<path fill-rule="evenodd" clip-rule="evenodd" d="M113.527 62.002C113.948 61.9574 114.223 61.8816 114.351 61.7746C114.479 61.6682 114.542 61.3977 114.542 60.9639V55.8232C114.542 55.4011 114.48 55.1305 114.357 55.0101C114.232 54.8901 113.956 54.8148 113.527 54.7842V54.5698H116.642C117.692 54.5698 118.579 54.743 119.306 55.0889C120.615 55.7098 121.269 56.8197 121.269 58.419C121.269 58.9942 121.151 59.5414 120.917 60.0609C120.681 60.5799 120.327 61.0187 119.853 61.3756C119.552 61.6015 119.24 61.7726 118.916 61.8896C118.325 62.1074 117.599 62.2164 116.738 62.2164H113.527V62.002ZM115.855 61.6973C115.947 61.7576 116.137 61.7877 116.427 61.7877C117.33 61.7877 118.073 61.6085 118.657 61.2511C119.552 60.7014 119.999 59.7622 119.999 58.4325C119.999 57.2468 119.631 56.3543 118.894 55.7555C118.261 55.244 117.424 54.9875 116.382 54.9875C116.123 54.9875 115.947 55.0161 115.855 55.0723C115.762 55.129 115.716 55.2535 115.716 55.4448V61.3244C115.716 61.5131 115.762 61.6371 115.855 61.6973Z" fill="black"/>
<path fill-rule="evenodd" clip-rule="evenodd" d="M122.152 62.002C122.577 61.9574 122.853 61.8816 122.978 61.7746C123.104 61.6682 123.168 61.3977 123.168 60.9639V55.8232C123.168 55.4126 123.105 55.1451 122.982 55.0186C122.858 54.8926 122.581 54.8148 122.152 54.7842V54.5698H128.292L128.332 56.2233H128.038C127.94 55.7138 127.793 55.3845 127.598 55.2349C127.402 55.0848 126.966 55.0101 126.288 55.0101H124.715C124.545 55.0101 124.441 55.0377 124.401 55.0924C124.361 55.1466 124.342 55.249 124.342 55.3996V57.9787H126.125C126.618 57.9787 126.932 57.9054 127.067 57.7599C127.203 57.6133 127.312 57.3181 127.395 56.8724H127.665V59.5414H127.395C127.308 59.0941 127.197 58.7974 127.062 58.6529C126.926 58.5078 126.614 58.436 126.125 58.436H124.342V61.2973C124.342 61.5262 124.415 61.6612 124.559 61.7029C124.704 61.7445 125.138 61.7651 125.862 61.7651C126.645 61.7651 127.224 61.6798 127.597 61.5081C127.97 61.3369 128.304 60.9223 128.602 60.2637H128.924L128.399 62.2164H122.152V62.002Z" fill="black"/>
<path fill-rule="evenodd" clip-rule="evenodd" d="M135.026 54.621C135.459 54.745 135.708 54.8072 135.772 54.8072C135.937 54.8072 136.054 54.7751 136.124 54.7109C136.193 54.6471 136.253 54.5553 136.302 54.4348H136.556L136.646 56.8668H136.381C136.144 56.3066 135.899 55.889 135.647 55.6139C135.192 55.1325 134.6 54.8916 133.87 54.8916C133.128 54.8916 132.476 55.1732 131.914 55.7354C131.352 56.2981 131.071 57.2247 131.071 58.5148C131.071 59.5795 131.351 60.4108 131.912 61.0091C132.472 61.607 133.164 61.9061 133.988 61.9061C134.127 61.9061 134.291 61.8931 134.479 61.8665C134.667 61.8404 134.846 61.7992 135.015 61.743C135.29 61.6531 135.461 61.5748 135.529 61.5096C135.596 61.4438 135.63 61.3469 135.63 61.2194V59.3782C135.63 58.932 135.568 58.6539 135.441 58.5444C135.315 58.4345 135.039 58.3662 134.614 58.3401V58.1258H137.56V58.3401C137.274 58.3587 137.084 58.4059 136.99 58.4812C136.832 58.6011 136.753 58.8496 136.753 59.2261V61.5C136.753 61.6356 136.421 61.8163 135.757 62.0422C135.094 62.2676 134.455 62.3805 133.841 62.3805C132.713 62.3805 131.761 62.0512 130.986 61.3926C130.132 60.6668 129.705 59.6924 129.705 58.4696C129.705 57.3939 130.045 56.4718 130.726 55.7048C131.475 54.8579 132.468 54.4348 133.706 54.4348C134.153 54.4348 134.594 54.4965 135.026 54.621Z" fill="black"/>
<path fill-rule="evenodd" clip-rule="evenodd" d="M138.239 62.002C138.665 61.9574 138.94 61.8816 139.066 61.7746C139.192 61.6682 139.255 61.3977 139.255 60.9639V55.8232C139.255 55.4126 139.193 55.1451 139.069 55.0186C138.945 54.8926 138.669 54.8148 138.239 54.7842V54.5698H141.501V54.7842C141.076 54.8068 140.791 54.877 140.646 54.993C140.501 55.1094 140.429 55.3604 140.429 55.7439V61.2973C140.429 61.4243 140.451 61.5257 140.494 61.5989C140.537 61.6717 140.633 61.7184 140.779 61.7365C140.866 61.748 140.958 61.7556 141.053 61.7591C141.15 61.7631 141.329 61.7651 141.593 61.7651C142.621 61.7651 143.316 61.6803 143.678 61.5111C144.039 61.3419 144.39 60.9092 144.729 60.2135H145.023L144.458 62.2164H138.239V62.002Z" fill="black"/>
<path fill-rule="evenodd" clip-rule="evenodd" d="M145.702 62.002C146.173 61.9684 146.477 61.8981 146.616 61.7912C146.756 61.6853 146.825 61.4092 146.825 60.9639V55.8232C146.825 55.3976 146.756 55.124 146.616 55.0015C146.477 54.8795 146.173 54.8068 145.702 54.7842V54.5698H149.122V54.7842C148.651 54.8068 148.347 54.8795 148.208 55.0015C148.069 55.124 147.999 55.3976 147.999 55.8232V60.9639C147.999 61.4092 148.069 61.6853 148.208 61.7912C148.347 61.8981 148.651 61.9684 149.122 62.002V62.2164H145.702V62.002Z" fill="black"/>
<path fill-rule="evenodd" clip-rule="evenodd" d="M153.496 59.8917C153.692 60.4108 153.921 60.8249 154.184 61.1331C154.642 61.6712 155.211 61.9398 155.891 61.9398C156.259 61.9398 156.577 61.8233 156.846 61.5904C157.115 61.357 157.249 61.0317 157.249 60.6141C157.249 60.2376 157.114 59.9108 156.844 59.6322C156.667 59.455 156.295 59.19 155.729 58.8366L154.742 58.2217C154.446 58.0329 154.209 57.8432 154.032 57.6514C153.705 57.2865 153.542 56.8839 153.542 56.4432C153.542 55.8604 153.735 55.3755 154.123 54.9875C154.51 54.6004 155.023 54.4067 155.663 54.4067C155.926 54.4067 156.244 54.4714 156.614 54.6014C156.985 54.7309 157.196 54.7957 157.249 54.7957C157.392 54.7957 157.491 54.7621 157.545 54.6943C157.6 54.6265 157.642 54.5302 157.672 54.4067H157.909L158.163 56.8668H157.887C157.698 56.1259 157.397 55.6084 156.981 55.3147C156.565 55.0216 156.154 54.8745 155.748 54.8745C155.431 54.8745 155.156 54.9679 154.921 55.1541C154.686 55.3408 154.568 55.5994 154.568 55.9302C154.568 56.2273 154.659 56.4813 154.839 56.6917C155.019 56.9065 155.298 57.1304 155.678 57.3638L156.693 57.9898C157.329 58.3808 157.777 58.7402 158.037 59.0675C158.295 59.3988 158.422 59.7898 158.422 60.2411C158.422 60.8475 158.194 61.3535 157.737 61.7591C157.28 62.1657 156.696 62.369 155.985 62.369C155.628 62.369 155.254 62.3012 154.865 62.1657C154.475 62.0306 154.252 61.9624 154.196 61.9624C154.061 61.9624 153.969 62.004 153.922 62.0869C153.875 62.1697 153.844 62.258 153.829 62.3524H153.576L153.231 59.8917H153.496Z" fill="black"/>
<path fill-rule="evenodd" clip-rule="evenodd" d="M159.74 54.5698H166.275L166.337 56.534H166.06C165.925 55.9166 165.753 55.515 165.544 55.3293C165.335 55.1426 164.896 55.0497 164.226 55.0497H163.583V60.9639C163.583 61.4092 163.653 61.6853 163.792 61.7912C163.93 61.8981 164.236 61.9684 164.707 62.002V62.2164H161.337V62.002C161.826 61.9649 162.13 61.8841 162.251 61.7606C162.372 61.6371 162.432 61.3264 162.432 60.8284V55.0497H161.783C161.143 55.0497 160.708 55.1416 160.476 55.3258C160.245 55.5105 160.071 55.9131 159.954 56.534H159.673L159.74 54.5698Z" fill="black"/>
<path fill-rule="evenodd" clip-rule="evenodd" d="M170.357 54.5698V54.7842C169.913 54.8148 169.625 54.8891 169.494 55.0075C169.362 55.126 169.296 55.3976 169.296 55.8232V59.5188C169.296 60.1252 169.379 60.5965 169.544 60.9353C169.853 61.5523 170.438 61.861 171.299 61.861C172.244 61.861 172.878 61.5452 173.201 60.9127C173.382 60.5594 173.473 60.0137 173.473 59.2763V56.2685C173.473 55.6405 173.397 55.246 173.247 55.0863C173.096 54.9262 172.81 54.8258 172.389 54.7842V54.5698H175.063V54.7842C174.616 54.8334 174.324 54.9418 174.186 55.1084C174.048 55.2766 173.98 55.6631 173.98 56.2685V59.2763C173.98 60.0739 173.858 60.6969 173.614 61.1442C173.162 61.9684 172.304 62.38 171.04 62.38C169.791 62.38 168.941 61.9734 168.489 61.1612C168.244 60.7245 168.122 60.1492 168.122 59.4344V55.8232C168.122 55.4011 168.058 55.131 167.928 55.0126C167.798 54.8941 167.515 54.8183 167.078 54.7842V54.5698H170.357Z" fill="black"/>
<path fill-rule="evenodd" clip-rule="evenodd" d="M175.788 62.002C176.209 61.9574 176.484 61.8816 176.612 61.7746C176.74 61.6682 176.803 61.3977 176.803 60.9639V55.8232C176.803 55.4011 176.741 55.1305 176.618 55.0101C176.493 54.8901 176.217 54.8148 175.788 54.7842V54.5698H178.903C179.953 54.5698 180.841 54.743 181.567 55.0889C182.876 55.7098 183.531 56.8197 183.531 58.419C183.531 58.9942 183.413 59.5414 183.178 60.0609C182.943 60.5799 182.588 61.0187 182.114 61.3756C181.813 61.6015 181.501 61.7726 181.177 61.8896C180.586 62.1074 179.86 62.2164 178.999 62.2164H175.788V62.002ZM178.116 61.6973C178.208 61.7576 178.399 61.7877 178.688 61.7877C179.591 61.7877 180.335 61.6085 180.918 61.2511C181.813 60.7014 182.261 59.7622 182.261 58.4325C182.261 57.2468 181.892 56.3543 181.155 55.7555C180.523 55.244 179.685 54.9875 178.643 54.9875C178.384 54.9875 178.208 55.0161 178.116 55.0723C178.024 55.129 177.978 55.2535 177.978 55.4448V61.3244C177.978 61.5131 178.024 61.6371 178.116 61.6973Z" fill="black"/>
<path fill-rule="evenodd" clip-rule="evenodd" d="M184.47 62.002C184.94 61.9684 185.245 61.8981 185.384 61.7912C185.523 61.6853 185.593 61.4092 185.593 60.9639V55.8232C185.593 55.3976 185.523 55.124 185.384 55.0015C185.245 54.8795 184.94 54.8068 184.47 54.7842V54.5698H187.89V54.7842C187.419 54.8068 187.115 54.8795 186.975 55.0015C186.837 55.124 186.766 55.3976 186.766 55.8232V60.9639C186.766 61.4092 186.837 61.6853 186.975 61.7912C187.115 61.8981 187.419 61.9684 187.89 62.002V62.2164H184.47V62.002Z" fill="black"/>
<path fill-rule="evenodd" clip-rule="evenodd" d="M113.527 71.8417C113.948 71.797 114.223 71.7212 114.351 71.6143C114.479 71.5079 114.542 71.2373 114.542 70.8031V65.6624C114.542 65.2408 114.48 64.9702 114.357 64.8497C114.232 64.7297 113.956 64.6545 113.527 64.6243V64.4095H116.642C117.692 64.4095 118.579 64.5827 119.306 64.9285C120.615 65.5495 121.269 66.6593 121.269 68.2586C121.269 68.8339 121.151 69.381 120.917 69.9001C120.681 70.4196 120.327 70.8578 119.853 71.2152C119.552 71.4411 119.24 71.6118 118.916 71.7288C118.325 71.9471 117.599 72.056 116.738 72.056H113.527V71.8417ZM115.855 71.5365C115.947 71.5967 116.137 71.6274 116.427 71.6274C117.33 71.6274 118.073 71.4482 118.657 71.0907C119.552 70.5411 119.999 69.6014 119.999 68.2722C119.999 67.0865 119.631 66.194 118.894 65.5951C118.261 65.0836 117.424 64.8271 116.382 64.8271C116.123 64.8271 115.947 64.8552 115.855 64.912C115.762 64.9687 115.716 65.0927 115.716 65.2844V71.164C115.716 71.3523 115.762 71.4768 115.855 71.5365Z" fill="black"/>
<path fill-rule="evenodd" clip-rule="evenodd" d="M121.701 71.8417C122.126 71.797 122.402 71.7212 122.528 71.6143C122.654 71.5079 122.717 71.2373 122.717 70.8031V65.6624C122.717 65.2523 122.655 64.9842 122.531 64.8583C122.407 64.7323 122.13 64.6545 121.701 64.6243V64.4095H127.841L127.881 66.0635H127.587C127.489 65.5535 127.343 65.2242 127.147 65.0746C126.952 64.9245 126.515 64.8497 125.838 64.8497H124.264C124.094 64.8497 123.99 64.8768 123.95 64.9315C123.911 64.9858 123.891 65.0887 123.891 65.2392V67.8184H125.674C126.167 67.8184 126.481 67.7451 126.617 67.599C126.752 67.4529 126.861 67.1573 126.944 66.712H127.215V69.381H126.944C126.857 68.9333 126.746 68.6376 126.611 68.492C126.475 68.3475 126.163 68.2752 125.674 68.2752H123.891V71.1364C123.891 71.3658 123.963 71.5014 124.108 71.5425C124.253 71.5842 124.688 71.6048 125.411 71.6048C126.195 71.6048 126.773 71.5194 127.146 71.3478C127.519 71.1766 127.854 70.762 128.151 70.1034H128.473L127.948 72.056H121.701V71.8417Z" fill="black"/>
<path fill-rule="evenodd" clip-rule="evenodd" d="M128.657 71.8417C129.082 71.797 129.357 71.7212 129.483 71.6143C129.61 71.5079 129.673 71.2373 129.673 70.8031V65.6624C129.673 65.2523 129.61 64.9842 129.486 64.8583C129.363 64.7323 129.086 64.6545 128.657 64.6243V64.4095H131.919V64.6243C131.493 64.6464 131.208 64.7162 131.064 64.8326C130.919 64.9491 130.847 65.1996 130.847 65.5831V71.1364C130.847 71.2639 130.868 71.3643 130.912 71.4381C130.955 71.5114 131.05 71.5576 131.197 71.5767C131.283 71.5877 131.375 71.5952 131.471 71.5987C131.567 71.6028 131.746 71.6048 132.01 71.6048C133.039 71.6048 133.734 71.5199 134.096 71.3508C134.457 71.1811 134.807 70.7489 135.147 70.0532H135.44L134.875 72.056H128.657V71.8417Z" fill="black"/>
<path fill-rule="evenodd" clip-rule="evenodd" d="M135.612 71.8417C136.037 71.797 136.313 71.7212 136.439 71.6143C136.565 71.5079 136.628 71.2373 136.628 70.8031V65.6624C136.628 65.2523 136.565 64.9842 136.442 64.8583C136.317 64.7323 136.041 64.6545 135.612 64.6243V64.4095H138.874V64.6243C138.448 64.6464 138.164 64.7162 138.019 64.8326C137.874 64.9491 137.802 65.1996 137.802 65.5831V71.1364C137.802 71.2639 137.823 71.3643 137.866 71.4381C137.91 71.5114 138.005 71.5576 138.152 71.5767C138.238 71.5877 138.33 71.5952 138.426 71.5987C138.522 71.6028 138.702 71.6048 138.966 71.6048C139.994 71.6048 140.689 71.5199 141.05 71.3508C141.412 71.1811 141.762 70.7489 142.102 70.0532H142.395L141.83 72.056H135.612V71.8417Z" fill="black"/>
<path fill-rule="evenodd" clip-rule="evenodd" d="M143.669 66.3667C143.396 66.6945 143.099 66.9304 142.775 67.0729L142.668 66.8481C142.931 66.696 143.156 66.5102 143.341 66.2899C143.528 66.0685 143.621 65.8426 143.621 65.6122C143.621 65.5595 143.606 65.5214 143.576 65.4988C143.546 65.4767 143.51 65.4651 143.469 65.4651C143.247 65.4912 143.117 65.5048 143.079 65.5048C142.932 65.5048 142.791 65.4536 142.656 65.3527C142.521 65.2508 142.453 65.1002 142.453 64.9009C142.453 64.7543 142.508 64.6083 142.617 64.4632C142.726 64.3186 142.905 64.2463 143.153 64.2463C143.412 64.2463 143.632 64.3452 143.81 64.543C143.989 64.7413 144.078 64.9873 144.078 65.2809C144.078 65.677 143.942 66.0384 143.669 66.3667Z" fill="black"/>
<path fill-rule="evenodd" clip-rule="evenodd" d="M145.278 72.056V71.8417C145.576 71.8081 145.799 71.6961 145.947 71.5064C146.095 71.3161 146.35 70.7961 146.711 69.9457L149.119 64.274H149.349L152.229 70.8257C152.42 71.2599 152.574 71.5285 152.688 71.6309C152.803 71.7343 152.996 71.804 153.267 71.8417V72.056H150.328V71.8417C150.665 71.8116 150.884 71.7754 150.981 71.7323C151.079 71.6891 151.128 71.5832 151.128 71.4145C151.128 71.3588 151.108 71.2594 151.071 71.1168C151.034 70.9748 150.981 70.8247 150.913 70.6681L150.45 69.5557H147.405C147.105 70.3122 146.926 70.773 146.867 70.9402C146.809 71.1063 146.779 71.2388 146.779 71.3362C146.779 71.531 146.859 71.6655 147.016 71.7403C147.114 71.7855 147.298 71.8191 147.568 71.8417V72.056H145.278ZM150.256 69.0879L148.931 65.9049L147.601 69.0879H150.256Z" fill="black"/>
<path fill-rule="evenodd" clip-rule="evenodd" d="M154.846 65.2679C155.556 64.5867 156.431 64.2463 157.47 64.2463C158.492 64.2463 159.362 64.5827 160.077 65.2563C160.863 65.9972 161.256 66.9906 161.256 68.236C161.256 69.2214 161.006 70.0552 160.506 70.7359C159.965 71.4697 159.198 71.9321 158.206 72.1238C158.672 72.7949 159.236 73.2718 159.898 73.5529C160.269 73.7105 160.771 73.8265 161.402 73.9018V74.1161H160.929C160.305 74.1161 159.751 74.0654 159.268 73.964C158.785 73.8626 158.346 73.7075 157.951 73.5007C157.556 73.2979 157.19 73.0158 156.855 72.6544C156.517 72.2935 156.331 72.1032 156.293 72.0841L156.146 72.0169C155.506 71.7197 155.01 71.3814 154.66 71.0014C154.009 70.2976 153.683 69.376 153.683 68.236C153.683 67.0022 154.071 66.0128 154.846 65.2679ZM155.71 70.9306C156.188 71.5119 156.775 71.8025 157.472 71.8025C158.154 71.8025 158.737 71.5194 159.221 70.9532C159.705 70.387 159.947 69.4809 159.947 68.236C159.947 66.9756 159.702 66.0655 159.212 65.5048C158.722 64.9441 158.143 64.6635 157.472 64.6635C156.779 64.6635 156.193 64.9546 155.713 65.5359C155.233 66.1172 154.992 67.0167 154.992 68.236C154.992 69.4513 155.232 70.3493 155.71 70.9306Z" fill="black"/>
<path fill-rule="evenodd" clip-rule="evenodd" d="M165.006 64.4095V64.6238C164.562 64.6544 164.274 64.7287 164.143 64.8472C164.011 64.9657 163.945 65.2372 163.945 65.6624V69.3584C163.945 69.9643 164.028 70.4362 164.193 70.775C164.502 71.3919 165.087 71.7006 165.948 71.7006C166.893 71.7006 167.527 71.3844 167.85 70.7524C168.031 70.399 168.121 69.8534 168.121 69.1155V66.1082C168.121 65.4797 168.045 65.0861 167.895 64.926C167.745 64.7659 167.459 64.6655 167.038 64.6238V64.4095H169.713V64.6238C169.265 64.673 168.972 64.781 168.835 64.9481C168.698 65.1163 168.629 65.5023 168.629 66.1082V69.1155C168.629 69.9136 168.507 70.5361 168.262 70.9838C167.811 71.8081 166.953 72.2197 165.689 72.2197C164.44 72.2197 163.59 71.8136 163.138 71.0009C162.893 70.5642 162.771 69.9889 162.771 69.2741V65.6624C162.771 65.2408 162.707 64.9707 162.577 64.8522C162.447 64.7338 162.164 64.658 161.728 64.6238V64.4095H165.006Z" fill="black"/>
<path fill-rule="evenodd" clip-rule="evenodd" d="M169.986 71.8417C170.456 71.8081 170.762 71.7378 170.9 71.6309C171.04 71.5244 171.11 71.2489 171.11 70.8031V65.6624C171.11 65.2372 171.04 64.9632 170.9 64.8412C170.762 64.7192 170.456 64.6464 169.986 64.6243V64.4095H173.406V64.6243C172.936 64.6464 172.631 64.7192 172.491 64.8412C172.353 64.9632 172.283 65.2372 172.283 65.6624V70.8031C172.283 71.2489 172.353 71.5244 172.491 71.6309C172.631 71.7378 172.936 71.8081 173.406 71.8417V72.056H169.986V71.8417Z" fill="black"/>
<path fill-rule="evenodd" clip-rule="evenodd" d="M173.663 71.8417C174.088 71.797 174.364 71.7212 174.49 71.6143C174.616 71.5079 174.679 71.2373 174.679 70.8031V65.6624C174.679 65.2523 174.617 64.9842 174.493 64.8583C174.369 64.7323 174.092 64.6545 173.663 64.6243V64.4095H176.925V64.6243C176.5 64.6464 176.215 64.7162 176.07 64.8326C175.925 64.9491 175.853 65.1996 175.853 65.5831V71.1364C175.853 71.2639 175.874 71.3643 175.918 71.4381C175.961 71.5114 176.056 71.5576 176.203 71.5767C176.289 71.5877 176.381 71.5952 176.477 71.5987C176.574 71.6028 176.753 71.6048 177.017 71.6048C178.045 71.6048 178.74 71.5199 179.101 71.3508C179.463 71.1811 179.813 70.7489 180.153 70.0532H180.447L179.882 72.056H173.663V71.8417Z" fill="black"/>
<path fill-rule="evenodd" clip-rule="evenodd" d="M180.66 72.056V71.8417C180.957 71.8081 181.18 71.6961 181.328 71.5064C181.477 71.3161 181.731 70.7961 182.092 69.9457L184.5 64.274H184.73L187.61 70.8257C187.802 71.2599 187.955 71.5285 188.07 71.6309C188.184 71.7343 188.377 71.804 188.648 71.8417V72.056H185.709V71.8417C186.047 71.8116 186.265 71.7754 186.363 71.7323C186.46 71.6891 186.51 71.5832 186.51 71.4145C186.51 71.3588 186.49 71.2594 186.452 71.1168C186.415 70.9748 186.363 70.8247 186.295 70.6681L185.832 69.5557H182.786C182.486 70.3122 182.307 70.773 182.248 70.9402C182.19 71.1063 182.161 71.2388 182.161 71.3362C182.161 71.531 182.24 71.6655 182.397 71.7403C182.495 71.7855 182.679 71.8191 182.95 71.8417V72.056H180.66ZM185.637 69.0879L184.313 65.9049L182.982 69.0879H185.637Z" fill="black"/>
</svg>
